  0
SECTION
  2
HEADER
  9
$ANGBASE
  50
0.0
  9
$ANGDIR
  70
1
  9
$MEASUREMENT
  70
1
  0
ENDSEC
  0
SECTION
  2
TABLES
  0
TABLE
  2
LTYPE
  70
4
  0
LTYPE
  5
40F
  2
CONTINUOUS
  70
0
  3
Solid line
  72
65
  73
0
  40
0.0
  0
LTYPE
  5
410
  2
DASHDOT
 70
0
  3
Dash Dot ____ _ ____ _
 72
65
 73
4
 40
2.0
 49
1.25
 49
-0.25
 49
0.25
 49
-0.25
  0
LTYPE
  5
411
  2
DASHED
 70
0
  3
Dashed __ __ __ __ __
 72
65
 73
2
 40
0.75
 49
0.5
 49
-0.25
  0
LTYPE
  5
43B
  2
DOTTED
 70
0
  3
Dotted .  .  .  .
 72
65
 73
2
 40
0.2
 49
0.0
 49
-0.2
  0
ENDTAB
  0
TABLE
  2
STYLE
  70
4
  0
STYLE
  2
KICAD
  70
0
  40
0
  41
1
  42
1
  50
0
  71
0
  3
isocp.shx
  0
STYLE
  2
KICADB
  70
0
  40
0
  41
1
  42
1
  50
0
  71
0
  3
isocp.shx
  0
STYLE
  2
KICADI
  70
0
  40
0
  41
1
  42
1
  50
15
  71
0
  3
isocp.shx
  0
STYLE
  2
KICADBI
  70
0
  40
0
  41
1
  42
1
  50
15
  71
0
  3
isocp.shx
  0
ENDTAB
  0
TABLE
  2
LAYER
  70
1
  0
LAYER
  2
BLACK
  70
0
  62
7
  6
CONTINUOUS
  0
ENDTAB
  0
ENDSEC
  0
SECTION
  2
ENTITIES
0
LINE
8
BLACK
6
CONTINUOUS
10
67.7236
20
-88.7536
11
67.7236
21
-101.754
0
LINE
8
BLACK
6
CONTINUOUS
10
136.362
20
-87.2536
11
134.134
21
-87.2536
0
LINE
8
BLACK
6
CONTINUOUS
10
170.754
20
-102.254
11
170.964
21
-102.254
0
LINE
8
BLACK
6
CONTINUOUS
10
136.862
20
-88.2536
11
136.862
21
-87.7536
0
ARC
8
BLACK
10
99.9036
20
-101.754
40
0.5
50
-90
51
-0
0
LINE
8
BLACK
6
CONTINUOUS
10
137.264
20
-88.2536
11
136.862
21
-88.2536
0
LINE
8
BLACK
6
CONTINUOUS
10
162.026
20
-87.7536
11
162.026
21
-88.2536
0
ARC
8
BLACK
10
209.594
20
-87.7536
40
0.5
50
-0
51
90
0
ARC
8
BLACK
10
105.584
20
-88.7536
40
0.5
50
90
51
180
0
LINE
8
BLACK
6
CONTINUOUS
10
88.7936
20
-87.7536
11
88.7936
21
-88.2536
0
ARC
8
BLACK
10
249.344
20
-88.7536
40
0.5
50
-0
51
90
0
LINE
8
BLACK
6
CONTINUOUS
10
43.8636
20
-88.2536
11
30.8636
21
-88.2536
0
ARC
8
BLACK
10
89.2936
20
-87.7536
40
0.5
50
90
51
180
0
LINE
8
BLACK
6
CONTINUOUS
10
217.664
20
-102.254
11
230.664
21
-102.254
0
LINE
8
BLACK
6
CONTINUOUS
10
249.844
20
-101.754
11
249.844
21
-88.7536
0
ARC
8
BLACK
10
255.024
20
-88.7536
40
0.5
50
90
51
180
0
ARC
8
BLACK
10
29.5835
20
-103.188
40
1.5875
50
180
51
270
0
LINE
8
BLACK
6
CONTINUOUS
10
29.5835
20
-28.575
11
269.296
21
-28.575
0
LINE
8
BLACK
6
CONTINUOUS
10
133.394
20
-87.2536
11
130.362
21
-87.2536
0
LINE
8
BLACK
6
CONTINUOUS
10
202.354
20
-88.2536
11
198.984
21
-88.2536
0
ARC
8
BLACK
10
142.944
20
-88.7536
40
0.5
50
90
51
180
0
LINE
8
BLACK
6
CONTINUOUS
10
118.584
20
-88.2536
11
114.924
21
-88.2536
0
LINE
8
BLACK
6
CONTINUOUS
10
100.404
20
-101.754
11
100.404
21
-88.7536
0
LINE
8
BLACK
6
CONTINUOUS
10
236.344
20
-102.254
11
249.344
21
-102.254
0
ARC
8
BLACK
10
112.486
20
-87.7536
40
0.5
50
-0
51
90
0
LINE
8
BLACK
6
CONTINUOUS
10
124.264
20
-102.254
11
127.394
21
-102.254
0
LINE
8
BLACK
6
CONTINUOUS
10
171.494
20
-87.2536
11
170.754
21
-87.2536
0
ARC
8
BLACK
10
62.5436
20
-101.754
40
0.5
50
-90
51
-0
0
LINE
8
BLACK
6
CONTINUOUS
10
95.2936
20
-102.254
11
96.0336
21
-102.254
0
LINE
8
BLACK
6
CONTINUOUS
10
192.402
20
-102.254
11
193.304
21
-102.254
0
ARC
8
BLACK
10
193.304
20
-101.754
40
0.5
50
-90
51
-0
0
ARC
8
BLACK
10
193.304
20
-88.7536
40
0.5
50
-0
51
90
0
ARC
8
BLACK
10
68.2236
20
-101.754
40
0.5
50
180
51
270
0
LINE
8
BLACK
6
CONTINUOUS
10
170.964
20
-102.254
11
171.494
21
-102.254
0
LINE
8
BLACK
6
CONTINUOUS
10
183.964
20
-88.2536
11
180.304
21
-88.2536
0
LINE
8
BLACK
6
CONTINUOUS
10
124.264
20
-88.2536
11
118.584
21
-88.2536
0
LINE
8
BLACK
6
CONTINUOUS
10
161.124
20
-88.7536
11
161.124
21
-101.754
0
LINE
8
BLACK
6
CONTINUOUS
10
212.484
20
-101.754
11
212.484
21
-88.7536
0
LINE
8
BLACK
6
CONTINUOUS
10
133.394
20
-102.254
11
134.134
21
-102.254
0
LINE
8
BLACK
6
CONTINUOUS
10
211.984
20
-88.2536
11
210.094
21
-88.2536
0
ARC
8
BLACK
10
249.344
20
-101.754
40
0.5
50
-90
51
-0
0
ARC
8
BLACK
10
236.344
20
-88.7536
40
0.5
50
90
51
180
0
LINE
8
BLACK
6
CONTINUOUS
10
156.444
20
-101.754
11
156.444
21
-88.7536
0
LINE
8
BLACK
6
CONTINUOUS
10
95.2936
20
-87.2536
11
90.0336
21
-87.2536
0
LINE
8
BLACK
6
CONTINUOUS
10
128.134
20
-87.2536
11
127.394
21
-87.2536
0
ARC
8
BLACK
10
192.402
20
-87.7536
40
0.5
50
-0
51
90
0
ARC
8
BLACK
10
211.984
20
-101.754
40
0.5
50
-90
51
-0
0
LINE
8
BLACK
6
CONTINUOUS
10
112.486
20
-87.2536
11
106.486
21
-87.2536
0
LINE
8
BLACK
6
CONTINUOUS
10
254.524
20
-88.7536
11
254.524
21
-101.754
0
LINE
8
BLACK
6
CONTINUOUS
10
155.944
20
-88.2536
11
142.944
21
-88.2536
0
LINE
8
BLACK
6
CONTINUOUS
10
168.526
20
-87.2536
11
165.494
21
-87.2536
0
LINE
8
BLACK
6
CONTINUOUS
10
183.964
20
-102.254
11
186.402
21
-102.254
0
ARC
8
BLACK
10
268.024
20
-88.7536
40
0.5
50
-0
51
90
0
ARC
8
BLACK
10
127.394
20
-87.7536
40
0.5
50
90
51
180
0
LINE
8
BLACK
6
CONTINUOUS
10
217.164
20
-88.7536
11
217.164
21
-101.754
0
LINE
8
BLACK
6
CONTINUOUS
10
174.624
20
-88.2536
11
171.994
21
-88.2536
0
LINE
8
BLACK
6
CONTINUOUS
10
249.344
20
-88.2536
11
236.344
21
-88.2536
0
LINE
8
BLACK
6
CONTINUOUS
10
171.494
20
-102.254
11
174.624
21
-102.254
0
ARC
8
BLACK
10
230.664
20
-88.7536
40
0.5
50
-0
51
90
0
LINE
8
BLACK
6
CONTINUOUS
10
86.4036
20
-88.7536
11
86.4036
21
-101.754
0
ARC
8
BLACK
10
162.526
20
-87.7536
40
0.5
50
90
51
180
0
ARC
8
BLACK
10
155.944
20
-88.7536
40
0.5
50
-0
51
90
0
LINE
8
BLACK
6
CONTINUOUS
10
106.486
20
-102.254
11
112.486
21
-102.254
0
LINE
8
BLACK
6
CONTINUOUS
10
127.394
20
-102.254
11
127.924
21
-102.254
0
LINE
8
BLACK
6
CONTINUOUS
10
130.362
20
-102.254
11
133.394
21
-102.254
0
LINE
8
BLACK
6
CONTINUOUS
10
170.754
20
-87.2536
11
168.526
21
-87.2536
0
ARC
8
BLACK
10
106.486
20
-87.7536
40
0.5
50
90
51
180
0
LINE
8
BLACK
6
CONTINUOUS
10
112.486
20
-102.254
11
114.924
21
-102.254
0
LINE
8
BLACK
6
CONTINUOUS
10
30.3636
20
-88.7536
11
30.3636
21
-101.754
0
ARC
8
BLACK
10
136.362
20
-87.7536
40
0.5
50
-0
51
90
0
ARC
8
BLACK
10
236.344
20
-101.754
40
0.5
50
180
51
270
0
LINE
8
BLACK
6
CONTINUOUS
10
165.494
20
-87.2536
11
164.754
21
-87.2536
0
LINE
8
BLACK
6
CONTINUOUS
10
255.024
20
-102.254
11
268.024
21
-102.254
0
LINE
8
BLACK
6
CONTINUOUS
10
134.134
20
-87.2536
11
133.394
21
-87.2536
0
LINE
8
BLACK
6
CONTINUOUS
10
193.304
20
-88.2536
11
192.902
21
-88.2536
0
ARC
8
BLACK
10
43.8636
20
-88.7536
40
0.5
50
-0
51
90
0
LINE
8
BLACK
6
CONTINUOUS
10
63.0436
20
-101.754
11
63.0436
21
-88.7536
0
ARC
8
BLACK
10
155.944
20
-101.754
40
0.5
50
-90
51
-0
0
LINE
8
BLACK
6
CONTINUOUS
10
81.7236
20
-101.754
11
81.7236
21
-88.7536
0
LINE
8
BLACK
6
CONTINUOUS
10
165.494
20
-102.254
11
168.526
21
-102.254
0
LINE
8
BLACK
6
CONTINUOUS
10
112.986
20
-88.2536
11
112.986
21
-87.7536
0
ARC
8
BLACK
10
269.296
20
-103.188
40
1.5875
50
-90
51
-0
0
LINE
8
BLACK
6
CONTINUOUS
10
49.0436
20
-88.7536
11
49.0436
21
-101.754
0
ARC
8
BLACK
10
198.984
20
-88.7536
40
0.5
50
90
51
180
0
LINE
8
BLACK
6
CONTINUOUS
10
198.484
20
-88.7536
11
198.484
21
-101.754
0
ARC
8
BLACK
10
217.664
20
-101.754
40
0.5
50
180
51
270
0
LINE
8
BLACK
6
CONTINUOUS
10
118.584
20
-102.254
11
124.264
21
-102.254
0
ARC
8
BLACK
10
269.296
20
-30.1625
40
1.5875
50
-0
51
90
0
LINE
8
BLACK
6
CONTINUOUS
10
114.924
20
-88.2536
11
112.986
21
-88.2536
0
LINE
8
BLACK
6
CONTINUOUS
10
208.854
20
-102.254
11
209.594
21
-102.254
0
LINE
8
BLACK
6
CONTINUOUS
10
198.984
20
-102.254
11
202.854
21
-102.254
0
LINE
8
BLACK
6
CONTINUOUS
10
185.902
20
-87.7536
11
185.902
21
-88.2536
0
LINE
8
BLACK
6
CONTINUOUS
10
203.594
20
-87.2536
11
202.854
21
-87.2536
0
LINE
8
BLACK
6
CONTINUOUS
10
96.5336
20
-88.2536
11
96.5336
21
-87.7536
0
LINE
8
BLACK
6
CONTINUOUS
10
128.134
20
-102.254
11
130.362
21
-102.254
0
LINE
8
BLACK
6
CONTINUOUS
10
90.0336
20
-87.2536
11
89.2936
21
-87.2536
0
LINE
8
BLACK
6
CONTINUOUS
10
134.134
20
-102.254
11
136.362
21
-102.254
0
ARC
8
BLACK
10
29.5835
20
-30.1625
40
1.5875
50
90
51
180
0
LINE
8
BLACK
6
CONTINUOUS
10
230.664
20
-88.2536
11
217.664
21
-88.2536
0
LINE
8
BLACK
6
CONTINUOUS
10
186.402
20
-102.254
11
192.402
21
-102.254
0
LINE
8
BLACK
6
CONTINUOUS
10
174.624
20
-102.254
11
180.304
21
-102.254
0
ARC
8
BLACK
10
198.984
20
-101.754
40
0.5
50
180
51
270
0
LINE
8
BLACK
6
CONTINUOUS
10
88.7936
20
-88.2536
11
86.9036
21
-88.2536
0
ARC
8
BLACK
10
255.024
20
-101.754
40
0.5
50
180
51
270
0
ARC
8
BLACK
10
202.854
20
-87.7536
40
0.5
50
90
51
180
0
LINE
8
BLACK
6
CONTINUOUS
10
30.8636
20
-102.254
11
43.8636
21
-102.254
0
LINE
8
BLACK
6
CONTINUOUS
10
235.844
20
-88.7536
11
235.844
21
-101.754
0
LINE
8
BLACK
6
CONTINUOUS
10
202.354
20
-87.7536
11
202.354
21
-88.2536
0
LINE
8
BLACK
6
CONTINUOUS
10
180.304
20
-88.2536
11
174.624
21
-88.2536
0
LINE
8
BLACK
6
CONTINUOUS
10
136.362
20
-102.254
11
137.264
21
-102.254
0
LINE
8
BLACK
6
CONTINUOUS
10
127.924
20
-102.254
11
128.134
21
-102.254
0
ARC
8
BLACK
10
137.264
20
-101.754
40
0.5
50
-90
51
-0
0
LINE
8
BLACK
6
CONTINUOUS
10
168.526
20
-102.254
11
170.754
21
-102.254
0
LINE
8
BLACK
6
CONTINUOUS
10
27.996
20
-103.188
11
27.996
21
-30.1625
0
LINE
8
BLACK
6
CONTINUOUS
10
192.402
20
-87.2536
11
186.402
21
-87.2536
0
ARC
8
BLACK
10
43.8636
20
-101.754
40
0.5
50
-90
51
-0
0
LINE
8
BLACK
6
CONTINUOUS
10
130.362
20
-87.2536
11
128.134
21
-87.2536
0
LINE
8
BLACK
6
CONTINUOUS
10
62.5436
20
-88.2536
11
49.5436
21
-88.2536
0
ARC
8
BLACK
10
68.2236
20
-88.7536
40
0.5
50
90
51
180
0
ARC
8
BLACK
10
171.494
20
-87.7536
40
0.5
50
-0
51
90
0
LINE
8
BLACK
6
CONTINUOUS
10
105.986
20
-88.2536
11
105.584
21
-88.2536
0
ARC
8
BLACK
10
211.984
20
-88.7536
40
0.5
50
-0
51
90
0
LINE
8
BLACK
6
CONTINUOUS
10
81.2236
20
-88.2536
11
68.2236
21
-88.2536
0
ARC
8
BLACK
10
230.664
20
-101.754
40
0.5
50
-90
51
-0
0
LINE
8
BLACK
6
CONTINUOUS
10
270.883
20
-30.1625
11
270.883
21
-103.188
0
LINE
8
BLACK
6
CONTINUOUS
10
99.9036
20
-88.2536
11
96.5336
21
-88.2536
0
ARC
8
BLACK
10
49.5436
20
-101.754
40
0.5
50
180
51
270
0
ARC
8
BLACK
10
81.2236
20
-101.754
40
0.5
50
-90
51
-0
0
LINE
8
BLACK
6
CONTINUOUS
10
49.5436
20
-102.254
11
62.5436
21
-102.254
0
LINE
8
BLACK
6
CONTINUOUS
10
162.026
20
-88.2536
11
161.624
21
-88.2536
0
LINE
8
BLACK
6
CONTINUOUS
10
44.3636
20
-101.754
11
44.3636
21
-88.7536
0
LINE
8
BLACK
6
CONTINUOUS
10
105.584
20
-102.254
11
106.486
21
-102.254
0
ARC
8
BLACK
10
30.8636
20
-101.754
40
0.5
50
180
51
270
0
ARC
8
BLACK
10
96.0336
20
-87.7536
40
0.5
50
-0
51
90
0
ARC
8
BLACK
10
30.8636
20
-88.7536
40
0.5
50
90
51
180
0
LINE
8
BLACK
6
CONTINUOUS
10
105.084
20
-88.7536
11
105.084
21
-101.754
0
ARC
8
BLACK
10
62.5436
20
-88.7536
40
0.5
50
-0
51
90
0
LINE
8
BLACK
6
CONTINUOUS
10
114.924
20
-102.254
11
118.584
21
-102.254
0
LINE
8
BLACK
6
CONTINUOUS
10
268.524
20
-101.754
11
268.524
21
-88.7536
0
ARC
8
BLACK
10
142.944
20
-101.754
40
0.5
50
180
51
270
0
LINE
8
BLACK
6
CONTINUOUS
10
180.304
20
-102.254
11
183.964
21
-102.254
0
LINE
8
BLACK
6
CONTINUOUS
10
164.754
20
-102.254
11
165.494
21
-102.254
0
ARC
8
BLACK
10
81.2236
20
-88.7536
40
0.5
50
-0
51
90
0
LINE
8
BLACK
6
CONTINUOUS
10
137.764
20
-101.754
11
137.764
21
-88.7536
0
LINE
8
BLACK
6
CONTINUOUS
10
162.526
20
-102.254
11
164.754
21
-102.254
0
LINE
8
BLACK
6
CONTINUOUS
10
208.854
20
-87.2536
11
203.594
21
-87.2536
0
LINE
8
BLACK
6
CONTINUOUS
10
203.594
20
-102.254
11
208.854
21
-102.254
0
ARC
8
BLACK
10
161.624
20
-88.7536
40
0.5
50
90
51
180
0
LINE
8
BLACK
6
CONTINUOUS
10
105.986
20
-87.7536
11
105.986
21
-88.2536
0
LINE
8
BLACK
6
CONTINUOUS
10
161.624
20
-102.254
11
162.526
21
-102.254
0
LINE
8
BLACK
6
CONTINUOUS
10
89.2936
20
-102.254
11
90.0336
21
-102.254
0
LINE
8
BLACK
6
CONTINUOUS
10
192.902
20
-88.2536
11
192.902
21
-87.7536
0
ARC
8
BLACK
10
186.402
20
-87.7536
40
0.5
50
90
51
180
0
LINE
8
BLACK
6
CONTINUOUS
10
209.594
20
-87.2536
11
208.854
21
-87.2536
0
LINE
8
BLACK
6
CONTINUOUS
10
142.944
20
-102.254
11
155.944
21
-102.254
0
LINE
8
BLACK
6
CONTINUOUS
10
96.0336
20
-87.2536
11
95.2936
21
-87.2536
0
LINE
8
BLACK
6
CONTINUOUS
10
185.902
20
-88.2536
11
183.964
21
-88.2536
0
LINE
8
BLACK
6
CONTINUOUS
10
171.994
20
-88.2536
11
171.994
21
-87.7536
0
LINE
8
BLACK
6
CONTINUOUS
10
269.296
20
-104.775
11
29.5835
21
-104.775
0
LINE
8
BLACK
6
CONTINUOUS
10
126.894
20
-87.7536
11
126.894
21
-88.2536
0
LINE
8
BLACK
6
CONTINUOUS
10
86.9036
20
-102.254
11
89.2936
21
-102.254
0
LINE
8
BLACK
6
CONTINUOUS
10
126.894
20
-88.2536
11
124.264
21
-88.2536
0
LINE
8
BLACK
6
CONTINUOUS
10
193.804
20
-101.754
11
193.804
21
-88.7536
0
ARC
8
BLACK
10
217.664
20
-88.7536
40
0.5
50
90
51
180
0
ARC
8
BLACK
10
49.5436
20
-88.7536
40
0.5
50
90
51
180
0
ARC
8
BLACK
10
86.9036
20
-88.7536
40
0.5
50
90
51
180
0
LINE
8
BLACK
6
CONTINUOUS
10
210.094
20
-88.2536
11
210.094
21
-87.7536
0
ARC
8
BLACK
10
268.024
20
-101.754
40
0.5
50
-90
51
-0
0
LINE
8
BLACK
6
CONTINUOUS
10
90.0336
20
-102.254
11
95.2936
21
-102.254
0
ARC
8
BLACK
10
161.624
20
-101.754
40
0.5
50
180
51
270
0
ARC
8
BLACK
10
86.9036
20
-101.754
40
0.5
50
180
51
270
0
ARC
8
BLACK
10
137.264
20
-88.7536
40
0.5
50
-0
51
90
0
LINE
8
BLACK
6
CONTINUOUS
10
209.594
20
-102.254
11
211.984
21
-102.254
0
LINE
8
BLACK
6
CONTINUOUS
10
142.444
20
-88.7536
11
142.444
21
-101.754
0
ARC
8
BLACK
10
99.9036
20
-88.7536
40
0.5
50
-0
51
90
0
LINE
8
BLACK
6
CONTINUOUS
10
202.854
20
-102.254
11
203.594
21
-102.254
0
LINE
8
BLACK
6
CONTINUOUS
10
68.2236
20
-102.254
11
81.2236
21
-102.254
0
LINE
8
BLACK
6
CONTINUOUS
10
231.164
20
-101.754
11
231.164
21
-88.7536
0
LINE
8
BLACK
6
CONTINUOUS
10
164.754
20
-87.2536
11
162.526
21
-87.2536
0
ARC
8
BLACK
10
105.584
20
-101.754
40
0.5
50
180
51
270
0
LINE
8
BLACK
6
CONTINUOUS
10
268.024
20
-88.2536
11
255.024
21
-88.2536
0
LINE
8
BLACK
6
CONTINUOUS
10
96.0336
20
-102.254
11
99.9036
21
-102.254
0
LINE
8
BLACK
6
CONTINUOUS
10
119.08
20
-45.1
11
119.08
21
-31.1
0
LINE
8
BLACK
6
CONTINUOUS
10
105.08
20
-45.1
11
119.08
21
-45.1
0
LINE
8
BLACK
6
CONTINUOUS
10
105.08
20
-31.1
11
105.08
21
-45.1
0
LINE
8
BLACK
6
CONTINUOUS
10
119.08
20
-31.1
11
105.08
21
-31.1
0
LINE
8
BLACK
6
CONTINUOUS
10
44.36
20
-45.1
11
44.36
21
-31.1
0
LINE
8
BLACK
6
CONTINUOUS
10
30.36
20
-45.1
11
44.36
21
-45.1
0
LINE
8
BLACK
6
CONTINUOUS
10
44.36
20
-31.1
11
30.36
21
-31.1
0
LINE
8
BLACK
6
CONTINUOUS
10
30.36
20
-31.1
11
30.36
21
-45.1
0
LINE
8
BLACK
6
CONTINUOUS
10
179.8
20
-69.2
11
179.8
21
-83.2
0
LINE
8
BLACK
6
CONTINUOUS
10
193.8
20
-69.2
11
179.8
21
-69.2
0
LINE
8
BLACK
6
CONTINUOUS
10
179.8
20
-83.2
11
193.8
21
-83.2
0
LINE
8
BLACK
6
CONTINUOUS
10
193.8
20
-83.2
11
193.8
21
-69.2
0
LINE
8
BLACK
6
CONTINUOUS
10
212.48
20
-83.2
11
212.48
21
-69.2
0
LINE
8
BLACK
6
CONTINUOUS
10
212.48
20
-69.2
11
198.48
21
-69.2
0
LINE
8
BLACK
6
CONTINUOUS
10
198.48
20
-83.2
11
212.48
21
-83.2
0
LINE
8
BLACK
6
CONTINUOUS
10
198.48
20
-69.2
11
198.48
21
-83.2
0
LINE
8
BLACK
6
CONTINUOUS
10
67.72
20
-83.2
11
81.72
21
-83.2
0
LINE
8
BLACK
6
CONTINUOUS
10
81.72
20
-83.2
11
81.72
21
-69.2
0
LINE
8
BLACK
6
CONTINUOUS
10
67.72
20
-69.2
11
67.72
21
-83.2
0
LINE
8
BLACK
6
CONTINUOUS
10
81.72
20
-69.2
11
67.72
21
-69.2
0
LINE
8
BLACK
6
CONTINUOUS
10
49.04
20
-64.15
11
63.04
21
-64.15
0
LINE
8
BLACK
6
CONTINUOUS
10
63.04
20
-64.15
11
63.04
21
-50.15
0
LINE
8
BLACK
6
CONTINUOUS
10
49.04
20
-50.15
11
49.04
21
-64.15
0
LINE
8
BLACK
6
CONTINUOUS
10
63.04
20
-50.15
11
49.04
21
-50.15
0
LINE
8
BLACK
6
CONTINUOUS
10
193.8
20
-64.15
11
193.8
21
-50.15
0
LINE
8
BLACK
6
CONTINUOUS
10
179.8
20
-64.15
11
193.8
21
-64.15
0
LINE
8
BLACK
6
CONTINUOUS
10
179.8
20
-50.15
11
179.8
21
-64.15
0
LINE
8
BLACK
6
CONTINUOUS
10
193.8
20
-50.15
11
179.8
21
-50.15
0
LINE
8
BLACK
6
CONTINUOUS
10
217.16
20
-45.1
11
231.16
21
-45.1
0
LINE
8
BLACK
6
CONTINUOUS
10
231.16
20
-31.1
11
217.16
21
-31.1
0
LINE
8
BLACK
6
CONTINUOUS
10
217.16
20
-31.1
11
217.16
21
-45.1
0
LINE
8
BLACK
6
CONTINUOUS
10
231.16
20
-45.1
11
231.16
21
-31.1
0
LINE
8
BLACK
6
CONTINUOUS
10
156.44
20
-45.1
11
156.44
21
-31.1
0
LINE
8
BLACK
6
CONTINUOUS
10
142.44
20
-31.1
11
142.44
21
-45.1
0
LINE
8
BLACK
6
CONTINUOUS
10
156.44
20
-31.1
11
142.44
21
-31.1
0
LINE
8
BLACK
6
CONTINUOUS
10
142.44
20
-45.1
11
156.44
21
-45.1
0
LINE
8
BLACK
6
CONTINUOUS
10
137.76
20
-31.1
11
123.76
21
-31.1
0
LINE
8
BLACK
6
CONTINUOUS
10
123.76
20
-45.1
11
137.76
21
-45.1
0
LINE
8
BLACK
6
CONTINUOUS
10
123.76
20
-31.1
11
123.76
21
-45.1
0
LINE
8
BLACK
6
CONTINUOUS
10
137.76
20
-45.1
11
137.76
21
-31.1
0
LINE
8
BLACK
6
CONTINUOUS
10
30.36
20
-83.2
11
44.36
21
-83.2
0
LINE
8
BLACK
6
CONTINUOUS
10
44.36
20
-83.2
11
44.36
21
-69.2
0
LINE
8
BLACK
6
CONTINUOUS
10
30.36
20
-69.2
11
30.36
21
-83.2
0
LINE
8
BLACK
6
CONTINUOUS
10
44.36
20
-69.2
11
30.36
21
-69.2
0
LINE
8
BLACK
6
CONTINUOUS
10
49.04
20
-45.1
11
63.04
21
-45.1
0
LINE
8
BLACK
6
CONTINUOUS
10
49.04
20
-31.1
11
49.04
21
-45.1
0
LINE
8
BLACK
6
CONTINUOUS
10
63.04
20
-31.1
11
49.04
21
-31.1
0
LINE
8
BLACK
6
CONTINUOUS
10
63.04
20
-45.1
11
63.04
21
-31.1
0
LINE
8
BLACK
6
CONTINUOUS
10
137.76
20
-64.15
11
137.76
21
-50.15
0
LINE
8
BLACK
6
CONTINUOUS
10
137.76
20
-50.15
11
123.76
21
-50.15
0
LINE
8
BLACK
6
CONTINUOUS
10
123.76
20
-64.15
11
137.76
21
-64.15
0
LINE
8
BLACK
6
CONTINUOUS
10
123.76
20
-50.15
11
123.76
21
-64.15
0
LINE
8
BLACK
6
CONTINUOUS
10
231.16
20
-64.15
11
231.16
21
-50.15
0
LINE
8
BLACK
6
CONTINUOUS
10
231.16
20
-50.15
11
217.16
21
-50.15
0
LINE
8
BLACK
6
CONTINUOUS
10
217.16
20
-64.15
11
231.16
21
-64.15
0
LINE
8
BLACK
6
CONTINUOUS
10
217.16
20
-50.15
11
217.16
21
-64.15
0
LINE
8
BLACK
6
CONTINUOUS
10
123.76
20
-83.2
11
137.76
21
-83.2
0
LINE
8
BLACK
6
CONTINUOUS
10
137.76
20
-83.2
11
137.76
21
-69.2
0
LINE
8
BLACK
6
CONTINUOUS
10
137.76
20
-69.2
11
123.76
21
-69.2
0
LINE
8
BLACK
6
CONTINUOUS
10
123.76
20
-69.2
11
123.76
21
-83.2
0
LINE
8
BLACK
6
CONTINUOUS
10
268.52
20
-69.2
11
254.52
21
-69.2
0
LINE
8
BLACK
6
CONTINUOUS
10
268.52
20
-83.2
11
268.52
21
-69.2
0
LINE
8
BLACK
6
CONTINUOUS
10
254.52
20
-83.2
11
268.52
21
-83.2
0
LINE
8
BLACK
6
CONTINUOUS
10
254.52
20
-69.2
11
254.52
21
-83.2
0
LINE
8
BLACK
6
CONTINUOUS
10
175.12
20
-50.15
11
161.12
21
-50.15
0
LINE
8
BLACK
6
CONTINUOUS
10
161.12
20
-64.15
11
175.12
21
-64.15
0
LINE
8
BLACK
6
CONTINUOUS
10
161.12
20
-50.15
11
161.12
21
-64.15
0
LINE
8
BLACK
6
CONTINUOUS
10
175.12
20
-64.15
11
175.12
21
-50.15
0
LINE
8
BLACK
6
CONTINUOUS
10
249.84
20
-45.1
11
249.84
21
-31.1
0
LINE
8
BLACK
6
CONTINUOUS
10
235.84
20
-31.1
11
235.84
21
-45.1
0
LINE
8
BLACK
6
CONTINUOUS
10
235.84
20
-45.1
11
249.84
21
-45.1
0
LINE
8
BLACK
6
CONTINUOUS
10
249.84
20
-31.1
11
235.84
21
-31.1
0
LINE
8
BLACK
6
CONTINUOUS
10
142.44
20
-83.2
11
156.44
21
-83.2
0
LINE
8
BLACK
6
CONTINUOUS
10
156.44
20
-83.2
11
156.44
21
-69.2
0
LINE
8
BLACK
6
CONTINUOUS
10
156.44
20
-69.2
11
142.44
21
-69.2
0
LINE
8
BLACK
6
CONTINUOUS
10
142.44
20
-69.2
11
142.44
21
-83.2
0
LINE
8
BLACK
6
CONTINUOUS
10
198.48
20
-50.15
11
198.48
21
-64.15
0
LINE
8
BLACK
6
CONTINUOUS
10
198.48
20
-64.15
11
212.48
21
-64.15
0
LINE
8
BLACK
6
CONTINUOUS
10
212.48
20
-50.15
11
198.48
21
-50.15
0
LINE
8
BLACK
6
CONTINUOUS
10
212.48
20
-64.15
11
212.48
21
-50.15
0
LINE
8
BLACK
6
CONTINUOUS
10
86.4
20
-50.15
11
86.4
21
-64.15
0
LINE
8
BLACK
6
CONTINUOUS
10
100.4
20
-50.15
11
86.4
21
-50.15
0
LINE
8
BLACK
6
CONTINUOUS
10
100.4
20
-64.15
11
100.4
21
-50.15
0
LINE
8
BLACK
6
CONTINUOUS
10
86.4
20
-64.15
11
100.4
21
-64.15
0
LINE
8
BLACK
6
CONTINUOUS
10
86.4
20
-83.2
11
100.4
21
-83.2
0
LINE
8
BLACK
6
CONTINUOUS
10
86.4
20
-69.2
11
86.4
21
-83.2
0
LINE
8
BLACK
6
CONTINUOUS
10
100.4
20
-83.2
11
100.4
21
-69.2
0
LINE
8
BLACK
6
CONTINUOUS
10
100.4
20
-69.2
11
86.4
21
-69.2
0
LINE
8
BLACK
6
CONTINUOUS
10
179.8
20
-45.1
11
193.8
21
-45.1
0
LINE
8
BLACK
6
CONTINUOUS
10
193.8
20
-45.1
11
193.8
21
-31.1
0
LINE
8
BLACK
6
CONTINUOUS
10
179.8
20
-31.1
11
179.8
21
-45.1
0
LINE
8
BLACK
6
CONTINUOUS
10
193.8
20
-31.1
11
179.8
21
-31.1
0
LINE
8
BLACK
6
CONTINUOUS
10
212.48
20
-31.1
11
198.48
21
-31.1
0
LINE
8
BLACK
6
CONTINUOUS
10
198.48
20
-31.1
11
198.48
21
-45.1
0
LINE
8
BLACK
6
CONTINUOUS
10
212.48
20
-45.1
11
212.48
21
-31.1
0
LINE
8
BLACK
6
CONTINUOUS
10
198.48
20
-45.1
11
212.48
21
-45.1
0
LINE
8
BLACK
6
CONTINUOUS
10
161.12
20
-31.1
11
161.12
21
-45.1
0
LINE
8
BLACK
6
CONTINUOUS
10
175.12
20
-45.1
11
175.12
21
-31.1
0
LINE
8
BLACK
6
CONTINUOUS
10
175.12
20
-31.1
11
161.12
21
-31.1
0
LINE
8
BLACK
6
CONTINUOUS
10
161.12
20
-45.1
11
175.12
21
-45.1
0
LINE
8
BLACK
6
CONTINUOUS
10
81.72
20
-45.1
11
81.72
21
-31.1
0
LINE
8
BLACK
6
CONTINUOUS
10
81.72
20
-31.1
11
67.72
21
-31.1
0
LINE
8
BLACK
6
CONTINUOUS
10
67.72
20
-31.1
11
67.72
21
-45.1
0
LINE
8
BLACK
6
CONTINUOUS
10
67.72
20
-45.1
11
81.72
21
-45.1
0
LINE
8
BLACK
6
CONTINUOUS
10
142.44
20
-64.15
11
156.44
21
-64.15
0
LINE
8
BLACK
6
CONTINUOUS
10
142.44
20
-50.15
11
142.44
21
-64.15
0
LINE
8
BLACK
6
CONTINUOUS
10
156.44
20
-50.15
11
142.44
21
-50.15
0
LINE
8
BLACK
6
CONTINUOUS
10
156.44
20
-64.15
11
156.44
21
-50.15
0
LINE
8
BLACK
6
CONTINUOUS
10
105.08
20
-83.2
11
119.08
21
-83.2
0
LINE
8
BLACK
6
CONTINUOUS
10
119.08
20
-83.2
11
119.08
21
-69.2
0
LINE
8
BLACK
6
CONTINUOUS
10
119.08
20
-69.2
11
105.08
21
-69.2
0
LINE
8
BLACK
6
CONTINUOUS
10
105.08
20
-69.2
11
105.08
21
-83.2
0
LINE
8
BLACK
6
CONTINUOUS
10
119.08
20
-64.15
11
119.08
21
-50.15
0
LINE
8
BLACK
6
CONTINUOUS
10
105.08
20
-64.15
11
119.08
21
-64.15
0
LINE
8
BLACK
6
CONTINUOUS
10
119.08
20
-50.15
11
105.08
21
-50.15
0
LINE
8
BLACK
6
CONTINUOUS
10
105.08
20
-50.15
11
105.08
21
-64.15
0
LINE
8
BLACK
6
CONTINUOUS
10
86.4
20
-45.1
11
100.4
21
-45.1
0
LINE
8
BLACK
6
CONTINUOUS
10
86.4
20
-31.1
11
86.4
21
-45.1
0
LINE
8
BLACK
6
CONTINUOUS
10
100.4
20
-45.1
11
100.4
21
-31.1
0
LINE
8
BLACK
6
CONTINUOUS
10
100.4
20
-31.1
11
86.4
21
-31.1
0
LINE
8
BLACK
6
CONTINUOUS
10
49.04
20
-69.2
11
49.04
21
-83.2
0
LINE
8
BLACK
6
CONTINUOUS
10
63.04
20
-83.2
11
63.04
21
-69.2
0
LINE
8
BLACK
6
CONTINUOUS
10
49.04
20
-83.2
11
63.04
21
-83.2
0
LINE
8
BLACK
6
CONTINUOUS
10
63.04
20
-69.2
11
49.04
21
-69.2
0
LINE
8
BLACK
6
CONTINUOUS
10
249.84
20
-69.2
11
235.84
21
-69.2
0
LINE
8
BLACK
6
CONTINUOUS
10
235.84
20
-83.2
11
249.84
21
-83.2
0
LINE
8
BLACK
6
CONTINUOUS
10
249.84
20
-83.2
11
249.84
21
-69.2
0
LINE
8
BLACK
6
CONTINUOUS
10
235.84
20
-69.2
11
235.84
21
-83.2
0
LINE
8
BLACK
6
CONTINUOUS
10
268.52
20
-64.15
11
268.52
21
-50.15
0
LINE
8
BLACK
6
CONTINUOUS
10
254.52
20
-50.15
11
254.52
21
-64.15
0
LINE
8
BLACK
6
CONTINUOUS
10
268.52
20
-50.15
11
254.52
21
-50.15
0
LINE
8
BLACK
6
CONTINUOUS
10
254.52
20
-64.15
11
268.52
21
-64.15
0
LINE
8
BLACK
6
CONTINUOUS
10
249.84
20
-64.15
11
249.84
21
-50.15
0
LINE
8
BLACK
6
CONTINUOUS
10
235.84
20
-50.15
11
235.84
21
-64.15
0
LINE
8
BLACK
6
CONTINUOUS
10
235.84
20
-64.15
11
249.84
21
-64.15
0
LINE
8
BLACK
6
CONTINUOUS
10
249.84
20
-50.15
11
235.84
21
-50.15
0
LINE
8
BLACK
6
CONTINUOUS
10
81.72
20
-50.15
11
67.72
21
-50.15
0
LINE
8
BLACK
6
CONTINUOUS
10
67.72
20
-64.15
11
81.72
21
-64.15
0
LINE
8
BLACK
6
CONTINUOUS
10
81.72
20
-64.15
11
81.72
21
-50.15
0
LINE
8
BLACK
6
CONTINUOUS
10
67.72
20
-50.15
11
67.72
21
-64.15
0
LINE
8
BLACK
6
CONTINUOUS
10
161.12
20
-83.2
11
175.12
21
-83.2
0
LINE
8
BLACK
6
CONTINUOUS
10
175.12
20
-83.2
11
175.12
21
-69.2
0
LINE
8
BLACK
6
CONTINUOUS
10
175.12
20
-69.2
11
161.12
21
-69.2
0
LINE
8
BLACK
6
CONTINUOUS
10
161.12
20
-69.2
11
161.12
21
-83.2
0
LINE
8
BLACK
6
CONTINUOUS
10
217.16
20
-69.2
11
217.16
21
-83.2
0
LINE
8
BLACK
6
CONTINUOUS
10
231.16
20
-69.2
11
217.16
21
-69.2
0
LINE
8
BLACK
6
CONTINUOUS
10
217.16
20
-83.2
11
231.16
21
-83.2
0
LINE
8
BLACK
6
CONTINUOUS
10
231.16
20
-83.2
11
231.16
21
-69.2
0
LINE
8
BLACK
6
CONTINUOUS
10
30.36
20
-64.15
11
44.36
21
-64.15
0
LINE
8
BLACK
6
CONTINUOUS
10
44.36
20
-64.15
11
44.36
21
-50.15
0
LINE
8
BLACK
6
CONTINUOUS
10
44.36
20
-50.15
11
30.36
21
-50.15
0
LINE
8
BLACK
6
CONTINUOUS
10
30.36
20
-50.15
11
30.36
21
-64.15
0
LINE
8
BLACK
6
CONTINUOUS
10
254.52
20
-31.1
11
254.52
21
-45.1
0
LINE
8
BLACK
6
CONTINUOUS
10
268.52
20
-31.1
11
254.52
21
-31.1
0
LINE
8
BLACK
6
CONTINUOUS
10
268.52
20
-45.1
11
268.52
21
-31.1
0
LINE
8
BLACK
6
CONTINUOUS
10
254.52
20
-45.1
11
268.52
21
-45.1
  0
ENDSEC
  0
EOF
