0
SECTION
2
HEADER
9
$INSUNITS
70
4
9
$ACADVER
1
AC1014
9
$HANDSEED
5
FFFF
0
ENDSEC
0
SECTION
2
TABLES
0
TABLE
2
VPORT
5
8
100
AcDbSymbolTable
0
ENDTAB
0
TABLE
2
LTYPE
5
5
100
AcDbSymbolTable
0
LTYPE
5
14
100
AcDbSymbolTableRecord
100
AcDbLinetypeTableRecord
2
BYBLOCK
70
0
0
LTYPE
5
15
100
AcDbSymbolTableRecord
100
AcDbLinetypeTableRecord
2
BYLAYER
70
0
0
ENDTAB
0
TABLE
2
LAYER
5
2
100
AcDbSymbolTable
70
2
0
LAYER
5
50
100
AcDbSymbolTableRecord
100
AcDbLayerTableRecord
2
0
70
0
6
CONTINUOUS
0
ENDTAB
0
TABLE
2
STYLE
5
3
100
AcDbSymbolTable
70
1
0
STYLE
5
11
100
AcDbSymbolTableRecord
100
AcDbTextStyleTableRecord
2
STANDARD
70
0
0
ENDTAB
0
TABLE
2
VIEW
5
6
100
AcDbSymbolTable
70
0
0
ENDTAB
0
TABLE
2
UCS
5
7
100
AcDbSymbolTable
70
0
0
ENDTAB
0
TABLE
2
APPID
5
9
100
AcDbSymbolTable
70
2
0
APPID
5
12
100
AcDbSymbolTableRecord
100
AcDbRegAppTableRecord
2
ACAD
70
0
0
ENDTAB
0
TABLE
2
DIMSTYLE
5
A
100
AcDbSymbolTable
70
1
0
ENDTAB
0
TABLE
2
BLOCK_RECORD
5
1
100
AcDbSymbolTable
70
1
0
BLOCK_RECORD
5
1F
100
AcDbSymbolTableRecord
100
AcDbBlockTableRecord
2
*MODEL_SPACE
0
BLOCK_RECORD
5
1B
100
AcDbSymbolTableRecord
100
AcDbBlockTableRecord
2
*PAPER_SPACE
0
ENDTAB
0
ENDSEC
0
SECTION
2
BLOCKS
0
BLOCK
5
20
100
AcDbEntity
100
AcDbBlockBegin
2
*MODEL_SPACE
0
ENDBLK
5
21
100
AcDbEntity
100
AcDbBlockEnd
0
BLOCK
5
1C
100
AcDbEntity
100
AcDbBlockBegin
2
*PAPER_SPACE
0
ENDBLK
5
1D
100
AcDbEntity
100
AcDbBlockEnd
0
ENDSEC
0
SECTION
2
ENTITIES
0
LWPOLYLINE
5
100
100
AcDbEntity
8
0
100
AcDbPolyline
90
8
70
1
43
0.0
10
-269.29599999999999
20
104.77503200000001
10
-29.583500000000001
20
104.77503200000001
42
-0.41421356237309503
10
-27.995999999999999
20
103.18753200000002
10
-27.996000000000002
20
30.162531999999999
42
-0.41421356237309342
10
-29.583499999999994
20
28.575032
10
-269.29599999999999
20
28.57503199999995
42
-0.41421356237309426
10
-270.88350000000003
20
30.162531999999995
10
-270.88349999999997
20
103.18753200000002
42
-0.41421356237309503
0
LWPOLYLINE
5
101
100
AcDbEntity
8
0
100
AcDbPolyline
90
8
70
1
43
0.0
10
-30.363552999999996
20
88.753553000000011
42
-0.41421356237309503
10
-30.863553000000003
20
88.253552999999997
10
-43.86355300000001
20
88.253553000000011
42
-0.41421356237309503
10
-44.36355300000001
20
88.753553000000011
10
-44.363553000000017
20
101.753552
42
-0.41421356237309503
10
-43.86355300000001
20
102.25355200000001
10
-30.863553000000003
20
102.25355199999998
42
-0.41421356237309503
10
-30.363553000000003
20
101.753552
0
LWPOLYLINE
5
102
100
AcDbEntity
8
0
100
AcDbPolyline
90
8
70
1
43
0.0
10
-49.043552999999996
20
88.753553000000011
42
-0.41421356237309503
10
-49.543553000000003
20
88.253552999999997
10
-62.543553000000003
20
88.253553000000011
42
-0.41421356237309503
10
-63.043553000000003
20
88.753553000000011
10
-63.04355300000001
20
101.753552
42
-0.41421356237309503
10
-62.543553000000003
20
102.25355200000001
10
-49.543553000000003
20
102.25355199999998
42
-0.41421356237309503
10
-49.043553000000003
20
101.753552
0
LWPOLYLINE
5
103
100
AcDbEntity
8
0
100
AcDbPolyline
90
8
70
1
43
0.0
10
-68.223552999999995
20
102.25355200000001
10
-81.22355300000001
20
102.25355200000001
42
0.41421356237309503
10
-81.723552999999995
20
101.753552
10
-81.72355300000001
20
88.753553000000011
42
0.41421356237309503
10
-81.22355300000001
20
88.253552999999997
10
-68.223552999999995
20
88.253552999999997
42
0.41421356237309503
10
-67.723552999999995
20
88.753553000000011
10
-67.723552999999995
20
101.753552
42
0.41421356237309503
0
LWPOLYLINE
5
104
100
AcDbEntity
8
0
100
AcDbPolyline
90
20
70
1
43
0.0
10
-96.033553000000012
20
102.25355200000001
10
-99.903553000000016
20
102.25355200000001
42
0.41421356237309503
10
-100.40355300000002
20
101.753552
10
-100.40355300000002
20
88.753553000000011
42
0.41421356237309503
10
-99.903553000000016
20
88.253552999999997
10
-96.533553000000012
20
88.253552999999997
10
-96.533553000000012
20
87.753552999999997
42
0.41421356237309503
10
-96.033553000000012
20
87.253553000000011
10
-95.293553000000003
20
87.253553000000011
10
-90.033553000000012
20
87.253553000000011
10
-89.293553000000003
20
87.253552999999982
42
0.41421356237309503
10
-88.793553000000003
20
87.753552999999997
10
-88.793553000000003
20
88.253552999999997
10
-86.903553000000002
20
88.253552999999997
42
0.41421356237309503
10
-86.403553000000016
20
88.753553000000011
10
-86.403552999999988
20
101.753552
42
0.41421356237309503
10
-86.903553000000002
20
102.25355200000001
10
-89.293553000000003
20
102.25355200000001
10
-90.033553000000012
20
102.25355200000001
10
-95.293553000000003
20
102.25355200000001
0
LWPOLYLINE
5
105
100
AcDbEntity
8
0
100
AcDbPolyline
90
39
70
1
43
0.0
10
-105.58355300000001
20
102.25355200000001
42
-0.41421356237309503
10
-105.08355299999999
20
101.753552
10
-105.08355299999999
20
88.753553000000011
42
-0.41421356237309503
10
-105.58355300000001
20
88.253552999999997
10
-105.98555300000001
20
88.253552999999997
10
-105.985553
20
87.753552999999997
42
-0.41421356237309503
10
-106.485553
20
87.253552999999982
10
-112.485553
20
87.253552999999982
42
-0.41421356237309503
10
-112.98555300000001
20
87.753552999999997
10
-112.98555300000001
20
88.253552999999997
10
-114.923553
20
88.253552999999997
10
-118.58355299999999
20
88.253552999999997
10
-124.263553
20
88.253552999999997
10
-126.89355300000001
20
88.253552999999997
10
-126.893553
20
87.753552999999997
42
-0.41421356237309503
10
-127.393553
20
87.253552999999982
10
-128.13355300000001
20
87.253553000000011
10
-130.36155299999999
20
87.253553000000011
10
-133.393553
20
87.253553000000011
10
-134.13355300000001
20
87.253553000000011
10
-136.36155299999999
20
87.253552999999982
42
-0.41421356237309503
10
-136.86155299999999
20
87.753552999999997
10
-136.86155299999999
20
88.253552999999997
10
-137.263553
20
88.253552999999997
42
-0.41421356237309503
10
-137.76355300000003
20
88.753553000000011
10
-137.76355300000003
20
101.753552
42
-0.41421356237309503
10
-137.263553
20
102.25355200000001
10
-136.36155299999999
20
102.25355200000001
10
-134.13355300000001
20
102.25355200000001
10
-133.393553
20
102.25355200000001
10
-130.36155299999999
20
102.25355200000001
10
-128.13355300000001
20
102.25355200000001
10
-127.923553
20
102.25355200000001
10
-127.393553
20
102.25355200000001
10
-124.263553
20
102.25355200000001
10
-118.58355299999999
20
102.25355200000001
10
-114.923553
20
102.25355200000001
10
-112.485553
20
102.25355200000001
10
-106.485553
20
102.25355200000001
0
LWPOLYLINE
5
106
100
AcDbEntity
8
0
100
AcDbPolyline
90
4
70
1
43
0.0
10
-44.359999999999999
20
69.200000000000003
10
-30.359999999999999
20
69.200000000000003
10
-30.359999999999999
20
83.200000000000003
10
-44.359999999999999
20
83.200000000000003
0
LWPOLYLINE
5
107
100
AcDbEntity
8
0
100
AcDbPolyline
90
4
70
1
43
0.0
10
-63.040000000000006
20
69.200000000000003
10
-49.039999999999999
20
69.200000000000003
10
-49.039999999999999
20
83.200000000000003
10
-63.040000000000006
20
83.200000000000003
0
LWPOLYLINE
5
108
100
AcDbEntity
8
0
100
AcDbPolyline
90
4
70
1
43
0.0
10
-81.719999999999999
20
69.200000000000003
10
-67.719999999999999
20
69.200000000000003
10
-67.719999999999999
20
83.200000000000003
10
-81.719999999999999
20
83.200000000000003
0
LWPOLYLINE
5
109
100
AcDbEntity
8
0
100
AcDbPolyline
90
4
70
1
43
0.0
10
-100.40000000000001
20
69.200000000000003
10
-86.400000000000006
20
69.200000000000003
10
-86.400000000000006
20
83.200000000000003
10
-100.40000000000001
20
83.200000000000003
0
LWPOLYLINE
5
110
100
AcDbEntity
8
0
100
AcDbPolyline
90
4
70
1
43
0.0
10
-105.08000000000001
20
69.200000000000003
10
-105.08000000000001
20
83.200000000000003
10
-119.08000000000001
20
83.200000000000003
10
-119.08000000000001
20
69.200000000000003
0
LWPOLYLINE
5
111
100
AcDbEntity
8
0
100
AcDbPolyline
90
4
70
1
43
0.0
10
-123.76000000000002
20
69.200000000000003
10
-123.76000000000002
20
83.200000000000003
10
-137.75999999999999
20
83.200000000000003
10
-137.75999999999999
20
69.200000000000003
0
LWPOLYLINE
5
112
100
AcDbEntity
8
0
100
AcDbPolyline
90
4
70
1
43
0.0
10
-142.44
20
69.200000000000003
10
-142.44
20
83.200000000000003
10
-156.44
20
83.200000000000003
10
-156.44
20
69.200000000000003
0
LWPOLYLINE
5
113
100
AcDbEntity
8
0
100
AcDbPolyline
90
8
70
1
43
0.0
10
-142.44355300000001
20
88.753553000000011
10
-142.44355300000001
20
101.753552
42
0.41421356237309503
10
-142.94355300000001
20
102.25355200000001
10
-155.94355300000001
20
102.25355200000001
42
0.41421356237309503
10
-156.44355300000001
20
101.753552
10
-156.44355300000004
20
88.753553000000039
42
0.41421356237311585
10
-155.94355300000001
20
88.253552999999997
10
-142.94355300000001
20
88.253552999999997
42
0.41421356237309503
0
LWPOLYLINE
5
114
100
AcDbEntity
8
0
100
AcDbPolyline
90
39
70
1
43
0.0
10
-164.75355300000001
20
87.253553000000011
10
-162.525553
20
87.253553000000011
42
0.41421356237309503
10
-162.025553
20
87.753552999999997
10
-162.025553
20
88.253552999999997
10
-161.62355299999999
20
88.253552999999997
42
0.41421356237309503
10
-161.12355300000002
20
88.753553000000011
10
-161.12355299999996
20
101.753552
42
0.41421356237309503
10
-161.62355299999999
20
102.25355200000001
10
-162.525553
20
102.25355200000001
10
-164.75355300000001
20
102.25355200000001
10
-165.49355299999999
20
102.25355200000001
10
-168.52555300000003
20
102.25355200000001
10
-170.75355300000001
20
102.25355200000001
10
-170.96355299999999
20
102.25355200000001
10
-171.49355299999999
20
102.25355200000001
10
-174.62355299999999
20
102.25355200000001
10
-180.30355299999999
20
102.25355200000001
10
-183.96355299999999
20
102.25355200000001
10
-186.40155300000001
20
102.25355200000001
10
-192.40155300000001
20
102.25355200000001
10
-193.30355300000002
20
102.25355200000001
42
0.41421356237309503
10
-193.80355300000002
20
101.753552
10
-193.80355300000002
20
88.753553000000011
42
0.41421356237309503
10
-193.30355300000002
20
88.253552999999997
10
-192.90155300000004
20
88.253552999999997
10
-192.90155300000004
20
87.753552999999997
42
0.41421356237309503
10
-192.40155300000001
20
87.253553000000011
10
-186.40155300000001
20
87.253552999999982
42
0.41421356237309503
10
-185.90155300000004
20
87.753552999999997
10
-185.90155300000004
20
88.253552999999997
10
-183.96355299999999
20
88.253552999999997
10
-180.30355299999999
20
88.253552999999997
10
-174.62355299999999
20
88.253552999999997
10
-171.99355300000002
20
88.253552999999997
10
-171.99355300000002
20
87.753552999999997
42
0.41421356237309503
10
-171.49355299999999
20
87.253553000000011
10
-170.75355300000001
20
87.253553000000011
10
-168.52555300000003
20
87.253553000000011
10
-165.49355299999999
20
87.253553000000011
0
LWPOLYLINE
5
115
100
AcDbEntity
8
0
100
AcDbPolyline
90
20
70
1
43
0.0
10
-202.85355300000003
20
102.25355200000001
10
-203.59355300000004
20
102.25355200000001
10
-208.85355300000001
20
102.25355200000001
10
-209.59355300000001
20
102.25355200000001
10
-211.98355300000003
20
102.25355200000001
42
0.41421356237309503
10
-212.483553
20
101.753552
10
-212.48355300000003
20
88.753553000000011
42
0.41421356237309503
10
-211.98355300000003
20
88.253552999999997
10
-210.09355300000004
20
88.253552999999997
10
-210.09355300000004
20
87.753552999999997
42
0.41421356237309503
10
-209.59355300000001
20
87.253553000000011
10
-208.85355300000001
20
87.253553000000011
10
-203.59355300000004
20
87.253553000000011
10
-202.85355300000003
20
87.253552999999982
42
0.41421356237309503
10
-202.35355300000003
20
87.753552999999997
10
-202.35355300000003
20
88.253552999999997
10
-198.98355300000003
20
88.253552999999997
42
0.41421356237309503
10
-198.48355300000003
20
88.753553000000011
10
-198.48355300000003
20
101.753552
42
0.41421356237309503
10
-198.98355300000003
20
102.25355200000001
0
LWPOLYLINE
5
116
100
AcDbEntity
8
0
100
AcDbPolyline
90
8
70
1
43
0.0
10
-231.16355300000004
20
101.753552
10
-231.16355300000004
20
88.753553000000011
42
0.41421356237309503
10
-230.66355300000001
20
88.253552999999997
10
-217.66355300000001
20
88.253552999999997
42
0.41421356237309503
10
-217.16355300000004
20
88.753553000000011
10
-217.16355300000001
20
101.753552
42
0.41421356237309503
10
-217.66355300000001
20
102.25355200000001
10
-230.66355300000001
20
102.25355200000001
42
0.41421356237309503
0
LWPOLYLINE
5
117
100
AcDbEntity
8
0
100
AcDbPolyline
90
8
70
1
43
0.0
10
-235.84355300000001
20
88.753553000000011
10
-235.84355300000001
20
101.753552
42
0.41421356237309503
10
-236.34355300000004
20
102.25355200000001
10
-249.34355300000004
20
102.25355200000001
42
0.41421356237309503
10
-249.84355300000004
20
101.753552
10
-249.84355300000004
20
88.753553000000011
42
0.41421356237309503
10
-249.34355300000004
20
88.253552999999997
10
-236.34355300000004
20
88.253552999999997
42
0.41421356237309503
0
LWPOLYLINE
5
118
100
AcDbEntity
8
0
100
AcDbPolyline
90
8
70
1
43
0.0
10
-268.02355299999999
20
88.253552999999997
10
-255.02355300000002
20
88.253552999999997
42
0.41421356237309503
10
-254.52355299999999
20
88.753553000000011
10
-254.52355299999999
20
101.753552
42
0.41421356237309503
10
-255.02355300000002
20
102.25355200000001
10
-268.02355299999999
20
102.25355200000001
42
0.41421356237309503
10
-268.52355299999999
20
101.753552
10
-268.52355300000005
20
88.753553000000011
42
0.41421356237309503
0
LWPOLYLINE
5
119
100
AcDbEntity
8
0
100
AcDbPolyline
90
4
70
1
43
0.0
10
-161.12
20
69.200000000000003
10
-161.12
20
83.200000000000003
10
-175.12
20
83.200000000000003
10
-175.12
20
69.200000000000003
0
LWPOLYLINE
5
120
100
AcDbEntity
8
0
100
AcDbPolyline
90
4
70
1
43
0.0
10
-193.80000000000001
20
83.200000000000003
10
-193.80000000000001
20
69.200000000000003
10
-179.80000000000001
20
69.200000000000003
10
-179.80000000000001
20
83.200000000000003
0
LWPOLYLINE
5
121
100
AcDbEntity
8
0
100
AcDbPolyline
90
4
70
1
43
0.0
10
-198.47999999999999
20
69.200000000000003
10
-198.47999999999999
20
83.200000000000003
10
-212.48000000000002
20
83.200000000000003
10
-212.48000000000002
20
69.200000000000003
0
LWPOLYLINE
5
122
100
AcDbEntity
8
0
100
AcDbPolyline
90
4
70
1
43
0.0
10
-231.16
20
83.200000000000003
10
-231.16
20
69.200000000000003
10
-217.16000000000003
20
69.200000000000003
10
-217.16000000000003
20
83.200000000000003
0
LWPOLYLINE
5
123
100
AcDbEntity
8
0
100
AcDbPolyline
90
4
70
1
43
0.0
10
-235.84000000000003
20
69.200000000000003
10
-235.84000000000003
20
83.200000000000003
10
-249.84000000000003
20
83.200000000000003
10
-249.84000000000003
20
69.200000000000003
0
LWPOLYLINE
5
124
100
AcDbEntity
8
0
100
AcDbPolyline
90
4
70
1
43
0.0
10
-254.52000000000001
20
69.200000000000003
10
-254.52000000000001
20
83.200000000000003
10
-268.51999999999998
20
83.200000000000003
10
-268.51999999999998
20
69.200000000000003
0
LWPOLYLINE
5
125
100
AcDbEntity
8
0
100
AcDbPolyline
90
4
70
1
43
0.0
10
-30.359999999999999
20
50.150000000000006
10
-30.359999999999999
20
64.150000000000006
10
-44.359999999999999
20
64.150000000000006
10
-44.359999999999999
20
50.150000000000006
0
LWPOLYLINE
5
126
100
AcDbEntity
8
0
100
AcDbPolyline
90
4
70
1
43
0.0
10
-63.040000000000006
20
50.150000000000006
10
-49.039999999999999
20
50.150000000000006
10
-49.039999999999999
20
64.150000000000006
10
-63.040000000000006
20
64.150000000000006
0
LWPOLYLINE
5
127
100
AcDbEntity
8
0
100
AcDbPolyline
90
4
70
1
43
0.0
10
-67.719999999999999
20
50.150000000000006
10
-67.719999999999999
20
64.150000000000006
10
-81.719999999999999
20
64.150000000000006
10
-81.719999999999999
20
50.150000000000006
0
LWPOLYLINE
5
128
100
AcDbEntity
8
0
100
AcDbPolyline
90
4
70
1
43
0.0
10
-86.400000000000006
20
64.150000000000006
10
-100.40000000000001
20
64.150000000000006
10
-100.40000000000001
20
50.150000000000006
10
-86.400000000000006
20
50.150000000000006
0
LWPOLYLINE
5
129
100
AcDbEntity
8
0
100
AcDbPolyline
90
4
70
1
43
0.0
10
-105.08000000000001
20
50.150000000000006
10
-105.08000000000001
20
64.150000000000006
10
-119.08000000000001
20
64.150000000000006
10
-119.08000000000001
20
50.150000000000006
0
LWPOLYLINE
5
130
100
AcDbEntity
8
0
100
AcDbPolyline
90
4
70
1
43
0.0
10
-123.76000000000002
20
50.150000000000006
10
-123.76000000000002
20
64.150000000000006
10
-137.75999999999999
20
64.150000000000006
10
-137.75999999999999
20
50.150000000000006
0
LWPOLYLINE
5
131
100
AcDbEntity
8
0
100
AcDbPolyline
90
4
70
1
43
0.0
10
-156.44
20
64.150000000000006
10
-156.44
20
50.150000000000006
10
-142.44
20
50.150000000000006
10
-142.44
20
64.150000000000006
0
LWPOLYLINE
5
132
100
AcDbEntity
8
0
100
AcDbPolyline
90
4
70
1
43
0.0
10
-30.359999999999999
20
31.100000000000001
10
-30.359999999999999
20
45.100000000000009
10
-44.359999999999999
20
45.100000000000009
10
-44.359999999999999
20
31.100000000000001
0
LWPOLYLINE
5
133
100
AcDbEntity
8
0
100
AcDbPolyline
90
4
70
1
43
0.0
10
-63.040000000000006
20
45.100000000000009
10
-63.040000000000006
20
31.100000000000001
10
-49.039999999999999
20
31.100000000000001
10
-49.039999999999999
20
45.100000000000009
0
LWPOLYLINE
5
134
100
AcDbEntity
8
0
100
AcDbPolyline
90
4
70
1
43
0.0
10
-67.719999999999999
20
45.100000000000009
10
-81.719999999999999
20
45.100000000000009
10
-81.719999999999999
20
31.100000000000001
10
-67.719999999999999
20
31.100000000000001
0
LWPOLYLINE
5
135
100
AcDbEntity
8
0
100
AcDbPolyline
90
4
70
1
43
0.0
10
-100.40000000000001
20
31.100000000000001
10
-86.400000000000006
20
31.100000000000001
10
-86.400000000000006
20
45.100000000000009
10
-100.40000000000001
20
45.100000000000009
0
LWPOLYLINE
5
136
100
AcDbEntity
8
0
100
AcDbPolyline
90
4
70
1
43
0.0
10
-119.08000000000001
20
31.100000000000001
10
-105.08000000000001
20
31.100000000000001
10
-105.08000000000001
20
45.100000000000009
10
-119.08000000000001
20
45.100000000000009
0
LWPOLYLINE
5
137
100
AcDbEntity
8
0
100
AcDbPolyline
90
4
70
1
43
0.0
10
-137.75999999999999
20
45.100000000000009
10
-137.75999999999999
20
31.100000000000001
10
-123.76000000000002
20
31.100000000000001
10
-123.76000000000002
20
45.100000000000009
0
LWPOLYLINE
5
138
100
AcDbEntity
8
0
100
AcDbPolyline
90
4
70
1
43
0.0
10
-142.44
20
45.100000000000009
10
-156.44
20
45.100000000000009
10
-156.44
20
31.100000000000001
10
-142.44
20
31.100000000000001
0
LWPOLYLINE
5
139
100
AcDbEntity
8
0
100
AcDbPolyline
90
4
70
1
43
0.0
10
-175.12
20
64.150000000000006
10
-175.12
20
50.150000000000006
10
-161.12
20
50.150000000000006
10
-161.12
20
64.150000000000006
0
LWPOLYLINE
5
140
100
AcDbEntity
8
0
100
AcDbPolyline
90
4
70
1
43
0.0
10
-193.80000000000001
20
50.150000000000006
10
-179.80000000000001
20
50.150000000000006
10
-179.80000000000001
20
64.150000000000006
10
-193.80000000000001
20
64.150000000000006
0
LWPOLYLINE
5
141
100
AcDbEntity
8
0
100
AcDbPolyline
90
4
70
1
43
0.0
10
-212.48000000000002
20
64.150000000000006
10
-212.48000000000002
20
50.150000000000006
10
-198.47999999999999
20
50.150000000000006
10
-198.47999999999999
20
64.150000000000006
0
LWPOLYLINE
5
142
100
AcDbEntity
8
0
100
AcDbPolyline
90
4
70
1
43
0.0
10
-217.16000000000003
20
50.150000000000006
10
-217.16000000000003
20
64.150000000000006
10
-231.16
20
64.150000000000006
10
-231.16
20
50.150000000000006
0
LWPOLYLINE
5
143
100
AcDbEntity
8
0
100
AcDbPolyline
90
4
70
1
43
0.0
10
-249.84000000000003
20
50.150000000000006
10
-235.84000000000003
20
50.150000000000006
10
-235.84000000000003
20
64.150000000000006
10
-249.84000000000003
20
64.150000000000006
0
LWPOLYLINE
5
144
100
AcDbEntity
8
0
100
AcDbPolyline
90
4
70
1
43
0.0
10
-254.52000000000001
20
64.150000000000006
10
-268.51999999999998
20
64.150000000000006
10
-268.51999999999998
20
50.150000000000006
10
-254.52000000000001
20
50.150000000000006
0
LWPOLYLINE
5
145
100
AcDbEntity
8
0
100
AcDbPolyline
90
4
70
1
43
0.0
10
-161.12
20
45.100000000000009
10
-175.12
20
45.100000000000009
10
-175.12
20
31.100000000000001
10
-161.12
20
31.100000000000001
0
LWPOLYLINE
5
146
100
AcDbEntity
8
0
100
AcDbPolyline
90
4
70
1
43
0.0
10
-193.80000000000001
20
31.100000000000001
10
-179.80000000000001
20
31.100000000000001
10
-179.80000000000001
20
45.100000000000009
10
-193.80000000000001
20
45.100000000000009
0
LWPOLYLINE
5
147
100
AcDbEntity
8
0
100
AcDbPolyline
90
4
70
1
43
0.0
10
-198.47999999999999
20
45.100000000000009
10
-212.48000000000002
20
45.100000000000009
10
-212.48000000000002
20
31.100000000000001
10
-198.47999999999999
20
31.100000000000001
0
LWPOLYLINE
5
148
100
AcDbEntity
8
0
100
AcDbPolyline
90
4
70
1
43
0.0
10
-231.16
20
45.100000000000009
10
-231.16
20
31.100000000000001
10
-217.16000000000003
20
31.100000000000001
10
-217.16000000000003
20
45.100000000000009
0
LWPOLYLINE
5
149
100
AcDbEntity
8
0
100
AcDbPolyline
90
4
70
1
43
0.0
10
-249.84000000000003
20
31.100000000000001
10
-235.84000000000003
20
31.100000000000001
10
-235.84000000000003
20
45.100000000000009
10
-249.84000000000003
20
45.100000000000009
0
LWPOLYLINE
5
150
100
AcDbEntity
8
0
100
AcDbPolyline
90
4
70
1
43
0.0
10
-254.52000000000001
20
45.100000000000009
10
-268.51999999999998
20
45.100000000000009
10
-268.51999999999998
20
31.100000000000001
10
-254.52000000000001
20
31.100000000000001
0
CIRCLE
5
151
100
AcDbEntity
8
0
100
AcDbCircle
10
-59.320999999999998
20
47.625
30
0
40
2
210
0
220
0
230
1
0
CIRCLE
5
152
100
AcDbEntity
8
0
100
AcDbCircle
10
-135.52099999999999
20
47.625
30
0
40
2
210
0
220
0
230
1
0
CIRCLE
5
153
100
AcDbEntity
8
0
100
AcDbCircle
10
-166.17099999999999
20
66.675000000000011
30
0
40
2
210
0
220
0
230
1
0
ENDSEC
0
SECTION
2
OBJECTS
0
DICTIONARY
5
C
100
AcDbDictionary
3
ACAD_GROUP
350
D
3
ACAD_MLINESTYLE
350
17
0
DICTIONARY
5
D
100
AcDbDictionary
0
DICTIONARY
5
1A
330
C
100
AcDbDictionary
0
DICTIONARY
5
17
100
AcDbDictionary
0
ENDSEC
0
EOF
