%TF.GenerationSoftware,KiCad,Pcbnew,(5.99.0-11145-g173c9a974c)*%
%TF.CreationDate,2021-07-27T16:23:05-07:00*%
%TF.ProjectId,minibaen r2-plate,6d696e69-6261-4656-9e20-72322d706c61,rev?*%
%TF.SameCoordinates,Original*%
%TF.FileFunction,Legend,Top*%
%TF.FilePolarity,Positive*%
%FSLAX46Y46*%
G04 Gerber Fmt 4.6, Leading zero omitted, Abs format (unit mm)*
G04 Created by KiCad (PCBNEW (5.99.0-11145-g173c9a974c)) date 2021-07-27 16:23:05*
%MOMM*%
%LPD*%
G01*
G04 APERTURE LIST*
%ADD10C,0.150000*%
%ADD11C,5.000000*%
G04 APERTURE END LIST*
D10*
%TO.C,H1*%
X58559095Y-48577380D02*
X58559095Y-47577380D01*
X58559095Y-48053571D02*
X59130523Y-48053571D01*
X59130523Y-48577380D02*
X59130523Y-47577380D01*
X60130523Y-48577380D02*
X59559095Y-48577380D01*
X59844809Y-48577380D02*
X59844809Y-47577380D01*
X59749571Y-47720238D01*
X59654333Y-47815476D01*
X59559095Y-47863095D01*
%TO.C,H2*%
X134759095Y-48577380D02*
X134759095Y-47577380D01*
X134759095Y-48053571D02*
X135330523Y-48053571D01*
X135330523Y-48577380D02*
X135330523Y-47577380D01*
X135759095Y-47672619D02*
X135806714Y-47625000D01*
X135901952Y-47577380D01*
X136140047Y-47577380D01*
X136235285Y-47625000D01*
X136282904Y-47672619D01*
X136330523Y-47767857D01*
X136330523Y-47863095D01*
X136282904Y-48005952D01*
X135711476Y-48577380D01*
X136330523Y-48577380D01*
%TO.C,H3*%
X165409095Y-67627380D02*
X165409095Y-66627380D01*
X165409095Y-67103571D02*
X165980523Y-67103571D01*
X165980523Y-67627380D02*
X165980523Y-66627380D01*
X166361476Y-66627380D02*
X166980523Y-66627380D01*
X166647190Y-67008333D01*
X166790047Y-67008333D01*
X166885285Y-67055952D01*
X166932904Y-67103571D01*
X166980523Y-67198809D01*
X166980523Y-67436904D01*
X166932904Y-67532142D01*
X166885285Y-67579761D01*
X166790047Y-67627380D01*
X166504333Y-67627380D01*
X166409095Y-67579761D01*
X166361476Y-67532142D01*
%TD*%
%LPC*%
D11*
%TO.C,H1*%
X59321000Y-47625000D03*
%TD*%
%TO.C,H2*%
X135521000Y-47625000D03*
%TD*%
%TO.C,H3*%
X166171000Y-66675000D03*
%TD*%
M02*
