%TF.GenerationSoftware,KiCad,Pcbnew,(5.99.0-11145-g173c9a974c)*%
%TF.CreationDate,2021-07-27T16:23:05-07:00*%
%TF.ProjectId,minibaen r2-plate,6d696e69-6261-4656-9e20-72322d706c61,rev?*%
%TF.SameCoordinates,Original*%
%TF.FileFunction,Profile,NP*%
%FSLAX46Y46*%
G04 Gerber Fmt 4.6, Leading zero omitted, Abs format (unit mm)*
G04 Created by KiCad (PCBNEW (5.99.0-11145-g173c9a974c)) date 2021-07-27 16:23:05*
%MOMM*%
%LPD*%
G01*
G04 APERTURE LIST*
%TA.AperFunction,Profile*%
%ADD10C,0.150000*%
%TD*%
%TA.AperFunction,Profile*%
%ADD11C,0.200000*%
%TD*%
G04 APERTURE END LIST*
D10*
X67723553Y-88753553D02*
X67723553Y-101753552D01*
X136361553Y-87253553D02*
X134133553Y-87253553D01*
X170753553Y-102253552D02*
X170963553Y-102253552D01*
X136861553Y-88253553D02*
X136861553Y-87753553D01*
X100403553Y-101753552D02*
G75*
G02*
X99903553Y-102253552I-500000J0D01*
G01*
X137263553Y-88253553D02*
X136861553Y-88253553D01*
X162025553Y-87753553D02*
X162025553Y-88253553D01*
X209593553Y-87253553D02*
G75*
G02*
X210093553Y-87753553I0J-500000D01*
G01*
X105083553Y-88753553D02*
G75*
G02*
X105583553Y-88253553I500000J0D01*
G01*
X88793553Y-87753553D02*
X88793553Y-88253553D01*
X249343553Y-88253553D02*
G75*
G02*
X249843553Y-88753553I0J-500000D01*
G01*
X43863553Y-88253553D02*
X30863553Y-88253553D01*
X88793553Y-87753553D02*
G75*
G02*
X89293553Y-87253553I500000J0D01*
G01*
X217663553Y-102253552D02*
X230663553Y-102253552D01*
X249843553Y-101753552D02*
X249843553Y-88753553D01*
X254523553Y-88753553D02*
G75*
G02*
X255023553Y-88253553I500000J0D01*
G01*
D11*
X29583500Y-104775032D02*
G75*
G02*
X27996000Y-103187532I0J1587500D01*
G01*
X29583500Y-28575032D02*
X269296000Y-28575032D01*
D10*
X133393553Y-87253553D02*
X130361553Y-87253553D01*
X202353553Y-88253553D02*
X198983553Y-88253553D01*
X142443553Y-88753553D02*
G75*
G02*
X142943553Y-88253553I500000J0D01*
G01*
X118583553Y-88253553D02*
X114923553Y-88253553D01*
X100403553Y-101753552D02*
X100403553Y-88753553D01*
X236343553Y-102253552D02*
X249343553Y-102253552D01*
X112485553Y-87253553D02*
G75*
G02*
X112985553Y-87753553I0J-500000D01*
G01*
X124263553Y-102253552D02*
X127393553Y-102253552D01*
X171493553Y-87253553D02*
X170753553Y-87253553D01*
X63043553Y-101753552D02*
G75*
G02*
X62543553Y-102253552I-500000J0D01*
G01*
X95293553Y-102253552D02*
X96033553Y-102253552D01*
X192401553Y-102253552D02*
X193303553Y-102253552D01*
X193803553Y-101753552D02*
G75*
G02*
X193303553Y-102253552I-500000J0D01*
G01*
X193303553Y-88253553D02*
G75*
G02*
X193803553Y-88753553I0J-500000D01*
G01*
X68223553Y-102253552D02*
G75*
G02*
X67723553Y-101753552I0J500000D01*
G01*
X170963553Y-102253552D02*
X171493553Y-102253552D01*
X183963553Y-88253553D02*
X180303553Y-88253553D01*
X124263553Y-88253553D02*
X118583553Y-88253553D01*
X161123553Y-88753553D02*
X161123553Y-101753552D01*
X212483553Y-101753552D02*
X212483553Y-88753553D01*
X133393553Y-102253552D02*
X134133553Y-102253552D01*
X211983553Y-88253553D02*
X210093553Y-88253553D01*
X249843553Y-101753552D02*
G75*
G02*
X249343553Y-102253552I-500000J0D01*
G01*
X235843553Y-88753553D02*
G75*
G02*
X236343553Y-88253553I500000J0D01*
G01*
X156443552Y-101753552D02*
X156443552Y-88753553D01*
X95293553Y-87253553D02*
X90033553Y-87253553D01*
X128133553Y-87253553D02*
X127393553Y-87253553D01*
X192401553Y-87253553D02*
G75*
G02*
X192901553Y-87753553I0J-500000D01*
G01*
X212483553Y-101753552D02*
G75*
G02*
X211983553Y-102253552I-500000J0D01*
G01*
X112485553Y-87253553D02*
X106485553Y-87253553D01*
X254523553Y-88753553D02*
X254523553Y-101753552D01*
X155943553Y-88253553D02*
X142943553Y-88253553D01*
X168525553Y-87253553D02*
X165493553Y-87253553D01*
X183963553Y-102253552D02*
X186401553Y-102253552D01*
X268023553Y-88253553D02*
G75*
G02*
X268523553Y-88753553I0J-500000D01*
G01*
X126893553Y-87753553D02*
G75*
G02*
X127393553Y-87253553I500000J0D01*
G01*
X217163553Y-88753553D02*
X217163553Y-101753552D01*
X174623553Y-88253553D02*
X171993553Y-88253553D01*
X249343553Y-88253553D02*
X236343553Y-88253553D01*
X171493553Y-102253552D02*
X174623553Y-102253552D01*
X230663553Y-88253553D02*
G75*
G02*
X231163553Y-88753553I0J-500000D01*
G01*
X86403553Y-88753553D02*
X86403553Y-101753552D01*
X162025553Y-87753553D02*
G75*
G02*
X162525553Y-87253553I500000J0D01*
G01*
X155943553Y-88253553D02*
G75*
G02*
X156443553Y-88753553I0J-500000D01*
G01*
X106485553Y-102253552D02*
X112485553Y-102253552D01*
X127393553Y-102253552D02*
X127923553Y-102253552D01*
X130361553Y-102253552D02*
X133393553Y-102253552D01*
X170753553Y-87253553D02*
X168525553Y-87253553D01*
X105985553Y-87753553D02*
G75*
G02*
X106485553Y-87253553I500000J0D01*
G01*
X112485553Y-102253552D02*
X114923553Y-102253552D01*
X30363553Y-88753553D02*
X30363553Y-101753552D01*
X136361553Y-87253553D02*
G75*
G02*
X136861553Y-87753553I0J-500000D01*
G01*
X236343553Y-102253552D02*
G75*
G02*
X235843553Y-101753552I0J500000D01*
G01*
X165493553Y-87253553D02*
X164753553Y-87253553D01*
X255023553Y-102253552D02*
X268023553Y-102253552D01*
X134133553Y-87253553D02*
X133393553Y-87253553D01*
X193303553Y-88253553D02*
X192901553Y-88253553D01*
X43863553Y-88253553D02*
G75*
G02*
X44363553Y-88753553I0J-500000D01*
G01*
X63043553Y-101753552D02*
X63043553Y-88753553D01*
X156443553Y-101753552D02*
G75*
G02*
X155943553Y-102253552I-500000J0D01*
G01*
X81723553Y-101753552D02*
X81723553Y-88753553D01*
X165493553Y-102253552D02*
X168525553Y-102253552D01*
X112985553Y-88253553D02*
X112985553Y-87753553D01*
D11*
X270883500Y-103187532D02*
G75*
G02*
X269296000Y-104775032I-1587500J0D01*
G01*
D10*
X49043553Y-88753553D02*
X49043553Y-101753552D01*
X198483553Y-88753553D02*
G75*
G02*
X198983553Y-88253553I500000J0D01*
G01*
X198483553Y-88753553D02*
X198483553Y-101753552D01*
X217663553Y-102253552D02*
G75*
G02*
X217163553Y-101753552I0J500000D01*
G01*
X118583553Y-102253552D02*
X124263553Y-102253552D01*
D11*
X269296000Y-28575032D02*
G75*
G02*
X270883500Y-30162532I0J-1587500D01*
G01*
D10*
X114923553Y-88253553D02*
X112985553Y-88253553D01*
X208853553Y-102253552D02*
X209593553Y-102253552D01*
X198983553Y-102253552D02*
X202853553Y-102253552D01*
X185901553Y-87753553D02*
X185901553Y-88253553D01*
X203593553Y-87253553D02*
X202853553Y-87253553D01*
X96533553Y-88253553D02*
X96533553Y-87753553D01*
X128133553Y-102253552D02*
X130361553Y-102253552D01*
X90033553Y-87253553D02*
X89293553Y-87253553D01*
X134133553Y-102253552D02*
X136361553Y-102253552D01*
D11*
X27996000Y-30162532D02*
G75*
G02*
X29583500Y-28575032I1587500J0D01*
G01*
D10*
X230663553Y-88253553D02*
X217663553Y-88253553D01*
X186401553Y-102253552D02*
X192401553Y-102253552D01*
X174623553Y-102253552D02*
X180303553Y-102253552D01*
X198983553Y-102253552D02*
G75*
G02*
X198483553Y-101753552I0J500000D01*
G01*
X88793553Y-88253553D02*
X86903553Y-88253553D01*
X255023553Y-102253552D02*
G75*
G02*
X254523553Y-101753552I0J500000D01*
G01*
X202353553Y-87753553D02*
G75*
G02*
X202853553Y-87253553I500000J0D01*
G01*
X30863553Y-102253552D02*
X43863553Y-102253552D01*
X235843553Y-88753553D02*
X235843553Y-101753552D01*
X202353553Y-87753553D02*
X202353553Y-88253553D01*
X180303553Y-88253553D02*
X174623553Y-88253553D01*
X136361553Y-102253552D02*
X137263553Y-102253552D01*
X127923553Y-102253552D02*
X128133553Y-102253552D01*
X137763553Y-101753552D02*
G75*
G02*
X137263553Y-102253552I-500000J0D01*
G01*
X168525553Y-102253552D02*
X170753553Y-102253552D01*
D11*
X27996000Y-103187532D02*
X27996000Y-30162532D01*
D10*
X192401553Y-87253553D02*
X186401553Y-87253553D01*
X44363553Y-101753552D02*
G75*
G02*
X43863553Y-102253552I-500000J0D01*
G01*
X130361553Y-87253553D02*
X128133553Y-87253553D01*
X62543553Y-88253553D02*
X49543553Y-88253553D01*
X67723553Y-88753553D02*
G75*
G02*
X68223553Y-88253553I500000J0D01*
G01*
X171493553Y-87253553D02*
G75*
G02*
X171993553Y-87753553I0J-500000D01*
G01*
X105985553Y-88253553D02*
X105583553Y-88253553D01*
X211983553Y-88253553D02*
G75*
G02*
X212483553Y-88753553I0J-500000D01*
G01*
X81223553Y-88253553D02*
X68223553Y-88253553D01*
X231163553Y-101753552D02*
G75*
G02*
X230663553Y-102253552I-500000J0D01*
G01*
D11*
X270883500Y-30162532D02*
X270883500Y-103187532D01*
D10*
X99903553Y-88253553D02*
X96533553Y-88253553D01*
X49543553Y-102253552D02*
G75*
G02*
X49043553Y-101753552I0J500000D01*
G01*
X81723553Y-101753552D02*
G75*
G02*
X81223553Y-102253552I-500000J0D01*
G01*
X49543553Y-102253552D02*
X62543553Y-102253552D01*
X162025553Y-88253553D02*
X161623553Y-88253553D01*
X44363553Y-101753552D02*
X44363553Y-88753553D01*
X105583553Y-102253552D02*
X106485553Y-102253552D01*
X30863553Y-102253552D02*
G75*
G02*
X30363553Y-101753552I0J500000D01*
G01*
X96033553Y-87253553D02*
G75*
G02*
X96533553Y-87753553I0J-500000D01*
G01*
X30363553Y-88753553D02*
G75*
G02*
X30863553Y-88253553I500000J0D01*
G01*
X105083553Y-88753553D02*
X105083553Y-101753552D01*
X62543553Y-88253553D02*
G75*
G02*
X63043553Y-88753553I0J-500000D01*
G01*
X114923553Y-102253552D02*
X118583553Y-102253552D01*
X268523553Y-101753552D02*
X268523553Y-88753553D01*
X142943553Y-102253552D02*
G75*
G02*
X142443553Y-101753552I0J500000D01*
G01*
X180303553Y-102253552D02*
X183963553Y-102253552D01*
X164753553Y-102253552D02*
X165493553Y-102253552D01*
X81223553Y-88253553D02*
G75*
G02*
X81723553Y-88753553I0J-500000D01*
G01*
X137763553Y-101753552D02*
X137763553Y-88753553D01*
X162525553Y-102253552D02*
X164753553Y-102253552D01*
X208853553Y-87253553D02*
X203593553Y-87253553D01*
X203593553Y-102253552D02*
X208853553Y-102253552D01*
X161123553Y-88753553D02*
G75*
G02*
X161623553Y-88253553I500000J0D01*
G01*
X105985553Y-87753553D02*
X105985553Y-88253553D01*
X161623553Y-102253552D02*
X162525553Y-102253552D01*
X89293553Y-102253552D02*
X90033553Y-102253552D01*
X192901553Y-88253553D02*
X192901553Y-87753553D01*
X185901553Y-87753553D02*
G75*
G02*
X186401553Y-87253553I500000J0D01*
G01*
X209593553Y-87253553D02*
X208853553Y-87253553D01*
X142943553Y-102253552D02*
X155943553Y-102253552D01*
X96033553Y-87253553D02*
X95293553Y-87253553D01*
X185901553Y-88253553D02*
X183963553Y-88253553D01*
X171993553Y-88253553D02*
X171993553Y-87753553D01*
D11*
X269296000Y-104775032D02*
X29583500Y-104775032D01*
D10*
X126893553Y-87753553D02*
X126893553Y-88253553D01*
X86903553Y-102253552D02*
X89293553Y-102253552D01*
X126893553Y-88253553D02*
X124263553Y-88253553D01*
X193803553Y-101753552D02*
X193803553Y-88753553D01*
X217163553Y-88753553D02*
G75*
G02*
X217663553Y-88253553I500000J0D01*
G01*
X49043553Y-88753553D02*
G75*
G02*
X49543553Y-88253553I500000J0D01*
G01*
X86403553Y-88753553D02*
G75*
G02*
X86903553Y-88253553I500000J0D01*
G01*
X210093553Y-88253553D02*
X210093553Y-87753553D01*
X268523553Y-101753552D02*
G75*
G02*
X268023553Y-102253552I-500000J0D01*
G01*
X90033553Y-102253552D02*
X95293553Y-102253552D01*
X161623553Y-102253552D02*
G75*
G02*
X161123553Y-101753552I0J500000D01*
G01*
X86903553Y-102253552D02*
G75*
G02*
X86403553Y-101753552I0J500000D01*
G01*
X137263553Y-88253553D02*
G75*
G02*
X137763553Y-88753553I0J-500000D01*
G01*
X209593553Y-102253552D02*
X211983553Y-102253552D01*
X142443553Y-88753553D02*
X142443553Y-101753552D01*
X99903553Y-88253553D02*
G75*
G02*
X100403553Y-88753553I0J-500000D01*
G01*
X202853553Y-102253552D02*
X203593553Y-102253552D01*
X68223553Y-102253552D02*
X81223553Y-102253552D01*
X231163553Y-101753552D02*
X231163553Y-88753553D01*
X164753553Y-87253553D02*
X162525553Y-87253553D01*
X105583553Y-102253552D02*
G75*
G02*
X105083553Y-101753552I0J500000D01*
G01*
X268023553Y-88253553D02*
X255023553Y-88253553D01*
X96033553Y-102253552D02*
X99903553Y-102253552D01*
%TO.C,MX39*%
X254520000Y-69200000D02*
X254520000Y-83200000D01*
X254520000Y-83200000D02*
X268520000Y-83200000D01*
X268520000Y-69200000D02*
X254520000Y-69200000D01*
X268520000Y-83200000D02*
X268520000Y-69200000D01*
%TO.C,MX38*%
X235840000Y-69200000D02*
X235840000Y-83200000D01*
X235840000Y-83200000D02*
X249840000Y-83200000D01*
X249840000Y-69200000D02*
X235840000Y-69200000D01*
X249840000Y-83200000D02*
X249840000Y-69200000D01*
%TO.C,MX37*%
X217160000Y-69200000D02*
X217160000Y-83200000D01*
X217160000Y-83200000D02*
X231160000Y-83200000D01*
X231160000Y-69200000D02*
X217160000Y-69200000D01*
X231160000Y-83200000D02*
X231160000Y-69200000D01*
%TO.C,MX36*%
X198480000Y-69200000D02*
X198480000Y-83200000D01*
X198480000Y-83200000D02*
X212480000Y-83200000D01*
X212480000Y-69200000D02*
X198480000Y-69200000D01*
X212480000Y-83200000D02*
X212480000Y-69200000D01*
%TO.C,MX35*%
X179800000Y-69200000D02*
X179800000Y-83200000D01*
X179800000Y-83200000D02*
X193800000Y-83200000D01*
X193800000Y-69200000D02*
X179800000Y-69200000D01*
X193800000Y-83200000D02*
X193800000Y-69200000D01*
%TO.C,MX34*%
X161120000Y-69200000D02*
X161120000Y-83200000D01*
X161120000Y-83200000D02*
X175120000Y-83200000D01*
X175120000Y-69200000D02*
X161120000Y-69200000D01*
X175120000Y-83200000D02*
X175120000Y-69200000D01*
%TO.C,MX33*%
X142440000Y-69200000D02*
X142440000Y-83200000D01*
X142440000Y-83200000D02*
X156440000Y-83200000D01*
X156440000Y-69200000D02*
X142440000Y-69200000D01*
X156440000Y-83200000D02*
X156440000Y-69200000D01*
%TO.C,MX32*%
X123760000Y-69200000D02*
X123760000Y-83200000D01*
X123760000Y-83200000D02*
X137760000Y-83200000D01*
X137760000Y-69200000D02*
X123760000Y-69200000D01*
X137760000Y-83200000D02*
X137760000Y-69200000D01*
%TO.C,MX31*%
X105080000Y-69200000D02*
X105080000Y-83200000D01*
X105080000Y-83200000D02*
X119080000Y-83200000D01*
X119080000Y-69200000D02*
X105080000Y-69200000D01*
X119080000Y-83200000D02*
X119080000Y-69200000D01*
%TO.C,MX30*%
X86400000Y-69200000D02*
X86400000Y-83200000D01*
X86400000Y-83200000D02*
X100400000Y-83200000D01*
X100400000Y-69200000D02*
X86400000Y-69200000D01*
X100400000Y-83200000D02*
X100400000Y-69200000D01*
%TO.C,MX29*%
X67720000Y-69200000D02*
X67720000Y-83200000D01*
X67720000Y-83200000D02*
X81720000Y-83200000D01*
X81720000Y-69200000D02*
X67720000Y-69200000D01*
X81720000Y-83200000D02*
X81720000Y-69200000D01*
%TO.C,MX28*%
X49040000Y-69200000D02*
X49040000Y-83200000D01*
X49040000Y-83200000D02*
X63040000Y-83200000D01*
X63040000Y-69200000D02*
X49040000Y-69200000D01*
X63040000Y-83200000D02*
X63040000Y-69200000D01*
%TO.C,MX27*%
X30360000Y-69200000D02*
X30360000Y-83200000D01*
X30360000Y-83200000D02*
X44360000Y-83200000D01*
X44360000Y-69200000D02*
X30360000Y-69200000D01*
X44360000Y-83200000D02*
X44360000Y-69200000D01*
%TO.C,MX26*%
X254520000Y-50150000D02*
X254520000Y-64150000D01*
X254520000Y-64150000D02*
X268520000Y-64150000D01*
X268520000Y-50150000D02*
X254520000Y-50150000D01*
X268520000Y-64150000D02*
X268520000Y-50150000D01*
%TO.C,MX25*%
X235840000Y-50150000D02*
X235840000Y-64150000D01*
X235840000Y-64150000D02*
X249840000Y-64150000D01*
X249840000Y-50150000D02*
X235840000Y-50150000D01*
X249840000Y-64150000D02*
X249840000Y-50150000D01*
%TO.C,MX24*%
X217160000Y-50150000D02*
X217160000Y-64150000D01*
X217160000Y-64150000D02*
X231160000Y-64150000D01*
X231160000Y-50150000D02*
X217160000Y-50150000D01*
X231160000Y-64150000D02*
X231160000Y-50150000D01*
%TO.C,MX23*%
X198480000Y-50150000D02*
X198480000Y-64150000D01*
X198480000Y-64150000D02*
X212480000Y-64150000D01*
X212480000Y-50150000D02*
X198480000Y-50150000D01*
X212480000Y-64150000D02*
X212480000Y-50150000D01*
%TO.C,MX22*%
X179800000Y-50150000D02*
X179800000Y-64150000D01*
X179800000Y-64150000D02*
X193800000Y-64150000D01*
X193800000Y-50150000D02*
X179800000Y-50150000D01*
X193800000Y-64150000D02*
X193800000Y-50150000D01*
%TO.C,MX21*%
X161120000Y-50150000D02*
X161120000Y-64150000D01*
X161120000Y-64150000D02*
X175120000Y-64150000D01*
X175120000Y-50150000D02*
X161120000Y-50150000D01*
X175120000Y-64150000D02*
X175120000Y-50150000D01*
%TO.C,MX20*%
X142440000Y-50150000D02*
X142440000Y-64150000D01*
X142440000Y-64150000D02*
X156440000Y-64150000D01*
X156440000Y-50150000D02*
X142440000Y-50150000D01*
X156440000Y-64150000D02*
X156440000Y-50150000D01*
%TO.C,MX19*%
X123760000Y-50150000D02*
X123760000Y-64150000D01*
X123760000Y-64150000D02*
X137760000Y-64150000D01*
X137760000Y-50150000D02*
X123760000Y-50150000D01*
X137760000Y-64150000D02*
X137760000Y-50150000D01*
%TO.C,MX18*%
X105080000Y-50150000D02*
X105080000Y-64150000D01*
X105080000Y-64150000D02*
X119080000Y-64150000D01*
X119080000Y-50150000D02*
X105080000Y-50150000D01*
X119080000Y-64150000D02*
X119080000Y-50150000D01*
%TO.C,MX17*%
X86400000Y-50150000D02*
X86400000Y-64150000D01*
X86400000Y-64150000D02*
X100400000Y-64150000D01*
X100400000Y-50150000D02*
X86400000Y-50150000D01*
X100400000Y-64150000D02*
X100400000Y-50150000D01*
%TO.C,MX16*%
X67720000Y-50150000D02*
X67720000Y-64150000D01*
X67720000Y-64150000D02*
X81720000Y-64150000D01*
X81720000Y-50150000D02*
X67720000Y-50150000D01*
X81720000Y-64150000D02*
X81720000Y-50150000D01*
%TO.C,MX15*%
X49040000Y-50150000D02*
X49040000Y-64150000D01*
X49040000Y-64150000D02*
X63040000Y-64150000D01*
X63040000Y-50150000D02*
X49040000Y-50150000D01*
X63040000Y-64150000D02*
X63040000Y-50150000D01*
%TO.C,MX14*%
X30360000Y-50150000D02*
X30360000Y-64150000D01*
X30360000Y-64150000D02*
X44360000Y-64150000D01*
X44360000Y-50150000D02*
X30360000Y-50150000D01*
X44360000Y-64150000D02*
X44360000Y-50150000D01*
%TO.C,MX13*%
X254520000Y-31100000D02*
X254520000Y-45100000D01*
X254520000Y-45100000D02*
X268520000Y-45100000D01*
X268520000Y-31100000D02*
X254520000Y-31100000D01*
X268520000Y-45100000D02*
X268520000Y-31100000D01*
%TO.C,MX12*%
X249840000Y-45100000D02*
X249840000Y-31100000D01*
X249840000Y-31100000D02*
X235840000Y-31100000D01*
X235840000Y-45100000D02*
X249840000Y-45100000D01*
X235840000Y-31100000D02*
X235840000Y-45100000D01*
%TO.C,MX11*%
X217160000Y-31100000D02*
X217160000Y-45100000D01*
X217160000Y-45100000D02*
X231160000Y-45100000D01*
X231160000Y-31100000D02*
X217160000Y-31100000D01*
X231160000Y-45100000D02*
X231160000Y-31100000D01*
%TO.C,MX10*%
X198480000Y-31100000D02*
X198480000Y-45100000D01*
X198480000Y-45100000D02*
X212480000Y-45100000D01*
X212480000Y-31100000D02*
X198480000Y-31100000D01*
X212480000Y-45100000D02*
X212480000Y-31100000D01*
%TO.C,MX9*%
X179800000Y-31100000D02*
X179800000Y-45100000D01*
X179800000Y-45100000D02*
X193800000Y-45100000D01*
X193800000Y-31100000D02*
X179800000Y-31100000D01*
X193800000Y-45100000D02*
X193800000Y-31100000D01*
%TO.C,MX8*%
X161120000Y-31100000D02*
X161120000Y-45100000D01*
X161120000Y-45100000D02*
X175120000Y-45100000D01*
X175120000Y-31100000D02*
X161120000Y-31100000D01*
X175120000Y-45100000D02*
X175120000Y-31100000D01*
%TO.C,MX7*%
X142440000Y-31100000D02*
X142440000Y-45100000D01*
X142440000Y-45100000D02*
X156440000Y-45100000D01*
X156440000Y-31100000D02*
X142440000Y-31100000D01*
X156440000Y-45100000D02*
X156440000Y-31100000D01*
%TO.C,MX6*%
X123760000Y-31100000D02*
X123760000Y-45100000D01*
X123760000Y-45100000D02*
X137760000Y-45100000D01*
X137760000Y-31100000D02*
X123760000Y-31100000D01*
X137760000Y-45100000D02*
X137760000Y-31100000D01*
%TO.C,MX5*%
X105080000Y-31100000D02*
X105080000Y-45100000D01*
X105080000Y-45100000D02*
X119080000Y-45100000D01*
X119080000Y-31100000D02*
X105080000Y-31100000D01*
X119080000Y-45100000D02*
X119080000Y-31100000D01*
%TO.C,MX4*%
X86400000Y-31100000D02*
X86400000Y-45100000D01*
X86400000Y-45100000D02*
X100400000Y-45100000D01*
X100400000Y-31100000D02*
X86400000Y-31100000D01*
X100400000Y-45100000D02*
X100400000Y-31100000D01*
%TO.C,MX3*%
X67720000Y-31100000D02*
X67720000Y-45100000D01*
X67720000Y-45100000D02*
X81720000Y-45100000D01*
X81720000Y-31100000D02*
X67720000Y-31100000D01*
X81720000Y-45100000D02*
X81720000Y-31100000D01*
%TO.C,MX2*%
X49040000Y-31100000D02*
X49040000Y-45100000D01*
X49040000Y-45100000D02*
X63040000Y-45100000D01*
X63040000Y-31100000D02*
X49040000Y-31100000D01*
X63040000Y-45100000D02*
X63040000Y-31100000D01*
%TO.C,MX1*%
X30360000Y-31100000D02*
X30360000Y-45100000D01*
X30360000Y-45100000D02*
X44360000Y-45100000D01*
X44360000Y-31100000D02*
X30360000Y-31100000D01*
X44360000Y-45100000D02*
X44360000Y-31100000D01*
%TD*%
M02*
