%TF.GenerationSoftware,KiCad,Pcbnew,(5.99.0-11145-g173c9a974c)*%
%TF.CreationDate,2021-07-27T16:23:04-07:00*%
%TF.ProjectId,minibaen r2-plate,6d696e69-6261-4656-9e20-72322d706c61,rev?*%
%TF.SameCoordinates,Original*%
%TF.FileFunction,Copper,L2,Bot*%
%TF.FilePolarity,Positive*%
%FSLAX46Y46*%
G04 Gerber Fmt 4.6, Leading zero omitted, Abs format (unit mm)*
G04 Created by KiCad (PCBNEW (5.99.0-11145-g173c9a974c)) date 2021-07-27 16:23:04*
%MOMM*%
%LPD*%
G01*
G04 APERTURE LIST*
%TA.AperFunction,ComponentPad*%
%ADD10C,5.000000*%
%TD*%
G04 APERTURE END LIST*
D10*
%TO.P,H1,*%
%TO.N,*%
X59321000Y-47625000D03*
%TD*%
%TO.P,H2,*%
%TO.N,*%
X135521000Y-47625000D03*
%TD*%
%TO.P,H3,*%
%TO.N,*%
X166171000Y-66675000D03*
%TD*%
%TA.AperFunction,NonConductor*%
G36*
X269283033Y-28831453D02*
G01*
X269290218Y-28832882D01*
X269296000Y-28834032D01*
X269382534Y-28834844D01*
X269399284Y-28836121D01*
X269570007Y-28860668D01*
X269587564Y-28864487D01*
X269752494Y-28912914D01*
X269769326Y-28919192D01*
X269925689Y-28990600D01*
X269941455Y-28999209D01*
X270027440Y-29054468D01*
X270086058Y-29092140D01*
X270100449Y-29102914D01*
X270230348Y-29215472D01*
X270243060Y-29228184D01*
X270355618Y-29358083D01*
X270366392Y-29372474D01*
X270459323Y-29517077D01*
X270467932Y-29532843D01*
X270539340Y-29689206D01*
X270545618Y-29706038D01*
X270594044Y-29870963D01*
X270597865Y-29888529D01*
X270622411Y-30059248D01*
X270623688Y-30075998D01*
X270624500Y-30162532D01*
X270625650Y-30168313D01*
X270625650Y-30168314D01*
X270627079Y-30175499D01*
X270629500Y-30200079D01*
X270629500Y-103149985D01*
X270627079Y-103174565D01*
X270624500Y-103187532D01*
X270624445Y-103193427D01*
X270623688Y-103274066D01*
X270622411Y-103290816D01*
X270597865Y-103461535D01*
X270594045Y-103479096D01*
X270564252Y-103580565D01*
X270545620Y-103644020D01*
X270539340Y-103660858D01*
X270467932Y-103817221D01*
X270459323Y-103832987D01*
X270399647Y-103925844D01*
X270366392Y-103977590D01*
X270355618Y-103991981D01*
X270243060Y-104121880D01*
X270230348Y-104134592D01*
X270100449Y-104247150D01*
X270086058Y-104257924D01*
X270034312Y-104291179D01*
X269941455Y-104350855D01*
X269925689Y-104359464D01*
X269769326Y-104430872D01*
X269752494Y-104437150D01*
X269587564Y-104485577D01*
X269570007Y-104489396D01*
X269403412Y-104513349D01*
X269399284Y-104513943D01*
X269382534Y-104515220D01*
X269296000Y-104516032D01*
X269290219Y-104517182D01*
X269290218Y-104517182D01*
X269283033Y-104518611D01*
X269258453Y-104521032D01*
X29621047Y-104521032D01*
X29596467Y-104518611D01*
X29589282Y-104517182D01*
X29589281Y-104517182D01*
X29583500Y-104516032D01*
X29496966Y-104515220D01*
X29480216Y-104513943D01*
X29476088Y-104513349D01*
X29309493Y-104489396D01*
X29291936Y-104485577D01*
X29127006Y-104437150D01*
X29110174Y-104430872D01*
X28953811Y-104359464D01*
X28938045Y-104350855D01*
X28845188Y-104291179D01*
X28793442Y-104257924D01*
X28779051Y-104247150D01*
X28649152Y-104134592D01*
X28636440Y-104121880D01*
X28523882Y-103991981D01*
X28513108Y-103977590D01*
X28479853Y-103925844D01*
X28420177Y-103832987D01*
X28411568Y-103817221D01*
X28340160Y-103660858D01*
X28333880Y-103644020D01*
X28315249Y-103580565D01*
X28285455Y-103479096D01*
X28281635Y-103461535D01*
X28257089Y-103290816D01*
X28255812Y-103274066D01*
X28255055Y-103193427D01*
X28255000Y-103187532D01*
X28252421Y-103174565D01*
X28250000Y-103149985D01*
X28250000Y-88753553D01*
X30104553Y-88753553D01*
X30105927Y-88760460D01*
X30107132Y-88766520D01*
X30109553Y-88791100D01*
X30109553Y-101716005D01*
X30107132Y-101740585D01*
X30104553Y-101753552D01*
X30106841Y-101838813D01*
X30108225Y-101844879D01*
X30108226Y-101844883D01*
X30142609Y-101995521D01*
X30144786Y-102005060D01*
X30218773Y-102158694D01*
X30325091Y-102292014D01*
X30458411Y-102398332D01*
X30464782Y-102401400D01*
X30464785Y-102401402D01*
X30605674Y-102469251D01*
X30612045Y-102472319D01*
X30618935Y-102473892D01*
X30618939Y-102473893D01*
X30772222Y-102508879D01*
X30772226Y-102508880D01*
X30778292Y-102510264D01*
X30863553Y-102512552D01*
X30872439Y-102510784D01*
X30876520Y-102509973D01*
X30901100Y-102507552D01*
X43826006Y-102507552D01*
X43850586Y-102509973D01*
X43854667Y-102510784D01*
X43863553Y-102512552D01*
X43948814Y-102510264D01*
X43954880Y-102508880D01*
X43954884Y-102508879D01*
X44108167Y-102473893D01*
X44108171Y-102473892D01*
X44115061Y-102472319D01*
X44121432Y-102469251D01*
X44262321Y-102401402D01*
X44262324Y-102401400D01*
X44268695Y-102398332D01*
X44402015Y-102292014D01*
X44508333Y-102158694D01*
X44582320Y-102005060D01*
X44584498Y-101995521D01*
X44618880Y-101844883D01*
X44618881Y-101844879D01*
X44620265Y-101838813D01*
X44622553Y-101753552D01*
X44619974Y-101740585D01*
X44617553Y-101716005D01*
X44617553Y-88791100D01*
X44619974Y-88766520D01*
X44621179Y-88760460D01*
X44622553Y-88753553D01*
X48784553Y-88753553D01*
X48785927Y-88760460D01*
X48787132Y-88766520D01*
X48789553Y-88791100D01*
X48789553Y-101716005D01*
X48787132Y-101740585D01*
X48784553Y-101753552D01*
X48786841Y-101838813D01*
X48788225Y-101844879D01*
X48788226Y-101844883D01*
X48822609Y-101995521D01*
X48824786Y-102005060D01*
X48898773Y-102158694D01*
X49005091Y-102292014D01*
X49138411Y-102398332D01*
X49144782Y-102401400D01*
X49144785Y-102401402D01*
X49285674Y-102469251D01*
X49292045Y-102472319D01*
X49298935Y-102473892D01*
X49298939Y-102473893D01*
X49452222Y-102508879D01*
X49452226Y-102508880D01*
X49458292Y-102510264D01*
X49543553Y-102512552D01*
X49552439Y-102510784D01*
X49556520Y-102509973D01*
X49581100Y-102507552D01*
X62506006Y-102507552D01*
X62530586Y-102509973D01*
X62534667Y-102510784D01*
X62543553Y-102512552D01*
X62628814Y-102510264D01*
X62634880Y-102508880D01*
X62634884Y-102508879D01*
X62788167Y-102473893D01*
X62788171Y-102473892D01*
X62795061Y-102472319D01*
X62801432Y-102469251D01*
X62942321Y-102401402D01*
X62942324Y-102401400D01*
X62948695Y-102398332D01*
X63082015Y-102292014D01*
X63188333Y-102158694D01*
X63262320Y-102005060D01*
X63264498Y-101995521D01*
X63298880Y-101844883D01*
X63298881Y-101844879D01*
X63300265Y-101838813D01*
X63302553Y-101753552D01*
X63299974Y-101740585D01*
X63297553Y-101716005D01*
X63297553Y-88791100D01*
X63299974Y-88766520D01*
X63301179Y-88760460D01*
X63302553Y-88753553D01*
X67464553Y-88753553D01*
X67465927Y-88760460D01*
X67467132Y-88766520D01*
X67469553Y-88791100D01*
X67469553Y-101716005D01*
X67467132Y-101740585D01*
X67464553Y-101753552D01*
X67466841Y-101838813D01*
X67468225Y-101844879D01*
X67468226Y-101844883D01*
X67502609Y-101995521D01*
X67504786Y-102005060D01*
X67578773Y-102158694D01*
X67685091Y-102292014D01*
X67818411Y-102398332D01*
X67824782Y-102401400D01*
X67824785Y-102401402D01*
X67965674Y-102469251D01*
X67972045Y-102472319D01*
X67978935Y-102473892D01*
X67978939Y-102473893D01*
X68132222Y-102508879D01*
X68132226Y-102508880D01*
X68138292Y-102510264D01*
X68223553Y-102512552D01*
X68232439Y-102510784D01*
X68236520Y-102509973D01*
X68261100Y-102507552D01*
X81186006Y-102507552D01*
X81210586Y-102509973D01*
X81214667Y-102510784D01*
X81223553Y-102512552D01*
X81308814Y-102510264D01*
X81314880Y-102508880D01*
X81314884Y-102508879D01*
X81468167Y-102473893D01*
X81468171Y-102473892D01*
X81475061Y-102472319D01*
X81481432Y-102469251D01*
X81622321Y-102401402D01*
X81622324Y-102401400D01*
X81628695Y-102398332D01*
X81762015Y-102292014D01*
X81868333Y-102158694D01*
X81942320Y-102005060D01*
X81944498Y-101995521D01*
X81978880Y-101844883D01*
X81978881Y-101844879D01*
X81980265Y-101838813D01*
X81982553Y-101753552D01*
X81979974Y-101740585D01*
X81977553Y-101716005D01*
X81977553Y-88791100D01*
X81979974Y-88766520D01*
X81981179Y-88760460D01*
X81982553Y-88753553D01*
X86144553Y-88753553D01*
X86145927Y-88760460D01*
X86147132Y-88766520D01*
X86149553Y-88791100D01*
X86149553Y-101716005D01*
X86147132Y-101740585D01*
X86144553Y-101753552D01*
X86146841Y-101838813D01*
X86148225Y-101844879D01*
X86148226Y-101844883D01*
X86182609Y-101995521D01*
X86184786Y-102005060D01*
X86258773Y-102158694D01*
X86365091Y-102292014D01*
X86498411Y-102398332D01*
X86504782Y-102401400D01*
X86504785Y-102401402D01*
X86645674Y-102469251D01*
X86652045Y-102472319D01*
X86658935Y-102473892D01*
X86658939Y-102473893D01*
X86812222Y-102508879D01*
X86812226Y-102508880D01*
X86818292Y-102510264D01*
X86903553Y-102512552D01*
X86912439Y-102510784D01*
X86916520Y-102509973D01*
X86941100Y-102507552D01*
X99866006Y-102507552D01*
X99890586Y-102509973D01*
X99894667Y-102510784D01*
X99903553Y-102512552D01*
X99988814Y-102510264D01*
X99994880Y-102508880D01*
X99994884Y-102508879D01*
X100148167Y-102473893D01*
X100148171Y-102473892D01*
X100155061Y-102472319D01*
X100161432Y-102469251D01*
X100302321Y-102401402D01*
X100302324Y-102401400D01*
X100308695Y-102398332D01*
X100442015Y-102292014D01*
X100548333Y-102158694D01*
X100622320Y-102005060D01*
X100624498Y-101995521D01*
X100658880Y-101844883D01*
X100658881Y-101844879D01*
X100660265Y-101838813D01*
X100662553Y-101753552D01*
X100659974Y-101740585D01*
X100657553Y-101716005D01*
X100657553Y-88791100D01*
X100659974Y-88766520D01*
X100661179Y-88760460D01*
X100662553Y-88753553D01*
X104824553Y-88753553D01*
X104825927Y-88760460D01*
X104827132Y-88766520D01*
X104829553Y-88791100D01*
X104829553Y-101716005D01*
X104827132Y-101740585D01*
X104824553Y-101753552D01*
X104826841Y-101838813D01*
X104828225Y-101844879D01*
X104828226Y-101844883D01*
X104862609Y-101995521D01*
X104864786Y-102005060D01*
X104938773Y-102158694D01*
X105045091Y-102292014D01*
X105178411Y-102398332D01*
X105184782Y-102401400D01*
X105184785Y-102401402D01*
X105325674Y-102469251D01*
X105332045Y-102472319D01*
X105338935Y-102473892D01*
X105338939Y-102473893D01*
X105492222Y-102508879D01*
X105492226Y-102508880D01*
X105498292Y-102510264D01*
X105583553Y-102512552D01*
X105592439Y-102510784D01*
X105596520Y-102509973D01*
X105621100Y-102507552D01*
X137226006Y-102507552D01*
X137250586Y-102509973D01*
X137254667Y-102510784D01*
X137263553Y-102512552D01*
X137348814Y-102510264D01*
X137354880Y-102508880D01*
X137354884Y-102508879D01*
X137508167Y-102473893D01*
X137508171Y-102473892D01*
X137515061Y-102472319D01*
X137521432Y-102469251D01*
X137662321Y-102401402D01*
X137662324Y-102401400D01*
X137668695Y-102398332D01*
X137802015Y-102292014D01*
X137908333Y-102158694D01*
X137982320Y-102005060D01*
X137984498Y-101995521D01*
X138018880Y-101844883D01*
X138018881Y-101844879D01*
X138020265Y-101838813D01*
X138022553Y-101753552D01*
X138019974Y-101740585D01*
X138017553Y-101716005D01*
X138017553Y-88791100D01*
X138019974Y-88766520D01*
X138021179Y-88760460D01*
X138022553Y-88753553D01*
X142184553Y-88753553D01*
X142185927Y-88760460D01*
X142187132Y-88766520D01*
X142189553Y-88791100D01*
X142189553Y-101716005D01*
X142187132Y-101740585D01*
X142184553Y-101753552D01*
X142186841Y-101838813D01*
X142188225Y-101844879D01*
X142188226Y-101844883D01*
X142222609Y-101995521D01*
X142224786Y-102005060D01*
X142298773Y-102158694D01*
X142405091Y-102292014D01*
X142538411Y-102398332D01*
X142544782Y-102401400D01*
X142544785Y-102401402D01*
X142685674Y-102469251D01*
X142692045Y-102472319D01*
X142698935Y-102473892D01*
X142698939Y-102473893D01*
X142852222Y-102508879D01*
X142852226Y-102508880D01*
X142858292Y-102510264D01*
X142943553Y-102512552D01*
X142952439Y-102510784D01*
X142956520Y-102509973D01*
X142981100Y-102507552D01*
X155906006Y-102507552D01*
X155930586Y-102509973D01*
X155934667Y-102510784D01*
X155943553Y-102512552D01*
X156028814Y-102510264D01*
X156034880Y-102508880D01*
X156034884Y-102508879D01*
X156188167Y-102473893D01*
X156188171Y-102473892D01*
X156195061Y-102472319D01*
X156201432Y-102469251D01*
X156342321Y-102401402D01*
X156342324Y-102401400D01*
X156348695Y-102398332D01*
X156482015Y-102292014D01*
X156588333Y-102158694D01*
X156662320Y-102005060D01*
X156664498Y-101995521D01*
X156698880Y-101844883D01*
X156698881Y-101844879D01*
X156700265Y-101838813D01*
X156702553Y-101753552D01*
X156699973Y-101740581D01*
X156697552Y-101716000D01*
X156697552Y-88791105D01*
X156699973Y-88766524D01*
X156701179Y-88760460D01*
X156702553Y-88753553D01*
X160864553Y-88753553D01*
X160865927Y-88760460D01*
X160867132Y-88766520D01*
X160869553Y-88791100D01*
X160869553Y-101716005D01*
X160867132Y-101740585D01*
X160864553Y-101753552D01*
X160866841Y-101838813D01*
X160868225Y-101844879D01*
X160868226Y-101844883D01*
X160902609Y-101995521D01*
X160904786Y-102005060D01*
X160978773Y-102158694D01*
X161085091Y-102292014D01*
X161218411Y-102398332D01*
X161224782Y-102401400D01*
X161224785Y-102401402D01*
X161365674Y-102469251D01*
X161372045Y-102472319D01*
X161378935Y-102473892D01*
X161378939Y-102473893D01*
X161532222Y-102508879D01*
X161532226Y-102508880D01*
X161538292Y-102510264D01*
X161623553Y-102512552D01*
X161632439Y-102510784D01*
X161636520Y-102509973D01*
X161661100Y-102507552D01*
X193266006Y-102507552D01*
X193290586Y-102509973D01*
X193294667Y-102510784D01*
X193303553Y-102512552D01*
X193388814Y-102510264D01*
X193394880Y-102508880D01*
X193394884Y-102508879D01*
X193548167Y-102473893D01*
X193548171Y-102473892D01*
X193555061Y-102472319D01*
X193561432Y-102469251D01*
X193702321Y-102401402D01*
X193702324Y-102401400D01*
X193708695Y-102398332D01*
X193842015Y-102292014D01*
X193948333Y-102158694D01*
X194022320Y-102005060D01*
X194024498Y-101995521D01*
X194058880Y-101844883D01*
X194058881Y-101844879D01*
X194060265Y-101838813D01*
X194062553Y-101753552D01*
X194059974Y-101740585D01*
X194057553Y-101716005D01*
X194057553Y-88791100D01*
X194059974Y-88766520D01*
X194061179Y-88760460D01*
X194062553Y-88753553D01*
X198224553Y-88753553D01*
X198225927Y-88760460D01*
X198227132Y-88766520D01*
X198229553Y-88791100D01*
X198229553Y-101716005D01*
X198227132Y-101740585D01*
X198224553Y-101753552D01*
X198226841Y-101838813D01*
X198228225Y-101844879D01*
X198228226Y-101844883D01*
X198262609Y-101995521D01*
X198264786Y-102005060D01*
X198338773Y-102158694D01*
X198445091Y-102292014D01*
X198578411Y-102398332D01*
X198584782Y-102401400D01*
X198584785Y-102401402D01*
X198725674Y-102469251D01*
X198732045Y-102472319D01*
X198738935Y-102473892D01*
X198738939Y-102473893D01*
X198892222Y-102508879D01*
X198892226Y-102508880D01*
X198898292Y-102510264D01*
X198983553Y-102512552D01*
X198992439Y-102510784D01*
X198996520Y-102509973D01*
X199021100Y-102507552D01*
X211946006Y-102507552D01*
X211970586Y-102509973D01*
X211974667Y-102510784D01*
X211983553Y-102512552D01*
X212068814Y-102510264D01*
X212074880Y-102508880D01*
X212074884Y-102508879D01*
X212228167Y-102473893D01*
X212228171Y-102473892D01*
X212235061Y-102472319D01*
X212241432Y-102469251D01*
X212382321Y-102401402D01*
X212382324Y-102401400D01*
X212388695Y-102398332D01*
X212522015Y-102292014D01*
X212628333Y-102158694D01*
X212702320Y-102005060D01*
X212704498Y-101995521D01*
X212738880Y-101844883D01*
X212738881Y-101844879D01*
X212740265Y-101838813D01*
X212742553Y-101753552D01*
X212739974Y-101740585D01*
X212737553Y-101716005D01*
X212737553Y-88791100D01*
X212739974Y-88766520D01*
X212741179Y-88760460D01*
X212742553Y-88753553D01*
X216904553Y-88753553D01*
X216905927Y-88760460D01*
X216907132Y-88766520D01*
X216909553Y-88791100D01*
X216909553Y-101716005D01*
X216907132Y-101740585D01*
X216904553Y-101753552D01*
X216906841Y-101838813D01*
X216908225Y-101844879D01*
X216908226Y-101844883D01*
X216942609Y-101995521D01*
X216944786Y-102005060D01*
X217018773Y-102158694D01*
X217125091Y-102292014D01*
X217258411Y-102398332D01*
X217264782Y-102401400D01*
X217264785Y-102401402D01*
X217405674Y-102469251D01*
X217412045Y-102472319D01*
X217418935Y-102473892D01*
X217418939Y-102473893D01*
X217572222Y-102508879D01*
X217572226Y-102508880D01*
X217578292Y-102510264D01*
X217663553Y-102512552D01*
X217672439Y-102510784D01*
X217676520Y-102509973D01*
X217701100Y-102507552D01*
X230626006Y-102507552D01*
X230650586Y-102509973D01*
X230654667Y-102510784D01*
X230663553Y-102512552D01*
X230748814Y-102510264D01*
X230754880Y-102508880D01*
X230754884Y-102508879D01*
X230908167Y-102473893D01*
X230908171Y-102473892D01*
X230915061Y-102472319D01*
X230921432Y-102469251D01*
X231062321Y-102401402D01*
X231062324Y-102401400D01*
X231068695Y-102398332D01*
X231202015Y-102292014D01*
X231308333Y-102158694D01*
X231382320Y-102005060D01*
X231384498Y-101995521D01*
X231418880Y-101844883D01*
X231418881Y-101844879D01*
X231420265Y-101838813D01*
X231422553Y-101753552D01*
X231419974Y-101740585D01*
X231417553Y-101716005D01*
X231417553Y-88791100D01*
X231419974Y-88766520D01*
X231421179Y-88760460D01*
X231422553Y-88753553D01*
X235584553Y-88753553D01*
X235585927Y-88760460D01*
X235587132Y-88766520D01*
X235589553Y-88791100D01*
X235589553Y-101716005D01*
X235587132Y-101740585D01*
X235584553Y-101753552D01*
X235586841Y-101838813D01*
X235588225Y-101844879D01*
X235588226Y-101844883D01*
X235622609Y-101995521D01*
X235624786Y-102005060D01*
X235698773Y-102158694D01*
X235805091Y-102292014D01*
X235938411Y-102398332D01*
X235944782Y-102401400D01*
X235944785Y-102401402D01*
X236085674Y-102469251D01*
X236092045Y-102472319D01*
X236098935Y-102473892D01*
X236098939Y-102473893D01*
X236252222Y-102508879D01*
X236252226Y-102508880D01*
X236258292Y-102510264D01*
X236343553Y-102512552D01*
X236352439Y-102510784D01*
X236356520Y-102509973D01*
X236381100Y-102507552D01*
X249306006Y-102507552D01*
X249330586Y-102509973D01*
X249334667Y-102510784D01*
X249343553Y-102512552D01*
X249428814Y-102510264D01*
X249434880Y-102508880D01*
X249434884Y-102508879D01*
X249588167Y-102473893D01*
X249588171Y-102473892D01*
X249595061Y-102472319D01*
X249601432Y-102469251D01*
X249742321Y-102401402D01*
X249742324Y-102401400D01*
X249748695Y-102398332D01*
X249882015Y-102292014D01*
X249988333Y-102158694D01*
X250062320Y-102005060D01*
X250064498Y-101995521D01*
X250098880Y-101844883D01*
X250098881Y-101844879D01*
X250100265Y-101838813D01*
X250102553Y-101753552D01*
X250099974Y-101740585D01*
X250097553Y-101716005D01*
X250097553Y-88791100D01*
X250099974Y-88766520D01*
X250101179Y-88760460D01*
X250102553Y-88753553D01*
X254264553Y-88753553D01*
X254265927Y-88760460D01*
X254267132Y-88766520D01*
X254269553Y-88791100D01*
X254269553Y-101716005D01*
X254267132Y-101740585D01*
X254264553Y-101753552D01*
X254266841Y-101838813D01*
X254268225Y-101844879D01*
X254268226Y-101844883D01*
X254302609Y-101995521D01*
X254304786Y-102005060D01*
X254378773Y-102158694D01*
X254485091Y-102292014D01*
X254618411Y-102398332D01*
X254624782Y-102401400D01*
X254624785Y-102401402D01*
X254765674Y-102469251D01*
X254772045Y-102472319D01*
X254778935Y-102473892D01*
X254778939Y-102473893D01*
X254932222Y-102508879D01*
X254932226Y-102508880D01*
X254938292Y-102510264D01*
X255023553Y-102512552D01*
X255032439Y-102510784D01*
X255036520Y-102509973D01*
X255061100Y-102507552D01*
X267986006Y-102507552D01*
X268010586Y-102509973D01*
X268014667Y-102510784D01*
X268023553Y-102512552D01*
X268108814Y-102510264D01*
X268114880Y-102508880D01*
X268114884Y-102508879D01*
X268268167Y-102473893D01*
X268268171Y-102473892D01*
X268275061Y-102472319D01*
X268281432Y-102469251D01*
X268422321Y-102401402D01*
X268422324Y-102401400D01*
X268428695Y-102398332D01*
X268562015Y-102292014D01*
X268668333Y-102158694D01*
X268742320Y-102005060D01*
X268744498Y-101995521D01*
X268778880Y-101844883D01*
X268778881Y-101844879D01*
X268780265Y-101838813D01*
X268782553Y-101753552D01*
X268779974Y-101740585D01*
X268777553Y-101716005D01*
X268777553Y-88791100D01*
X268779974Y-88766520D01*
X268781179Y-88760460D01*
X268782553Y-88753553D01*
X268780265Y-88668292D01*
X268778880Y-88662222D01*
X268743894Y-88508939D01*
X268743893Y-88508935D01*
X268742320Y-88502045D01*
X268737886Y-88492838D01*
X268671403Y-88354785D01*
X268671401Y-88354782D01*
X268668333Y-88348411D01*
X268562015Y-88215091D01*
X268428695Y-88108773D01*
X268422324Y-88105705D01*
X268422321Y-88105703D01*
X268281432Y-88037854D01*
X268281431Y-88037854D01*
X268275061Y-88034786D01*
X268268171Y-88033213D01*
X268268167Y-88033212D01*
X268114884Y-87998226D01*
X268114880Y-87998225D01*
X268108814Y-87996841D01*
X268023553Y-87994553D01*
X268014760Y-87996302D01*
X268010586Y-87997132D01*
X267986006Y-87999553D01*
X255061100Y-87999553D01*
X255036520Y-87997132D01*
X255032346Y-87996302D01*
X255023553Y-87994553D01*
X254938292Y-87996841D01*
X254932226Y-87998225D01*
X254932222Y-87998226D01*
X254778939Y-88033212D01*
X254778935Y-88033213D01*
X254772045Y-88034786D01*
X254765675Y-88037854D01*
X254765674Y-88037854D01*
X254624785Y-88105703D01*
X254624782Y-88105705D01*
X254618411Y-88108773D01*
X254485091Y-88215091D01*
X254378773Y-88348411D01*
X254375705Y-88354782D01*
X254375703Y-88354785D01*
X254309220Y-88492838D01*
X254304786Y-88502045D01*
X254303213Y-88508935D01*
X254303212Y-88508939D01*
X254268226Y-88662222D01*
X254266841Y-88668292D01*
X254264553Y-88753553D01*
X250102553Y-88753553D01*
X250100265Y-88668292D01*
X250098880Y-88662222D01*
X250063894Y-88508939D01*
X250063893Y-88508935D01*
X250062320Y-88502045D01*
X250057886Y-88492838D01*
X249991403Y-88354785D01*
X249991401Y-88354782D01*
X249988333Y-88348411D01*
X249882015Y-88215091D01*
X249748695Y-88108773D01*
X249742324Y-88105705D01*
X249742321Y-88105703D01*
X249601432Y-88037854D01*
X249601431Y-88037854D01*
X249595061Y-88034786D01*
X249588171Y-88033213D01*
X249588167Y-88033212D01*
X249434884Y-87998226D01*
X249434880Y-87998225D01*
X249428814Y-87996841D01*
X249343553Y-87994553D01*
X249334760Y-87996302D01*
X249330586Y-87997132D01*
X249306006Y-87999553D01*
X236381100Y-87999553D01*
X236356520Y-87997132D01*
X236352346Y-87996302D01*
X236343553Y-87994553D01*
X236258292Y-87996841D01*
X236252226Y-87998225D01*
X236252222Y-87998226D01*
X236098939Y-88033212D01*
X236098935Y-88033213D01*
X236092045Y-88034786D01*
X236085675Y-88037854D01*
X236085674Y-88037854D01*
X235944785Y-88105703D01*
X235944782Y-88105705D01*
X235938411Y-88108773D01*
X235805091Y-88215091D01*
X235698773Y-88348411D01*
X235695705Y-88354782D01*
X235695703Y-88354785D01*
X235629220Y-88492838D01*
X235624786Y-88502045D01*
X235623213Y-88508935D01*
X235623212Y-88508939D01*
X235588226Y-88662222D01*
X235586841Y-88668292D01*
X235584553Y-88753553D01*
X231422553Y-88753553D01*
X231420265Y-88668292D01*
X231418880Y-88662222D01*
X231383894Y-88508939D01*
X231383893Y-88508935D01*
X231382320Y-88502045D01*
X231377886Y-88492838D01*
X231311403Y-88354785D01*
X231311401Y-88354782D01*
X231308333Y-88348411D01*
X231202015Y-88215091D01*
X231068695Y-88108773D01*
X231062324Y-88105705D01*
X231062321Y-88105703D01*
X230921432Y-88037854D01*
X230921431Y-88037854D01*
X230915061Y-88034786D01*
X230908171Y-88033213D01*
X230908167Y-88033212D01*
X230754884Y-87998226D01*
X230754880Y-87998225D01*
X230748814Y-87996841D01*
X230663553Y-87994553D01*
X230654760Y-87996302D01*
X230650586Y-87997132D01*
X230626006Y-87999553D01*
X217701100Y-87999553D01*
X217676520Y-87997132D01*
X217672346Y-87996302D01*
X217663553Y-87994553D01*
X217578292Y-87996841D01*
X217572226Y-87998225D01*
X217572222Y-87998226D01*
X217418939Y-88033212D01*
X217418935Y-88033213D01*
X217412045Y-88034786D01*
X217405675Y-88037854D01*
X217405674Y-88037854D01*
X217264785Y-88105703D01*
X217264782Y-88105705D01*
X217258411Y-88108773D01*
X217125091Y-88215091D01*
X217018773Y-88348411D01*
X217015705Y-88354782D01*
X217015703Y-88354785D01*
X216949220Y-88492838D01*
X216944786Y-88502045D01*
X216943213Y-88508935D01*
X216943212Y-88508939D01*
X216908226Y-88662222D01*
X216906841Y-88668292D01*
X216904553Y-88753553D01*
X212742553Y-88753553D01*
X212740265Y-88668292D01*
X212738880Y-88662222D01*
X212703894Y-88508939D01*
X212703893Y-88508935D01*
X212702320Y-88502045D01*
X212697886Y-88492838D01*
X212631403Y-88354785D01*
X212631401Y-88354782D01*
X212628333Y-88348411D01*
X212522015Y-88215091D01*
X212388695Y-88108773D01*
X212382324Y-88105705D01*
X212382321Y-88105703D01*
X212241432Y-88037854D01*
X212241431Y-88037854D01*
X212235061Y-88034786D01*
X212228171Y-88033213D01*
X212228167Y-88033212D01*
X212074884Y-87998226D01*
X212074880Y-87998225D01*
X212068814Y-87996841D01*
X211983553Y-87994553D01*
X211974760Y-87996302D01*
X211970586Y-87997132D01*
X211946006Y-87999553D01*
X210473553Y-87999553D01*
X210405432Y-87979551D01*
X210358939Y-87925895D01*
X210347553Y-87873553D01*
X210347553Y-87791100D01*
X210349974Y-87766520D01*
X210351179Y-87760460D01*
X210352553Y-87753553D01*
X210350265Y-87668292D01*
X210348880Y-87662222D01*
X210313894Y-87508939D01*
X210313893Y-87508935D01*
X210312320Y-87502045D01*
X210238333Y-87348411D01*
X210132015Y-87215091D01*
X209998695Y-87108773D01*
X209992324Y-87105705D01*
X209992321Y-87105703D01*
X209851432Y-87037854D01*
X209851431Y-87037854D01*
X209845061Y-87034786D01*
X209838171Y-87033213D01*
X209838167Y-87033212D01*
X209684884Y-86998226D01*
X209684880Y-86998225D01*
X209678814Y-86996841D01*
X209593553Y-86994553D01*
X209584667Y-86996321D01*
X209580586Y-86997132D01*
X209556006Y-86999553D01*
X202891100Y-86999553D01*
X202866520Y-86997132D01*
X202862439Y-86996321D01*
X202853553Y-86994553D01*
X202768292Y-86996841D01*
X202762226Y-86998225D01*
X202762222Y-86998226D01*
X202608939Y-87033212D01*
X202608935Y-87033213D01*
X202602045Y-87034786D01*
X202595675Y-87037854D01*
X202595674Y-87037854D01*
X202454785Y-87105703D01*
X202454782Y-87105705D01*
X202448411Y-87108773D01*
X202315091Y-87215091D01*
X202208773Y-87348411D01*
X202134786Y-87502045D01*
X202133213Y-87508935D01*
X202133212Y-87508939D01*
X202098226Y-87662222D01*
X202096841Y-87668292D01*
X202094553Y-87753553D01*
X202095927Y-87760460D01*
X202097132Y-87766520D01*
X202099553Y-87791100D01*
X202099553Y-87873553D01*
X202079551Y-87941674D01*
X202025895Y-87988167D01*
X201973553Y-87999553D01*
X199021100Y-87999553D01*
X198996520Y-87997132D01*
X198992346Y-87996302D01*
X198983553Y-87994553D01*
X198898292Y-87996841D01*
X198892226Y-87998225D01*
X198892222Y-87998226D01*
X198738939Y-88033212D01*
X198738935Y-88033213D01*
X198732045Y-88034786D01*
X198725675Y-88037854D01*
X198725674Y-88037854D01*
X198584785Y-88105703D01*
X198584782Y-88105705D01*
X198578411Y-88108773D01*
X198445091Y-88215091D01*
X198338773Y-88348411D01*
X198335705Y-88354782D01*
X198335703Y-88354785D01*
X198269220Y-88492838D01*
X198264786Y-88502045D01*
X198263213Y-88508935D01*
X198263212Y-88508939D01*
X198228226Y-88662222D01*
X198226841Y-88668292D01*
X198224553Y-88753553D01*
X194062553Y-88753553D01*
X194060265Y-88668292D01*
X194058880Y-88662222D01*
X194023894Y-88508939D01*
X194023893Y-88508935D01*
X194022320Y-88502045D01*
X194017886Y-88492838D01*
X193951403Y-88354785D01*
X193951401Y-88354782D01*
X193948333Y-88348411D01*
X193842015Y-88215091D01*
X193708695Y-88108773D01*
X193702324Y-88105705D01*
X193702321Y-88105703D01*
X193561432Y-88037854D01*
X193561431Y-88037854D01*
X193555061Y-88034786D01*
X193548171Y-88033213D01*
X193548167Y-88033212D01*
X193394884Y-87998226D01*
X193394880Y-87998225D01*
X193388814Y-87996841D01*
X193303553Y-87994553D01*
X193296652Y-87995926D01*
X193292223Y-87996302D01*
X193222653Y-87982141D01*
X193171784Y-87932615D01*
X193155553Y-87870755D01*
X193155553Y-87791100D01*
X193157974Y-87766520D01*
X193159179Y-87760460D01*
X193160553Y-87753553D01*
X193158265Y-87668292D01*
X193156880Y-87662222D01*
X193121894Y-87508939D01*
X193121893Y-87508935D01*
X193120320Y-87502045D01*
X193046333Y-87348411D01*
X192940015Y-87215091D01*
X192806695Y-87108773D01*
X192800324Y-87105705D01*
X192800321Y-87105703D01*
X192659432Y-87037854D01*
X192659431Y-87037854D01*
X192653061Y-87034786D01*
X192646171Y-87033213D01*
X192646167Y-87033212D01*
X192492884Y-86998226D01*
X192492880Y-86998225D01*
X192486814Y-86996841D01*
X192401553Y-86994553D01*
X192392667Y-86996321D01*
X192388586Y-86997132D01*
X192364006Y-86999553D01*
X186439100Y-86999553D01*
X186414520Y-86997132D01*
X186410439Y-86996321D01*
X186401553Y-86994553D01*
X186316292Y-86996841D01*
X186310226Y-86998225D01*
X186310222Y-86998226D01*
X186156939Y-87033212D01*
X186156935Y-87033213D01*
X186150045Y-87034786D01*
X186143675Y-87037854D01*
X186143674Y-87037854D01*
X186002785Y-87105703D01*
X186002782Y-87105705D01*
X185996411Y-87108773D01*
X185863091Y-87215091D01*
X185756773Y-87348411D01*
X185682786Y-87502045D01*
X185681213Y-87508935D01*
X185681212Y-87508939D01*
X185646226Y-87662222D01*
X185644841Y-87668292D01*
X185642553Y-87753553D01*
X185643927Y-87760460D01*
X185645132Y-87766520D01*
X185647553Y-87791100D01*
X185647553Y-87873553D01*
X185627551Y-87941674D01*
X185573895Y-87988167D01*
X185521553Y-87999553D01*
X172373553Y-87999553D01*
X172305432Y-87979551D01*
X172258939Y-87925895D01*
X172247553Y-87873553D01*
X172247553Y-87791100D01*
X172249974Y-87766520D01*
X172251179Y-87760460D01*
X172252553Y-87753553D01*
X172250265Y-87668292D01*
X172248880Y-87662222D01*
X172213894Y-87508939D01*
X172213893Y-87508935D01*
X172212320Y-87502045D01*
X172138333Y-87348411D01*
X172032015Y-87215091D01*
X171898695Y-87108773D01*
X171892324Y-87105705D01*
X171892321Y-87105703D01*
X171751432Y-87037854D01*
X171751431Y-87037854D01*
X171745061Y-87034786D01*
X171738171Y-87033213D01*
X171738167Y-87033212D01*
X171584884Y-86998226D01*
X171584880Y-86998225D01*
X171578814Y-86996841D01*
X171493553Y-86994553D01*
X171484667Y-86996321D01*
X171480586Y-86997132D01*
X171456006Y-86999553D01*
X162563100Y-86999553D01*
X162538520Y-86997132D01*
X162534439Y-86996321D01*
X162525553Y-86994553D01*
X162440292Y-86996841D01*
X162434226Y-86998225D01*
X162434222Y-86998226D01*
X162280939Y-87033212D01*
X162280935Y-87033213D01*
X162274045Y-87034786D01*
X162267675Y-87037854D01*
X162267674Y-87037854D01*
X162126785Y-87105703D01*
X162126782Y-87105705D01*
X162120411Y-87108773D01*
X161987091Y-87215091D01*
X161880773Y-87348411D01*
X161806786Y-87502045D01*
X161805213Y-87508935D01*
X161805212Y-87508939D01*
X161770226Y-87662222D01*
X161768841Y-87668292D01*
X161766553Y-87753553D01*
X161767927Y-87760460D01*
X161769132Y-87766520D01*
X161771553Y-87791100D01*
X161771553Y-87870755D01*
X161751551Y-87938876D01*
X161697895Y-87985369D01*
X161634883Y-87996302D01*
X161630454Y-87995926D01*
X161623553Y-87994553D01*
X161538292Y-87996841D01*
X161532226Y-87998225D01*
X161532222Y-87998226D01*
X161378939Y-88033212D01*
X161378935Y-88033213D01*
X161372045Y-88034786D01*
X161365675Y-88037854D01*
X161365674Y-88037854D01*
X161224785Y-88105703D01*
X161224782Y-88105705D01*
X161218411Y-88108773D01*
X161085091Y-88215091D01*
X160978773Y-88348411D01*
X160975705Y-88354782D01*
X160975703Y-88354785D01*
X160909220Y-88492838D01*
X160904786Y-88502045D01*
X160903213Y-88508935D01*
X160903212Y-88508939D01*
X160868226Y-88662222D01*
X160866841Y-88668292D01*
X160864553Y-88753553D01*
X156702553Y-88753553D01*
X156700265Y-88668292D01*
X156698880Y-88662222D01*
X156663894Y-88508939D01*
X156663893Y-88508935D01*
X156662320Y-88502045D01*
X156657886Y-88492838D01*
X156591403Y-88354785D01*
X156591401Y-88354782D01*
X156588333Y-88348411D01*
X156482015Y-88215091D01*
X156348695Y-88108773D01*
X156342324Y-88105705D01*
X156342321Y-88105703D01*
X156201432Y-88037854D01*
X156201431Y-88037854D01*
X156195061Y-88034786D01*
X156188171Y-88033213D01*
X156188167Y-88033212D01*
X156034884Y-87998226D01*
X156034880Y-87998225D01*
X156028814Y-87996841D01*
X155943553Y-87994553D01*
X155934760Y-87996302D01*
X155930586Y-87997132D01*
X155906006Y-87999553D01*
X142981100Y-87999553D01*
X142956520Y-87997132D01*
X142952346Y-87996302D01*
X142943553Y-87994553D01*
X142858292Y-87996841D01*
X142852226Y-87998225D01*
X142852222Y-87998226D01*
X142698939Y-88033212D01*
X142698935Y-88033213D01*
X142692045Y-88034786D01*
X142685675Y-88037854D01*
X142685674Y-88037854D01*
X142544785Y-88105703D01*
X142544782Y-88105705D01*
X142538411Y-88108773D01*
X142405091Y-88215091D01*
X142298773Y-88348411D01*
X142295705Y-88354782D01*
X142295703Y-88354785D01*
X142229220Y-88492838D01*
X142224786Y-88502045D01*
X142223213Y-88508935D01*
X142223212Y-88508939D01*
X142188226Y-88662222D01*
X142186841Y-88668292D01*
X142184553Y-88753553D01*
X138022553Y-88753553D01*
X138020265Y-88668292D01*
X138018880Y-88662222D01*
X137983894Y-88508939D01*
X137983893Y-88508935D01*
X137982320Y-88502045D01*
X137977886Y-88492838D01*
X137911403Y-88354785D01*
X137911401Y-88354782D01*
X137908333Y-88348411D01*
X137802015Y-88215091D01*
X137668695Y-88108773D01*
X137662324Y-88105705D01*
X137662321Y-88105703D01*
X137521432Y-88037854D01*
X137521431Y-88037854D01*
X137515061Y-88034786D01*
X137508171Y-88033213D01*
X137508167Y-88033212D01*
X137354884Y-87998226D01*
X137354880Y-87998225D01*
X137348814Y-87996841D01*
X137263553Y-87994553D01*
X137256652Y-87995926D01*
X137252223Y-87996302D01*
X137182653Y-87982141D01*
X137131784Y-87932615D01*
X137115553Y-87870755D01*
X137115553Y-87791100D01*
X137117974Y-87766520D01*
X137119179Y-87760460D01*
X137120553Y-87753553D01*
X137118265Y-87668292D01*
X137116880Y-87662222D01*
X137081894Y-87508939D01*
X137081893Y-87508935D01*
X137080320Y-87502045D01*
X137006333Y-87348411D01*
X136900015Y-87215091D01*
X136766695Y-87108773D01*
X136760324Y-87105705D01*
X136760321Y-87105703D01*
X136619432Y-87037854D01*
X136619431Y-87037854D01*
X136613061Y-87034786D01*
X136606171Y-87033213D01*
X136606167Y-87033212D01*
X136452884Y-86998226D01*
X136452880Y-86998225D01*
X136446814Y-86996841D01*
X136361553Y-86994553D01*
X136352667Y-86996321D01*
X136348586Y-86997132D01*
X136324006Y-86999553D01*
X127431100Y-86999553D01*
X127406520Y-86997132D01*
X127402439Y-86996321D01*
X127393553Y-86994553D01*
X127308292Y-86996841D01*
X127302226Y-86998225D01*
X127302222Y-86998226D01*
X127148939Y-87033212D01*
X127148935Y-87033213D01*
X127142045Y-87034786D01*
X127135675Y-87037854D01*
X127135674Y-87037854D01*
X126994785Y-87105703D01*
X126994782Y-87105705D01*
X126988411Y-87108773D01*
X126855091Y-87215091D01*
X126748773Y-87348411D01*
X126674786Y-87502045D01*
X126673213Y-87508935D01*
X126673212Y-87508939D01*
X126638226Y-87662222D01*
X126636841Y-87668292D01*
X126634553Y-87753553D01*
X126635927Y-87760460D01*
X126637132Y-87766520D01*
X126639553Y-87791100D01*
X126639553Y-87873553D01*
X126619551Y-87941674D01*
X126565895Y-87988167D01*
X126513553Y-87999553D01*
X113365553Y-87999553D01*
X113297432Y-87979551D01*
X113250939Y-87925895D01*
X113239553Y-87873553D01*
X113239553Y-87791100D01*
X113241974Y-87766520D01*
X113243179Y-87760460D01*
X113244553Y-87753553D01*
X113242265Y-87668292D01*
X113240880Y-87662222D01*
X113205894Y-87508939D01*
X113205893Y-87508935D01*
X113204320Y-87502045D01*
X113130333Y-87348411D01*
X113024015Y-87215091D01*
X112890695Y-87108773D01*
X112884324Y-87105705D01*
X112884321Y-87105703D01*
X112743432Y-87037854D01*
X112743431Y-87037854D01*
X112737061Y-87034786D01*
X112730171Y-87033213D01*
X112730167Y-87033212D01*
X112576884Y-86998226D01*
X112576880Y-86998225D01*
X112570814Y-86996841D01*
X112485553Y-86994553D01*
X112476667Y-86996321D01*
X112472586Y-86997132D01*
X112448006Y-86999553D01*
X106523100Y-86999553D01*
X106498520Y-86997132D01*
X106494439Y-86996321D01*
X106485553Y-86994553D01*
X106400292Y-86996841D01*
X106394226Y-86998225D01*
X106394222Y-86998226D01*
X106240939Y-87033212D01*
X106240935Y-87033213D01*
X106234045Y-87034786D01*
X106227675Y-87037854D01*
X106227674Y-87037854D01*
X106086785Y-87105703D01*
X106086782Y-87105705D01*
X106080411Y-87108773D01*
X105947091Y-87215091D01*
X105840773Y-87348411D01*
X105766786Y-87502045D01*
X105765213Y-87508935D01*
X105765212Y-87508939D01*
X105730226Y-87662222D01*
X105728841Y-87668292D01*
X105726553Y-87753553D01*
X105727927Y-87760460D01*
X105729132Y-87766520D01*
X105731553Y-87791100D01*
X105731553Y-87870755D01*
X105711551Y-87938876D01*
X105657895Y-87985369D01*
X105594883Y-87996302D01*
X105590454Y-87995926D01*
X105583553Y-87994553D01*
X105498292Y-87996841D01*
X105492226Y-87998225D01*
X105492222Y-87998226D01*
X105338939Y-88033212D01*
X105338935Y-88033213D01*
X105332045Y-88034786D01*
X105325675Y-88037854D01*
X105325674Y-88037854D01*
X105184785Y-88105703D01*
X105184782Y-88105705D01*
X105178411Y-88108773D01*
X105045091Y-88215091D01*
X104938773Y-88348411D01*
X104935705Y-88354782D01*
X104935703Y-88354785D01*
X104869220Y-88492838D01*
X104864786Y-88502045D01*
X104863213Y-88508935D01*
X104863212Y-88508939D01*
X104828226Y-88662222D01*
X104826841Y-88668292D01*
X104824553Y-88753553D01*
X100662553Y-88753553D01*
X100660265Y-88668292D01*
X100658880Y-88662222D01*
X100623894Y-88508939D01*
X100623893Y-88508935D01*
X100622320Y-88502045D01*
X100617886Y-88492838D01*
X100551403Y-88354785D01*
X100551401Y-88354782D01*
X100548333Y-88348411D01*
X100442015Y-88215091D01*
X100308695Y-88108773D01*
X100302324Y-88105705D01*
X100302321Y-88105703D01*
X100161432Y-88037854D01*
X100161431Y-88037854D01*
X100155061Y-88034786D01*
X100148171Y-88033213D01*
X100148167Y-88033212D01*
X99994884Y-87998226D01*
X99994880Y-87998225D01*
X99988814Y-87996841D01*
X99903553Y-87994553D01*
X99894760Y-87996302D01*
X99890586Y-87997132D01*
X99866006Y-87999553D01*
X96913553Y-87999553D01*
X96845432Y-87979551D01*
X96798939Y-87925895D01*
X96787553Y-87873553D01*
X96787553Y-87791100D01*
X96789974Y-87766520D01*
X96791179Y-87760460D01*
X96792553Y-87753553D01*
X96790265Y-87668292D01*
X96788880Y-87662222D01*
X96753894Y-87508939D01*
X96753893Y-87508935D01*
X96752320Y-87502045D01*
X96678333Y-87348411D01*
X96572015Y-87215091D01*
X96438695Y-87108773D01*
X96432324Y-87105705D01*
X96432321Y-87105703D01*
X96291432Y-87037854D01*
X96291431Y-87037854D01*
X96285061Y-87034786D01*
X96278171Y-87033213D01*
X96278167Y-87033212D01*
X96124884Y-86998226D01*
X96124880Y-86998225D01*
X96118814Y-86996841D01*
X96033553Y-86994553D01*
X96024667Y-86996321D01*
X96020586Y-86997132D01*
X95996006Y-86999553D01*
X89331100Y-86999553D01*
X89306520Y-86997132D01*
X89302439Y-86996321D01*
X89293553Y-86994553D01*
X89208292Y-86996841D01*
X89202226Y-86998225D01*
X89202222Y-86998226D01*
X89048939Y-87033212D01*
X89048935Y-87033213D01*
X89042045Y-87034786D01*
X89035675Y-87037854D01*
X89035674Y-87037854D01*
X88894785Y-87105703D01*
X88894782Y-87105705D01*
X88888411Y-87108773D01*
X88755091Y-87215091D01*
X88648773Y-87348411D01*
X88574786Y-87502045D01*
X88573213Y-87508935D01*
X88573212Y-87508939D01*
X88538226Y-87662222D01*
X88536841Y-87668292D01*
X88534553Y-87753553D01*
X88535927Y-87760460D01*
X88537132Y-87766520D01*
X88539553Y-87791100D01*
X88539553Y-87873553D01*
X88519551Y-87941674D01*
X88465895Y-87988167D01*
X88413553Y-87999553D01*
X86941100Y-87999553D01*
X86916520Y-87997132D01*
X86912346Y-87996302D01*
X86903553Y-87994553D01*
X86818292Y-87996841D01*
X86812226Y-87998225D01*
X86812222Y-87998226D01*
X86658939Y-88033212D01*
X86658935Y-88033213D01*
X86652045Y-88034786D01*
X86645675Y-88037854D01*
X86645674Y-88037854D01*
X86504785Y-88105703D01*
X86504782Y-88105705D01*
X86498411Y-88108773D01*
X86365091Y-88215091D01*
X86258773Y-88348411D01*
X86255705Y-88354782D01*
X86255703Y-88354785D01*
X86189220Y-88492838D01*
X86184786Y-88502045D01*
X86183213Y-88508935D01*
X86183212Y-88508939D01*
X86148226Y-88662222D01*
X86146841Y-88668292D01*
X86144553Y-88753553D01*
X81982553Y-88753553D01*
X81980265Y-88668292D01*
X81978880Y-88662222D01*
X81943894Y-88508939D01*
X81943893Y-88508935D01*
X81942320Y-88502045D01*
X81937886Y-88492838D01*
X81871403Y-88354785D01*
X81871401Y-88354782D01*
X81868333Y-88348411D01*
X81762015Y-88215091D01*
X81628695Y-88108773D01*
X81622324Y-88105705D01*
X81622321Y-88105703D01*
X81481432Y-88037854D01*
X81481431Y-88037854D01*
X81475061Y-88034786D01*
X81468171Y-88033213D01*
X81468167Y-88033212D01*
X81314884Y-87998226D01*
X81314880Y-87998225D01*
X81308814Y-87996841D01*
X81223553Y-87994553D01*
X81214760Y-87996302D01*
X81210586Y-87997132D01*
X81186006Y-87999553D01*
X68261100Y-87999553D01*
X68236520Y-87997132D01*
X68232346Y-87996302D01*
X68223553Y-87994553D01*
X68138292Y-87996841D01*
X68132226Y-87998225D01*
X68132222Y-87998226D01*
X67978939Y-88033212D01*
X67978935Y-88033213D01*
X67972045Y-88034786D01*
X67965675Y-88037854D01*
X67965674Y-88037854D01*
X67824785Y-88105703D01*
X67824782Y-88105705D01*
X67818411Y-88108773D01*
X67685091Y-88215091D01*
X67578773Y-88348411D01*
X67575705Y-88354782D01*
X67575703Y-88354785D01*
X67509220Y-88492838D01*
X67504786Y-88502045D01*
X67503213Y-88508935D01*
X67503212Y-88508939D01*
X67468226Y-88662222D01*
X67466841Y-88668292D01*
X67464553Y-88753553D01*
X63302553Y-88753553D01*
X63300265Y-88668292D01*
X63298880Y-88662222D01*
X63263894Y-88508939D01*
X63263893Y-88508935D01*
X63262320Y-88502045D01*
X63257886Y-88492838D01*
X63191403Y-88354785D01*
X63191401Y-88354782D01*
X63188333Y-88348411D01*
X63082015Y-88215091D01*
X62948695Y-88108773D01*
X62942324Y-88105705D01*
X62942321Y-88105703D01*
X62801432Y-88037854D01*
X62801431Y-88037854D01*
X62795061Y-88034786D01*
X62788171Y-88033213D01*
X62788167Y-88033212D01*
X62634884Y-87998226D01*
X62634880Y-87998225D01*
X62628814Y-87996841D01*
X62543553Y-87994553D01*
X62534760Y-87996302D01*
X62530586Y-87997132D01*
X62506006Y-87999553D01*
X49581100Y-87999553D01*
X49556520Y-87997132D01*
X49552346Y-87996302D01*
X49543553Y-87994553D01*
X49458292Y-87996841D01*
X49452226Y-87998225D01*
X49452222Y-87998226D01*
X49298939Y-88033212D01*
X49298935Y-88033213D01*
X49292045Y-88034786D01*
X49285675Y-88037854D01*
X49285674Y-88037854D01*
X49144785Y-88105703D01*
X49144782Y-88105705D01*
X49138411Y-88108773D01*
X49005091Y-88215091D01*
X48898773Y-88348411D01*
X48895705Y-88354782D01*
X48895703Y-88354785D01*
X48829220Y-88492838D01*
X48824786Y-88502045D01*
X48823213Y-88508935D01*
X48823212Y-88508939D01*
X48788226Y-88662222D01*
X48786841Y-88668292D01*
X48784553Y-88753553D01*
X44622553Y-88753553D01*
X44620265Y-88668292D01*
X44618880Y-88662222D01*
X44583894Y-88508939D01*
X44583893Y-88508935D01*
X44582320Y-88502045D01*
X44577886Y-88492838D01*
X44511403Y-88354785D01*
X44511401Y-88354782D01*
X44508333Y-88348411D01*
X44402015Y-88215091D01*
X44268695Y-88108773D01*
X44262324Y-88105705D01*
X44262321Y-88105703D01*
X44121432Y-88037854D01*
X44121431Y-88037854D01*
X44115061Y-88034786D01*
X44108171Y-88033213D01*
X44108167Y-88033212D01*
X43954884Y-87998226D01*
X43954880Y-87998225D01*
X43948814Y-87996841D01*
X43863553Y-87994553D01*
X43854760Y-87996302D01*
X43850586Y-87997132D01*
X43826006Y-87999553D01*
X30901100Y-87999553D01*
X30876520Y-87997132D01*
X30872346Y-87996302D01*
X30863553Y-87994553D01*
X30778292Y-87996841D01*
X30772226Y-87998225D01*
X30772222Y-87998226D01*
X30618939Y-88033212D01*
X30618935Y-88033213D01*
X30612045Y-88034786D01*
X30605675Y-88037854D01*
X30605674Y-88037854D01*
X30464785Y-88105703D01*
X30464782Y-88105705D01*
X30458411Y-88108773D01*
X30325091Y-88215091D01*
X30218773Y-88348411D01*
X30215705Y-88354782D01*
X30215703Y-88354785D01*
X30149220Y-88492838D01*
X30144786Y-88502045D01*
X30143213Y-88508935D01*
X30143212Y-88508939D01*
X30108226Y-88662222D01*
X30106841Y-88668292D01*
X30104553Y-88753553D01*
X28250000Y-88753553D01*
X28250000Y-69200000D01*
X30101000Y-69200000D01*
X30103421Y-69212171D01*
X30103421Y-69212173D01*
X30103579Y-69212967D01*
X30106000Y-69237547D01*
X30106000Y-83162453D01*
X30103579Y-83187033D01*
X30101000Y-83200000D01*
X30106000Y-83225137D01*
X30120715Y-83299115D01*
X30127609Y-83309433D01*
X30127610Y-83309435D01*
X30169966Y-83372825D01*
X30176859Y-83383141D01*
X30187175Y-83390034D01*
X30250565Y-83432390D01*
X30250567Y-83432391D01*
X30260885Y-83439285D01*
X30360000Y-83459000D01*
X30372171Y-83456579D01*
X30372173Y-83456579D01*
X30372967Y-83456421D01*
X30397547Y-83454000D01*
X44322453Y-83454000D01*
X44347033Y-83456421D01*
X44347827Y-83456579D01*
X44347829Y-83456579D01*
X44360000Y-83459000D01*
X44459115Y-83439285D01*
X44469433Y-83432391D01*
X44469435Y-83432390D01*
X44532825Y-83390034D01*
X44543141Y-83383141D01*
X44550034Y-83372825D01*
X44592390Y-83309435D01*
X44592391Y-83309433D01*
X44599285Y-83299115D01*
X44614000Y-83225137D01*
X44619000Y-83200000D01*
X44616421Y-83187033D01*
X44614000Y-83162453D01*
X44614000Y-69237547D01*
X44616421Y-69212967D01*
X44616579Y-69212173D01*
X44616579Y-69212171D01*
X44619000Y-69200000D01*
X48781000Y-69200000D01*
X48783421Y-69212171D01*
X48783421Y-69212173D01*
X48783579Y-69212967D01*
X48786000Y-69237547D01*
X48786000Y-83162453D01*
X48783579Y-83187033D01*
X48781000Y-83200000D01*
X48786000Y-83225137D01*
X48800715Y-83299115D01*
X48807609Y-83309433D01*
X48807610Y-83309435D01*
X48849966Y-83372825D01*
X48856859Y-83383141D01*
X48867175Y-83390034D01*
X48930565Y-83432390D01*
X48930567Y-83432391D01*
X48940885Y-83439285D01*
X49040000Y-83459000D01*
X49052171Y-83456579D01*
X49052173Y-83456579D01*
X49052967Y-83456421D01*
X49077547Y-83454000D01*
X63002453Y-83454000D01*
X63027033Y-83456421D01*
X63027827Y-83456579D01*
X63027829Y-83456579D01*
X63040000Y-83459000D01*
X63139115Y-83439285D01*
X63149433Y-83432391D01*
X63149435Y-83432390D01*
X63212825Y-83390034D01*
X63223141Y-83383141D01*
X63230034Y-83372825D01*
X63272390Y-83309435D01*
X63272391Y-83309433D01*
X63279285Y-83299115D01*
X63294000Y-83225137D01*
X63299000Y-83200000D01*
X63296421Y-83187033D01*
X63294000Y-83162453D01*
X63294000Y-69237547D01*
X63296421Y-69212967D01*
X63296579Y-69212173D01*
X63296579Y-69212171D01*
X63299000Y-69200000D01*
X67461000Y-69200000D01*
X67463421Y-69212171D01*
X67463421Y-69212173D01*
X67463579Y-69212967D01*
X67466000Y-69237547D01*
X67466000Y-83162453D01*
X67463579Y-83187033D01*
X67461000Y-83200000D01*
X67466000Y-83225137D01*
X67480715Y-83299115D01*
X67487609Y-83309433D01*
X67487610Y-83309435D01*
X67529966Y-83372825D01*
X67536859Y-83383141D01*
X67547175Y-83390034D01*
X67610565Y-83432390D01*
X67610567Y-83432391D01*
X67620885Y-83439285D01*
X67720000Y-83459000D01*
X67732171Y-83456579D01*
X67732173Y-83456579D01*
X67732967Y-83456421D01*
X67757547Y-83454000D01*
X81682453Y-83454000D01*
X81707033Y-83456421D01*
X81707827Y-83456579D01*
X81707829Y-83456579D01*
X81720000Y-83459000D01*
X81819115Y-83439285D01*
X81829433Y-83432391D01*
X81829435Y-83432390D01*
X81892825Y-83390034D01*
X81903141Y-83383141D01*
X81910034Y-83372825D01*
X81952390Y-83309435D01*
X81952391Y-83309433D01*
X81959285Y-83299115D01*
X81974000Y-83225137D01*
X81979000Y-83200000D01*
X81976421Y-83187033D01*
X81974000Y-83162453D01*
X81974000Y-69237547D01*
X81976421Y-69212967D01*
X81976579Y-69212173D01*
X81976579Y-69212171D01*
X81979000Y-69200000D01*
X86141000Y-69200000D01*
X86143421Y-69212171D01*
X86143421Y-69212173D01*
X86143579Y-69212967D01*
X86146000Y-69237547D01*
X86146000Y-83162453D01*
X86143579Y-83187033D01*
X86141000Y-83200000D01*
X86146000Y-83225137D01*
X86160715Y-83299115D01*
X86167609Y-83309433D01*
X86167610Y-83309435D01*
X86209966Y-83372825D01*
X86216859Y-83383141D01*
X86227175Y-83390034D01*
X86290565Y-83432390D01*
X86290567Y-83432391D01*
X86300885Y-83439285D01*
X86400000Y-83459000D01*
X86412171Y-83456579D01*
X86412173Y-83456579D01*
X86412967Y-83456421D01*
X86437547Y-83454000D01*
X100362453Y-83454000D01*
X100387033Y-83456421D01*
X100387827Y-83456579D01*
X100387829Y-83456579D01*
X100400000Y-83459000D01*
X100499115Y-83439285D01*
X100509433Y-83432391D01*
X100509435Y-83432390D01*
X100572825Y-83390034D01*
X100583141Y-83383141D01*
X100590034Y-83372825D01*
X100632390Y-83309435D01*
X100632391Y-83309433D01*
X100639285Y-83299115D01*
X100654000Y-83225137D01*
X100659000Y-83200000D01*
X100656421Y-83187033D01*
X100654000Y-83162453D01*
X100654000Y-69237547D01*
X100656421Y-69212967D01*
X100656579Y-69212173D01*
X100656579Y-69212171D01*
X100659000Y-69200000D01*
X104821000Y-69200000D01*
X104823421Y-69212171D01*
X104823421Y-69212173D01*
X104823579Y-69212967D01*
X104826000Y-69237547D01*
X104826000Y-83162453D01*
X104823579Y-83187033D01*
X104821000Y-83200000D01*
X104826000Y-83225137D01*
X104840715Y-83299115D01*
X104847609Y-83309433D01*
X104847610Y-83309435D01*
X104889966Y-83372825D01*
X104896859Y-83383141D01*
X104907175Y-83390034D01*
X104970565Y-83432390D01*
X104970567Y-83432391D01*
X104980885Y-83439285D01*
X105080000Y-83459000D01*
X105092171Y-83456579D01*
X105092173Y-83456579D01*
X105092967Y-83456421D01*
X105117547Y-83454000D01*
X119042453Y-83454000D01*
X119067033Y-83456421D01*
X119067827Y-83456579D01*
X119067829Y-83456579D01*
X119080000Y-83459000D01*
X119179115Y-83439285D01*
X119189433Y-83432391D01*
X119189435Y-83432390D01*
X119252825Y-83390034D01*
X119263141Y-83383141D01*
X119270034Y-83372825D01*
X119312390Y-83309435D01*
X119312391Y-83309433D01*
X119319285Y-83299115D01*
X119334000Y-83225137D01*
X119339000Y-83200000D01*
X119336421Y-83187033D01*
X119334000Y-83162453D01*
X119334000Y-69237547D01*
X119336421Y-69212967D01*
X119336579Y-69212173D01*
X119336579Y-69212171D01*
X119339000Y-69200000D01*
X123501000Y-69200000D01*
X123503421Y-69212171D01*
X123503421Y-69212173D01*
X123503579Y-69212967D01*
X123506000Y-69237547D01*
X123506000Y-83162453D01*
X123503579Y-83187033D01*
X123501000Y-83200000D01*
X123506000Y-83225137D01*
X123520715Y-83299115D01*
X123527609Y-83309433D01*
X123527610Y-83309435D01*
X123569966Y-83372825D01*
X123576859Y-83383141D01*
X123587175Y-83390034D01*
X123650565Y-83432390D01*
X123650567Y-83432391D01*
X123660885Y-83439285D01*
X123760000Y-83459000D01*
X123772171Y-83456579D01*
X123772173Y-83456579D01*
X123772967Y-83456421D01*
X123797547Y-83454000D01*
X137722453Y-83454000D01*
X137747033Y-83456421D01*
X137747827Y-83456579D01*
X137747829Y-83456579D01*
X137760000Y-83459000D01*
X137859115Y-83439285D01*
X137869433Y-83432391D01*
X137869435Y-83432390D01*
X137932825Y-83390034D01*
X137943141Y-83383141D01*
X137950034Y-83372825D01*
X137992390Y-83309435D01*
X137992391Y-83309433D01*
X137999285Y-83299115D01*
X138014000Y-83225137D01*
X138019000Y-83200000D01*
X138016421Y-83187033D01*
X138014000Y-83162453D01*
X138014000Y-69237547D01*
X138016421Y-69212967D01*
X138016579Y-69212173D01*
X138016579Y-69212171D01*
X138019000Y-69200000D01*
X142181000Y-69200000D01*
X142183421Y-69212171D01*
X142183421Y-69212173D01*
X142183579Y-69212967D01*
X142186000Y-69237547D01*
X142186000Y-83162453D01*
X142183579Y-83187033D01*
X142181000Y-83200000D01*
X142186000Y-83225137D01*
X142200715Y-83299115D01*
X142207609Y-83309433D01*
X142207610Y-83309435D01*
X142249966Y-83372825D01*
X142256859Y-83383141D01*
X142267175Y-83390034D01*
X142330565Y-83432390D01*
X142330567Y-83432391D01*
X142340885Y-83439285D01*
X142440000Y-83459000D01*
X142452171Y-83456579D01*
X142452173Y-83456579D01*
X142452967Y-83456421D01*
X142477547Y-83454000D01*
X156402453Y-83454000D01*
X156427033Y-83456421D01*
X156427827Y-83456579D01*
X156427829Y-83456579D01*
X156440000Y-83459000D01*
X156539115Y-83439285D01*
X156549433Y-83432391D01*
X156549435Y-83432390D01*
X156612825Y-83390034D01*
X156623141Y-83383141D01*
X156630034Y-83372825D01*
X156672390Y-83309435D01*
X156672391Y-83309433D01*
X156679285Y-83299115D01*
X156694000Y-83225137D01*
X156699000Y-83200000D01*
X156696421Y-83187033D01*
X156694000Y-83162453D01*
X156694000Y-69237547D01*
X156696421Y-69212967D01*
X156696579Y-69212173D01*
X156696579Y-69212171D01*
X156699000Y-69200000D01*
X156679285Y-69100885D01*
X156672391Y-69090567D01*
X156672390Y-69090565D01*
X156630034Y-69027175D01*
X156623141Y-69016859D01*
X156612825Y-69009966D01*
X156549435Y-68967610D01*
X156549433Y-68967609D01*
X156539115Y-68960715D01*
X156465137Y-68946000D01*
X156440000Y-68941000D01*
X156427829Y-68943421D01*
X156427827Y-68943421D01*
X156427033Y-68943579D01*
X156402453Y-68946000D01*
X142477547Y-68946000D01*
X142452967Y-68943579D01*
X142452173Y-68943421D01*
X142452171Y-68943421D01*
X142440000Y-68941000D01*
X142414863Y-68946000D01*
X142340885Y-68960715D01*
X142330567Y-68967609D01*
X142330565Y-68967610D01*
X142267175Y-69009966D01*
X142256859Y-69016859D01*
X142249966Y-69027175D01*
X142207610Y-69090565D01*
X142207609Y-69090567D01*
X142200715Y-69100885D01*
X142181000Y-69200000D01*
X138019000Y-69200000D01*
X137999285Y-69100885D01*
X137992391Y-69090567D01*
X137992390Y-69090565D01*
X137950034Y-69027175D01*
X137943141Y-69016859D01*
X137932825Y-69009966D01*
X137869435Y-68967610D01*
X137869433Y-68967609D01*
X137859115Y-68960715D01*
X137785137Y-68946000D01*
X137760000Y-68941000D01*
X137747829Y-68943421D01*
X137747827Y-68943421D01*
X137747033Y-68943579D01*
X137722453Y-68946000D01*
X123797547Y-68946000D01*
X123772967Y-68943579D01*
X123772173Y-68943421D01*
X123772171Y-68943421D01*
X123760000Y-68941000D01*
X123734863Y-68946000D01*
X123660885Y-68960715D01*
X123650567Y-68967609D01*
X123650565Y-68967610D01*
X123587175Y-69009966D01*
X123576859Y-69016859D01*
X123569966Y-69027175D01*
X123527610Y-69090565D01*
X123527609Y-69090567D01*
X123520715Y-69100885D01*
X123501000Y-69200000D01*
X119339000Y-69200000D01*
X119319285Y-69100885D01*
X119312391Y-69090567D01*
X119312390Y-69090565D01*
X119270034Y-69027175D01*
X119263141Y-69016859D01*
X119252825Y-69009966D01*
X119189435Y-68967610D01*
X119189433Y-68967609D01*
X119179115Y-68960715D01*
X119105137Y-68946000D01*
X119080000Y-68941000D01*
X119067829Y-68943421D01*
X119067827Y-68943421D01*
X119067033Y-68943579D01*
X119042453Y-68946000D01*
X105117547Y-68946000D01*
X105092967Y-68943579D01*
X105092173Y-68943421D01*
X105092171Y-68943421D01*
X105080000Y-68941000D01*
X105054863Y-68946000D01*
X104980885Y-68960715D01*
X104970567Y-68967609D01*
X104970565Y-68967610D01*
X104907175Y-69009966D01*
X104896859Y-69016859D01*
X104889966Y-69027175D01*
X104847610Y-69090565D01*
X104847609Y-69090567D01*
X104840715Y-69100885D01*
X104821000Y-69200000D01*
X100659000Y-69200000D01*
X100639285Y-69100885D01*
X100632391Y-69090567D01*
X100632390Y-69090565D01*
X100590034Y-69027175D01*
X100583141Y-69016859D01*
X100572825Y-69009966D01*
X100509435Y-68967610D01*
X100509433Y-68967609D01*
X100499115Y-68960715D01*
X100425137Y-68946000D01*
X100400000Y-68941000D01*
X100387829Y-68943421D01*
X100387827Y-68943421D01*
X100387033Y-68943579D01*
X100362453Y-68946000D01*
X86437547Y-68946000D01*
X86412967Y-68943579D01*
X86412173Y-68943421D01*
X86412171Y-68943421D01*
X86400000Y-68941000D01*
X86374863Y-68946000D01*
X86300885Y-68960715D01*
X86290567Y-68967609D01*
X86290565Y-68967610D01*
X86227175Y-69009966D01*
X86216859Y-69016859D01*
X86209966Y-69027175D01*
X86167610Y-69090565D01*
X86167609Y-69090567D01*
X86160715Y-69100885D01*
X86141000Y-69200000D01*
X81979000Y-69200000D01*
X81959285Y-69100885D01*
X81952391Y-69090567D01*
X81952390Y-69090565D01*
X81910034Y-69027175D01*
X81903141Y-69016859D01*
X81892825Y-69009966D01*
X81829435Y-68967610D01*
X81829433Y-68967609D01*
X81819115Y-68960715D01*
X81745137Y-68946000D01*
X81720000Y-68941000D01*
X81707829Y-68943421D01*
X81707827Y-68943421D01*
X81707033Y-68943579D01*
X81682453Y-68946000D01*
X67757547Y-68946000D01*
X67732967Y-68943579D01*
X67732173Y-68943421D01*
X67732171Y-68943421D01*
X67720000Y-68941000D01*
X67694863Y-68946000D01*
X67620885Y-68960715D01*
X67610567Y-68967609D01*
X67610565Y-68967610D01*
X67547175Y-69009966D01*
X67536859Y-69016859D01*
X67529966Y-69027175D01*
X67487610Y-69090565D01*
X67487609Y-69090567D01*
X67480715Y-69100885D01*
X67461000Y-69200000D01*
X63299000Y-69200000D01*
X63279285Y-69100885D01*
X63272391Y-69090567D01*
X63272390Y-69090565D01*
X63230034Y-69027175D01*
X63223141Y-69016859D01*
X63212825Y-69009966D01*
X63149435Y-68967610D01*
X63149433Y-68967609D01*
X63139115Y-68960715D01*
X63065137Y-68946000D01*
X63040000Y-68941000D01*
X63027829Y-68943421D01*
X63027827Y-68943421D01*
X63027033Y-68943579D01*
X63002453Y-68946000D01*
X49077547Y-68946000D01*
X49052967Y-68943579D01*
X49052173Y-68943421D01*
X49052171Y-68943421D01*
X49040000Y-68941000D01*
X49014863Y-68946000D01*
X48940885Y-68960715D01*
X48930567Y-68967609D01*
X48930565Y-68967610D01*
X48867175Y-69009966D01*
X48856859Y-69016859D01*
X48849966Y-69027175D01*
X48807610Y-69090565D01*
X48807609Y-69090567D01*
X48800715Y-69100885D01*
X48781000Y-69200000D01*
X44619000Y-69200000D01*
X44599285Y-69100885D01*
X44592391Y-69090567D01*
X44592390Y-69090565D01*
X44550034Y-69027175D01*
X44543141Y-69016859D01*
X44532825Y-69009966D01*
X44469435Y-68967610D01*
X44469433Y-68967609D01*
X44459115Y-68960715D01*
X44385137Y-68946000D01*
X44360000Y-68941000D01*
X44347829Y-68943421D01*
X44347827Y-68943421D01*
X44347033Y-68943579D01*
X44322453Y-68946000D01*
X30397547Y-68946000D01*
X30372967Y-68943579D01*
X30372173Y-68943421D01*
X30372171Y-68943421D01*
X30360000Y-68941000D01*
X30334863Y-68946000D01*
X30260885Y-68960715D01*
X30250567Y-68967609D01*
X30250565Y-68967610D01*
X30187175Y-69009966D01*
X30176859Y-69016859D01*
X30169966Y-69027175D01*
X30127610Y-69090565D01*
X30127609Y-69090567D01*
X30120715Y-69100885D01*
X30101000Y-69200000D01*
X28250000Y-69200000D01*
X28250000Y-50150000D01*
X30101000Y-50150000D01*
X30103421Y-50162171D01*
X30103421Y-50162173D01*
X30103579Y-50162967D01*
X30106000Y-50187547D01*
X30106000Y-64112453D01*
X30103579Y-64137033D01*
X30101000Y-64150000D01*
X30106000Y-64175137D01*
X30120715Y-64249115D01*
X30127609Y-64259433D01*
X30127610Y-64259435D01*
X30169966Y-64322825D01*
X30176859Y-64333141D01*
X30187175Y-64340034D01*
X30250565Y-64382390D01*
X30250567Y-64382391D01*
X30260885Y-64389285D01*
X30360000Y-64409000D01*
X30372171Y-64406579D01*
X30372173Y-64406579D01*
X30372967Y-64406421D01*
X30397547Y-64404000D01*
X44322453Y-64404000D01*
X44347033Y-64406421D01*
X44347827Y-64406579D01*
X44347829Y-64406579D01*
X44360000Y-64409000D01*
X44459115Y-64389285D01*
X44469433Y-64382391D01*
X44469435Y-64382390D01*
X44532825Y-64340034D01*
X44543141Y-64333141D01*
X44550034Y-64322825D01*
X44592390Y-64259435D01*
X44592391Y-64259433D01*
X44599285Y-64249115D01*
X44614000Y-64175137D01*
X44619000Y-64150000D01*
X44616421Y-64137033D01*
X44614000Y-64112453D01*
X44614000Y-50187547D01*
X44616421Y-50162967D01*
X44616579Y-50162173D01*
X44616579Y-50162171D01*
X44619000Y-50150000D01*
X44599285Y-50050885D01*
X44592391Y-50040567D01*
X44592390Y-50040565D01*
X44550034Y-49977175D01*
X44543141Y-49966859D01*
X44532825Y-49959966D01*
X44469435Y-49917610D01*
X44469433Y-49917609D01*
X44459115Y-49910715D01*
X44385137Y-49896000D01*
X44360000Y-49891000D01*
X44347829Y-49893421D01*
X44347827Y-49893421D01*
X44347033Y-49893579D01*
X44322453Y-49896000D01*
X30397547Y-49896000D01*
X30372967Y-49893579D01*
X30372173Y-49893421D01*
X30372171Y-49893421D01*
X30360000Y-49891000D01*
X30334863Y-49896000D01*
X30260885Y-49910715D01*
X30250567Y-49917609D01*
X30250565Y-49917610D01*
X30187175Y-49959966D01*
X30176859Y-49966859D01*
X30169966Y-49977175D01*
X30127610Y-50040565D01*
X30127609Y-50040567D01*
X30120715Y-50050885D01*
X30101000Y-50150000D01*
X28250000Y-50150000D01*
X28250000Y-31100000D01*
X30101000Y-31100000D01*
X30103421Y-31112171D01*
X30103421Y-31112173D01*
X30103579Y-31112967D01*
X30106000Y-31137547D01*
X30106000Y-45062453D01*
X30103579Y-45087033D01*
X30101000Y-45100000D01*
X30106000Y-45125137D01*
X30120715Y-45199115D01*
X30127609Y-45209433D01*
X30127610Y-45209435D01*
X30169966Y-45272825D01*
X30176859Y-45283141D01*
X30187175Y-45290034D01*
X30250565Y-45332390D01*
X30250567Y-45332391D01*
X30260885Y-45339285D01*
X30360000Y-45359000D01*
X30372171Y-45356579D01*
X30372173Y-45356579D01*
X30372967Y-45356421D01*
X30397547Y-45354000D01*
X44322453Y-45354000D01*
X44347033Y-45356421D01*
X44347827Y-45356579D01*
X44347829Y-45356579D01*
X44360000Y-45359000D01*
X44459115Y-45339285D01*
X44469433Y-45332391D01*
X44469435Y-45332390D01*
X44532825Y-45290034D01*
X44543141Y-45283141D01*
X44550034Y-45272825D01*
X44592390Y-45209435D01*
X44592391Y-45209433D01*
X44599285Y-45199115D01*
X44614000Y-45125137D01*
X44619000Y-45100000D01*
X44616421Y-45087033D01*
X44614000Y-45062453D01*
X44614000Y-31137547D01*
X44616421Y-31112967D01*
X44616579Y-31112173D01*
X44616579Y-31112171D01*
X44619000Y-31100000D01*
X48781000Y-31100000D01*
X48783421Y-31112171D01*
X48783421Y-31112173D01*
X48783579Y-31112967D01*
X48786000Y-31137547D01*
X48786000Y-45062453D01*
X48783579Y-45087033D01*
X48781000Y-45100000D01*
X48786000Y-45125137D01*
X48800715Y-45199115D01*
X48807609Y-45209433D01*
X48807610Y-45209435D01*
X48849966Y-45272825D01*
X48856859Y-45283141D01*
X48867175Y-45290034D01*
X48930565Y-45332390D01*
X48930567Y-45332391D01*
X48940885Y-45339285D01*
X49040000Y-45359000D01*
X49052171Y-45356579D01*
X49052173Y-45356579D01*
X49052967Y-45356421D01*
X49077547Y-45354000D01*
X57393946Y-45354000D01*
X57462067Y-45374002D01*
X57508560Y-45427658D01*
X57518664Y-45497932D01*
X57489170Y-45562512D01*
X57482339Y-45569792D01*
X57270292Y-45778534D01*
X57063316Y-46038273D01*
X56889043Y-46320996D01*
X56749998Y-46622608D01*
X56748839Y-46626208D01*
X56748836Y-46626215D01*
X56741310Y-46649586D01*
X56648195Y-46938740D01*
X56647476Y-46942456D01*
X56647474Y-46942464D01*
X56585827Y-47261094D01*
X56585826Y-47261103D01*
X56585108Y-47264813D01*
X56584841Y-47268589D01*
X56584840Y-47268594D01*
X56561919Y-47592314D01*
X56561651Y-47596103D01*
X56578165Y-47927812D01*
X56578806Y-47931543D01*
X56578807Y-47931551D01*
X56592293Y-48010030D01*
X56634409Y-48255134D01*
X56635497Y-48258773D01*
X56635498Y-48258776D01*
X56658446Y-48335507D01*
X56729569Y-48573329D01*
X56862267Y-48877787D01*
X57030581Y-49164098D01*
X57032882Y-49167113D01*
X57229772Y-49425101D01*
X57229777Y-49425106D01*
X57232072Y-49428114D01*
X57463822Y-49666012D01*
X57466772Y-49668388D01*
X57466784Y-49668399D01*
X57471099Y-49671874D01*
X57511603Y-49730184D01*
X57514152Y-49801135D01*
X57477937Y-49862200D01*
X57414457Y-49893993D01*
X57392059Y-49896000D01*
X49077547Y-49896000D01*
X49052967Y-49893579D01*
X49052173Y-49893421D01*
X49052171Y-49893421D01*
X49040000Y-49891000D01*
X49014863Y-49896000D01*
X48940885Y-49910715D01*
X48930567Y-49917609D01*
X48930565Y-49917610D01*
X48867175Y-49959966D01*
X48856859Y-49966859D01*
X48849966Y-49977175D01*
X48807610Y-50040565D01*
X48807609Y-50040567D01*
X48800715Y-50050885D01*
X48781000Y-50150000D01*
X48783421Y-50162171D01*
X48783421Y-50162173D01*
X48783579Y-50162967D01*
X48786000Y-50187547D01*
X48786000Y-64112453D01*
X48783579Y-64137033D01*
X48781000Y-64150000D01*
X48786000Y-64175137D01*
X48800715Y-64249115D01*
X48807609Y-64259433D01*
X48807610Y-64259435D01*
X48849966Y-64322825D01*
X48856859Y-64333141D01*
X48867175Y-64340034D01*
X48930565Y-64382390D01*
X48930567Y-64382391D01*
X48940885Y-64389285D01*
X49040000Y-64409000D01*
X49052171Y-64406579D01*
X49052173Y-64406579D01*
X49052967Y-64406421D01*
X49077547Y-64404000D01*
X63002453Y-64404000D01*
X63027033Y-64406421D01*
X63027827Y-64406579D01*
X63027829Y-64406579D01*
X63040000Y-64409000D01*
X63139115Y-64389285D01*
X63149433Y-64382391D01*
X63149435Y-64382390D01*
X63212825Y-64340034D01*
X63223141Y-64333141D01*
X63230034Y-64322825D01*
X63272390Y-64259435D01*
X63272391Y-64259433D01*
X63279285Y-64249115D01*
X63294000Y-64175137D01*
X63299000Y-64150000D01*
X63296421Y-64137033D01*
X63294000Y-64112453D01*
X63294000Y-50187547D01*
X63296421Y-50162967D01*
X63296579Y-50162173D01*
X63296579Y-50162171D01*
X63299000Y-50150000D01*
X67461000Y-50150000D01*
X67463421Y-50162171D01*
X67463421Y-50162173D01*
X67463579Y-50162967D01*
X67466000Y-50187547D01*
X67466000Y-64112453D01*
X67463579Y-64137033D01*
X67461000Y-64150000D01*
X67466000Y-64175137D01*
X67480715Y-64249115D01*
X67487609Y-64259433D01*
X67487610Y-64259435D01*
X67529966Y-64322825D01*
X67536859Y-64333141D01*
X67547175Y-64340034D01*
X67610565Y-64382390D01*
X67610567Y-64382391D01*
X67620885Y-64389285D01*
X67720000Y-64409000D01*
X67732171Y-64406579D01*
X67732173Y-64406579D01*
X67732967Y-64406421D01*
X67757547Y-64404000D01*
X81682453Y-64404000D01*
X81707033Y-64406421D01*
X81707827Y-64406579D01*
X81707829Y-64406579D01*
X81720000Y-64409000D01*
X81819115Y-64389285D01*
X81829433Y-64382391D01*
X81829435Y-64382390D01*
X81892825Y-64340034D01*
X81903141Y-64333141D01*
X81910034Y-64322825D01*
X81952390Y-64259435D01*
X81952391Y-64259433D01*
X81959285Y-64249115D01*
X81974000Y-64175137D01*
X81979000Y-64150000D01*
X81976421Y-64137033D01*
X81974000Y-64112453D01*
X81974000Y-50187547D01*
X81976421Y-50162967D01*
X81976579Y-50162173D01*
X81976579Y-50162171D01*
X81979000Y-50150000D01*
X86141000Y-50150000D01*
X86143421Y-50162171D01*
X86143421Y-50162173D01*
X86143579Y-50162967D01*
X86146000Y-50187547D01*
X86146000Y-64112453D01*
X86143579Y-64137033D01*
X86141000Y-64150000D01*
X86146000Y-64175137D01*
X86160715Y-64249115D01*
X86167609Y-64259433D01*
X86167610Y-64259435D01*
X86209966Y-64322825D01*
X86216859Y-64333141D01*
X86227175Y-64340034D01*
X86290565Y-64382390D01*
X86290567Y-64382391D01*
X86300885Y-64389285D01*
X86400000Y-64409000D01*
X86412171Y-64406579D01*
X86412173Y-64406579D01*
X86412967Y-64406421D01*
X86437547Y-64404000D01*
X100362453Y-64404000D01*
X100387033Y-64406421D01*
X100387827Y-64406579D01*
X100387829Y-64406579D01*
X100400000Y-64409000D01*
X100499115Y-64389285D01*
X100509433Y-64382391D01*
X100509435Y-64382390D01*
X100572825Y-64340034D01*
X100583141Y-64333141D01*
X100590034Y-64322825D01*
X100632390Y-64259435D01*
X100632391Y-64259433D01*
X100639285Y-64249115D01*
X100654000Y-64175137D01*
X100659000Y-64150000D01*
X100656421Y-64137033D01*
X100654000Y-64112453D01*
X100654000Y-50187547D01*
X100656421Y-50162967D01*
X100656579Y-50162173D01*
X100656579Y-50162171D01*
X100659000Y-50150000D01*
X104821000Y-50150000D01*
X104823421Y-50162171D01*
X104823421Y-50162173D01*
X104823579Y-50162967D01*
X104826000Y-50187547D01*
X104826000Y-64112453D01*
X104823579Y-64137033D01*
X104821000Y-64150000D01*
X104826000Y-64175137D01*
X104840715Y-64249115D01*
X104847609Y-64259433D01*
X104847610Y-64259435D01*
X104889966Y-64322825D01*
X104896859Y-64333141D01*
X104907175Y-64340034D01*
X104970565Y-64382390D01*
X104970567Y-64382391D01*
X104980885Y-64389285D01*
X105080000Y-64409000D01*
X105092171Y-64406579D01*
X105092173Y-64406579D01*
X105092967Y-64406421D01*
X105117547Y-64404000D01*
X119042453Y-64404000D01*
X119067033Y-64406421D01*
X119067827Y-64406579D01*
X119067829Y-64406579D01*
X119080000Y-64409000D01*
X119179115Y-64389285D01*
X119189433Y-64382391D01*
X119189435Y-64382390D01*
X119252825Y-64340034D01*
X119263141Y-64333141D01*
X119270034Y-64322825D01*
X119312390Y-64259435D01*
X119312391Y-64259433D01*
X119319285Y-64249115D01*
X119334000Y-64175137D01*
X119339000Y-64150000D01*
X119336421Y-64137033D01*
X119334000Y-64112453D01*
X119334000Y-50187547D01*
X119336421Y-50162967D01*
X119336579Y-50162173D01*
X119336579Y-50162171D01*
X119339000Y-50150000D01*
X119319285Y-50050885D01*
X119312391Y-50040567D01*
X119312390Y-50040565D01*
X119270034Y-49977175D01*
X119263141Y-49966859D01*
X119252825Y-49959966D01*
X119189435Y-49917610D01*
X119189433Y-49917609D01*
X119179115Y-49910715D01*
X119105137Y-49896000D01*
X119080000Y-49891000D01*
X119067829Y-49893421D01*
X119067827Y-49893421D01*
X119067033Y-49893579D01*
X119042453Y-49896000D01*
X105117547Y-49896000D01*
X105092967Y-49893579D01*
X105092173Y-49893421D01*
X105092171Y-49893421D01*
X105080000Y-49891000D01*
X105054863Y-49896000D01*
X104980885Y-49910715D01*
X104970567Y-49917609D01*
X104970565Y-49917610D01*
X104907175Y-49959966D01*
X104896859Y-49966859D01*
X104889966Y-49977175D01*
X104847610Y-50040565D01*
X104847609Y-50040567D01*
X104840715Y-50050885D01*
X104821000Y-50150000D01*
X100659000Y-50150000D01*
X100639285Y-50050885D01*
X100632391Y-50040567D01*
X100632390Y-50040565D01*
X100590034Y-49977175D01*
X100583141Y-49966859D01*
X100572825Y-49959966D01*
X100509435Y-49917610D01*
X100509433Y-49917609D01*
X100499115Y-49910715D01*
X100425137Y-49896000D01*
X100400000Y-49891000D01*
X100387829Y-49893421D01*
X100387827Y-49893421D01*
X100387033Y-49893579D01*
X100362453Y-49896000D01*
X86437547Y-49896000D01*
X86412967Y-49893579D01*
X86412173Y-49893421D01*
X86412171Y-49893421D01*
X86400000Y-49891000D01*
X86374863Y-49896000D01*
X86300885Y-49910715D01*
X86290567Y-49917609D01*
X86290565Y-49917610D01*
X86227175Y-49959966D01*
X86216859Y-49966859D01*
X86209966Y-49977175D01*
X86167610Y-50040565D01*
X86167609Y-50040567D01*
X86160715Y-50050885D01*
X86141000Y-50150000D01*
X81979000Y-50150000D01*
X81959285Y-50050885D01*
X81952391Y-50040567D01*
X81952390Y-50040565D01*
X81910034Y-49977175D01*
X81903141Y-49966859D01*
X81892825Y-49959966D01*
X81829435Y-49917610D01*
X81829433Y-49917609D01*
X81819115Y-49910715D01*
X81745137Y-49896000D01*
X81720000Y-49891000D01*
X81707829Y-49893421D01*
X81707827Y-49893421D01*
X81707033Y-49893579D01*
X81682453Y-49896000D01*
X67757547Y-49896000D01*
X67732967Y-49893579D01*
X67732173Y-49893421D01*
X67732171Y-49893421D01*
X67720000Y-49891000D01*
X67694863Y-49896000D01*
X67620885Y-49910715D01*
X67610567Y-49917609D01*
X67610565Y-49917610D01*
X67547175Y-49959966D01*
X67536859Y-49966859D01*
X67529966Y-49977175D01*
X67487610Y-50040565D01*
X67487609Y-50040567D01*
X67480715Y-50050885D01*
X67461000Y-50150000D01*
X63299000Y-50150000D01*
X63279285Y-50050885D01*
X63272391Y-50040567D01*
X63272390Y-50040565D01*
X63230034Y-49977175D01*
X63223141Y-49966859D01*
X63212825Y-49959966D01*
X63149435Y-49917610D01*
X63149433Y-49917609D01*
X63139115Y-49910715D01*
X63065137Y-49896000D01*
X63040000Y-49891000D01*
X63027829Y-49893421D01*
X63027827Y-49893421D01*
X63027033Y-49893579D01*
X63002453Y-49896000D01*
X61246298Y-49896000D01*
X61178177Y-49875998D01*
X61131684Y-49822342D01*
X61121580Y-49752068D01*
X61151074Y-49687488D01*
X61158850Y-49679287D01*
X61175443Y-49663291D01*
X61352260Y-49492839D01*
X61404955Y-49428114D01*
X61559553Y-49238219D01*
X61559554Y-49238218D01*
X61561944Y-49235282D01*
X61563966Y-49232078D01*
X61737145Y-48957606D01*
X61737148Y-48957600D01*
X61739168Y-48954399D01*
X61881364Y-48654260D01*
X61986472Y-48339211D01*
X62052970Y-48013817D01*
X62079895Y-47682791D01*
X62080500Y-47625000D01*
X62078530Y-47592314D01*
X62060742Y-47297260D01*
X62060742Y-47297256D01*
X62060514Y-47293482D01*
X62000845Y-46966767D01*
X61992143Y-46938740D01*
X61903480Y-46653201D01*
X61902358Y-46649586D01*
X61766479Y-46346535D01*
X61595176Y-46062002D01*
X61592849Y-46059018D01*
X61592844Y-46059011D01*
X61393267Y-45803105D01*
X61393265Y-45803103D01*
X61390931Y-45800110D01*
X61160891Y-45568862D01*
X61127029Y-45506461D01*
X61132279Y-45435659D01*
X61174974Y-45378934D01*
X61241559Y-45354298D01*
X61250219Y-45354000D01*
X63002453Y-45354000D01*
X63027033Y-45356421D01*
X63027827Y-45356579D01*
X63027829Y-45356579D01*
X63040000Y-45359000D01*
X63139115Y-45339285D01*
X63149433Y-45332391D01*
X63149435Y-45332390D01*
X63212825Y-45290034D01*
X63223141Y-45283141D01*
X63230034Y-45272825D01*
X63272390Y-45209435D01*
X63272391Y-45209433D01*
X63279285Y-45199115D01*
X63294000Y-45125137D01*
X63299000Y-45100000D01*
X63296421Y-45087033D01*
X63294000Y-45062453D01*
X63294000Y-31137547D01*
X63296421Y-31112967D01*
X63296579Y-31112173D01*
X63296579Y-31112171D01*
X63299000Y-31100000D01*
X67461000Y-31100000D01*
X67463421Y-31112171D01*
X67463421Y-31112173D01*
X67463579Y-31112967D01*
X67466000Y-31137547D01*
X67466000Y-45062453D01*
X67463579Y-45087033D01*
X67461000Y-45100000D01*
X67466000Y-45125137D01*
X67480715Y-45199115D01*
X67487609Y-45209433D01*
X67487610Y-45209435D01*
X67529966Y-45272825D01*
X67536859Y-45283141D01*
X67547175Y-45290034D01*
X67610565Y-45332390D01*
X67610567Y-45332391D01*
X67620885Y-45339285D01*
X67720000Y-45359000D01*
X67732171Y-45356579D01*
X67732173Y-45356579D01*
X67732967Y-45356421D01*
X67757547Y-45354000D01*
X81682453Y-45354000D01*
X81707033Y-45356421D01*
X81707827Y-45356579D01*
X81707829Y-45356579D01*
X81720000Y-45359000D01*
X81819115Y-45339285D01*
X81829433Y-45332391D01*
X81829435Y-45332390D01*
X81892825Y-45290034D01*
X81903141Y-45283141D01*
X81910034Y-45272825D01*
X81952390Y-45209435D01*
X81952391Y-45209433D01*
X81959285Y-45199115D01*
X81974000Y-45125137D01*
X81979000Y-45100000D01*
X81976421Y-45087033D01*
X81974000Y-45062453D01*
X81974000Y-31137547D01*
X81976421Y-31112967D01*
X81976579Y-31112173D01*
X81976579Y-31112171D01*
X81979000Y-31100000D01*
X86141000Y-31100000D01*
X86143421Y-31112171D01*
X86143421Y-31112173D01*
X86143579Y-31112967D01*
X86146000Y-31137547D01*
X86146000Y-45062453D01*
X86143579Y-45087033D01*
X86141000Y-45100000D01*
X86146000Y-45125137D01*
X86160715Y-45199115D01*
X86167609Y-45209433D01*
X86167610Y-45209435D01*
X86209966Y-45272825D01*
X86216859Y-45283141D01*
X86227175Y-45290034D01*
X86290565Y-45332390D01*
X86290567Y-45332391D01*
X86300885Y-45339285D01*
X86400000Y-45359000D01*
X86412171Y-45356579D01*
X86412173Y-45356579D01*
X86412967Y-45356421D01*
X86437547Y-45354000D01*
X100362453Y-45354000D01*
X100387033Y-45356421D01*
X100387827Y-45356579D01*
X100387829Y-45356579D01*
X100400000Y-45359000D01*
X100499115Y-45339285D01*
X100509433Y-45332391D01*
X100509435Y-45332390D01*
X100572825Y-45290034D01*
X100583141Y-45283141D01*
X100590034Y-45272825D01*
X100632390Y-45209435D01*
X100632391Y-45209433D01*
X100639285Y-45199115D01*
X100654000Y-45125137D01*
X100659000Y-45100000D01*
X100656421Y-45087033D01*
X100654000Y-45062453D01*
X100654000Y-31137547D01*
X100656421Y-31112967D01*
X100656579Y-31112173D01*
X100656579Y-31112171D01*
X100659000Y-31100000D01*
X104821000Y-31100000D01*
X104823421Y-31112171D01*
X104823421Y-31112173D01*
X104823579Y-31112967D01*
X104826000Y-31137547D01*
X104826000Y-45062453D01*
X104823579Y-45087033D01*
X104821000Y-45100000D01*
X104826000Y-45125137D01*
X104840715Y-45199115D01*
X104847609Y-45209433D01*
X104847610Y-45209435D01*
X104889966Y-45272825D01*
X104896859Y-45283141D01*
X104907175Y-45290034D01*
X104970565Y-45332390D01*
X104970567Y-45332391D01*
X104980885Y-45339285D01*
X105080000Y-45359000D01*
X105092171Y-45356579D01*
X105092173Y-45356579D01*
X105092967Y-45356421D01*
X105117547Y-45354000D01*
X119042453Y-45354000D01*
X119067033Y-45356421D01*
X119067827Y-45356579D01*
X119067829Y-45356579D01*
X119080000Y-45359000D01*
X119179115Y-45339285D01*
X119189433Y-45332391D01*
X119189435Y-45332390D01*
X119252825Y-45290034D01*
X119263141Y-45283141D01*
X119270034Y-45272825D01*
X119312390Y-45209435D01*
X119312391Y-45209433D01*
X119319285Y-45199115D01*
X119334000Y-45125137D01*
X119339000Y-45100000D01*
X119336421Y-45087033D01*
X119334000Y-45062453D01*
X119334000Y-31137547D01*
X119336421Y-31112967D01*
X119336579Y-31112173D01*
X119336579Y-31112171D01*
X119339000Y-31100000D01*
X123501000Y-31100000D01*
X123503421Y-31112171D01*
X123503421Y-31112173D01*
X123503579Y-31112967D01*
X123506000Y-31137547D01*
X123506000Y-45062453D01*
X123503579Y-45087033D01*
X123501000Y-45100000D01*
X123506000Y-45125137D01*
X123520715Y-45199115D01*
X123527609Y-45209433D01*
X123527610Y-45209435D01*
X123569966Y-45272825D01*
X123576859Y-45283141D01*
X123587175Y-45290034D01*
X123650565Y-45332390D01*
X123650567Y-45332391D01*
X123660885Y-45339285D01*
X123760000Y-45359000D01*
X123772171Y-45356579D01*
X123772173Y-45356579D01*
X123772967Y-45356421D01*
X123797547Y-45354000D01*
X133593946Y-45354000D01*
X133662067Y-45374002D01*
X133708560Y-45427658D01*
X133718664Y-45497932D01*
X133689170Y-45562512D01*
X133682339Y-45569792D01*
X133470292Y-45778534D01*
X133263316Y-46038273D01*
X133089043Y-46320996D01*
X132949998Y-46622608D01*
X132948839Y-46626208D01*
X132948836Y-46626215D01*
X132941310Y-46649586D01*
X132848195Y-46938740D01*
X132847476Y-46942456D01*
X132847474Y-46942464D01*
X132785827Y-47261094D01*
X132785826Y-47261103D01*
X132785108Y-47264813D01*
X132784841Y-47268589D01*
X132784840Y-47268594D01*
X132761919Y-47592314D01*
X132761651Y-47596103D01*
X132778165Y-47927812D01*
X132778806Y-47931543D01*
X132778807Y-47931551D01*
X132792293Y-48010030D01*
X132834409Y-48255134D01*
X132835497Y-48258773D01*
X132835498Y-48258776D01*
X132858446Y-48335507D01*
X132929569Y-48573329D01*
X133062267Y-48877787D01*
X133230581Y-49164098D01*
X133232882Y-49167113D01*
X133429772Y-49425101D01*
X133429777Y-49425106D01*
X133432072Y-49428114D01*
X133663822Y-49666012D01*
X133666772Y-49668388D01*
X133666784Y-49668399D01*
X133671099Y-49671874D01*
X133711603Y-49730184D01*
X133714152Y-49801135D01*
X133677937Y-49862200D01*
X133614457Y-49893993D01*
X133592059Y-49896000D01*
X123797547Y-49896000D01*
X123772967Y-49893579D01*
X123772173Y-49893421D01*
X123772171Y-49893421D01*
X123760000Y-49891000D01*
X123734863Y-49896000D01*
X123660885Y-49910715D01*
X123650567Y-49917609D01*
X123650565Y-49917610D01*
X123587175Y-49959966D01*
X123576859Y-49966859D01*
X123569966Y-49977175D01*
X123527610Y-50040565D01*
X123527609Y-50040567D01*
X123520715Y-50050885D01*
X123501000Y-50150000D01*
X123503421Y-50162171D01*
X123503421Y-50162173D01*
X123503579Y-50162967D01*
X123506000Y-50187547D01*
X123506000Y-64112453D01*
X123503579Y-64137033D01*
X123501000Y-64150000D01*
X123506000Y-64175137D01*
X123520715Y-64249115D01*
X123527609Y-64259433D01*
X123527610Y-64259435D01*
X123569966Y-64322825D01*
X123576859Y-64333141D01*
X123587175Y-64340034D01*
X123650565Y-64382390D01*
X123650567Y-64382391D01*
X123660885Y-64389285D01*
X123760000Y-64409000D01*
X123772171Y-64406579D01*
X123772173Y-64406579D01*
X123772967Y-64406421D01*
X123797547Y-64404000D01*
X137722453Y-64404000D01*
X137747033Y-64406421D01*
X137747827Y-64406579D01*
X137747829Y-64406579D01*
X137760000Y-64409000D01*
X137859115Y-64389285D01*
X137869433Y-64382391D01*
X137869435Y-64382390D01*
X137932825Y-64340034D01*
X137943141Y-64333141D01*
X137950034Y-64322825D01*
X137992390Y-64259435D01*
X137992391Y-64259433D01*
X137999285Y-64249115D01*
X138014000Y-64175137D01*
X138019000Y-64150000D01*
X138016421Y-64137033D01*
X138014000Y-64112453D01*
X138014000Y-50187547D01*
X138016421Y-50162967D01*
X138016579Y-50162173D01*
X138016579Y-50162171D01*
X138019000Y-50150000D01*
X142181000Y-50150000D01*
X142183421Y-50162171D01*
X142183421Y-50162173D01*
X142183579Y-50162967D01*
X142186000Y-50187547D01*
X142186000Y-64112453D01*
X142183579Y-64137033D01*
X142181000Y-64150000D01*
X142186000Y-64175137D01*
X142200715Y-64249115D01*
X142207609Y-64259433D01*
X142207610Y-64259435D01*
X142249966Y-64322825D01*
X142256859Y-64333141D01*
X142267175Y-64340034D01*
X142330565Y-64382390D01*
X142330567Y-64382391D01*
X142340885Y-64389285D01*
X142440000Y-64409000D01*
X142452171Y-64406579D01*
X142452173Y-64406579D01*
X142452967Y-64406421D01*
X142477547Y-64404000D01*
X156402453Y-64404000D01*
X156427033Y-64406421D01*
X156427827Y-64406579D01*
X156427829Y-64406579D01*
X156440000Y-64409000D01*
X156539115Y-64389285D01*
X156549433Y-64382391D01*
X156549435Y-64382390D01*
X156612825Y-64340034D01*
X156623141Y-64333141D01*
X156630034Y-64322825D01*
X156672390Y-64259435D01*
X156672391Y-64259433D01*
X156679285Y-64249115D01*
X156694000Y-64175137D01*
X156699000Y-64150000D01*
X156696421Y-64137033D01*
X156694000Y-64112453D01*
X156694000Y-50187547D01*
X156696421Y-50162967D01*
X156696579Y-50162173D01*
X156696579Y-50162171D01*
X156699000Y-50150000D01*
X160861000Y-50150000D01*
X160863421Y-50162171D01*
X160863421Y-50162173D01*
X160863579Y-50162967D01*
X160866000Y-50187547D01*
X160866000Y-64112453D01*
X160863579Y-64137033D01*
X160861000Y-64150000D01*
X160866000Y-64175137D01*
X160880715Y-64249115D01*
X160887609Y-64259433D01*
X160887610Y-64259435D01*
X160929966Y-64322825D01*
X160936859Y-64333141D01*
X160947175Y-64340034D01*
X161010565Y-64382390D01*
X161010567Y-64382391D01*
X161020885Y-64389285D01*
X161120000Y-64409000D01*
X161132171Y-64406579D01*
X161132173Y-64406579D01*
X161132967Y-64406421D01*
X161157547Y-64404000D01*
X164243946Y-64404000D01*
X164312067Y-64424002D01*
X164358560Y-64477658D01*
X164368664Y-64547932D01*
X164339170Y-64612512D01*
X164332339Y-64619792D01*
X164120292Y-64828534D01*
X163913316Y-65088273D01*
X163739043Y-65370996D01*
X163599998Y-65672608D01*
X163598839Y-65676208D01*
X163598836Y-65676215D01*
X163591310Y-65699586D01*
X163498195Y-65988740D01*
X163497476Y-65992456D01*
X163497474Y-65992464D01*
X163435827Y-66311094D01*
X163435826Y-66311103D01*
X163435108Y-66314813D01*
X163434841Y-66318589D01*
X163434840Y-66318594D01*
X163411919Y-66642314D01*
X163411651Y-66646103D01*
X163428165Y-66977812D01*
X163428806Y-66981543D01*
X163428807Y-66981551D01*
X163442293Y-67060030D01*
X163484409Y-67305134D01*
X163485497Y-67308773D01*
X163485498Y-67308776D01*
X163508446Y-67385507D01*
X163579569Y-67623329D01*
X163712267Y-67927787D01*
X163880581Y-68214098D01*
X163882882Y-68217113D01*
X164079772Y-68475101D01*
X164079777Y-68475106D01*
X164082072Y-68478114D01*
X164313822Y-68716012D01*
X164316772Y-68718388D01*
X164316784Y-68718399D01*
X164321099Y-68721874D01*
X164361603Y-68780184D01*
X164364152Y-68851135D01*
X164327937Y-68912200D01*
X164264457Y-68943993D01*
X164242059Y-68946000D01*
X161157547Y-68946000D01*
X161132967Y-68943579D01*
X161132173Y-68943421D01*
X161132171Y-68943421D01*
X161120000Y-68941000D01*
X161094863Y-68946000D01*
X161020885Y-68960715D01*
X161010567Y-68967609D01*
X161010565Y-68967610D01*
X160947175Y-69009966D01*
X160936859Y-69016859D01*
X160929966Y-69027175D01*
X160887610Y-69090565D01*
X160887609Y-69090567D01*
X160880715Y-69100885D01*
X160861000Y-69200000D01*
X160863421Y-69212171D01*
X160863421Y-69212173D01*
X160863579Y-69212967D01*
X160866000Y-69237547D01*
X160866000Y-83162453D01*
X160863579Y-83187033D01*
X160861000Y-83200000D01*
X160866000Y-83225137D01*
X160880715Y-83299115D01*
X160887609Y-83309433D01*
X160887610Y-83309435D01*
X160929966Y-83372825D01*
X160936859Y-83383141D01*
X160947175Y-83390034D01*
X161010565Y-83432390D01*
X161010567Y-83432391D01*
X161020885Y-83439285D01*
X161120000Y-83459000D01*
X161132171Y-83456579D01*
X161132173Y-83456579D01*
X161132967Y-83456421D01*
X161157547Y-83454000D01*
X175082453Y-83454000D01*
X175107033Y-83456421D01*
X175107827Y-83456579D01*
X175107829Y-83456579D01*
X175120000Y-83459000D01*
X175219115Y-83439285D01*
X175229433Y-83432391D01*
X175229435Y-83432390D01*
X175292825Y-83390034D01*
X175303141Y-83383141D01*
X175310034Y-83372825D01*
X175352390Y-83309435D01*
X175352391Y-83309433D01*
X175359285Y-83299115D01*
X175374000Y-83225137D01*
X175379000Y-83200000D01*
X175376421Y-83187033D01*
X175374000Y-83162453D01*
X175374000Y-69237547D01*
X175376421Y-69212967D01*
X175376579Y-69212173D01*
X175376579Y-69212171D01*
X175379000Y-69200000D01*
X179541000Y-69200000D01*
X179543421Y-69212171D01*
X179543421Y-69212173D01*
X179543579Y-69212967D01*
X179546000Y-69237547D01*
X179546000Y-83162453D01*
X179543579Y-83187033D01*
X179541000Y-83200000D01*
X179546000Y-83225137D01*
X179560715Y-83299115D01*
X179567609Y-83309433D01*
X179567610Y-83309435D01*
X179609966Y-83372825D01*
X179616859Y-83383141D01*
X179627175Y-83390034D01*
X179690565Y-83432390D01*
X179690567Y-83432391D01*
X179700885Y-83439285D01*
X179800000Y-83459000D01*
X179812171Y-83456579D01*
X179812173Y-83456579D01*
X179812967Y-83456421D01*
X179837547Y-83454000D01*
X193762453Y-83454000D01*
X193787033Y-83456421D01*
X193787827Y-83456579D01*
X193787829Y-83456579D01*
X193800000Y-83459000D01*
X193899115Y-83439285D01*
X193909433Y-83432391D01*
X193909435Y-83432390D01*
X193972825Y-83390034D01*
X193983141Y-83383141D01*
X193990034Y-83372825D01*
X194032390Y-83309435D01*
X194032391Y-83309433D01*
X194039285Y-83299115D01*
X194054000Y-83225137D01*
X194059000Y-83200000D01*
X194056421Y-83187033D01*
X194054000Y-83162453D01*
X194054000Y-69237547D01*
X194056421Y-69212967D01*
X194056579Y-69212173D01*
X194056579Y-69212171D01*
X194059000Y-69200000D01*
X198221000Y-69200000D01*
X198223421Y-69212171D01*
X198223421Y-69212173D01*
X198223579Y-69212967D01*
X198226000Y-69237547D01*
X198226000Y-83162453D01*
X198223579Y-83187033D01*
X198221000Y-83200000D01*
X198226000Y-83225137D01*
X198240715Y-83299115D01*
X198247609Y-83309433D01*
X198247610Y-83309435D01*
X198289966Y-83372825D01*
X198296859Y-83383141D01*
X198307175Y-83390034D01*
X198370565Y-83432390D01*
X198370567Y-83432391D01*
X198380885Y-83439285D01*
X198480000Y-83459000D01*
X198492171Y-83456579D01*
X198492173Y-83456579D01*
X198492967Y-83456421D01*
X198517547Y-83454000D01*
X212442453Y-83454000D01*
X212467033Y-83456421D01*
X212467827Y-83456579D01*
X212467829Y-83456579D01*
X212480000Y-83459000D01*
X212579115Y-83439285D01*
X212589433Y-83432391D01*
X212589435Y-83432390D01*
X212652825Y-83390034D01*
X212663141Y-83383141D01*
X212670034Y-83372825D01*
X212712390Y-83309435D01*
X212712391Y-83309433D01*
X212719285Y-83299115D01*
X212734000Y-83225137D01*
X212739000Y-83200000D01*
X212736421Y-83187033D01*
X212734000Y-83162453D01*
X212734000Y-69237547D01*
X212736421Y-69212967D01*
X212736579Y-69212173D01*
X212736579Y-69212171D01*
X212739000Y-69200000D01*
X216901000Y-69200000D01*
X216903421Y-69212171D01*
X216903421Y-69212173D01*
X216903579Y-69212967D01*
X216906000Y-69237547D01*
X216906000Y-83162453D01*
X216903579Y-83187033D01*
X216901000Y-83200000D01*
X216906000Y-83225137D01*
X216920715Y-83299115D01*
X216927609Y-83309433D01*
X216927610Y-83309435D01*
X216969966Y-83372825D01*
X216976859Y-83383141D01*
X216987175Y-83390034D01*
X217050565Y-83432390D01*
X217050567Y-83432391D01*
X217060885Y-83439285D01*
X217160000Y-83459000D01*
X217172171Y-83456579D01*
X217172173Y-83456579D01*
X217172967Y-83456421D01*
X217197547Y-83454000D01*
X231122453Y-83454000D01*
X231147033Y-83456421D01*
X231147827Y-83456579D01*
X231147829Y-83456579D01*
X231160000Y-83459000D01*
X231259115Y-83439285D01*
X231269433Y-83432391D01*
X231269435Y-83432390D01*
X231332825Y-83390034D01*
X231343141Y-83383141D01*
X231350034Y-83372825D01*
X231392390Y-83309435D01*
X231392391Y-83309433D01*
X231399285Y-83299115D01*
X231414000Y-83225137D01*
X231419000Y-83200000D01*
X231416421Y-83187033D01*
X231414000Y-83162453D01*
X231414000Y-69237547D01*
X231416421Y-69212967D01*
X231416579Y-69212173D01*
X231416579Y-69212171D01*
X231419000Y-69200000D01*
X235581000Y-69200000D01*
X235583421Y-69212171D01*
X235583421Y-69212173D01*
X235583579Y-69212967D01*
X235586000Y-69237547D01*
X235586000Y-83162453D01*
X235583579Y-83187033D01*
X235581000Y-83200000D01*
X235586000Y-83225137D01*
X235600715Y-83299115D01*
X235607609Y-83309433D01*
X235607610Y-83309435D01*
X235649966Y-83372825D01*
X235656859Y-83383141D01*
X235667175Y-83390034D01*
X235730565Y-83432390D01*
X235730567Y-83432391D01*
X235740885Y-83439285D01*
X235840000Y-83459000D01*
X235852171Y-83456579D01*
X235852173Y-83456579D01*
X235852967Y-83456421D01*
X235877547Y-83454000D01*
X249802453Y-83454000D01*
X249827033Y-83456421D01*
X249827827Y-83456579D01*
X249827829Y-83456579D01*
X249840000Y-83459000D01*
X249939115Y-83439285D01*
X249949433Y-83432391D01*
X249949435Y-83432390D01*
X250012825Y-83390034D01*
X250023141Y-83383141D01*
X250030034Y-83372825D01*
X250072390Y-83309435D01*
X250072391Y-83309433D01*
X250079285Y-83299115D01*
X250094000Y-83225137D01*
X250099000Y-83200000D01*
X250096421Y-83187033D01*
X250094000Y-83162453D01*
X250094000Y-69237547D01*
X250096421Y-69212967D01*
X250096579Y-69212173D01*
X250096579Y-69212171D01*
X250099000Y-69200000D01*
X254261000Y-69200000D01*
X254263421Y-69212171D01*
X254263421Y-69212173D01*
X254263579Y-69212967D01*
X254266000Y-69237547D01*
X254266000Y-83162453D01*
X254263579Y-83187033D01*
X254261000Y-83200000D01*
X254266000Y-83225137D01*
X254280715Y-83299115D01*
X254287609Y-83309433D01*
X254287610Y-83309435D01*
X254329966Y-83372825D01*
X254336859Y-83383141D01*
X254347175Y-83390034D01*
X254410565Y-83432390D01*
X254410567Y-83432391D01*
X254420885Y-83439285D01*
X254520000Y-83459000D01*
X254532171Y-83456579D01*
X254532173Y-83456579D01*
X254532967Y-83456421D01*
X254557547Y-83454000D01*
X268482453Y-83454000D01*
X268507033Y-83456421D01*
X268507827Y-83456579D01*
X268507829Y-83456579D01*
X268520000Y-83459000D01*
X268619115Y-83439285D01*
X268629433Y-83432391D01*
X268629435Y-83432390D01*
X268692825Y-83390034D01*
X268703141Y-83383141D01*
X268710034Y-83372825D01*
X268752390Y-83309435D01*
X268752391Y-83309433D01*
X268759285Y-83299115D01*
X268774000Y-83225137D01*
X268779000Y-83200000D01*
X268776421Y-83187033D01*
X268774000Y-83162453D01*
X268774000Y-69237547D01*
X268776421Y-69212967D01*
X268776579Y-69212173D01*
X268776579Y-69212171D01*
X268779000Y-69200000D01*
X268759285Y-69100885D01*
X268752391Y-69090567D01*
X268752390Y-69090565D01*
X268710034Y-69027175D01*
X268703141Y-69016859D01*
X268692825Y-69009966D01*
X268629435Y-68967610D01*
X268629433Y-68967609D01*
X268619115Y-68960715D01*
X268545137Y-68946000D01*
X268520000Y-68941000D01*
X268507829Y-68943421D01*
X268507827Y-68943421D01*
X268507033Y-68943579D01*
X268482453Y-68946000D01*
X254557547Y-68946000D01*
X254532967Y-68943579D01*
X254532173Y-68943421D01*
X254532171Y-68943421D01*
X254520000Y-68941000D01*
X254494863Y-68946000D01*
X254420885Y-68960715D01*
X254410567Y-68967609D01*
X254410565Y-68967610D01*
X254347175Y-69009966D01*
X254336859Y-69016859D01*
X254329966Y-69027175D01*
X254287610Y-69090565D01*
X254287609Y-69090567D01*
X254280715Y-69100885D01*
X254261000Y-69200000D01*
X250099000Y-69200000D01*
X250079285Y-69100885D01*
X250072391Y-69090567D01*
X250072390Y-69090565D01*
X250030034Y-69027175D01*
X250023141Y-69016859D01*
X250012825Y-69009966D01*
X249949435Y-68967610D01*
X249949433Y-68967609D01*
X249939115Y-68960715D01*
X249865137Y-68946000D01*
X249840000Y-68941000D01*
X249827829Y-68943421D01*
X249827827Y-68943421D01*
X249827033Y-68943579D01*
X249802453Y-68946000D01*
X235877547Y-68946000D01*
X235852967Y-68943579D01*
X235852173Y-68943421D01*
X235852171Y-68943421D01*
X235840000Y-68941000D01*
X235814863Y-68946000D01*
X235740885Y-68960715D01*
X235730567Y-68967609D01*
X235730565Y-68967610D01*
X235667175Y-69009966D01*
X235656859Y-69016859D01*
X235649966Y-69027175D01*
X235607610Y-69090565D01*
X235607609Y-69090567D01*
X235600715Y-69100885D01*
X235581000Y-69200000D01*
X231419000Y-69200000D01*
X231399285Y-69100885D01*
X231392391Y-69090567D01*
X231392390Y-69090565D01*
X231350034Y-69027175D01*
X231343141Y-69016859D01*
X231332825Y-69009966D01*
X231269435Y-68967610D01*
X231269433Y-68967609D01*
X231259115Y-68960715D01*
X231185137Y-68946000D01*
X231160000Y-68941000D01*
X231147829Y-68943421D01*
X231147827Y-68943421D01*
X231147033Y-68943579D01*
X231122453Y-68946000D01*
X217197547Y-68946000D01*
X217172967Y-68943579D01*
X217172173Y-68943421D01*
X217172171Y-68943421D01*
X217160000Y-68941000D01*
X217134863Y-68946000D01*
X217060885Y-68960715D01*
X217050567Y-68967609D01*
X217050565Y-68967610D01*
X216987175Y-69009966D01*
X216976859Y-69016859D01*
X216969966Y-69027175D01*
X216927610Y-69090565D01*
X216927609Y-69090567D01*
X216920715Y-69100885D01*
X216901000Y-69200000D01*
X212739000Y-69200000D01*
X212719285Y-69100885D01*
X212712391Y-69090567D01*
X212712390Y-69090565D01*
X212670034Y-69027175D01*
X212663141Y-69016859D01*
X212652825Y-69009966D01*
X212589435Y-68967610D01*
X212589433Y-68967609D01*
X212579115Y-68960715D01*
X212505137Y-68946000D01*
X212480000Y-68941000D01*
X212467829Y-68943421D01*
X212467827Y-68943421D01*
X212467033Y-68943579D01*
X212442453Y-68946000D01*
X198517547Y-68946000D01*
X198492967Y-68943579D01*
X198492173Y-68943421D01*
X198492171Y-68943421D01*
X198480000Y-68941000D01*
X198454863Y-68946000D01*
X198380885Y-68960715D01*
X198370567Y-68967609D01*
X198370565Y-68967610D01*
X198307175Y-69009966D01*
X198296859Y-69016859D01*
X198289966Y-69027175D01*
X198247610Y-69090565D01*
X198247609Y-69090567D01*
X198240715Y-69100885D01*
X198221000Y-69200000D01*
X194059000Y-69200000D01*
X194039285Y-69100885D01*
X194032391Y-69090567D01*
X194032390Y-69090565D01*
X193990034Y-69027175D01*
X193983141Y-69016859D01*
X193972825Y-69009966D01*
X193909435Y-68967610D01*
X193909433Y-68967609D01*
X193899115Y-68960715D01*
X193825137Y-68946000D01*
X193800000Y-68941000D01*
X193787829Y-68943421D01*
X193787827Y-68943421D01*
X193787033Y-68943579D01*
X193762453Y-68946000D01*
X179837547Y-68946000D01*
X179812967Y-68943579D01*
X179812173Y-68943421D01*
X179812171Y-68943421D01*
X179800000Y-68941000D01*
X179774863Y-68946000D01*
X179700885Y-68960715D01*
X179690567Y-68967609D01*
X179690565Y-68967610D01*
X179627175Y-69009966D01*
X179616859Y-69016859D01*
X179609966Y-69027175D01*
X179567610Y-69090565D01*
X179567609Y-69090567D01*
X179560715Y-69100885D01*
X179541000Y-69200000D01*
X175379000Y-69200000D01*
X175359285Y-69100885D01*
X175352391Y-69090567D01*
X175352390Y-69090565D01*
X175310034Y-69027175D01*
X175303141Y-69016859D01*
X175292825Y-69009966D01*
X175229435Y-68967610D01*
X175229433Y-68967609D01*
X175219115Y-68960715D01*
X175145137Y-68946000D01*
X175120000Y-68941000D01*
X175107829Y-68943421D01*
X175107827Y-68943421D01*
X175107033Y-68943579D01*
X175082453Y-68946000D01*
X168096298Y-68946000D01*
X168028177Y-68925998D01*
X167981684Y-68872342D01*
X167971580Y-68802068D01*
X168001074Y-68737488D01*
X168008850Y-68729287D01*
X168025443Y-68713291D01*
X168202260Y-68542839D01*
X168254955Y-68478114D01*
X168409553Y-68288219D01*
X168409554Y-68288218D01*
X168411944Y-68285282D01*
X168413966Y-68282078D01*
X168587145Y-68007606D01*
X168587148Y-68007600D01*
X168589168Y-68004399D01*
X168731364Y-67704260D01*
X168836472Y-67389211D01*
X168902970Y-67063817D01*
X168929895Y-66732791D01*
X168930500Y-66675000D01*
X168928530Y-66642314D01*
X168910742Y-66347260D01*
X168910742Y-66347256D01*
X168910514Y-66343482D01*
X168850845Y-66016767D01*
X168842143Y-65988740D01*
X168753480Y-65703201D01*
X168752358Y-65699586D01*
X168616479Y-65396535D01*
X168445176Y-65112002D01*
X168442849Y-65109018D01*
X168442844Y-65109011D01*
X168243267Y-64853105D01*
X168243265Y-64853103D01*
X168240931Y-64850110D01*
X168010891Y-64618862D01*
X167977029Y-64556461D01*
X167982279Y-64485659D01*
X168024974Y-64428934D01*
X168091559Y-64404298D01*
X168100219Y-64404000D01*
X175082453Y-64404000D01*
X175107033Y-64406421D01*
X175107827Y-64406579D01*
X175107829Y-64406579D01*
X175120000Y-64409000D01*
X175219115Y-64389285D01*
X175229433Y-64382391D01*
X175229435Y-64382390D01*
X175292825Y-64340034D01*
X175303141Y-64333141D01*
X175310034Y-64322825D01*
X175352390Y-64259435D01*
X175352391Y-64259433D01*
X175359285Y-64249115D01*
X175374000Y-64175137D01*
X175379000Y-64150000D01*
X175376421Y-64137033D01*
X175374000Y-64112453D01*
X175374000Y-50187547D01*
X175376421Y-50162967D01*
X175376579Y-50162173D01*
X175376579Y-50162171D01*
X175379000Y-50150000D01*
X179541000Y-50150000D01*
X179543421Y-50162171D01*
X179543421Y-50162173D01*
X179543579Y-50162967D01*
X179546000Y-50187547D01*
X179546000Y-64112453D01*
X179543579Y-64137033D01*
X179541000Y-64150000D01*
X179546000Y-64175137D01*
X179560715Y-64249115D01*
X179567609Y-64259433D01*
X179567610Y-64259435D01*
X179609966Y-64322825D01*
X179616859Y-64333141D01*
X179627175Y-64340034D01*
X179690565Y-64382390D01*
X179690567Y-64382391D01*
X179700885Y-64389285D01*
X179800000Y-64409000D01*
X179812171Y-64406579D01*
X179812173Y-64406579D01*
X179812967Y-64406421D01*
X179837547Y-64404000D01*
X193762453Y-64404000D01*
X193787033Y-64406421D01*
X193787827Y-64406579D01*
X193787829Y-64406579D01*
X193800000Y-64409000D01*
X193899115Y-64389285D01*
X193909433Y-64382391D01*
X193909435Y-64382390D01*
X193972825Y-64340034D01*
X193983141Y-64333141D01*
X193990034Y-64322825D01*
X194032390Y-64259435D01*
X194032391Y-64259433D01*
X194039285Y-64249115D01*
X194054000Y-64175137D01*
X194059000Y-64150000D01*
X194056421Y-64137033D01*
X194054000Y-64112453D01*
X194054000Y-50187547D01*
X194056421Y-50162967D01*
X194056579Y-50162173D01*
X194056579Y-50162171D01*
X194059000Y-50150000D01*
X198221000Y-50150000D01*
X198223421Y-50162171D01*
X198223421Y-50162173D01*
X198223579Y-50162967D01*
X198226000Y-50187547D01*
X198226000Y-64112453D01*
X198223579Y-64137033D01*
X198221000Y-64150000D01*
X198226000Y-64175137D01*
X198240715Y-64249115D01*
X198247609Y-64259433D01*
X198247610Y-64259435D01*
X198289966Y-64322825D01*
X198296859Y-64333141D01*
X198307175Y-64340034D01*
X198370565Y-64382390D01*
X198370567Y-64382391D01*
X198380885Y-64389285D01*
X198480000Y-64409000D01*
X198492171Y-64406579D01*
X198492173Y-64406579D01*
X198492967Y-64406421D01*
X198517547Y-64404000D01*
X212442453Y-64404000D01*
X212467033Y-64406421D01*
X212467827Y-64406579D01*
X212467829Y-64406579D01*
X212480000Y-64409000D01*
X212579115Y-64389285D01*
X212589433Y-64382391D01*
X212589435Y-64382390D01*
X212652825Y-64340034D01*
X212663141Y-64333141D01*
X212670034Y-64322825D01*
X212712390Y-64259435D01*
X212712391Y-64259433D01*
X212719285Y-64249115D01*
X212734000Y-64175137D01*
X212739000Y-64150000D01*
X212736421Y-64137033D01*
X212734000Y-64112453D01*
X212734000Y-50187547D01*
X212736421Y-50162967D01*
X212736579Y-50162173D01*
X212736579Y-50162171D01*
X212739000Y-50150000D01*
X216901000Y-50150000D01*
X216903421Y-50162171D01*
X216903421Y-50162173D01*
X216903579Y-50162967D01*
X216906000Y-50187547D01*
X216906000Y-64112453D01*
X216903579Y-64137033D01*
X216901000Y-64150000D01*
X216906000Y-64175137D01*
X216920715Y-64249115D01*
X216927609Y-64259433D01*
X216927610Y-64259435D01*
X216969966Y-64322825D01*
X216976859Y-64333141D01*
X216987175Y-64340034D01*
X217050565Y-64382390D01*
X217050567Y-64382391D01*
X217060885Y-64389285D01*
X217160000Y-64409000D01*
X217172171Y-64406579D01*
X217172173Y-64406579D01*
X217172967Y-64406421D01*
X217197547Y-64404000D01*
X231122453Y-64404000D01*
X231147033Y-64406421D01*
X231147827Y-64406579D01*
X231147829Y-64406579D01*
X231160000Y-64409000D01*
X231259115Y-64389285D01*
X231269433Y-64382391D01*
X231269435Y-64382390D01*
X231332825Y-64340034D01*
X231343141Y-64333141D01*
X231350034Y-64322825D01*
X231392390Y-64259435D01*
X231392391Y-64259433D01*
X231399285Y-64249115D01*
X231414000Y-64175137D01*
X231419000Y-64150000D01*
X231416421Y-64137033D01*
X231414000Y-64112453D01*
X231414000Y-50187547D01*
X231416421Y-50162967D01*
X231416579Y-50162173D01*
X231416579Y-50162171D01*
X231419000Y-50150000D01*
X235581000Y-50150000D01*
X235583421Y-50162171D01*
X235583421Y-50162173D01*
X235583579Y-50162967D01*
X235586000Y-50187547D01*
X235586000Y-64112453D01*
X235583579Y-64137033D01*
X235581000Y-64150000D01*
X235586000Y-64175137D01*
X235600715Y-64249115D01*
X235607609Y-64259433D01*
X235607610Y-64259435D01*
X235649966Y-64322825D01*
X235656859Y-64333141D01*
X235667175Y-64340034D01*
X235730565Y-64382390D01*
X235730567Y-64382391D01*
X235740885Y-64389285D01*
X235840000Y-64409000D01*
X235852171Y-64406579D01*
X235852173Y-64406579D01*
X235852967Y-64406421D01*
X235877547Y-64404000D01*
X249802453Y-64404000D01*
X249827033Y-64406421D01*
X249827827Y-64406579D01*
X249827829Y-64406579D01*
X249840000Y-64409000D01*
X249939115Y-64389285D01*
X249949433Y-64382391D01*
X249949435Y-64382390D01*
X250012825Y-64340034D01*
X250023141Y-64333141D01*
X250030034Y-64322825D01*
X250072390Y-64259435D01*
X250072391Y-64259433D01*
X250079285Y-64249115D01*
X250094000Y-64175137D01*
X250099000Y-64150000D01*
X250096421Y-64137033D01*
X250094000Y-64112453D01*
X250094000Y-50187547D01*
X250096421Y-50162967D01*
X250096579Y-50162173D01*
X250096579Y-50162171D01*
X250099000Y-50150000D01*
X254261000Y-50150000D01*
X254263421Y-50162171D01*
X254263421Y-50162173D01*
X254263579Y-50162967D01*
X254266000Y-50187547D01*
X254266000Y-64112453D01*
X254263579Y-64137033D01*
X254261000Y-64150000D01*
X254266000Y-64175137D01*
X254280715Y-64249115D01*
X254287609Y-64259433D01*
X254287610Y-64259435D01*
X254329966Y-64322825D01*
X254336859Y-64333141D01*
X254347175Y-64340034D01*
X254410565Y-64382390D01*
X254410567Y-64382391D01*
X254420885Y-64389285D01*
X254520000Y-64409000D01*
X254532171Y-64406579D01*
X254532173Y-64406579D01*
X254532967Y-64406421D01*
X254557547Y-64404000D01*
X268482453Y-64404000D01*
X268507033Y-64406421D01*
X268507827Y-64406579D01*
X268507829Y-64406579D01*
X268520000Y-64409000D01*
X268619115Y-64389285D01*
X268629433Y-64382391D01*
X268629435Y-64382390D01*
X268692825Y-64340034D01*
X268703141Y-64333141D01*
X268710034Y-64322825D01*
X268752390Y-64259435D01*
X268752391Y-64259433D01*
X268759285Y-64249115D01*
X268774000Y-64175137D01*
X268779000Y-64150000D01*
X268776421Y-64137033D01*
X268774000Y-64112453D01*
X268774000Y-50187547D01*
X268776421Y-50162967D01*
X268776579Y-50162173D01*
X268776579Y-50162171D01*
X268779000Y-50150000D01*
X268759285Y-50050885D01*
X268752391Y-50040567D01*
X268752390Y-50040565D01*
X268710034Y-49977175D01*
X268703141Y-49966859D01*
X268692825Y-49959966D01*
X268629435Y-49917610D01*
X268629433Y-49917609D01*
X268619115Y-49910715D01*
X268545137Y-49896000D01*
X268520000Y-49891000D01*
X268507829Y-49893421D01*
X268507827Y-49893421D01*
X268507033Y-49893579D01*
X268482453Y-49896000D01*
X254557547Y-49896000D01*
X254532967Y-49893579D01*
X254532173Y-49893421D01*
X254532171Y-49893421D01*
X254520000Y-49891000D01*
X254494863Y-49896000D01*
X254420885Y-49910715D01*
X254410567Y-49917609D01*
X254410565Y-49917610D01*
X254347175Y-49959966D01*
X254336859Y-49966859D01*
X254329966Y-49977175D01*
X254287610Y-50040565D01*
X254287609Y-50040567D01*
X254280715Y-50050885D01*
X254261000Y-50150000D01*
X250099000Y-50150000D01*
X250079285Y-50050885D01*
X250072391Y-50040567D01*
X250072390Y-50040565D01*
X250030034Y-49977175D01*
X250023141Y-49966859D01*
X250012825Y-49959966D01*
X249949435Y-49917610D01*
X249949433Y-49917609D01*
X249939115Y-49910715D01*
X249865137Y-49896000D01*
X249840000Y-49891000D01*
X249827829Y-49893421D01*
X249827827Y-49893421D01*
X249827033Y-49893579D01*
X249802453Y-49896000D01*
X235877547Y-49896000D01*
X235852967Y-49893579D01*
X235852173Y-49893421D01*
X235852171Y-49893421D01*
X235840000Y-49891000D01*
X235814863Y-49896000D01*
X235740885Y-49910715D01*
X235730567Y-49917609D01*
X235730565Y-49917610D01*
X235667175Y-49959966D01*
X235656859Y-49966859D01*
X235649966Y-49977175D01*
X235607610Y-50040565D01*
X235607609Y-50040567D01*
X235600715Y-50050885D01*
X235581000Y-50150000D01*
X231419000Y-50150000D01*
X231399285Y-50050885D01*
X231392391Y-50040567D01*
X231392390Y-50040565D01*
X231350034Y-49977175D01*
X231343141Y-49966859D01*
X231332825Y-49959966D01*
X231269435Y-49917610D01*
X231269433Y-49917609D01*
X231259115Y-49910715D01*
X231185137Y-49896000D01*
X231160000Y-49891000D01*
X231147829Y-49893421D01*
X231147827Y-49893421D01*
X231147033Y-49893579D01*
X231122453Y-49896000D01*
X217197547Y-49896000D01*
X217172967Y-49893579D01*
X217172173Y-49893421D01*
X217172171Y-49893421D01*
X217160000Y-49891000D01*
X217134863Y-49896000D01*
X217060885Y-49910715D01*
X217050567Y-49917609D01*
X217050565Y-49917610D01*
X216987175Y-49959966D01*
X216976859Y-49966859D01*
X216969966Y-49977175D01*
X216927610Y-50040565D01*
X216927609Y-50040567D01*
X216920715Y-50050885D01*
X216901000Y-50150000D01*
X212739000Y-50150000D01*
X212719285Y-50050885D01*
X212712391Y-50040567D01*
X212712390Y-50040565D01*
X212670034Y-49977175D01*
X212663141Y-49966859D01*
X212652825Y-49959966D01*
X212589435Y-49917610D01*
X212589433Y-49917609D01*
X212579115Y-49910715D01*
X212505137Y-49896000D01*
X212480000Y-49891000D01*
X212467829Y-49893421D01*
X212467827Y-49893421D01*
X212467033Y-49893579D01*
X212442453Y-49896000D01*
X198517547Y-49896000D01*
X198492967Y-49893579D01*
X198492173Y-49893421D01*
X198492171Y-49893421D01*
X198480000Y-49891000D01*
X198454863Y-49896000D01*
X198380885Y-49910715D01*
X198370567Y-49917609D01*
X198370565Y-49917610D01*
X198307175Y-49959966D01*
X198296859Y-49966859D01*
X198289966Y-49977175D01*
X198247610Y-50040565D01*
X198247609Y-50040567D01*
X198240715Y-50050885D01*
X198221000Y-50150000D01*
X194059000Y-50150000D01*
X194039285Y-50050885D01*
X194032391Y-50040567D01*
X194032390Y-50040565D01*
X193990034Y-49977175D01*
X193983141Y-49966859D01*
X193972825Y-49959966D01*
X193909435Y-49917610D01*
X193909433Y-49917609D01*
X193899115Y-49910715D01*
X193825137Y-49896000D01*
X193800000Y-49891000D01*
X193787829Y-49893421D01*
X193787827Y-49893421D01*
X193787033Y-49893579D01*
X193762453Y-49896000D01*
X179837547Y-49896000D01*
X179812967Y-49893579D01*
X179812173Y-49893421D01*
X179812171Y-49893421D01*
X179800000Y-49891000D01*
X179774863Y-49896000D01*
X179700885Y-49910715D01*
X179690567Y-49917609D01*
X179690565Y-49917610D01*
X179627175Y-49959966D01*
X179616859Y-49966859D01*
X179609966Y-49977175D01*
X179567610Y-50040565D01*
X179567609Y-50040567D01*
X179560715Y-50050885D01*
X179541000Y-50150000D01*
X175379000Y-50150000D01*
X175359285Y-50050885D01*
X175352391Y-50040567D01*
X175352390Y-50040565D01*
X175310034Y-49977175D01*
X175303141Y-49966859D01*
X175292825Y-49959966D01*
X175229435Y-49917610D01*
X175229433Y-49917609D01*
X175219115Y-49910715D01*
X175145137Y-49896000D01*
X175120000Y-49891000D01*
X175107829Y-49893421D01*
X175107827Y-49893421D01*
X175107033Y-49893579D01*
X175082453Y-49896000D01*
X161157547Y-49896000D01*
X161132967Y-49893579D01*
X161132173Y-49893421D01*
X161132171Y-49893421D01*
X161120000Y-49891000D01*
X161094863Y-49896000D01*
X161020885Y-49910715D01*
X161010567Y-49917609D01*
X161010565Y-49917610D01*
X160947175Y-49959966D01*
X160936859Y-49966859D01*
X160929966Y-49977175D01*
X160887610Y-50040565D01*
X160887609Y-50040567D01*
X160880715Y-50050885D01*
X160861000Y-50150000D01*
X156699000Y-50150000D01*
X156679285Y-50050885D01*
X156672391Y-50040567D01*
X156672390Y-50040565D01*
X156630034Y-49977175D01*
X156623141Y-49966859D01*
X156612825Y-49959966D01*
X156549435Y-49917610D01*
X156549433Y-49917609D01*
X156539115Y-49910715D01*
X156465137Y-49896000D01*
X156440000Y-49891000D01*
X156427829Y-49893421D01*
X156427827Y-49893421D01*
X156427033Y-49893579D01*
X156402453Y-49896000D01*
X142477547Y-49896000D01*
X142452967Y-49893579D01*
X142452173Y-49893421D01*
X142452171Y-49893421D01*
X142440000Y-49891000D01*
X142414863Y-49896000D01*
X142340885Y-49910715D01*
X142330567Y-49917609D01*
X142330565Y-49917610D01*
X142267175Y-49959966D01*
X142256859Y-49966859D01*
X142249966Y-49977175D01*
X142207610Y-50040565D01*
X142207609Y-50040567D01*
X142200715Y-50050885D01*
X142181000Y-50150000D01*
X138019000Y-50150000D01*
X137999285Y-50050885D01*
X137992391Y-50040567D01*
X137992390Y-50040565D01*
X137950034Y-49977175D01*
X137943141Y-49966859D01*
X137932825Y-49959966D01*
X137869435Y-49917610D01*
X137869433Y-49917609D01*
X137859115Y-49910715D01*
X137785137Y-49896000D01*
X137760000Y-49891000D01*
X137747829Y-49893421D01*
X137747827Y-49893421D01*
X137747033Y-49893579D01*
X137722453Y-49896000D01*
X137446298Y-49896000D01*
X137378177Y-49875998D01*
X137331684Y-49822342D01*
X137321580Y-49752068D01*
X137351074Y-49687488D01*
X137358850Y-49679287D01*
X137375443Y-49663291D01*
X137552260Y-49492839D01*
X137604955Y-49428114D01*
X137759553Y-49238219D01*
X137759554Y-49238218D01*
X137761944Y-49235282D01*
X137763966Y-49232078D01*
X137937145Y-48957606D01*
X137937148Y-48957600D01*
X137939168Y-48954399D01*
X138081364Y-48654260D01*
X138186472Y-48339211D01*
X138252970Y-48013817D01*
X138279895Y-47682791D01*
X138280500Y-47625000D01*
X138278530Y-47592314D01*
X138260742Y-47297260D01*
X138260742Y-47297256D01*
X138260514Y-47293482D01*
X138200845Y-46966767D01*
X138192143Y-46938740D01*
X138103480Y-46653201D01*
X138102358Y-46649586D01*
X137966479Y-46346535D01*
X137795176Y-46062002D01*
X137792849Y-46059018D01*
X137792844Y-46059011D01*
X137593267Y-45803105D01*
X137593265Y-45803103D01*
X137590931Y-45800110D01*
X137360891Y-45568862D01*
X137327029Y-45506461D01*
X137332279Y-45435659D01*
X137374974Y-45378934D01*
X137441559Y-45354298D01*
X137450219Y-45354000D01*
X137722453Y-45354000D01*
X137747033Y-45356421D01*
X137747827Y-45356579D01*
X137747829Y-45356579D01*
X137760000Y-45359000D01*
X137859115Y-45339285D01*
X137869433Y-45332391D01*
X137869435Y-45332390D01*
X137932825Y-45290034D01*
X137943141Y-45283141D01*
X137950034Y-45272825D01*
X137992390Y-45209435D01*
X137992391Y-45209433D01*
X137999285Y-45199115D01*
X138014000Y-45125137D01*
X138019000Y-45100000D01*
X138016421Y-45087033D01*
X138014000Y-45062453D01*
X138014000Y-31137547D01*
X138016421Y-31112967D01*
X138016579Y-31112173D01*
X138016579Y-31112171D01*
X138019000Y-31100000D01*
X142181000Y-31100000D01*
X142183421Y-31112171D01*
X142183421Y-31112173D01*
X142183579Y-31112967D01*
X142186000Y-31137547D01*
X142186000Y-45062453D01*
X142183579Y-45087033D01*
X142181000Y-45100000D01*
X142186000Y-45125137D01*
X142200715Y-45199115D01*
X142207609Y-45209433D01*
X142207610Y-45209435D01*
X142249966Y-45272825D01*
X142256859Y-45283141D01*
X142267175Y-45290034D01*
X142330565Y-45332390D01*
X142330567Y-45332391D01*
X142340885Y-45339285D01*
X142440000Y-45359000D01*
X142452171Y-45356579D01*
X142452173Y-45356579D01*
X142452967Y-45356421D01*
X142477547Y-45354000D01*
X156402453Y-45354000D01*
X156427033Y-45356421D01*
X156427827Y-45356579D01*
X156427829Y-45356579D01*
X156440000Y-45359000D01*
X156539115Y-45339285D01*
X156549433Y-45332391D01*
X156549435Y-45332390D01*
X156612825Y-45290034D01*
X156623141Y-45283141D01*
X156630034Y-45272825D01*
X156672390Y-45209435D01*
X156672391Y-45209433D01*
X156679285Y-45199115D01*
X156694000Y-45125137D01*
X156699000Y-45100000D01*
X156696421Y-45087033D01*
X156694000Y-45062453D01*
X156694000Y-31137547D01*
X156696421Y-31112967D01*
X156696579Y-31112173D01*
X156696579Y-31112171D01*
X156699000Y-31100000D01*
X160861000Y-31100000D01*
X160863421Y-31112171D01*
X160863421Y-31112173D01*
X160863579Y-31112967D01*
X160866000Y-31137547D01*
X160866000Y-45062453D01*
X160863579Y-45087033D01*
X160861000Y-45100000D01*
X160866000Y-45125137D01*
X160880715Y-45199115D01*
X160887609Y-45209433D01*
X160887610Y-45209435D01*
X160929966Y-45272825D01*
X160936859Y-45283141D01*
X160947175Y-45290034D01*
X161010565Y-45332390D01*
X161010567Y-45332391D01*
X161020885Y-45339285D01*
X161120000Y-45359000D01*
X161132171Y-45356579D01*
X161132173Y-45356579D01*
X161132967Y-45356421D01*
X161157547Y-45354000D01*
X175082453Y-45354000D01*
X175107033Y-45356421D01*
X175107827Y-45356579D01*
X175107829Y-45356579D01*
X175120000Y-45359000D01*
X175219115Y-45339285D01*
X175229433Y-45332391D01*
X175229435Y-45332390D01*
X175292825Y-45290034D01*
X175303141Y-45283141D01*
X175310034Y-45272825D01*
X175352390Y-45209435D01*
X175352391Y-45209433D01*
X175359285Y-45199115D01*
X175374000Y-45125137D01*
X175379000Y-45100000D01*
X175376421Y-45087033D01*
X175374000Y-45062453D01*
X175374000Y-31137547D01*
X175376421Y-31112967D01*
X175376579Y-31112173D01*
X175376579Y-31112171D01*
X175379000Y-31100000D01*
X179541000Y-31100000D01*
X179543421Y-31112171D01*
X179543421Y-31112173D01*
X179543579Y-31112967D01*
X179546000Y-31137547D01*
X179546000Y-45062453D01*
X179543579Y-45087033D01*
X179541000Y-45100000D01*
X179546000Y-45125137D01*
X179560715Y-45199115D01*
X179567609Y-45209433D01*
X179567610Y-45209435D01*
X179609966Y-45272825D01*
X179616859Y-45283141D01*
X179627175Y-45290034D01*
X179690565Y-45332390D01*
X179690567Y-45332391D01*
X179700885Y-45339285D01*
X179800000Y-45359000D01*
X179812171Y-45356579D01*
X179812173Y-45356579D01*
X179812967Y-45356421D01*
X179837547Y-45354000D01*
X193762453Y-45354000D01*
X193787033Y-45356421D01*
X193787827Y-45356579D01*
X193787829Y-45356579D01*
X193800000Y-45359000D01*
X193899115Y-45339285D01*
X193909433Y-45332391D01*
X193909435Y-45332390D01*
X193972825Y-45290034D01*
X193983141Y-45283141D01*
X193990034Y-45272825D01*
X194032390Y-45209435D01*
X194032391Y-45209433D01*
X194039285Y-45199115D01*
X194054000Y-45125137D01*
X194059000Y-45100000D01*
X194056421Y-45087033D01*
X194054000Y-45062453D01*
X194054000Y-31137547D01*
X194056421Y-31112967D01*
X194056579Y-31112173D01*
X194056579Y-31112171D01*
X194059000Y-31100000D01*
X198221000Y-31100000D01*
X198223421Y-31112171D01*
X198223421Y-31112173D01*
X198223579Y-31112967D01*
X198226000Y-31137547D01*
X198226000Y-45062453D01*
X198223579Y-45087033D01*
X198221000Y-45100000D01*
X198226000Y-45125137D01*
X198240715Y-45199115D01*
X198247609Y-45209433D01*
X198247610Y-45209435D01*
X198289966Y-45272825D01*
X198296859Y-45283141D01*
X198307175Y-45290034D01*
X198370565Y-45332390D01*
X198370567Y-45332391D01*
X198380885Y-45339285D01*
X198480000Y-45359000D01*
X198492171Y-45356579D01*
X198492173Y-45356579D01*
X198492967Y-45356421D01*
X198517547Y-45354000D01*
X212442453Y-45354000D01*
X212467033Y-45356421D01*
X212467827Y-45356579D01*
X212467829Y-45356579D01*
X212480000Y-45359000D01*
X212579115Y-45339285D01*
X212589433Y-45332391D01*
X212589435Y-45332390D01*
X212652825Y-45290034D01*
X212663141Y-45283141D01*
X212670034Y-45272825D01*
X212712390Y-45209435D01*
X212712391Y-45209433D01*
X212719285Y-45199115D01*
X212734000Y-45125137D01*
X212739000Y-45100000D01*
X212736421Y-45087033D01*
X212734000Y-45062453D01*
X212734000Y-31137547D01*
X212736421Y-31112967D01*
X212736579Y-31112173D01*
X212736579Y-31112171D01*
X212739000Y-31100000D01*
X216901000Y-31100000D01*
X216903421Y-31112171D01*
X216903421Y-31112173D01*
X216903579Y-31112967D01*
X216906000Y-31137547D01*
X216906000Y-45062453D01*
X216903579Y-45087033D01*
X216901000Y-45100000D01*
X216906000Y-45125137D01*
X216920715Y-45199115D01*
X216927609Y-45209433D01*
X216927610Y-45209435D01*
X216969966Y-45272825D01*
X216976859Y-45283141D01*
X216987175Y-45290034D01*
X217050565Y-45332390D01*
X217050567Y-45332391D01*
X217060885Y-45339285D01*
X217160000Y-45359000D01*
X217172171Y-45356579D01*
X217172173Y-45356579D01*
X217172967Y-45356421D01*
X217197547Y-45354000D01*
X231122453Y-45354000D01*
X231147033Y-45356421D01*
X231147827Y-45356579D01*
X231147829Y-45356579D01*
X231160000Y-45359000D01*
X231259115Y-45339285D01*
X231269433Y-45332391D01*
X231269435Y-45332390D01*
X231332825Y-45290034D01*
X231343141Y-45283141D01*
X231350034Y-45272825D01*
X231392390Y-45209435D01*
X231392391Y-45209433D01*
X231399285Y-45199115D01*
X231414000Y-45125137D01*
X231419000Y-45100000D01*
X231416421Y-45087033D01*
X231414000Y-45062453D01*
X231414000Y-31137547D01*
X231416421Y-31112967D01*
X231416579Y-31112173D01*
X231416579Y-31112171D01*
X231419000Y-31100000D01*
X235581000Y-31100000D01*
X235583421Y-31112171D01*
X235583421Y-31112173D01*
X235583579Y-31112967D01*
X235586000Y-31137547D01*
X235586000Y-45062453D01*
X235583579Y-45087033D01*
X235581000Y-45100000D01*
X235586000Y-45125137D01*
X235600715Y-45199115D01*
X235607609Y-45209433D01*
X235607610Y-45209435D01*
X235649966Y-45272825D01*
X235656859Y-45283141D01*
X235667175Y-45290034D01*
X235730565Y-45332390D01*
X235730567Y-45332391D01*
X235740885Y-45339285D01*
X235840000Y-45359000D01*
X235852171Y-45356579D01*
X235852173Y-45356579D01*
X235852967Y-45356421D01*
X235877547Y-45354000D01*
X249802453Y-45354000D01*
X249827033Y-45356421D01*
X249827827Y-45356579D01*
X249827829Y-45356579D01*
X249840000Y-45359000D01*
X249939115Y-45339285D01*
X249949433Y-45332391D01*
X249949435Y-45332390D01*
X250012825Y-45290034D01*
X250023141Y-45283141D01*
X250030034Y-45272825D01*
X250072390Y-45209435D01*
X250072391Y-45209433D01*
X250079285Y-45199115D01*
X250094000Y-45125137D01*
X250099000Y-45100000D01*
X250096421Y-45087033D01*
X250094000Y-45062453D01*
X250094000Y-31137547D01*
X250096421Y-31112967D01*
X250096579Y-31112173D01*
X250096579Y-31112171D01*
X250099000Y-31100000D01*
X254261000Y-31100000D01*
X254263421Y-31112171D01*
X254263421Y-31112173D01*
X254263579Y-31112967D01*
X254266000Y-31137547D01*
X254266000Y-45062453D01*
X254263579Y-45087033D01*
X254261000Y-45100000D01*
X254266000Y-45125137D01*
X254280715Y-45199115D01*
X254287609Y-45209433D01*
X254287610Y-45209435D01*
X254329966Y-45272825D01*
X254336859Y-45283141D01*
X254347175Y-45290034D01*
X254410565Y-45332390D01*
X254410567Y-45332391D01*
X254420885Y-45339285D01*
X254520000Y-45359000D01*
X254532171Y-45356579D01*
X254532173Y-45356579D01*
X254532967Y-45356421D01*
X254557547Y-45354000D01*
X268482453Y-45354000D01*
X268507033Y-45356421D01*
X268507827Y-45356579D01*
X268507829Y-45356579D01*
X268520000Y-45359000D01*
X268619115Y-45339285D01*
X268629433Y-45332391D01*
X268629435Y-45332390D01*
X268692825Y-45290034D01*
X268703141Y-45283141D01*
X268710034Y-45272825D01*
X268752390Y-45209435D01*
X268752391Y-45209433D01*
X268759285Y-45199115D01*
X268774000Y-45125137D01*
X268779000Y-45100000D01*
X268776421Y-45087033D01*
X268774000Y-45062453D01*
X268774000Y-31137547D01*
X268776421Y-31112967D01*
X268776579Y-31112173D01*
X268776579Y-31112171D01*
X268779000Y-31100000D01*
X268759285Y-31000885D01*
X268752391Y-30990567D01*
X268752390Y-30990565D01*
X268710034Y-30927175D01*
X268703141Y-30916859D01*
X268692825Y-30909966D01*
X268629435Y-30867610D01*
X268629433Y-30867609D01*
X268619115Y-30860715D01*
X268545137Y-30846000D01*
X268520000Y-30841000D01*
X268507829Y-30843421D01*
X268507827Y-30843421D01*
X268507033Y-30843579D01*
X268482453Y-30846000D01*
X254557547Y-30846000D01*
X254532967Y-30843579D01*
X254532173Y-30843421D01*
X254532171Y-30843421D01*
X254520000Y-30841000D01*
X254494863Y-30846000D01*
X254420885Y-30860715D01*
X254410567Y-30867609D01*
X254410565Y-30867610D01*
X254347175Y-30909966D01*
X254336859Y-30916859D01*
X254329966Y-30927175D01*
X254287610Y-30990565D01*
X254287609Y-30990567D01*
X254280715Y-31000885D01*
X254261000Y-31100000D01*
X250099000Y-31100000D01*
X250079285Y-31000885D01*
X250072391Y-30990567D01*
X250072390Y-30990565D01*
X250030034Y-30927175D01*
X250023141Y-30916859D01*
X250012825Y-30909966D01*
X249949435Y-30867610D01*
X249949433Y-30867609D01*
X249939115Y-30860715D01*
X249865137Y-30846000D01*
X249840000Y-30841000D01*
X249827829Y-30843421D01*
X249827827Y-30843421D01*
X249827033Y-30843579D01*
X249802453Y-30846000D01*
X235877547Y-30846000D01*
X235852967Y-30843579D01*
X235852173Y-30843421D01*
X235852171Y-30843421D01*
X235840000Y-30841000D01*
X235814863Y-30846000D01*
X235740885Y-30860715D01*
X235730567Y-30867609D01*
X235730565Y-30867610D01*
X235667175Y-30909966D01*
X235656859Y-30916859D01*
X235649966Y-30927175D01*
X235607610Y-30990565D01*
X235607609Y-30990567D01*
X235600715Y-31000885D01*
X235581000Y-31100000D01*
X231419000Y-31100000D01*
X231399285Y-31000885D01*
X231392391Y-30990567D01*
X231392390Y-30990565D01*
X231350034Y-30927175D01*
X231343141Y-30916859D01*
X231332825Y-30909966D01*
X231269435Y-30867610D01*
X231269433Y-30867609D01*
X231259115Y-30860715D01*
X231185137Y-30846000D01*
X231160000Y-30841000D01*
X231147829Y-30843421D01*
X231147827Y-30843421D01*
X231147033Y-30843579D01*
X231122453Y-30846000D01*
X217197547Y-30846000D01*
X217172967Y-30843579D01*
X217172173Y-30843421D01*
X217172171Y-30843421D01*
X217160000Y-30841000D01*
X217134863Y-30846000D01*
X217060885Y-30860715D01*
X217050567Y-30867609D01*
X217050565Y-30867610D01*
X216987175Y-30909966D01*
X216976859Y-30916859D01*
X216969966Y-30927175D01*
X216927610Y-30990565D01*
X216927609Y-30990567D01*
X216920715Y-31000885D01*
X216901000Y-31100000D01*
X212739000Y-31100000D01*
X212719285Y-31000885D01*
X212712391Y-30990567D01*
X212712390Y-30990565D01*
X212670034Y-30927175D01*
X212663141Y-30916859D01*
X212652825Y-30909966D01*
X212589435Y-30867610D01*
X212589433Y-30867609D01*
X212579115Y-30860715D01*
X212505137Y-30846000D01*
X212480000Y-30841000D01*
X212467829Y-30843421D01*
X212467827Y-30843421D01*
X212467033Y-30843579D01*
X212442453Y-30846000D01*
X198517547Y-30846000D01*
X198492967Y-30843579D01*
X198492173Y-30843421D01*
X198492171Y-30843421D01*
X198480000Y-30841000D01*
X198454863Y-30846000D01*
X198380885Y-30860715D01*
X198370567Y-30867609D01*
X198370565Y-30867610D01*
X198307175Y-30909966D01*
X198296859Y-30916859D01*
X198289966Y-30927175D01*
X198247610Y-30990565D01*
X198247609Y-30990567D01*
X198240715Y-31000885D01*
X198221000Y-31100000D01*
X194059000Y-31100000D01*
X194039285Y-31000885D01*
X194032391Y-30990567D01*
X194032390Y-30990565D01*
X193990034Y-30927175D01*
X193983141Y-30916859D01*
X193972825Y-30909966D01*
X193909435Y-30867610D01*
X193909433Y-30867609D01*
X193899115Y-30860715D01*
X193825137Y-30846000D01*
X193800000Y-30841000D01*
X193787829Y-30843421D01*
X193787827Y-30843421D01*
X193787033Y-30843579D01*
X193762453Y-30846000D01*
X179837547Y-30846000D01*
X179812967Y-30843579D01*
X179812173Y-30843421D01*
X179812171Y-30843421D01*
X179800000Y-30841000D01*
X179774863Y-30846000D01*
X179700885Y-30860715D01*
X179690567Y-30867609D01*
X179690565Y-30867610D01*
X179627175Y-30909966D01*
X179616859Y-30916859D01*
X179609966Y-30927175D01*
X179567610Y-30990565D01*
X179567609Y-30990567D01*
X179560715Y-31000885D01*
X179541000Y-31100000D01*
X175379000Y-31100000D01*
X175359285Y-31000885D01*
X175352391Y-30990567D01*
X175352390Y-30990565D01*
X175310034Y-30927175D01*
X175303141Y-30916859D01*
X175292825Y-30909966D01*
X175229435Y-30867610D01*
X175229433Y-30867609D01*
X175219115Y-30860715D01*
X175145137Y-30846000D01*
X175120000Y-30841000D01*
X175107829Y-30843421D01*
X175107827Y-30843421D01*
X175107033Y-30843579D01*
X175082453Y-30846000D01*
X161157547Y-30846000D01*
X161132967Y-30843579D01*
X161132173Y-30843421D01*
X161132171Y-30843421D01*
X161120000Y-30841000D01*
X161094863Y-30846000D01*
X161020885Y-30860715D01*
X161010567Y-30867609D01*
X161010565Y-30867610D01*
X160947175Y-30909966D01*
X160936859Y-30916859D01*
X160929966Y-30927175D01*
X160887610Y-30990565D01*
X160887609Y-30990567D01*
X160880715Y-31000885D01*
X160861000Y-31100000D01*
X156699000Y-31100000D01*
X156679285Y-31000885D01*
X156672391Y-30990567D01*
X156672390Y-30990565D01*
X156630034Y-30927175D01*
X156623141Y-30916859D01*
X156612825Y-30909966D01*
X156549435Y-30867610D01*
X156549433Y-30867609D01*
X156539115Y-30860715D01*
X156465137Y-30846000D01*
X156440000Y-30841000D01*
X156427829Y-30843421D01*
X156427827Y-30843421D01*
X156427033Y-30843579D01*
X156402453Y-30846000D01*
X142477547Y-30846000D01*
X142452967Y-30843579D01*
X142452173Y-30843421D01*
X142452171Y-30843421D01*
X142440000Y-30841000D01*
X142414863Y-30846000D01*
X142340885Y-30860715D01*
X142330567Y-30867609D01*
X142330565Y-30867610D01*
X142267175Y-30909966D01*
X142256859Y-30916859D01*
X142249966Y-30927175D01*
X142207610Y-30990565D01*
X142207609Y-30990567D01*
X142200715Y-31000885D01*
X142181000Y-31100000D01*
X138019000Y-31100000D01*
X137999285Y-31000885D01*
X137992391Y-30990567D01*
X137992390Y-30990565D01*
X137950034Y-30927175D01*
X137943141Y-30916859D01*
X137932825Y-30909966D01*
X137869435Y-30867610D01*
X137869433Y-30867609D01*
X137859115Y-30860715D01*
X137785137Y-30846000D01*
X137760000Y-30841000D01*
X137747829Y-30843421D01*
X137747827Y-30843421D01*
X137747033Y-30843579D01*
X137722453Y-30846000D01*
X123797547Y-30846000D01*
X123772967Y-30843579D01*
X123772173Y-30843421D01*
X123772171Y-30843421D01*
X123760000Y-30841000D01*
X123734863Y-30846000D01*
X123660885Y-30860715D01*
X123650567Y-30867609D01*
X123650565Y-30867610D01*
X123587175Y-30909966D01*
X123576859Y-30916859D01*
X123569966Y-30927175D01*
X123527610Y-30990565D01*
X123527609Y-30990567D01*
X123520715Y-31000885D01*
X123501000Y-31100000D01*
X119339000Y-31100000D01*
X119319285Y-31000885D01*
X119312391Y-30990567D01*
X119312390Y-30990565D01*
X119270034Y-30927175D01*
X119263141Y-30916859D01*
X119252825Y-30909966D01*
X119189435Y-30867610D01*
X119189433Y-30867609D01*
X119179115Y-30860715D01*
X119105137Y-30846000D01*
X119080000Y-30841000D01*
X119067829Y-30843421D01*
X119067827Y-30843421D01*
X119067033Y-30843579D01*
X119042453Y-30846000D01*
X105117547Y-30846000D01*
X105092967Y-30843579D01*
X105092173Y-30843421D01*
X105092171Y-30843421D01*
X105080000Y-30841000D01*
X105054863Y-30846000D01*
X104980885Y-30860715D01*
X104970567Y-30867609D01*
X104970565Y-30867610D01*
X104907175Y-30909966D01*
X104896859Y-30916859D01*
X104889966Y-30927175D01*
X104847610Y-30990565D01*
X104847609Y-30990567D01*
X104840715Y-31000885D01*
X104821000Y-31100000D01*
X100659000Y-31100000D01*
X100639285Y-31000885D01*
X100632391Y-30990567D01*
X100632390Y-30990565D01*
X100590034Y-30927175D01*
X100583141Y-30916859D01*
X100572825Y-30909966D01*
X100509435Y-30867610D01*
X100509433Y-30867609D01*
X100499115Y-30860715D01*
X100425137Y-30846000D01*
X100400000Y-30841000D01*
X100387829Y-30843421D01*
X100387827Y-30843421D01*
X100387033Y-30843579D01*
X100362453Y-30846000D01*
X86437547Y-30846000D01*
X86412967Y-30843579D01*
X86412173Y-30843421D01*
X86412171Y-30843421D01*
X86400000Y-30841000D01*
X86374863Y-30846000D01*
X86300885Y-30860715D01*
X86290567Y-30867609D01*
X86290565Y-30867610D01*
X86227175Y-30909966D01*
X86216859Y-30916859D01*
X86209966Y-30927175D01*
X86167610Y-30990565D01*
X86167609Y-30990567D01*
X86160715Y-31000885D01*
X86141000Y-31100000D01*
X81979000Y-31100000D01*
X81959285Y-31000885D01*
X81952391Y-30990567D01*
X81952390Y-30990565D01*
X81910034Y-30927175D01*
X81903141Y-30916859D01*
X81892825Y-30909966D01*
X81829435Y-30867610D01*
X81829433Y-30867609D01*
X81819115Y-30860715D01*
X81745137Y-30846000D01*
X81720000Y-30841000D01*
X81707829Y-30843421D01*
X81707827Y-30843421D01*
X81707033Y-30843579D01*
X81682453Y-30846000D01*
X67757547Y-30846000D01*
X67732967Y-30843579D01*
X67732173Y-30843421D01*
X67732171Y-30843421D01*
X67720000Y-30841000D01*
X67694863Y-30846000D01*
X67620885Y-30860715D01*
X67610567Y-30867609D01*
X67610565Y-30867610D01*
X67547175Y-30909966D01*
X67536859Y-30916859D01*
X67529966Y-30927175D01*
X67487610Y-30990565D01*
X67487609Y-30990567D01*
X67480715Y-31000885D01*
X67461000Y-31100000D01*
X63299000Y-31100000D01*
X63279285Y-31000885D01*
X63272391Y-30990567D01*
X63272390Y-30990565D01*
X63230034Y-30927175D01*
X63223141Y-30916859D01*
X63212825Y-30909966D01*
X63149435Y-30867610D01*
X63149433Y-30867609D01*
X63139115Y-30860715D01*
X63065137Y-30846000D01*
X63040000Y-30841000D01*
X63027829Y-30843421D01*
X63027827Y-30843421D01*
X63027033Y-30843579D01*
X63002453Y-30846000D01*
X49077547Y-30846000D01*
X49052967Y-30843579D01*
X49052173Y-30843421D01*
X49052171Y-30843421D01*
X49040000Y-30841000D01*
X49014863Y-30846000D01*
X48940885Y-30860715D01*
X48930567Y-30867609D01*
X48930565Y-30867610D01*
X48867175Y-30909966D01*
X48856859Y-30916859D01*
X48849966Y-30927175D01*
X48807610Y-30990565D01*
X48807609Y-30990567D01*
X48800715Y-31000885D01*
X48781000Y-31100000D01*
X44619000Y-31100000D01*
X44599285Y-31000885D01*
X44592391Y-30990567D01*
X44592390Y-30990565D01*
X44550034Y-30927175D01*
X44543141Y-30916859D01*
X44532825Y-30909966D01*
X44469435Y-30867610D01*
X44469433Y-30867609D01*
X44459115Y-30860715D01*
X44385137Y-30846000D01*
X44360000Y-30841000D01*
X44347829Y-30843421D01*
X44347827Y-30843421D01*
X44347033Y-30843579D01*
X44322453Y-30846000D01*
X30397547Y-30846000D01*
X30372967Y-30843579D01*
X30372173Y-30843421D01*
X30372171Y-30843421D01*
X30360000Y-30841000D01*
X30334863Y-30846000D01*
X30260885Y-30860715D01*
X30250567Y-30867609D01*
X30250565Y-30867610D01*
X30187175Y-30909966D01*
X30176859Y-30916859D01*
X30169966Y-30927175D01*
X30127610Y-30990565D01*
X30127609Y-30990567D01*
X30120715Y-31000885D01*
X30101000Y-31100000D01*
X28250000Y-31100000D01*
X28250000Y-30200079D01*
X28252421Y-30175499D01*
X28253850Y-30168314D01*
X28253850Y-30168313D01*
X28255000Y-30162532D01*
X28255812Y-30075998D01*
X28257089Y-30059248D01*
X28281635Y-29888529D01*
X28285456Y-29870963D01*
X28333882Y-29706038D01*
X28340160Y-29689206D01*
X28411568Y-29532843D01*
X28420177Y-29517077D01*
X28513108Y-29372474D01*
X28523882Y-29358083D01*
X28636440Y-29228184D01*
X28649152Y-29215472D01*
X28779051Y-29102914D01*
X28793442Y-29092140D01*
X28852060Y-29054468D01*
X28938045Y-28999209D01*
X28953811Y-28990600D01*
X29110174Y-28919192D01*
X29127006Y-28912914D01*
X29291936Y-28864487D01*
X29309493Y-28860668D01*
X29480216Y-28836121D01*
X29496966Y-28834844D01*
X29583500Y-28834032D01*
X29589282Y-28832882D01*
X29596467Y-28831453D01*
X29621047Y-28829032D01*
X269258453Y-28829032D01*
X269283033Y-28831453D01*
G37*
%TD.AperFunction*%
M02*
