%TF.GenerationSoftware,KiCad,Pcbnew,(5.99.0-11145-g173c9a974c)*%
%TF.CreationDate,2021-07-27T16:02:07-07:00*%
%TF.ProjectId,minibaen r2,6d696e69-6261-4656-9e20-72322e6b6963,rev?*%
%TF.SameCoordinates,Original*%
%TF.FileFunction,Legend,Bot*%
%TF.FilePolarity,Positive*%
%FSLAX46Y46*%
G04 Gerber Fmt 4.6, Leading zero omitted, Abs format (unit mm)*
G04 Created by KiCad (PCBNEW (5.99.0-11145-g173c9a974c)) date 2021-07-27 16:02:07*
%MOMM*%
%LPD*%
G01*
G04 APERTURE LIST*
G04 Aperture macros list*
%AMRoundRect*
0 Rectangle with rounded corners*
0 $1 Rounding radius*
0 $2 $3 $4 $5 $6 $7 $8 $9 X,Y pos of 4 corners*
0 Add a 4 corners polygon primitive as box body*
4,1,4,$2,$3,$4,$5,$6,$7,$8,$9,$2,$3,0*
0 Add four circle primitives for the rounded corners*
1,1,$1+$1,$2,$3*
1,1,$1+$1,$4,$5*
1,1,$1+$1,$6,$7*
1,1,$1+$1,$8,$9*
0 Add four rect primitives between the rounded corners*
20,1,$1+$1,$2,$3,$4,$5,0*
20,1,$1+$1,$4,$5,$6,$7,0*
20,1,$1+$1,$6,$7,$8,$9,0*
20,1,$1+$1,$8,$9,$2,$3,0*%
%AMRotRect*
0 Rectangle, with rotation*
0 The origin of the aperture is its center*
0 $1 length*
0 $2 width*
0 $3 Rotation angle, in degrees counterclockwise*
0 Add horizontal line*
21,1,$1,$2,0,0,$3*%
G04 Aperture macros list end*
%ADD10C,0.150000*%
%ADD11C,0.120000*%
%ADD12R,1.700000X1.700000*%
%ADD13O,1.700000X1.700000*%
%ADD14C,3.987800*%
%ADD15C,1.750000*%
%ADD16C,2.250000*%
%ADD17R,2.000000X2.000000*%
%ADD18C,2.000000*%
%ADD19C,3.048000*%
%ADD20C,3.800000*%
%ADD21R,1.200000X0.900000*%
%ADD22RoundRect,0.225000X0.225000X0.250000X-0.225000X0.250000X-0.225000X-0.250000X0.225000X-0.250000X0*%
%ADD23R,1.400000X1.200000*%
%ADD24R,1.400000X1.000000*%
%ADD25RoundRect,0.200000X0.200000X0.275000X-0.200000X0.275000X-0.200000X-0.275000X0.200000X-0.275000X0*%
%ADD26C,0.650000*%
%ADD27R,0.600000X1.450000*%
%ADD28R,0.300000X1.450000*%
%ADD29RoundRect,0.200000X0.275000X-0.200000X0.275000X0.200000X-0.275000X0.200000X-0.275000X-0.200000X0*%
%ADD30RotRect,1.600000X0.550000X225.000000*%
%ADD31RotRect,1.600000X0.550000X135.000000*%
%ADD32RoundRect,0.200000X-0.200000X-0.275000X0.200000X-0.275000X0.200000X0.275000X-0.200000X0.275000X0*%
%ADD33RoundRect,0.250000X0.625000X-0.375000X0.625000X0.375000X-0.625000X0.375000X-0.625000X-0.375000X0*%
%ADD34RoundRect,0.225000X0.017678X-0.335876X0.335876X-0.017678X-0.017678X0.335876X-0.335876X0.017678X0*%
%ADD35RoundRect,0.225000X-0.250000X0.225000X-0.250000X-0.225000X0.250000X-0.225000X0.250000X0.225000X0*%
G04 APERTURE END LIST*
D10*
%TO.C,SW1*%
X33633333Y-78074761D02*
X33490476Y-78122380D01*
X33252380Y-78122380D01*
X33157142Y-78074761D01*
X33109523Y-78027142D01*
X33061904Y-77931904D01*
X33061904Y-77836666D01*
X33109523Y-77741428D01*
X33157142Y-77693809D01*
X33252380Y-77646190D01*
X33442857Y-77598571D01*
X33538095Y-77550952D01*
X33585714Y-77503333D01*
X33633333Y-77408095D01*
X33633333Y-77312857D01*
X33585714Y-77217619D01*
X33538095Y-77170000D01*
X33442857Y-77122380D01*
X33204761Y-77122380D01*
X33061904Y-77170000D01*
X32728571Y-77122380D02*
X32490476Y-78122380D01*
X32300000Y-77408095D01*
X32109523Y-78122380D01*
X31871428Y-77122380D01*
X30966666Y-78122380D02*
X31538095Y-78122380D01*
X31252380Y-78122380D02*
X31252380Y-77122380D01*
X31347619Y-77265238D01*
X31442857Y-77360476D01*
X31538095Y-77408095D01*
%TO.C,D16*%
X80252380Y-56725814D02*
X79252380Y-56725814D01*
X79252380Y-56963909D01*
X79300000Y-57106766D01*
X79395238Y-57202004D01*
X79490476Y-57249623D01*
X79680952Y-57297242D01*
X79823809Y-57297242D01*
X80014285Y-57249623D01*
X80109523Y-57202004D01*
X80204761Y-57106766D01*
X80252380Y-56963909D01*
X80252380Y-56725814D01*
X80252380Y-58249623D02*
X80252380Y-57678195D01*
X80252380Y-57963909D02*
X79252380Y-57963909D01*
X79395238Y-57868671D01*
X79490476Y-57773433D01*
X79538095Y-57678195D01*
X79252380Y-59106766D02*
X79252380Y-58916290D01*
X79300000Y-58821052D01*
X79347619Y-58773433D01*
X79490476Y-58678195D01*
X79680952Y-58630576D01*
X80061904Y-58630576D01*
X80157142Y-58678195D01*
X80204761Y-58725814D01*
X80252380Y-58821052D01*
X80252380Y-59011528D01*
X80204761Y-59106766D01*
X80157142Y-59154385D01*
X80061904Y-59202004D01*
X79823809Y-59202004D01*
X79728571Y-59154385D01*
X79680952Y-59106766D01*
X79633333Y-59011528D01*
X79633333Y-58821052D01*
X79680952Y-58725814D01*
X79728571Y-58678195D01*
X79823809Y-58630576D01*
%TO.C,D33*%
X154952380Y-75774614D02*
X153952380Y-75774614D01*
X153952380Y-76012709D01*
X154000000Y-76155566D01*
X154095238Y-76250804D01*
X154190476Y-76298423D01*
X154380952Y-76346042D01*
X154523809Y-76346042D01*
X154714285Y-76298423D01*
X154809523Y-76250804D01*
X154904761Y-76155566D01*
X154952380Y-76012709D01*
X154952380Y-75774614D01*
X153952380Y-76679376D02*
X153952380Y-77298423D01*
X154333333Y-76965090D01*
X154333333Y-77107947D01*
X154380952Y-77203185D01*
X154428571Y-77250804D01*
X154523809Y-77298423D01*
X154761904Y-77298423D01*
X154857142Y-77250804D01*
X154904761Y-77203185D01*
X154952380Y-77107947D01*
X154952380Y-76822233D01*
X154904761Y-76726995D01*
X154857142Y-76679376D01*
X153952380Y-77631757D02*
X153952380Y-78250804D01*
X154333333Y-77917471D01*
X154333333Y-78060328D01*
X154380952Y-78155566D01*
X154428571Y-78203185D01*
X154523809Y-78250804D01*
X154761904Y-78250804D01*
X154857142Y-78203185D01*
X154904761Y-78155566D01*
X154952380Y-78060328D01*
X154952380Y-77774614D01*
X154904761Y-77679376D01*
X154857142Y-77631757D01*
%TO.C,D28*%
X61552380Y-75774614D02*
X60552380Y-75774614D01*
X60552380Y-76012709D01*
X60600000Y-76155566D01*
X60695238Y-76250804D01*
X60790476Y-76298423D01*
X60980952Y-76346042D01*
X61123809Y-76346042D01*
X61314285Y-76298423D01*
X61409523Y-76250804D01*
X61504761Y-76155566D01*
X61552380Y-76012709D01*
X61552380Y-75774614D01*
X60647619Y-76726995D02*
X60600000Y-76774614D01*
X60552380Y-76869852D01*
X60552380Y-77107947D01*
X60600000Y-77203185D01*
X60647619Y-77250804D01*
X60742857Y-77298423D01*
X60838095Y-77298423D01*
X60980952Y-77250804D01*
X61552380Y-76679376D01*
X61552380Y-77298423D01*
X60980952Y-77869852D02*
X60933333Y-77774614D01*
X60885714Y-77726995D01*
X60790476Y-77679376D01*
X60742857Y-77679376D01*
X60647619Y-77726995D01*
X60600000Y-77774614D01*
X60552380Y-77869852D01*
X60552380Y-78060328D01*
X60600000Y-78155566D01*
X60647619Y-78203185D01*
X60742857Y-78250804D01*
X60790476Y-78250804D01*
X60885714Y-78203185D01*
X60933333Y-78155566D01*
X60980952Y-78060328D01*
X60980952Y-77869852D01*
X61028571Y-77774614D01*
X61076190Y-77726995D01*
X61171428Y-77679376D01*
X61361904Y-77679376D01*
X61457142Y-77726995D01*
X61504761Y-77774614D01*
X61552380Y-77869852D01*
X61552380Y-78060328D01*
X61504761Y-78155566D01*
X61457142Y-78203185D01*
X61361904Y-78250804D01*
X61171428Y-78250804D01*
X61076190Y-78203185D01*
X61028571Y-78155566D01*
X60980952Y-78060328D01*
%TO.C,D22*%
X192352380Y-56725814D02*
X191352380Y-56725814D01*
X191352380Y-56963909D01*
X191400000Y-57106766D01*
X191495238Y-57202004D01*
X191590476Y-57249623D01*
X191780952Y-57297242D01*
X191923809Y-57297242D01*
X192114285Y-57249623D01*
X192209523Y-57202004D01*
X192304761Y-57106766D01*
X192352380Y-56963909D01*
X192352380Y-56725814D01*
X191447619Y-57678195D02*
X191400000Y-57725814D01*
X191352380Y-57821052D01*
X191352380Y-58059147D01*
X191400000Y-58154385D01*
X191447619Y-58202004D01*
X191542857Y-58249623D01*
X191638095Y-58249623D01*
X191780952Y-58202004D01*
X192352380Y-57630576D01*
X192352380Y-58249623D01*
X191447619Y-58630576D02*
X191400000Y-58678195D01*
X191352380Y-58773433D01*
X191352380Y-59011528D01*
X191400000Y-59106766D01*
X191447619Y-59154385D01*
X191542857Y-59202004D01*
X191638095Y-59202004D01*
X191780952Y-59154385D01*
X192352380Y-58582957D01*
X192352380Y-59202004D01*
%TO.C,D7*%
X154952380Y-38153204D02*
X153952380Y-38153204D01*
X153952380Y-38391300D01*
X154000000Y-38534157D01*
X154095238Y-38629395D01*
X154190476Y-38677014D01*
X154380952Y-38724633D01*
X154523809Y-38724633D01*
X154714285Y-38677014D01*
X154809523Y-38629395D01*
X154904761Y-38534157D01*
X154952380Y-38391300D01*
X154952380Y-38153204D01*
X153952380Y-39057966D02*
X153952380Y-39724633D01*
X154952380Y-39296061D01*
%TO.C,C4*%
X256766666Y-57827142D02*
X256814285Y-57874761D01*
X256957142Y-57922380D01*
X257052380Y-57922380D01*
X257195238Y-57874761D01*
X257290476Y-57779523D01*
X257338095Y-57684285D01*
X257385714Y-57493809D01*
X257385714Y-57350952D01*
X257338095Y-57160476D01*
X257290476Y-57065238D01*
X257195238Y-56970000D01*
X257052380Y-56922380D01*
X256957142Y-56922380D01*
X256814285Y-56970000D01*
X256766666Y-57017619D01*
X255909523Y-57255714D02*
X255909523Y-57922380D01*
X256147619Y-56874761D02*
X256385714Y-57589047D01*
X255766666Y-57589047D01*
%TO.C,D27*%
X42952380Y-75774614D02*
X41952380Y-75774614D01*
X41952380Y-76012709D01*
X42000000Y-76155566D01*
X42095238Y-76250804D01*
X42190476Y-76298423D01*
X42380952Y-76346042D01*
X42523809Y-76346042D01*
X42714285Y-76298423D01*
X42809523Y-76250804D01*
X42904761Y-76155566D01*
X42952380Y-76012709D01*
X42952380Y-75774614D01*
X42047619Y-76726995D02*
X42000000Y-76774614D01*
X41952380Y-76869852D01*
X41952380Y-77107947D01*
X42000000Y-77203185D01*
X42047619Y-77250804D01*
X42142857Y-77298423D01*
X42238095Y-77298423D01*
X42380952Y-77250804D01*
X42952380Y-76679376D01*
X42952380Y-77298423D01*
X41952380Y-77631757D02*
X41952380Y-78298423D01*
X42952380Y-77869852D01*
%TO.C,D40*%
X42952380Y-94823414D02*
X41952380Y-94823414D01*
X41952380Y-95061509D01*
X42000000Y-95204366D01*
X42095238Y-95299604D01*
X42190476Y-95347223D01*
X42380952Y-95394842D01*
X42523809Y-95394842D01*
X42714285Y-95347223D01*
X42809523Y-95299604D01*
X42904761Y-95204366D01*
X42952380Y-95061509D01*
X42952380Y-94823414D01*
X42285714Y-96251985D02*
X42952380Y-96251985D01*
X41904761Y-96013890D02*
X42619047Y-95775795D01*
X42619047Y-96394842D01*
X41952380Y-96966271D02*
X41952380Y-97061509D01*
X42000000Y-97156747D01*
X42047619Y-97204366D01*
X42142857Y-97251985D01*
X42333333Y-97299604D01*
X42571428Y-97299604D01*
X42761904Y-97251985D01*
X42857142Y-97204366D01*
X42904761Y-97156747D01*
X42952380Y-97061509D01*
X42952380Y-96966271D01*
X42904761Y-96871033D01*
X42857142Y-96823414D01*
X42761904Y-96775795D01*
X42571428Y-96728176D01*
X42333333Y-96728176D01*
X42142857Y-96775795D01*
X42047619Y-96823414D01*
X42000000Y-96871033D01*
X41952380Y-96966271D01*
%TO.C,D14*%
X42952380Y-56725814D02*
X41952380Y-56725814D01*
X41952380Y-56963909D01*
X42000000Y-57106766D01*
X42095238Y-57202004D01*
X42190476Y-57249623D01*
X42380952Y-57297242D01*
X42523809Y-57297242D01*
X42714285Y-57249623D01*
X42809523Y-57202004D01*
X42904761Y-57106766D01*
X42952380Y-56963909D01*
X42952380Y-56725814D01*
X42952380Y-58249623D02*
X42952380Y-57678195D01*
X42952380Y-57963909D02*
X41952380Y-57963909D01*
X42095238Y-57868671D01*
X42190476Y-57773433D01*
X42238095Y-57678195D01*
X42285714Y-59106766D02*
X42952380Y-59106766D01*
X41904761Y-58868671D02*
X42619047Y-58630576D01*
X42619047Y-59249623D01*
%TO.C,U2*%
X234281904Y-41232380D02*
X234281904Y-42041904D01*
X234234285Y-42137142D01*
X234186666Y-42184761D01*
X234091428Y-42232380D01*
X233900952Y-42232380D01*
X233805714Y-42184761D01*
X233758095Y-42137142D01*
X233710476Y-42041904D01*
X233710476Y-41232380D01*
X233281904Y-41327619D02*
X233234285Y-41280000D01*
X233139047Y-41232380D01*
X232900952Y-41232380D01*
X232805714Y-41280000D01*
X232758095Y-41327619D01*
X232710476Y-41422857D01*
X232710476Y-41518095D01*
X232758095Y-41660952D01*
X233329523Y-42232380D01*
X232710476Y-42232380D01*
%TO.C,D39*%
X267052380Y-75774614D02*
X266052380Y-75774614D01*
X266052380Y-76012709D01*
X266100000Y-76155566D01*
X266195238Y-76250804D01*
X266290476Y-76298423D01*
X266480952Y-76346042D01*
X266623809Y-76346042D01*
X266814285Y-76298423D01*
X266909523Y-76250804D01*
X267004761Y-76155566D01*
X267052380Y-76012709D01*
X267052380Y-75774614D01*
X266052380Y-76679376D02*
X266052380Y-77298423D01*
X266433333Y-76965090D01*
X266433333Y-77107947D01*
X266480952Y-77203185D01*
X266528571Y-77250804D01*
X266623809Y-77298423D01*
X266861904Y-77298423D01*
X266957142Y-77250804D01*
X267004761Y-77203185D01*
X267052380Y-77107947D01*
X267052380Y-76822233D01*
X267004761Y-76726995D01*
X266957142Y-76679376D01*
X267052380Y-77774614D02*
X267052380Y-77965090D01*
X267004761Y-78060328D01*
X266957142Y-78107947D01*
X266814285Y-78203185D01*
X266623809Y-78250804D01*
X266242857Y-78250804D01*
X266147619Y-78203185D01*
X266100000Y-78155566D01*
X266052380Y-78060328D01*
X266052380Y-77869852D01*
X266100000Y-77774614D01*
X266147619Y-77726995D01*
X266242857Y-77679376D01*
X266480952Y-77679376D01*
X266576190Y-77726995D01*
X266623809Y-77774614D01*
X266671428Y-77869852D01*
X266671428Y-78060328D01*
X266623809Y-78155566D01*
X266576190Y-78203185D01*
X266480952Y-78250804D01*
%TO.C,R7*%
X234166666Y-31822380D02*
X234500000Y-31346190D01*
X234738095Y-31822380D02*
X234738095Y-30822380D01*
X234357142Y-30822380D01*
X234261904Y-30870000D01*
X234214285Y-30917619D01*
X234166666Y-31012857D01*
X234166666Y-31155714D01*
X234214285Y-31250952D01*
X234261904Y-31298571D01*
X234357142Y-31346190D01*
X234738095Y-31346190D01*
X233833333Y-30822380D02*
X233166666Y-30822380D01*
X233595238Y-31822380D01*
%TO.C,D49*%
X200452380Y-94823414D02*
X199452380Y-94823414D01*
X199452380Y-95061509D01*
X199500000Y-95204366D01*
X199595238Y-95299604D01*
X199690476Y-95347223D01*
X199880952Y-95394842D01*
X200023809Y-95394842D01*
X200214285Y-95347223D01*
X200309523Y-95299604D01*
X200404761Y-95204366D01*
X200452380Y-95061509D01*
X200452380Y-94823414D01*
X199785714Y-96251985D02*
X200452380Y-96251985D01*
X199404761Y-96013890D02*
X200119047Y-95775795D01*
X200119047Y-96394842D01*
X200452380Y-96823414D02*
X200452380Y-97013890D01*
X200404761Y-97109128D01*
X200357142Y-97156747D01*
X200214285Y-97251985D01*
X200023809Y-97299604D01*
X199642857Y-97299604D01*
X199547619Y-97251985D01*
X199500000Y-97204366D01*
X199452380Y-97109128D01*
X199452380Y-96918652D01*
X199500000Y-96823414D01*
X199547619Y-96775795D01*
X199642857Y-96728176D01*
X199880952Y-96728176D01*
X199976190Y-96775795D01*
X200023809Y-96823414D01*
X200071428Y-96918652D01*
X200071428Y-97109128D01*
X200023809Y-97204366D01*
X199976190Y-97251985D01*
X199880952Y-97299604D01*
%TO.C,R4*%
X260466666Y-70222380D02*
X260800000Y-69746190D01*
X261038095Y-70222380D02*
X261038095Y-69222380D01*
X260657142Y-69222380D01*
X260561904Y-69270000D01*
X260514285Y-69317619D01*
X260466666Y-69412857D01*
X260466666Y-69555714D01*
X260514285Y-69650952D01*
X260561904Y-69698571D01*
X260657142Y-69746190D01*
X261038095Y-69746190D01*
X259609523Y-69555714D02*
X259609523Y-70222380D01*
X259847619Y-69174761D02*
X260085714Y-69889047D01*
X259466666Y-69889047D01*
%TO.C,C6*%
X249066666Y-58427142D02*
X249114285Y-58474761D01*
X249257142Y-58522380D01*
X249352380Y-58522380D01*
X249495238Y-58474761D01*
X249590476Y-58379523D01*
X249638095Y-58284285D01*
X249685714Y-58093809D01*
X249685714Y-57950952D01*
X249638095Y-57760476D01*
X249590476Y-57665238D01*
X249495238Y-57570000D01*
X249352380Y-57522380D01*
X249257142Y-57522380D01*
X249114285Y-57570000D01*
X249066666Y-57617619D01*
X248209523Y-57522380D02*
X248400000Y-57522380D01*
X248495238Y-57570000D01*
X248542857Y-57617619D01*
X248638095Y-57760476D01*
X248685714Y-57950952D01*
X248685714Y-58331904D01*
X248638095Y-58427142D01*
X248590476Y-58474761D01*
X248495238Y-58522380D01*
X248304761Y-58522380D01*
X248209523Y-58474761D01*
X248161904Y-58427142D01*
X248114285Y-58331904D01*
X248114285Y-58093809D01*
X248161904Y-57998571D01*
X248209523Y-57950952D01*
X248304761Y-57903333D01*
X248495238Y-57903333D01*
X248590476Y-57950952D01*
X248638095Y-57998571D01*
X248685714Y-58093809D01*
%TO.C,D36*%
X211052380Y-75774614D02*
X210052380Y-75774614D01*
X210052380Y-76012709D01*
X210100000Y-76155566D01*
X210195238Y-76250804D01*
X210290476Y-76298423D01*
X210480952Y-76346042D01*
X210623809Y-76346042D01*
X210814285Y-76298423D01*
X210909523Y-76250804D01*
X211004761Y-76155566D01*
X211052380Y-76012709D01*
X211052380Y-75774614D01*
X210052380Y-76679376D02*
X210052380Y-77298423D01*
X210433333Y-76965090D01*
X210433333Y-77107947D01*
X210480952Y-77203185D01*
X210528571Y-77250804D01*
X210623809Y-77298423D01*
X210861904Y-77298423D01*
X210957142Y-77250804D01*
X211004761Y-77203185D01*
X211052380Y-77107947D01*
X211052380Y-76822233D01*
X211004761Y-76726995D01*
X210957142Y-76679376D01*
X210052380Y-78155566D02*
X210052380Y-77965090D01*
X210100000Y-77869852D01*
X210147619Y-77822233D01*
X210290476Y-77726995D01*
X210480952Y-77679376D01*
X210861904Y-77679376D01*
X210957142Y-77726995D01*
X211004761Y-77774614D01*
X211052380Y-77869852D01*
X211052380Y-78060328D01*
X211004761Y-78155566D01*
X210957142Y-78203185D01*
X210861904Y-78250804D01*
X210623809Y-78250804D01*
X210528571Y-78203185D01*
X210480952Y-78155566D01*
X210433333Y-78060328D01*
X210433333Y-77869852D01*
X210480952Y-77774614D01*
X210528571Y-77726995D01*
X210623809Y-77679376D01*
%TO.C,D23*%
X211052380Y-56725814D02*
X210052380Y-56725814D01*
X210052380Y-56963909D01*
X210100000Y-57106766D01*
X210195238Y-57202004D01*
X210290476Y-57249623D01*
X210480952Y-57297242D01*
X210623809Y-57297242D01*
X210814285Y-57249623D01*
X210909523Y-57202004D01*
X211004761Y-57106766D01*
X211052380Y-56963909D01*
X211052380Y-56725814D01*
X210147619Y-57678195D02*
X210100000Y-57725814D01*
X210052380Y-57821052D01*
X210052380Y-58059147D01*
X210100000Y-58154385D01*
X210147619Y-58202004D01*
X210242857Y-58249623D01*
X210338095Y-58249623D01*
X210480952Y-58202004D01*
X211052380Y-57630576D01*
X211052380Y-58249623D01*
X210052380Y-58582957D02*
X210052380Y-59202004D01*
X210433333Y-58868671D01*
X210433333Y-59011528D01*
X210480952Y-59106766D01*
X210528571Y-59154385D01*
X210623809Y-59202004D01*
X210861904Y-59202004D01*
X210957142Y-59154385D01*
X211004761Y-59106766D01*
X211052380Y-59011528D01*
X211052380Y-58725814D01*
X211004761Y-58630576D01*
X210957142Y-58582957D01*
%TO.C,D5*%
X117652380Y-38153204D02*
X116652380Y-38153204D01*
X116652380Y-38391300D01*
X116700000Y-38534157D01*
X116795238Y-38629395D01*
X116890476Y-38677014D01*
X117080952Y-38724633D01*
X117223809Y-38724633D01*
X117414285Y-38677014D01*
X117509523Y-38629395D01*
X117604761Y-38534157D01*
X117652380Y-38391300D01*
X117652380Y-38153204D01*
X116652380Y-39629395D02*
X116652380Y-39153204D01*
X117128571Y-39105585D01*
X117080952Y-39153204D01*
X117033333Y-39248442D01*
X117033333Y-39486538D01*
X117080952Y-39581776D01*
X117128571Y-39629395D01*
X117223809Y-39677014D01*
X117461904Y-39677014D01*
X117557142Y-39629395D01*
X117604761Y-39581776D01*
X117652380Y-39486538D01*
X117652380Y-39248442D01*
X117604761Y-39153204D01*
X117557142Y-39105585D01*
%TO.C,USB1*%
X242856095Y-34779880D02*
X242856095Y-35589404D01*
X242808476Y-35684642D01*
X242760857Y-35732261D01*
X242665619Y-35779880D01*
X242475142Y-35779880D01*
X242379904Y-35732261D01*
X242332285Y-35684642D01*
X242284666Y-35589404D01*
X242284666Y-34779880D01*
X241856095Y-35732261D02*
X241713238Y-35779880D01*
X241475142Y-35779880D01*
X241379904Y-35732261D01*
X241332285Y-35684642D01*
X241284666Y-35589404D01*
X241284666Y-35494166D01*
X241332285Y-35398928D01*
X241379904Y-35351309D01*
X241475142Y-35303690D01*
X241665619Y-35256071D01*
X241760857Y-35208452D01*
X241808476Y-35160833D01*
X241856095Y-35065595D01*
X241856095Y-34970357D01*
X241808476Y-34875119D01*
X241760857Y-34827500D01*
X241665619Y-34779880D01*
X241427523Y-34779880D01*
X241284666Y-34827500D01*
X240522761Y-35256071D02*
X240379904Y-35303690D01*
X240332285Y-35351309D01*
X240284666Y-35446547D01*
X240284666Y-35589404D01*
X240332285Y-35684642D01*
X240379904Y-35732261D01*
X240475142Y-35779880D01*
X240856095Y-35779880D01*
X240856095Y-34779880D01*
X240522761Y-34779880D01*
X240427523Y-34827500D01*
X240379904Y-34875119D01*
X240332285Y-34970357D01*
X240332285Y-35065595D01*
X240379904Y-35160833D01*
X240427523Y-35208452D01*
X240522761Y-35256071D01*
X240856095Y-35256071D01*
X239332285Y-35779880D02*
X239903714Y-35779880D01*
X239618000Y-35779880D02*
X239618000Y-34779880D01*
X239713238Y-34922738D01*
X239808476Y-35017976D01*
X239903714Y-35065595D01*
%TO.C,D6*%
X136252380Y-38153204D02*
X135252380Y-38153204D01*
X135252380Y-38391300D01*
X135300000Y-38534157D01*
X135395238Y-38629395D01*
X135490476Y-38677014D01*
X135680952Y-38724633D01*
X135823809Y-38724633D01*
X136014285Y-38677014D01*
X136109523Y-38629395D01*
X136204761Y-38534157D01*
X136252380Y-38391300D01*
X136252380Y-38153204D01*
X135252380Y-39581776D02*
X135252380Y-39391300D01*
X135300000Y-39296061D01*
X135347619Y-39248442D01*
X135490476Y-39153204D01*
X135680952Y-39105585D01*
X136061904Y-39105585D01*
X136157142Y-39153204D01*
X136204761Y-39200823D01*
X136252380Y-39296061D01*
X136252380Y-39486538D01*
X136204761Y-39581776D01*
X136157142Y-39629395D01*
X136061904Y-39677014D01*
X135823809Y-39677014D01*
X135728571Y-39629395D01*
X135680952Y-39581776D01*
X135633333Y-39486538D01*
X135633333Y-39296061D01*
X135680952Y-39200823D01*
X135728571Y-39153204D01*
X135823809Y-39105585D01*
%TO.C,D18*%
X117652380Y-56725814D02*
X116652380Y-56725814D01*
X116652380Y-56963909D01*
X116700000Y-57106766D01*
X116795238Y-57202004D01*
X116890476Y-57249623D01*
X117080952Y-57297242D01*
X117223809Y-57297242D01*
X117414285Y-57249623D01*
X117509523Y-57202004D01*
X117604761Y-57106766D01*
X117652380Y-56963909D01*
X117652380Y-56725814D01*
X117652380Y-58249623D02*
X117652380Y-57678195D01*
X117652380Y-57963909D02*
X116652380Y-57963909D01*
X116795238Y-57868671D01*
X116890476Y-57773433D01*
X116938095Y-57678195D01*
X117080952Y-58821052D02*
X117033333Y-58725814D01*
X116985714Y-58678195D01*
X116890476Y-58630576D01*
X116842857Y-58630576D01*
X116747619Y-58678195D01*
X116700000Y-58725814D01*
X116652380Y-58821052D01*
X116652380Y-59011528D01*
X116700000Y-59106766D01*
X116747619Y-59154385D01*
X116842857Y-59202004D01*
X116890476Y-59202004D01*
X116985714Y-59154385D01*
X117033333Y-59106766D01*
X117080952Y-59011528D01*
X117080952Y-58821052D01*
X117128571Y-58725814D01*
X117176190Y-58678195D01*
X117271428Y-58630576D01*
X117461904Y-58630576D01*
X117557142Y-58678195D01*
X117604761Y-58725814D01*
X117652380Y-58821052D01*
X117652380Y-59011528D01*
X117604761Y-59106766D01*
X117557142Y-59154385D01*
X117461904Y-59202004D01*
X117271428Y-59202004D01*
X117176190Y-59154385D01*
X117128571Y-59106766D01*
X117080952Y-59011528D01*
%TO.C,D10*%
X211052380Y-37677014D02*
X210052380Y-37677014D01*
X210052380Y-37915109D01*
X210100000Y-38057966D01*
X210195238Y-38153204D01*
X210290476Y-38200823D01*
X210480952Y-38248442D01*
X210623809Y-38248442D01*
X210814285Y-38200823D01*
X210909523Y-38153204D01*
X211004761Y-38057966D01*
X211052380Y-37915109D01*
X211052380Y-37677014D01*
X211052380Y-39200823D02*
X211052380Y-38629395D01*
X211052380Y-38915109D02*
X210052380Y-38915109D01*
X210195238Y-38819871D01*
X210290476Y-38724633D01*
X210338095Y-38629395D01*
X210052380Y-39819871D02*
X210052380Y-39915109D01*
X210100000Y-40010347D01*
X210147619Y-40057966D01*
X210242857Y-40105585D01*
X210433333Y-40153204D01*
X210671428Y-40153204D01*
X210861904Y-40105585D01*
X210957142Y-40057966D01*
X211004761Y-40010347D01*
X211052380Y-39915109D01*
X211052380Y-39819871D01*
X211004761Y-39724633D01*
X210957142Y-39677014D01*
X210861904Y-39629395D01*
X210671428Y-39581776D01*
X210433333Y-39581776D01*
X210242857Y-39629395D01*
X210147619Y-39677014D01*
X210100000Y-39724633D01*
X210052380Y-39819871D01*
%TO.C,Y1*%
X253376190Y-59426190D02*
X253376190Y-59902380D01*
X253709523Y-58902380D02*
X253376190Y-59426190D01*
X253042857Y-58902380D01*
X252185714Y-59902380D02*
X252757142Y-59902380D01*
X252471428Y-59902380D02*
X252471428Y-58902380D01*
X252566666Y-59045238D01*
X252661904Y-59140476D01*
X252757142Y-59188095D01*
%TO.C,D3*%
X80252380Y-38153204D02*
X79252380Y-38153204D01*
X79252380Y-38391300D01*
X79300000Y-38534157D01*
X79395238Y-38629395D01*
X79490476Y-38677014D01*
X79680952Y-38724633D01*
X79823809Y-38724633D01*
X80014285Y-38677014D01*
X80109523Y-38629395D01*
X80204761Y-38534157D01*
X80252380Y-38391300D01*
X80252380Y-38153204D01*
X79252380Y-39057966D02*
X79252380Y-39677014D01*
X79633333Y-39343680D01*
X79633333Y-39486538D01*
X79680952Y-39581776D01*
X79728571Y-39629395D01*
X79823809Y-39677014D01*
X80061904Y-39677014D01*
X80157142Y-39629395D01*
X80204761Y-39581776D01*
X80252380Y-39486538D01*
X80252380Y-39200823D01*
X80204761Y-39105585D01*
X80157142Y-39057966D01*
%TO.C,D29*%
X80252380Y-75774614D02*
X79252380Y-75774614D01*
X79252380Y-76012709D01*
X79300000Y-76155566D01*
X79395238Y-76250804D01*
X79490476Y-76298423D01*
X79680952Y-76346042D01*
X79823809Y-76346042D01*
X80014285Y-76298423D01*
X80109523Y-76250804D01*
X80204761Y-76155566D01*
X80252380Y-76012709D01*
X80252380Y-75774614D01*
X79347619Y-76726995D02*
X79300000Y-76774614D01*
X79252380Y-76869852D01*
X79252380Y-77107947D01*
X79300000Y-77203185D01*
X79347619Y-77250804D01*
X79442857Y-77298423D01*
X79538095Y-77298423D01*
X79680952Y-77250804D01*
X80252380Y-76679376D01*
X80252380Y-77298423D01*
X80252380Y-77774614D02*
X80252380Y-77965090D01*
X80204761Y-78060328D01*
X80157142Y-78107947D01*
X80014285Y-78203185D01*
X79823809Y-78250804D01*
X79442857Y-78250804D01*
X79347619Y-78203185D01*
X79300000Y-78155566D01*
X79252380Y-78060328D01*
X79252380Y-77869852D01*
X79300000Y-77774614D01*
X79347619Y-77726995D01*
X79442857Y-77679376D01*
X79680952Y-77679376D01*
X79776190Y-77726995D01*
X79823809Y-77774614D01*
X79871428Y-77869852D01*
X79871428Y-78060328D01*
X79823809Y-78155566D01*
X79776190Y-78203185D01*
X79680952Y-78250804D01*
%TO.C,R3*%
X236482380Y-43733333D02*
X236006190Y-43400000D01*
X236482380Y-43161904D02*
X235482380Y-43161904D01*
X235482380Y-43542857D01*
X235530000Y-43638095D01*
X235577619Y-43685714D01*
X235672857Y-43733333D01*
X235815714Y-43733333D01*
X235910952Y-43685714D01*
X235958571Y-43638095D01*
X236006190Y-43542857D01*
X236006190Y-43161904D01*
X235482380Y-44066666D02*
X235482380Y-44685714D01*
X235863333Y-44352380D01*
X235863333Y-44495238D01*
X235910952Y-44590476D01*
X235958571Y-44638095D01*
X236053809Y-44685714D01*
X236291904Y-44685714D01*
X236387142Y-44638095D01*
X236434761Y-44590476D01*
X236482380Y-44495238D01*
X236482380Y-44209523D01*
X236434761Y-44114285D01*
X236387142Y-44066666D01*
%TO.C,D25*%
X248352380Y-56725814D02*
X247352380Y-56725814D01*
X247352380Y-56963909D01*
X247400000Y-57106766D01*
X247495238Y-57202004D01*
X247590476Y-57249623D01*
X247780952Y-57297242D01*
X247923809Y-57297242D01*
X248114285Y-57249623D01*
X248209523Y-57202004D01*
X248304761Y-57106766D01*
X248352380Y-56963909D01*
X248352380Y-56725814D01*
X247447619Y-57678195D02*
X247400000Y-57725814D01*
X247352380Y-57821052D01*
X247352380Y-58059147D01*
X247400000Y-58154385D01*
X247447619Y-58202004D01*
X247542857Y-58249623D01*
X247638095Y-58249623D01*
X247780952Y-58202004D01*
X248352380Y-57630576D01*
X248352380Y-58249623D01*
X247352380Y-59154385D02*
X247352380Y-58678195D01*
X247828571Y-58630576D01*
X247780952Y-58678195D01*
X247733333Y-58773433D01*
X247733333Y-59011528D01*
X247780952Y-59106766D01*
X247828571Y-59154385D01*
X247923809Y-59202004D01*
X248161904Y-59202004D01*
X248257142Y-59154385D01*
X248304761Y-59106766D01*
X248352380Y-59011528D01*
X248352380Y-58773433D01*
X248304761Y-58678195D01*
X248257142Y-58630576D01*
%TO.C,D2*%
X61652380Y-38153204D02*
X60652380Y-38153204D01*
X60652380Y-38391300D01*
X60700000Y-38534157D01*
X60795238Y-38629395D01*
X60890476Y-38677014D01*
X61080952Y-38724633D01*
X61223809Y-38724633D01*
X61414285Y-38677014D01*
X61509523Y-38629395D01*
X61604761Y-38534157D01*
X61652380Y-38391300D01*
X61652380Y-38153204D01*
X60747619Y-39105585D02*
X60700000Y-39153204D01*
X60652380Y-39248442D01*
X60652380Y-39486538D01*
X60700000Y-39581776D01*
X60747619Y-39629395D01*
X60842857Y-39677014D01*
X60938095Y-39677014D01*
X61080952Y-39629395D01*
X61652380Y-39057966D01*
X61652380Y-39677014D01*
%TO.C,D30*%
X98952380Y-75774614D02*
X97952380Y-75774614D01*
X97952380Y-76012709D01*
X98000000Y-76155566D01*
X98095238Y-76250804D01*
X98190476Y-76298423D01*
X98380952Y-76346042D01*
X98523809Y-76346042D01*
X98714285Y-76298423D01*
X98809523Y-76250804D01*
X98904761Y-76155566D01*
X98952380Y-76012709D01*
X98952380Y-75774614D01*
X97952380Y-76679376D02*
X97952380Y-77298423D01*
X98333333Y-76965090D01*
X98333333Y-77107947D01*
X98380952Y-77203185D01*
X98428571Y-77250804D01*
X98523809Y-77298423D01*
X98761904Y-77298423D01*
X98857142Y-77250804D01*
X98904761Y-77203185D01*
X98952380Y-77107947D01*
X98952380Y-76822233D01*
X98904761Y-76726995D01*
X98857142Y-76679376D01*
X97952380Y-77917471D02*
X97952380Y-78012709D01*
X98000000Y-78107947D01*
X98047619Y-78155566D01*
X98142857Y-78203185D01*
X98333333Y-78250804D01*
X98571428Y-78250804D01*
X98761904Y-78203185D01*
X98857142Y-78155566D01*
X98904761Y-78107947D01*
X98952380Y-78012709D01*
X98952380Y-77917471D01*
X98904761Y-77822233D01*
X98857142Y-77774614D01*
X98761904Y-77726995D01*
X98571428Y-77679376D01*
X98333333Y-77679376D01*
X98142857Y-77726995D01*
X98047619Y-77774614D01*
X98000000Y-77822233D01*
X97952380Y-77917471D01*
%TO.C,U1*%
X248073526Y-61471030D02*
X248645946Y-62043450D01*
X248679618Y-62144465D01*
X248679618Y-62211809D01*
X248645946Y-62312824D01*
X248511259Y-62447511D01*
X248410244Y-62481183D01*
X248342900Y-62481183D01*
X248241885Y-62447511D01*
X247669465Y-61875091D01*
X247669465Y-63289305D02*
X248073526Y-62885244D01*
X247871496Y-63087274D02*
X247164389Y-62380168D01*
X247332748Y-62413839D01*
X247467435Y-62413839D01*
X247568450Y-62380168D01*
%TO.C,D9*%
X192352380Y-38153204D02*
X191352380Y-38153204D01*
X191352380Y-38391300D01*
X191400000Y-38534157D01*
X191495238Y-38629395D01*
X191590476Y-38677014D01*
X191780952Y-38724633D01*
X191923809Y-38724633D01*
X192114285Y-38677014D01*
X192209523Y-38629395D01*
X192304761Y-38534157D01*
X192352380Y-38391300D01*
X192352380Y-38153204D01*
X192352380Y-39200823D02*
X192352380Y-39391300D01*
X192304761Y-39486538D01*
X192257142Y-39534157D01*
X192114285Y-39629395D01*
X191923809Y-39677014D01*
X191542857Y-39677014D01*
X191447619Y-39629395D01*
X191400000Y-39581776D01*
X191352380Y-39486538D01*
X191352380Y-39296061D01*
X191400000Y-39200823D01*
X191447619Y-39153204D01*
X191542857Y-39105585D01*
X191780952Y-39105585D01*
X191876190Y-39153204D01*
X191923809Y-39200823D01*
X191971428Y-39296061D01*
X191971428Y-39486538D01*
X191923809Y-39581776D01*
X191876190Y-39629395D01*
X191780952Y-39677014D01*
%TO.C,C3*%
X243266666Y-62927142D02*
X243314285Y-62974761D01*
X243457142Y-63022380D01*
X243552380Y-63022380D01*
X243695238Y-62974761D01*
X243790476Y-62879523D01*
X243838095Y-62784285D01*
X243885714Y-62593809D01*
X243885714Y-62450952D01*
X243838095Y-62260476D01*
X243790476Y-62165238D01*
X243695238Y-62070000D01*
X243552380Y-62022380D01*
X243457142Y-62022380D01*
X243314285Y-62070000D01*
X243266666Y-62117619D01*
X242933333Y-62022380D02*
X242314285Y-62022380D01*
X242647619Y-62403333D01*
X242504761Y-62403333D01*
X242409523Y-62450952D01*
X242361904Y-62498571D01*
X242314285Y-62593809D01*
X242314285Y-62831904D01*
X242361904Y-62927142D01*
X242409523Y-62974761D01*
X242504761Y-63022380D01*
X242790476Y-63022380D01*
X242885714Y-62974761D01*
X242933333Y-62927142D01*
%TO.C,D43*%
X98952380Y-94823414D02*
X97952380Y-94823414D01*
X97952380Y-95061509D01*
X98000000Y-95204366D01*
X98095238Y-95299604D01*
X98190476Y-95347223D01*
X98380952Y-95394842D01*
X98523809Y-95394842D01*
X98714285Y-95347223D01*
X98809523Y-95299604D01*
X98904761Y-95204366D01*
X98952380Y-95061509D01*
X98952380Y-94823414D01*
X98285714Y-96251985D02*
X98952380Y-96251985D01*
X97904761Y-96013890D02*
X98619047Y-95775795D01*
X98619047Y-96394842D01*
X97952380Y-96680557D02*
X97952380Y-97299604D01*
X98333333Y-96966271D01*
X98333333Y-97109128D01*
X98380952Y-97204366D01*
X98428571Y-97251985D01*
X98523809Y-97299604D01*
X98761904Y-97299604D01*
X98857142Y-97251985D01*
X98904761Y-97204366D01*
X98952380Y-97109128D01*
X98952380Y-96823414D01*
X98904761Y-96728176D01*
X98857142Y-96680557D01*
%TO.C,D24*%
X229752380Y-56725814D02*
X228752380Y-56725814D01*
X228752380Y-56963909D01*
X228800000Y-57106766D01*
X228895238Y-57202004D01*
X228990476Y-57249623D01*
X229180952Y-57297242D01*
X229323809Y-57297242D01*
X229514285Y-57249623D01*
X229609523Y-57202004D01*
X229704761Y-57106766D01*
X229752380Y-56963909D01*
X229752380Y-56725814D01*
X228847619Y-57678195D02*
X228800000Y-57725814D01*
X228752380Y-57821052D01*
X228752380Y-58059147D01*
X228800000Y-58154385D01*
X228847619Y-58202004D01*
X228942857Y-58249623D01*
X229038095Y-58249623D01*
X229180952Y-58202004D01*
X229752380Y-57630576D01*
X229752380Y-58249623D01*
X229085714Y-59106766D02*
X229752380Y-59106766D01*
X228704761Y-58868671D02*
X229419047Y-58630576D01*
X229419047Y-59249623D01*
%TO.C,R2*%
X234282380Y-43733333D02*
X233806190Y-43400000D01*
X234282380Y-43161904D02*
X233282380Y-43161904D01*
X233282380Y-43542857D01*
X233330000Y-43638095D01*
X233377619Y-43685714D01*
X233472857Y-43733333D01*
X233615714Y-43733333D01*
X233710952Y-43685714D01*
X233758571Y-43638095D01*
X233806190Y-43542857D01*
X233806190Y-43161904D01*
X233377619Y-44114285D02*
X233330000Y-44161904D01*
X233282380Y-44257142D01*
X233282380Y-44495238D01*
X233330000Y-44590476D01*
X233377619Y-44638095D01*
X233472857Y-44685714D01*
X233568095Y-44685714D01*
X233710952Y-44638095D01*
X234282380Y-44066666D01*
X234282380Y-44685714D01*
%TO.C,D15*%
X61552380Y-56725814D02*
X60552380Y-56725814D01*
X60552380Y-56963909D01*
X60600000Y-57106766D01*
X60695238Y-57202004D01*
X60790476Y-57249623D01*
X60980952Y-57297242D01*
X61123809Y-57297242D01*
X61314285Y-57249623D01*
X61409523Y-57202004D01*
X61504761Y-57106766D01*
X61552380Y-56963909D01*
X61552380Y-56725814D01*
X61552380Y-58249623D02*
X61552380Y-57678195D01*
X61552380Y-57963909D02*
X60552380Y-57963909D01*
X60695238Y-57868671D01*
X60790476Y-57773433D01*
X60838095Y-57678195D01*
X60552380Y-59154385D02*
X60552380Y-58678195D01*
X61028571Y-58630576D01*
X60980952Y-58678195D01*
X60933333Y-58773433D01*
X60933333Y-59011528D01*
X60980952Y-59106766D01*
X61028571Y-59154385D01*
X61123809Y-59202004D01*
X61361904Y-59202004D01*
X61457142Y-59154385D01*
X61504761Y-59106766D01*
X61552380Y-59011528D01*
X61552380Y-58773433D01*
X61504761Y-58678195D01*
X61457142Y-58630576D01*
%TO.C,D35*%
X192352380Y-75774614D02*
X191352380Y-75774614D01*
X191352380Y-76012709D01*
X191400000Y-76155566D01*
X191495238Y-76250804D01*
X191590476Y-76298423D01*
X191780952Y-76346042D01*
X191923809Y-76346042D01*
X192114285Y-76298423D01*
X192209523Y-76250804D01*
X192304761Y-76155566D01*
X192352380Y-76012709D01*
X192352380Y-75774614D01*
X191352380Y-76679376D02*
X191352380Y-77298423D01*
X191733333Y-76965090D01*
X191733333Y-77107947D01*
X191780952Y-77203185D01*
X191828571Y-77250804D01*
X191923809Y-77298423D01*
X192161904Y-77298423D01*
X192257142Y-77250804D01*
X192304761Y-77203185D01*
X192352380Y-77107947D01*
X192352380Y-76822233D01*
X192304761Y-76726995D01*
X192257142Y-76679376D01*
X191352380Y-78203185D02*
X191352380Y-77726995D01*
X191828571Y-77679376D01*
X191780952Y-77726995D01*
X191733333Y-77822233D01*
X191733333Y-78060328D01*
X191780952Y-78155566D01*
X191828571Y-78203185D01*
X191923809Y-78250804D01*
X192161904Y-78250804D01*
X192257142Y-78203185D01*
X192304761Y-78155566D01*
X192352380Y-78060328D01*
X192352380Y-77822233D01*
X192304761Y-77726995D01*
X192257142Y-77679376D01*
%TO.C,D52*%
X267052380Y-94823414D02*
X266052380Y-94823414D01*
X266052380Y-95061509D01*
X266100000Y-95204366D01*
X266195238Y-95299604D01*
X266290476Y-95347223D01*
X266480952Y-95394842D01*
X266623809Y-95394842D01*
X266814285Y-95347223D01*
X266909523Y-95299604D01*
X267004761Y-95204366D01*
X267052380Y-95061509D01*
X267052380Y-94823414D01*
X266052380Y-96299604D02*
X266052380Y-95823414D01*
X266528571Y-95775795D01*
X266480952Y-95823414D01*
X266433333Y-95918652D01*
X266433333Y-96156747D01*
X266480952Y-96251985D01*
X266528571Y-96299604D01*
X266623809Y-96347223D01*
X266861904Y-96347223D01*
X266957142Y-96299604D01*
X267004761Y-96251985D01*
X267052380Y-96156747D01*
X267052380Y-95918652D01*
X267004761Y-95823414D01*
X266957142Y-95775795D01*
X266147619Y-96728176D02*
X266100000Y-96775795D01*
X266052380Y-96871033D01*
X266052380Y-97109128D01*
X266100000Y-97204366D01*
X266147619Y-97251985D01*
X266242857Y-97299604D01*
X266338095Y-97299604D01*
X266480952Y-97251985D01*
X267052380Y-96680557D01*
X267052380Y-97299604D01*
%TO.C,D31*%
X117652380Y-75774614D02*
X116652380Y-75774614D01*
X116652380Y-76012709D01*
X116700000Y-76155566D01*
X116795238Y-76250804D01*
X116890476Y-76298423D01*
X117080952Y-76346042D01*
X117223809Y-76346042D01*
X117414285Y-76298423D01*
X117509523Y-76250804D01*
X117604761Y-76155566D01*
X117652380Y-76012709D01*
X117652380Y-75774614D01*
X116652380Y-76679376D02*
X116652380Y-77298423D01*
X117033333Y-76965090D01*
X117033333Y-77107947D01*
X117080952Y-77203185D01*
X117128571Y-77250804D01*
X117223809Y-77298423D01*
X117461904Y-77298423D01*
X117557142Y-77250804D01*
X117604761Y-77203185D01*
X117652380Y-77107947D01*
X117652380Y-76822233D01*
X117604761Y-76726995D01*
X117557142Y-76679376D01*
X117652380Y-78250804D02*
X117652380Y-77679376D01*
X117652380Y-77965090D02*
X116652380Y-77965090D01*
X116795238Y-77869852D01*
X116890476Y-77774614D01*
X116938095Y-77679376D01*
%TO.C,D48*%
X192352380Y-94823414D02*
X191352380Y-94823414D01*
X191352380Y-95061509D01*
X191400000Y-95204366D01*
X191495238Y-95299604D01*
X191590476Y-95347223D01*
X191780952Y-95394842D01*
X191923809Y-95394842D01*
X192114285Y-95347223D01*
X192209523Y-95299604D01*
X192304761Y-95204366D01*
X192352380Y-95061509D01*
X192352380Y-94823414D01*
X191685714Y-96251985D02*
X192352380Y-96251985D01*
X191304761Y-96013890D02*
X192019047Y-95775795D01*
X192019047Y-96394842D01*
X191780952Y-96918652D02*
X191733333Y-96823414D01*
X191685714Y-96775795D01*
X191590476Y-96728176D01*
X191542857Y-96728176D01*
X191447619Y-96775795D01*
X191400000Y-96823414D01*
X191352380Y-96918652D01*
X191352380Y-97109128D01*
X191400000Y-97204366D01*
X191447619Y-97251985D01*
X191542857Y-97299604D01*
X191590476Y-97299604D01*
X191685714Y-97251985D01*
X191733333Y-97204366D01*
X191780952Y-97109128D01*
X191780952Y-96918652D01*
X191828571Y-96823414D01*
X191876190Y-96775795D01*
X191971428Y-96728176D01*
X192161904Y-96728176D01*
X192257142Y-96775795D01*
X192304761Y-96823414D01*
X192352380Y-96918652D01*
X192352380Y-97109128D01*
X192304761Y-97204366D01*
X192257142Y-97251985D01*
X192161904Y-97299604D01*
X191971428Y-97299604D01*
X191876190Y-97251985D01*
X191828571Y-97204366D01*
X191780952Y-97109128D01*
%TO.C,D45*%
X136352380Y-94823414D02*
X135352380Y-94823414D01*
X135352380Y-95061509D01*
X135400000Y-95204366D01*
X135495238Y-95299604D01*
X135590476Y-95347223D01*
X135780952Y-95394842D01*
X135923809Y-95394842D01*
X136114285Y-95347223D01*
X136209523Y-95299604D01*
X136304761Y-95204366D01*
X136352380Y-95061509D01*
X136352380Y-94823414D01*
X135685714Y-96251985D02*
X136352380Y-96251985D01*
X135304761Y-96013890D02*
X136019047Y-95775795D01*
X136019047Y-96394842D01*
X135352380Y-97251985D02*
X135352380Y-96775795D01*
X135828571Y-96728176D01*
X135780952Y-96775795D01*
X135733333Y-96871033D01*
X135733333Y-97109128D01*
X135780952Y-97204366D01*
X135828571Y-97251985D01*
X135923809Y-97299604D01*
X136161904Y-97299604D01*
X136257142Y-97251985D01*
X136304761Y-97204366D01*
X136352380Y-97109128D01*
X136352380Y-96871033D01*
X136304761Y-96775795D01*
X136257142Y-96728176D01*
%TO.C,D17*%
X98952380Y-56725814D02*
X97952380Y-56725814D01*
X97952380Y-56963909D01*
X98000000Y-57106766D01*
X98095238Y-57202004D01*
X98190476Y-57249623D01*
X98380952Y-57297242D01*
X98523809Y-57297242D01*
X98714285Y-57249623D01*
X98809523Y-57202004D01*
X98904761Y-57106766D01*
X98952380Y-56963909D01*
X98952380Y-56725814D01*
X98952380Y-58249623D02*
X98952380Y-57678195D01*
X98952380Y-57963909D02*
X97952380Y-57963909D01*
X98095238Y-57868671D01*
X98190476Y-57773433D01*
X98238095Y-57678195D01*
X97952380Y-58582957D02*
X97952380Y-59249623D01*
X98952380Y-58821052D01*
%TO.C,D37*%
X229752380Y-75774614D02*
X228752380Y-75774614D01*
X228752380Y-76012709D01*
X228800000Y-76155566D01*
X228895238Y-76250804D01*
X228990476Y-76298423D01*
X229180952Y-76346042D01*
X229323809Y-76346042D01*
X229514285Y-76298423D01*
X229609523Y-76250804D01*
X229704761Y-76155566D01*
X229752380Y-76012709D01*
X229752380Y-75774614D01*
X228752380Y-76679376D02*
X228752380Y-77298423D01*
X229133333Y-76965090D01*
X229133333Y-77107947D01*
X229180952Y-77203185D01*
X229228571Y-77250804D01*
X229323809Y-77298423D01*
X229561904Y-77298423D01*
X229657142Y-77250804D01*
X229704761Y-77203185D01*
X229752380Y-77107947D01*
X229752380Y-76822233D01*
X229704761Y-76726995D01*
X229657142Y-76679376D01*
X228752380Y-77631757D02*
X228752380Y-78298423D01*
X229752380Y-77869852D01*
%TO.C,R1*%
X243066666Y-70782380D02*
X243400000Y-70306190D01*
X243638095Y-70782380D02*
X243638095Y-69782380D01*
X243257142Y-69782380D01*
X243161904Y-69830000D01*
X243114285Y-69877619D01*
X243066666Y-69972857D01*
X243066666Y-70115714D01*
X243114285Y-70210952D01*
X243161904Y-70258571D01*
X243257142Y-70306190D01*
X243638095Y-70306190D01*
X242114285Y-70782380D02*
X242685714Y-70782380D01*
X242400000Y-70782380D02*
X242400000Y-69782380D01*
X242495238Y-69925238D01*
X242590476Y-70020476D01*
X242685714Y-70068095D01*
%TO.C,D46*%
X154952380Y-94823414D02*
X153952380Y-94823414D01*
X153952380Y-95061509D01*
X154000000Y-95204366D01*
X154095238Y-95299604D01*
X154190476Y-95347223D01*
X154380952Y-95394842D01*
X154523809Y-95394842D01*
X154714285Y-95347223D01*
X154809523Y-95299604D01*
X154904761Y-95204366D01*
X154952380Y-95061509D01*
X154952380Y-94823414D01*
X154285714Y-96251985D02*
X154952380Y-96251985D01*
X153904761Y-96013890D02*
X154619047Y-95775795D01*
X154619047Y-96394842D01*
X153952380Y-97204366D02*
X153952380Y-97013890D01*
X154000000Y-96918652D01*
X154047619Y-96871033D01*
X154190476Y-96775795D01*
X154380952Y-96728176D01*
X154761904Y-96728176D01*
X154857142Y-96775795D01*
X154904761Y-96823414D01*
X154952380Y-96918652D01*
X154952380Y-97109128D01*
X154904761Y-97204366D01*
X154857142Y-97251985D01*
X154761904Y-97299604D01*
X154523809Y-97299604D01*
X154428571Y-97251985D01*
X154380952Y-97204366D01*
X154333333Y-97109128D01*
X154333333Y-96918652D01*
X154380952Y-96823414D01*
X154428571Y-96775795D01*
X154523809Y-96728176D01*
%TO.C,D32*%
X136352380Y-75774614D02*
X135352380Y-75774614D01*
X135352380Y-76012709D01*
X135400000Y-76155566D01*
X135495238Y-76250804D01*
X135590476Y-76298423D01*
X135780952Y-76346042D01*
X135923809Y-76346042D01*
X136114285Y-76298423D01*
X136209523Y-76250804D01*
X136304761Y-76155566D01*
X136352380Y-76012709D01*
X136352380Y-75774614D01*
X135352380Y-76679376D02*
X135352380Y-77298423D01*
X135733333Y-76965090D01*
X135733333Y-77107947D01*
X135780952Y-77203185D01*
X135828571Y-77250804D01*
X135923809Y-77298423D01*
X136161904Y-77298423D01*
X136257142Y-77250804D01*
X136304761Y-77203185D01*
X136352380Y-77107947D01*
X136352380Y-76822233D01*
X136304761Y-76726995D01*
X136257142Y-76679376D01*
X135447619Y-77679376D02*
X135400000Y-77726995D01*
X135352380Y-77822233D01*
X135352380Y-78060328D01*
X135400000Y-78155566D01*
X135447619Y-78203185D01*
X135542857Y-78250804D01*
X135638095Y-78250804D01*
X135780952Y-78203185D01*
X136352380Y-77631757D01*
X136352380Y-78250804D01*
%TO.C,D34*%
X173652380Y-75774614D02*
X172652380Y-75774614D01*
X172652380Y-76012709D01*
X172700000Y-76155566D01*
X172795238Y-76250804D01*
X172890476Y-76298423D01*
X173080952Y-76346042D01*
X173223809Y-76346042D01*
X173414285Y-76298423D01*
X173509523Y-76250804D01*
X173604761Y-76155566D01*
X173652380Y-76012709D01*
X173652380Y-75774614D01*
X172652380Y-76679376D02*
X172652380Y-77298423D01*
X173033333Y-76965090D01*
X173033333Y-77107947D01*
X173080952Y-77203185D01*
X173128571Y-77250804D01*
X173223809Y-77298423D01*
X173461904Y-77298423D01*
X173557142Y-77250804D01*
X173604761Y-77203185D01*
X173652380Y-77107947D01*
X173652380Y-76822233D01*
X173604761Y-76726995D01*
X173557142Y-76679376D01*
X172985714Y-78155566D02*
X173652380Y-78155566D01*
X172604761Y-77917471D02*
X173319047Y-77679376D01*
X173319047Y-78298423D01*
%TO.C,D19*%
X136252380Y-56725814D02*
X135252380Y-56725814D01*
X135252380Y-56963909D01*
X135300000Y-57106766D01*
X135395238Y-57202004D01*
X135490476Y-57249623D01*
X135680952Y-57297242D01*
X135823809Y-57297242D01*
X136014285Y-57249623D01*
X136109523Y-57202004D01*
X136204761Y-57106766D01*
X136252380Y-56963909D01*
X136252380Y-56725814D01*
X136252380Y-58249623D02*
X136252380Y-57678195D01*
X136252380Y-57963909D02*
X135252380Y-57963909D01*
X135395238Y-57868671D01*
X135490476Y-57773433D01*
X135538095Y-57678195D01*
X136252380Y-58725814D02*
X136252380Y-58916290D01*
X136204761Y-59011528D01*
X136157142Y-59059147D01*
X136014285Y-59154385D01*
X135823809Y-59202004D01*
X135442857Y-59202004D01*
X135347619Y-59154385D01*
X135300000Y-59106766D01*
X135252380Y-59011528D01*
X135252380Y-58821052D01*
X135300000Y-58725814D01*
X135347619Y-58678195D01*
X135442857Y-58630576D01*
X135680952Y-58630576D01*
X135776190Y-58678195D01*
X135823809Y-58725814D01*
X135871428Y-58821052D01*
X135871428Y-59011528D01*
X135823809Y-59106766D01*
X135776190Y-59154385D01*
X135680952Y-59202004D01*
%TO.C,D47*%
X173352380Y-97204514D02*
X172352380Y-97204514D01*
X172352380Y-97442609D01*
X172400000Y-97585466D01*
X172495238Y-97680704D01*
X172590476Y-97728323D01*
X172780952Y-97775942D01*
X172923809Y-97775942D01*
X173114285Y-97728323D01*
X173209523Y-97680704D01*
X173304761Y-97585466D01*
X173352380Y-97442609D01*
X173352380Y-97204514D01*
X172685714Y-98633085D02*
X173352380Y-98633085D01*
X172304761Y-98394990D02*
X173019047Y-98156895D01*
X173019047Y-98775942D01*
X172352380Y-99061657D02*
X172352380Y-99728323D01*
X173352380Y-99299752D01*
%TO.C,F1*%
X253948571Y-37766666D02*
X253948571Y-37433333D01*
X254472380Y-37433333D02*
X253472380Y-37433333D01*
X253472380Y-37909523D01*
X254472380Y-38814285D02*
X254472380Y-38242857D01*
X254472380Y-38528571D02*
X253472380Y-38528571D01*
X253615238Y-38433333D01*
X253710476Y-38338095D01*
X253758095Y-38242857D01*
%TO.C,D42*%
X80252380Y-94823414D02*
X79252380Y-94823414D01*
X79252380Y-95061509D01*
X79300000Y-95204366D01*
X79395238Y-95299604D01*
X79490476Y-95347223D01*
X79680952Y-95394842D01*
X79823809Y-95394842D01*
X80014285Y-95347223D01*
X80109523Y-95299604D01*
X80204761Y-95204366D01*
X80252380Y-95061509D01*
X80252380Y-94823414D01*
X79585714Y-96251985D02*
X80252380Y-96251985D01*
X79204761Y-96013890D02*
X79919047Y-95775795D01*
X79919047Y-96394842D01*
X79347619Y-96728176D02*
X79300000Y-96775795D01*
X79252380Y-96871033D01*
X79252380Y-97109128D01*
X79300000Y-97204366D01*
X79347619Y-97251985D01*
X79442857Y-97299604D01*
X79538095Y-97299604D01*
X79680952Y-97251985D01*
X80252380Y-96680557D01*
X80252380Y-97299604D01*
%TO.C,R5*%
X234166666Y-29822380D02*
X234500000Y-29346190D01*
X234738095Y-29822380D02*
X234738095Y-28822380D01*
X234357142Y-28822380D01*
X234261904Y-28870000D01*
X234214285Y-28917619D01*
X234166666Y-29012857D01*
X234166666Y-29155714D01*
X234214285Y-29250952D01*
X234261904Y-29298571D01*
X234357142Y-29346190D01*
X234738095Y-29346190D01*
X233261904Y-28822380D02*
X233738095Y-28822380D01*
X233785714Y-29298571D01*
X233738095Y-29250952D01*
X233642857Y-29203333D01*
X233404761Y-29203333D01*
X233309523Y-29250952D01*
X233261904Y-29298571D01*
X233214285Y-29393809D01*
X233214285Y-29631904D01*
X233261904Y-29727142D01*
X233309523Y-29774761D01*
X233404761Y-29822380D01*
X233642857Y-29822380D01*
X233738095Y-29774761D01*
X233785714Y-29727142D01*
%TO.C,C5*%
X245966666Y-60227142D02*
X246014285Y-60274761D01*
X246157142Y-60322380D01*
X246252380Y-60322380D01*
X246395238Y-60274761D01*
X246490476Y-60179523D01*
X246538095Y-60084285D01*
X246585714Y-59893809D01*
X246585714Y-59750952D01*
X246538095Y-59560476D01*
X246490476Y-59465238D01*
X246395238Y-59370000D01*
X246252380Y-59322380D01*
X246157142Y-59322380D01*
X246014285Y-59370000D01*
X245966666Y-59417619D01*
X245061904Y-59322380D02*
X245538095Y-59322380D01*
X245585714Y-59798571D01*
X245538095Y-59750952D01*
X245442857Y-59703333D01*
X245204761Y-59703333D01*
X245109523Y-59750952D01*
X245061904Y-59798571D01*
X245014285Y-59893809D01*
X245014285Y-60131904D01*
X245061904Y-60227142D01*
X245109523Y-60274761D01*
X245204761Y-60322380D01*
X245442857Y-60322380D01*
X245538095Y-60274761D01*
X245585714Y-60227142D01*
%TO.C,R6*%
X248266666Y-32682380D02*
X248600000Y-32206190D01*
X248838095Y-32682380D02*
X248838095Y-31682380D01*
X248457142Y-31682380D01*
X248361904Y-31730000D01*
X248314285Y-31777619D01*
X248266666Y-31872857D01*
X248266666Y-32015714D01*
X248314285Y-32110952D01*
X248361904Y-32158571D01*
X248457142Y-32206190D01*
X248838095Y-32206190D01*
X247409523Y-31682380D02*
X247600000Y-31682380D01*
X247695238Y-31730000D01*
X247742857Y-31777619D01*
X247838095Y-31920476D01*
X247885714Y-32110952D01*
X247885714Y-32491904D01*
X247838095Y-32587142D01*
X247790476Y-32634761D01*
X247695238Y-32682380D01*
X247504761Y-32682380D01*
X247409523Y-32634761D01*
X247361904Y-32587142D01*
X247314285Y-32491904D01*
X247314285Y-32253809D01*
X247361904Y-32158571D01*
X247409523Y-32110952D01*
X247504761Y-32063333D01*
X247695238Y-32063333D01*
X247790476Y-32110952D01*
X247838095Y-32158571D01*
X247885714Y-32253809D01*
%TO.C,D21*%
X173652380Y-56725814D02*
X172652380Y-56725814D01*
X172652380Y-56963909D01*
X172700000Y-57106766D01*
X172795238Y-57202004D01*
X172890476Y-57249623D01*
X173080952Y-57297242D01*
X173223809Y-57297242D01*
X173414285Y-57249623D01*
X173509523Y-57202004D01*
X173604761Y-57106766D01*
X173652380Y-56963909D01*
X173652380Y-56725814D01*
X172747619Y-57678195D02*
X172700000Y-57725814D01*
X172652380Y-57821052D01*
X172652380Y-58059147D01*
X172700000Y-58154385D01*
X172747619Y-58202004D01*
X172842857Y-58249623D01*
X172938095Y-58249623D01*
X173080952Y-58202004D01*
X173652380Y-57630576D01*
X173652380Y-58249623D01*
X173652380Y-59202004D02*
X173652380Y-58630576D01*
X173652380Y-58916290D02*
X172652380Y-58916290D01*
X172795238Y-58821052D01*
X172890476Y-58725814D01*
X172938095Y-58630576D01*
%TO.C,D11*%
X229652380Y-37677014D02*
X228652380Y-37677014D01*
X228652380Y-37915109D01*
X228700000Y-38057966D01*
X228795238Y-38153204D01*
X228890476Y-38200823D01*
X229080952Y-38248442D01*
X229223809Y-38248442D01*
X229414285Y-38200823D01*
X229509523Y-38153204D01*
X229604761Y-38057966D01*
X229652380Y-37915109D01*
X229652380Y-37677014D01*
X229652380Y-39200823D02*
X229652380Y-38629395D01*
X229652380Y-38915109D02*
X228652380Y-38915109D01*
X228795238Y-38819871D01*
X228890476Y-38724633D01*
X228938095Y-38629395D01*
X229652380Y-40153204D02*
X229652380Y-39581776D01*
X229652380Y-39867490D02*
X228652380Y-39867490D01*
X228795238Y-39772252D01*
X228890476Y-39677014D01*
X228938095Y-39581776D01*
%TO.C,D44*%
X123652380Y-98791914D02*
X122652380Y-98791914D01*
X122652380Y-99030009D01*
X122700000Y-99172866D01*
X122795238Y-99268104D01*
X122890476Y-99315723D01*
X123080952Y-99363342D01*
X123223809Y-99363342D01*
X123414285Y-99315723D01*
X123509523Y-99268104D01*
X123604761Y-99172866D01*
X123652380Y-99030009D01*
X123652380Y-98791914D01*
X122985714Y-100220485D02*
X123652380Y-100220485D01*
X122604761Y-99982390D02*
X123319047Y-99744295D01*
X123319047Y-100363342D01*
X122985714Y-101172866D02*
X123652380Y-101172866D01*
X122604761Y-100934771D02*
X123319047Y-100696676D01*
X123319047Y-101315723D01*
%TO.C,D38*%
X248452380Y-75774614D02*
X247452380Y-75774614D01*
X247452380Y-76012709D01*
X247500000Y-76155566D01*
X247595238Y-76250804D01*
X247690476Y-76298423D01*
X247880952Y-76346042D01*
X248023809Y-76346042D01*
X248214285Y-76298423D01*
X248309523Y-76250804D01*
X248404761Y-76155566D01*
X248452380Y-76012709D01*
X248452380Y-75774614D01*
X247452380Y-76679376D02*
X247452380Y-77298423D01*
X247833333Y-76965090D01*
X247833333Y-77107947D01*
X247880952Y-77203185D01*
X247928571Y-77250804D01*
X248023809Y-77298423D01*
X248261904Y-77298423D01*
X248357142Y-77250804D01*
X248404761Y-77203185D01*
X248452380Y-77107947D01*
X248452380Y-76822233D01*
X248404761Y-76726995D01*
X248357142Y-76679376D01*
X247880952Y-77869852D02*
X247833333Y-77774614D01*
X247785714Y-77726995D01*
X247690476Y-77679376D01*
X247642857Y-77679376D01*
X247547619Y-77726995D01*
X247500000Y-77774614D01*
X247452380Y-77869852D01*
X247452380Y-78060328D01*
X247500000Y-78155566D01*
X247547619Y-78203185D01*
X247642857Y-78250804D01*
X247690476Y-78250804D01*
X247785714Y-78203185D01*
X247833333Y-78155566D01*
X247880952Y-78060328D01*
X247880952Y-77869852D01*
X247928571Y-77774614D01*
X247976190Y-77726995D01*
X248071428Y-77679376D01*
X248261904Y-77679376D01*
X248357142Y-77726995D01*
X248404761Y-77774614D01*
X248452380Y-77869852D01*
X248452380Y-78060328D01*
X248404761Y-78155566D01*
X248357142Y-78203185D01*
X248261904Y-78250804D01*
X248071428Y-78250804D01*
X247976190Y-78203185D01*
X247928571Y-78155566D01*
X247880952Y-78060328D01*
%TO.C,D12*%
X245952380Y-41645514D02*
X244952380Y-41645514D01*
X244952380Y-41883609D01*
X245000000Y-42026466D01*
X245095238Y-42121704D01*
X245190476Y-42169323D01*
X245380952Y-42216942D01*
X245523809Y-42216942D01*
X245714285Y-42169323D01*
X245809523Y-42121704D01*
X245904761Y-42026466D01*
X245952380Y-41883609D01*
X245952380Y-41645514D01*
X245952380Y-43169323D02*
X245952380Y-42597895D01*
X245952380Y-42883609D02*
X244952380Y-42883609D01*
X245095238Y-42788371D01*
X245190476Y-42693133D01*
X245238095Y-42597895D01*
X245047619Y-43550276D02*
X245000000Y-43597895D01*
X244952380Y-43693133D01*
X244952380Y-43931228D01*
X245000000Y-44026466D01*
X245047619Y-44074085D01*
X245142857Y-44121704D01*
X245238095Y-44121704D01*
X245380952Y-44074085D01*
X245952380Y-43502657D01*
X245952380Y-44121704D01*
%TO.C,D1*%
X42952380Y-38153204D02*
X41952380Y-38153204D01*
X41952380Y-38391300D01*
X42000000Y-38534157D01*
X42095238Y-38629395D01*
X42190476Y-38677014D01*
X42380952Y-38724633D01*
X42523809Y-38724633D01*
X42714285Y-38677014D01*
X42809523Y-38629395D01*
X42904761Y-38534157D01*
X42952380Y-38391300D01*
X42952380Y-38153204D01*
X42952380Y-39677014D02*
X42952380Y-39105585D01*
X42952380Y-39391300D02*
X41952380Y-39391300D01*
X42095238Y-39296061D01*
X42190476Y-39200823D01*
X42238095Y-39105585D01*
%TO.C,D50*%
X229652380Y-94823414D02*
X228652380Y-94823414D01*
X228652380Y-95061509D01*
X228700000Y-95204366D01*
X228795238Y-95299604D01*
X228890476Y-95347223D01*
X229080952Y-95394842D01*
X229223809Y-95394842D01*
X229414285Y-95347223D01*
X229509523Y-95299604D01*
X229604761Y-95204366D01*
X229652380Y-95061509D01*
X229652380Y-94823414D01*
X228652380Y-96299604D02*
X228652380Y-95823414D01*
X229128571Y-95775795D01*
X229080952Y-95823414D01*
X229033333Y-95918652D01*
X229033333Y-96156747D01*
X229080952Y-96251985D01*
X229128571Y-96299604D01*
X229223809Y-96347223D01*
X229461904Y-96347223D01*
X229557142Y-96299604D01*
X229604761Y-96251985D01*
X229652380Y-96156747D01*
X229652380Y-95918652D01*
X229604761Y-95823414D01*
X229557142Y-95775795D01*
X228652380Y-96966271D02*
X228652380Y-97061509D01*
X228700000Y-97156747D01*
X228747619Y-97204366D01*
X228842857Y-97251985D01*
X229033333Y-97299604D01*
X229271428Y-97299604D01*
X229461904Y-97251985D01*
X229557142Y-97204366D01*
X229604761Y-97156747D01*
X229652380Y-97061509D01*
X229652380Y-96966271D01*
X229604761Y-96871033D01*
X229557142Y-96823414D01*
X229461904Y-96775795D01*
X229271428Y-96728176D01*
X229033333Y-96728176D01*
X228842857Y-96775795D01*
X228747619Y-96823414D01*
X228700000Y-96871033D01*
X228652380Y-96966271D01*
%TO.C,D8*%
X173652380Y-38153204D02*
X172652380Y-38153204D01*
X172652380Y-38391300D01*
X172700000Y-38534157D01*
X172795238Y-38629395D01*
X172890476Y-38677014D01*
X173080952Y-38724633D01*
X173223809Y-38724633D01*
X173414285Y-38677014D01*
X173509523Y-38629395D01*
X173604761Y-38534157D01*
X173652380Y-38391300D01*
X173652380Y-38153204D01*
X173080952Y-39296061D02*
X173033333Y-39200823D01*
X172985714Y-39153204D01*
X172890476Y-39105585D01*
X172842857Y-39105585D01*
X172747619Y-39153204D01*
X172700000Y-39200823D01*
X172652380Y-39296061D01*
X172652380Y-39486538D01*
X172700000Y-39581776D01*
X172747619Y-39629395D01*
X172842857Y-39677014D01*
X172890476Y-39677014D01*
X172985714Y-39629395D01*
X173033333Y-39581776D01*
X173080952Y-39486538D01*
X173080952Y-39296061D01*
X173128571Y-39200823D01*
X173176190Y-39153204D01*
X173271428Y-39105585D01*
X173461904Y-39105585D01*
X173557142Y-39153204D01*
X173604761Y-39200823D01*
X173652380Y-39296061D01*
X173652380Y-39486538D01*
X173604761Y-39581776D01*
X173557142Y-39629395D01*
X173461904Y-39677014D01*
X173271428Y-39677014D01*
X173176190Y-39629395D01*
X173128571Y-39581776D01*
X173080952Y-39486538D01*
%TO.C,C7*%
X260181552Y-61645850D02*
X260248895Y-61645850D01*
X260383582Y-61578506D01*
X260450926Y-61511163D01*
X260518269Y-61376475D01*
X260518269Y-61241788D01*
X260484598Y-61140773D01*
X260383582Y-60972414D01*
X260282567Y-60871399D01*
X260114208Y-60770384D01*
X260013193Y-60736712D01*
X259878506Y-60736712D01*
X259743819Y-60804056D01*
X259676475Y-60871399D01*
X259609132Y-61006086D01*
X259609132Y-61073430D01*
X259306086Y-61241788D02*
X258834682Y-61713193D01*
X259844834Y-62117254D01*
%TO.C,D20*%
X154952380Y-56725814D02*
X153952380Y-56725814D01*
X153952380Y-56963909D01*
X154000000Y-57106766D01*
X154095238Y-57202004D01*
X154190476Y-57249623D01*
X154380952Y-57297242D01*
X154523809Y-57297242D01*
X154714285Y-57249623D01*
X154809523Y-57202004D01*
X154904761Y-57106766D01*
X154952380Y-56963909D01*
X154952380Y-56725814D01*
X154047619Y-57678195D02*
X154000000Y-57725814D01*
X153952380Y-57821052D01*
X153952380Y-58059147D01*
X154000000Y-58154385D01*
X154047619Y-58202004D01*
X154142857Y-58249623D01*
X154238095Y-58249623D01*
X154380952Y-58202004D01*
X154952380Y-57630576D01*
X154952380Y-58249623D01*
X153952380Y-58868671D02*
X153952380Y-58963909D01*
X154000000Y-59059147D01*
X154047619Y-59106766D01*
X154142857Y-59154385D01*
X154333333Y-59202004D01*
X154571428Y-59202004D01*
X154761904Y-59154385D01*
X154857142Y-59106766D01*
X154904761Y-59059147D01*
X154952380Y-58963909D01*
X154952380Y-58868671D01*
X154904761Y-58773433D01*
X154857142Y-58725814D01*
X154761904Y-58678195D01*
X154571428Y-58630576D01*
X154333333Y-58630576D01*
X154142857Y-58678195D01*
X154047619Y-58725814D01*
X154000000Y-58773433D01*
X153952380Y-58868671D01*
%TO.C,D41*%
X61552380Y-94823414D02*
X60552380Y-94823414D01*
X60552380Y-95061509D01*
X60600000Y-95204366D01*
X60695238Y-95299604D01*
X60790476Y-95347223D01*
X60980952Y-95394842D01*
X61123809Y-95394842D01*
X61314285Y-95347223D01*
X61409523Y-95299604D01*
X61504761Y-95204366D01*
X61552380Y-95061509D01*
X61552380Y-94823414D01*
X60885714Y-96251985D02*
X61552380Y-96251985D01*
X60504761Y-96013890D02*
X61219047Y-95775795D01*
X61219047Y-96394842D01*
X61552380Y-97299604D02*
X61552380Y-96728176D01*
X61552380Y-97013890D02*
X60552380Y-97013890D01*
X60695238Y-96918652D01*
X60790476Y-96823414D01*
X60838095Y-96728176D01*
%TO.C,C1*%
X248266666Y-31727142D02*
X248314285Y-31774761D01*
X248457142Y-31822380D01*
X248552380Y-31822380D01*
X248695238Y-31774761D01*
X248790476Y-31679523D01*
X248838095Y-31584285D01*
X248885714Y-31393809D01*
X248885714Y-31250952D01*
X248838095Y-31060476D01*
X248790476Y-30965238D01*
X248695238Y-30870000D01*
X248552380Y-30822380D01*
X248457142Y-30822380D01*
X248314285Y-30870000D01*
X248266666Y-30917619D01*
X247314285Y-31822380D02*
X247885714Y-31822380D01*
X247600000Y-31822380D02*
X247600000Y-30822380D01*
X247695238Y-30965238D01*
X247790476Y-31060476D01*
X247885714Y-31108095D01*
%TO.C,D13*%
X267052380Y-37677014D02*
X266052380Y-37677014D01*
X266052380Y-37915109D01*
X266100000Y-38057966D01*
X266195238Y-38153204D01*
X266290476Y-38200823D01*
X266480952Y-38248442D01*
X266623809Y-38248442D01*
X266814285Y-38200823D01*
X266909523Y-38153204D01*
X267004761Y-38057966D01*
X267052380Y-37915109D01*
X267052380Y-37677014D01*
X267052380Y-39200823D02*
X267052380Y-38629395D01*
X267052380Y-38915109D02*
X266052380Y-38915109D01*
X266195238Y-38819871D01*
X266290476Y-38724633D01*
X266338095Y-38629395D01*
X266052380Y-39534157D02*
X266052380Y-40153204D01*
X266433333Y-39819871D01*
X266433333Y-39962728D01*
X266480952Y-40057966D01*
X266528571Y-40105585D01*
X266623809Y-40153204D01*
X266861904Y-40153204D01*
X266957142Y-40105585D01*
X267004761Y-40057966D01*
X267052380Y-39962728D01*
X267052380Y-39677014D01*
X267004761Y-39581776D01*
X266957142Y-39534157D01*
%TO.C,D26*%
X267052380Y-56725814D02*
X266052380Y-56725814D01*
X266052380Y-56963909D01*
X266100000Y-57106766D01*
X266195238Y-57202004D01*
X266290476Y-57249623D01*
X266480952Y-57297242D01*
X266623809Y-57297242D01*
X266814285Y-57249623D01*
X266909523Y-57202004D01*
X267004761Y-57106766D01*
X267052380Y-56963909D01*
X267052380Y-56725814D01*
X266147619Y-57678195D02*
X266100000Y-57725814D01*
X266052380Y-57821052D01*
X266052380Y-58059147D01*
X266100000Y-58154385D01*
X266147619Y-58202004D01*
X266242857Y-58249623D01*
X266338095Y-58249623D01*
X266480952Y-58202004D01*
X267052380Y-57630576D01*
X267052380Y-58249623D01*
X266052380Y-59106766D02*
X266052380Y-58916290D01*
X266100000Y-58821052D01*
X266147619Y-58773433D01*
X266290476Y-58678195D01*
X266480952Y-58630576D01*
X266861904Y-58630576D01*
X266957142Y-58678195D01*
X267004761Y-58725814D01*
X267052380Y-58821052D01*
X267052380Y-59011528D01*
X267004761Y-59106766D01*
X266957142Y-59154385D01*
X266861904Y-59202004D01*
X266623809Y-59202004D01*
X266528571Y-59154385D01*
X266480952Y-59106766D01*
X266433333Y-59011528D01*
X266433333Y-58821052D01*
X266480952Y-58725814D01*
X266528571Y-58678195D01*
X266623809Y-58630576D01*
%TO.C,C2*%
X248727142Y-56433333D02*
X248774761Y-56385714D01*
X248822380Y-56242857D01*
X248822380Y-56147619D01*
X248774761Y-56004761D01*
X248679523Y-55909523D01*
X248584285Y-55861904D01*
X248393809Y-55814285D01*
X248250952Y-55814285D01*
X248060476Y-55861904D01*
X247965238Y-55909523D01*
X247870000Y-56004761D01*
X247822380Y-56147619D01*
X247822380Y-56242857D01*
X247870000Y-56385714D01*
X247917619Y-56433333D01*
X247917619Y-56814285D02*
X247870000Y-56861904D01*
X247822380Y-56957142D01*
X247822380Y-57195238D01*
X247870000Y-57290476D01*
X247917619Y-57338095D01*
X248012857Y-57385714D01*
X248108095Y-57385714D01*
X248250952Y-57338095D01*
X248822380Y-56766666D01*
X248822380Y-57385714D01*
%TO.C,D51*%
X248352380Y-94823414D02*
X247352380Y-94823414D01*
X247352380Y-95061509D01*
X247400000Y-95204366D01*
X247495238Y-95299604D01*
X247590476Y-95347223D01*
X247780952Y-95394842D01*
X247923809Y-95394842D01*
X248114285Y-95347223D01*
X248209523Y-95299604D01*
X248304761Y-95204366D01*
X248352380Y-95061509D01*
X248352380Y-94823414D01*
X247352380Y-96299604D02*
X247352380Y-95823414D01*
X247828571Y-95775795D01*
X247780952Y-95823414D01*
X247733333Y-95918652D01*
X247733333Y-96156747D01*
X247780952Y-96251985D01*
X247828571Y-96299604D01*
X247923809Y-96347223D01*
X248161904Y-96347223D01*
X248257142Y-96299604D01*
X248304761Y-96251985D01*
X248352380Y-96156747D01*
X248352380Y-95918652D01*
X248304761Y-95823414D01*
X248257142Y-95775795D01*
X248352380Y-97299604D02*
X248352380Y-96728176D01*
X248352380Y-97013890D02*
X247352380Y-97013890D01*
X247495238Y-96918652D01*
X247590476Y-96823414D01*
X247638095Y-96728176D01*
%TO.C,D4*%
X98952380Y-38153204D02*
X97952380Y-38153204D01*
X97952380Y-38391300D01*
X98000000Y-38534157D01*
X98095238Y-38629395D01*
X98190476Y-38677014D01*
X98380952Y-38724633D01*
X98523809Y-38724633D01*
X98714285Y-38677014D01*
X98809523Y-38629395D01*
X98904761Y-38534157D01*
X98952380Y-38391300D01*
X98952380Y-38153204D01*
X98285714Y-39581776D02*
X98952380Y-39581776D01*
X97904761Y-39343680D02*
X98619047Y-39105585D01*
X98619047Y-39724633D01*
D11*
%TO.C,SW1*%
X33630000Y-83870000D02*
X30970000Y-83870000D01*
X33630000Y-81270000D02*
X33630000Y-83870000D01*
X30970000Y-81270000D02*
X30970000Y-83870000D01*
X33630000Y-81270000D02*
X30970000Y-81270000D01*
X33630000Y-80000000D02*
X33630000Y-78670000D01*
X33630000Y-78670000D02*
X32300000Y-78670000D01*
%TO.C,D16*%
X78800000Y-60190100D02*
X78800000Y-56290100D01*
X76800000Y-60190100D02*
X76800000Y-56290100D01*
X78800000Y-60190100D02*
X76800000Y-60190100D01*
%TO.C,D33*%
X151500000Y-79238900D02*
X151500000Y-75338900D01*
X153500000Y-79238900D02*
X151500000Y-79238900D01*
X153500000Y-79238900D02*
X153500000Y-75338900D01*
%TO.C,D28*%
X60100000Y-79238900D02*
X58100000Y-79238900D01*
X60100000Y-79238900D02*
X60100000Y-75338900D01*
X58100000Y-79238900D02*
X58100000Y-75338900D01*
%TO.C,D22*%
X188900000Y-60190100D02*
X188900000Y-56290100D01*
X190900000Y-60190100D02*
X188900000Y-60190100D01*
X190900000Y-60190100D02*
X190900000Y-56290100D01*
%TO.C,D7*%
X153500000Y-41141300D02*
X151500000Y-41141300D01*
X151500000Y-41141300D02*
X151500000Y-37241300D01*
X153500000Y-41141300D02*
X153500000Y-37241300D01*
%TO.C,C4*%
X256740580Y-59410000D02*
X256459420Y-59410000D01*
X256740580Y-58390000D02*
X256459420Y-58390000D01*
%TO.C,G\u002A\u002A\u002A*%
G36*
X150030571Y-65017143D02*
G01*
X150508423Y-65928982D01*
X150901428Y-68010715D01*
X150757646Y-69235743D01*
X150030571Y-71004286D01*
X149301101Y-71601600D01*
X147635714Y-72092858D01*
X146618923Y-71926913D01*
X144979111Y-70532592D01*
X144370000Y-68010715D01*
X144370239Y-67959777D01*
X144984009Y-65630139D01*
X146453306Y-64193226D01*
X148296153Y-63903930D01*
X150030571Y-65017143D01*
G37*
G36*
X264257379Y-66376090D02*
G01*
X263363892Y-71775188D01*
X262167260Y-76692624D01*
X260754986Y-80795478D01*
X259214570Y-83750832D01*
X257633513Y-85225765D01*
X256779257Y-85819786D01*
X255765477Y-87520847D01*
X255648072Y-87873726D01*
X254610651Y-89704002D01*
X253034234Y-91660127D01*
X252756844Y-91948037D01*
X251173950Y-93278606D01*
X249566154Y-93738025D01*
X247239709Y-93552909D01*
X246415386Y-93393637D01*
X243472438Y-92412606D01*
X240903616Y-91043425D01*
X239974101Y-90402721D01*
X238519261Y-89619893D01*
X237461976Y-89694587D01*
X236219566Y-90567612D01*
X235769691Y-90911129D01*
X232332567Y-92413441D01*
X228244952Y-92641362D01*
X223860265Y-91566332D01*
X221739128Y-90778842D01*
X220088891Y-90420097D01*
X218776887Y-90645871D01*
X217249989Y-91446104D01*
X214131547Y-92860211D01*
X210412934Y-93569700D01*
X207181778Y-93163202D01*
X205027858Y-92865023D01*
X202283445Y-93318525D01*
X202015457Y-93403415D01*
X199054623Y-93765235D01*
X195415306Y-93161483D01*
X193707220Y-92744749D01*
X191855913Y-92526530D01*
X190469713Y-92884158D01*
X188979408Y-93881298D01*
X187522310Y-94772144D01*
X183988860Y-95706991D01*
X180153971Y-95486415D01*
X176520601Y-94176967D01*
X173591712Y-91845200D01*
X172804930Y-90963915D01*
X171920075Y-90419782D01*
X170798598Y-90664499D01*
X168898080Y-91678841D01*
X168182554Y-92049288D01*
X165163894Y-93061830D01*
X162114821Y-93384088D01*
X159489600Y-93006296D01*
X157742500Y-91918686D01*
X156996456Y-91170982D01*
X156120455Y-91013575D01*
X154738515Y-91537518D01*
X152455153Y-92809437D01*
X151896425Y-93129123D01*
X149730220Y-94193505D01*
X147599834Y-94822849D01*
X145010423Y-95125201D01*
X141467143Y-95208609D01*
X139840326Y-95203276D01*
X136938169Y-95087538D01*
X134903699Y-94754815D01*
X133330683Y-94115546D01*
X131812890Y-93080171D01*
X130582482Y-92201555D01*
X128665376Y-91416530D01*
X126732890Y-91630334D01*
X125466500Y-91877261D01*
X122918588Y-92164688D01*
X119651173Y-92402795D01*
X116067143Y-92556594D01*
X109890854Y-92450887D01*
X104940581Y-91734347D01*
X101325054Y-90399520D01*
X99028116Y-88442505D01*
X97595862Y-87028252D01*
X95750328Y-86832585D01*
X93911653Y-88450717D01*
X91742662Y-90814506D01*
X88362167Y-93364983D01*
X84626170Y-95279889D01*
X80898844Y-96278674D01*
X76549372Y-96354829D01*
X72775207Y-95225000D01*
X71910594Y-94849065D01*
X69238045Y-94142088D01*
X66448516Y-93859227D01*
X65346713Y-93822626D01*
X62424646Y-93481663D01*
X59977668Y-92899765D01*
X58420321Y-92465651D01*
X56712595Y-92616226D01*
X54812009Y-93811967D01*
X52610237Y-95031464D01*
X48648175Y-95678572D01*
X46480334Y-95565941D01*
X42910144Y-94593475D01*
X40274055Y-92510713D01*
X38355446Y-89180902D01*
X38240408Y-88894224D01*
X37674133Y-87239247D01*
X37244451Y-85341600D01*
X36918165Y-82887036D01*
X36662078Y-79561304D01*
X36442994Y-75050156D01*
X36227715Y-69039344D01*
X36091857Y-64406771D01*
X35985428Y-59530962D01*
X35937127Y-55491619D01*
X35950573Y-52613997D01*
X36029388Y-51223354D01*
X36097973Y-50976928D01*
X37209380Y-49401667D01*
X39045918Y-48125619D01*
X40989861Y-47600000D01*
X41025020Y-47577775D01*
X44657495Y-47577775D01*
X44687915Y-51140919D01*
X44782194Y-55646200D01*
X44937103Y-60779648D01*
X45085985Y-64707156D01*
X45391908Y-70425595D01*
X45795892Y-74746049D01*
X46351253Y-77934972D01*
X47111308Y-80258816D01*
X48129371Y-81984033D01*
X49458760Y-83377076D01*
X50334982Y-83947733D01*
X52577169Y-84627027D01*
X55097202Y-84763643D01*
X57341190Y-84356052D01*
X58755245Y-83402727D01*
X59173567Y-82565244D01*
X59277283Y-80999137D01*
X58744180Y-78474923D01*
X58267285Y-75794570D01*
X58180048Y-71456260D01*
X58768741Y-67313801D01*
X59970070Y-64108925D01*
X60312331Y-63546280D01*
X61443774Y-61978600D01*
X62217970Y-61670051D01*
X62715224Y-62759282D01*
X63015840Y-65384942D01*
X63200124Y-69685680D01*
X63241669Y-70930896D01*
X63551895Y-75516733D01*
X64171973Y-78669637D01*
X65247645Y-80695464D01*
X66924654Y-81900073D01*
X69348741Y-82589320D01*
X70103287Y-82725128D01*
X71828285Y-82900858D01*
X73071821Y-82605748D01*
X73905265Y-81616093D01*
X74399989Y-79708189D01*
X74627366Y-76658332D01*
X74658767Y-72242819D01*
X74565563Y-66237945D01*
X74456322Y-61313227D01*
X74301626Y-56940855D01*
X74086130Y-53759977D01*
X73776147Y-51434516D01*
X73337988Y-49628398D01*
X72890101Y-48417019D01*
X76152857Y-48417019D01*
X76153488Y-48597954D01*
X76455478Y-51408678D01*
X77431854Y-52879297D01*
X79262938Y-53125904D01*
X82129047Y-52264591D01*
X83879817Y-51593048D01*
X85261972Y-51273875D01*
X86077091Y-51602513D01*
X86779317Y-52612984D01*
X87369764Y-54164069D01*
X87613617Y-56670608D01*
X87333913Y-58080788D01*
X86516030Y-58721752D01*
X84720527Y-58745494D01*
X83852797Y-58714242D01*
X82314118Y-59067316D01*
X81619785Y-60205198D01*
X81583884Y-60350870D01*
X81463741Y-62817804D01*
X82522195Y-64230909D01*
X84746366Y-64572194D01*
X86398416Y-64575115D01*
X87289052Y-65151029D01*
X87613617Y-66650821D01*
X87535036Y-68386138D01*
X86826168Y-70628355D01*
X86403670Y-71277726D01*
X85619852Y-71850984D01*
X84361671Y-71796178D01*
X82171313Y-71166205D01*
X79241985Y-70452189D01*
X77389805Y-70648037D01*
X76428095Y-71862024D01*
X76383206Y-72242819D01*
X76152857Y-74196877D01*
X76585032Y-78561723D01*
X77851496Y-82118404D01*
X79824069Y-84366849D01*
X81250891Y-85084516D01*
X84525029Y-85496568D01*
X88419499Y-84497972D01*
X93058323Y-82067177D01*
X93927055Y-81505008D01*
X96945882Y-79012249D01*
X99202535Y-75916689D01*
X101162094Y-71618684D01*
X102062726Y-69333612D01*
X102622886Y-68269996D01*
X102938865Y-68534086D01*
X103209973Y-69964927D01*
X103265392Y-70292389D01*
X104750910Y-74816892D01*
X107396519Y-78257793D01*
X111185029Y-80592184D01*
X112228077Y-81004875D01*
X114431655Y-81688818D01*
X116019828Y-81725473D01*
X117522048Y-81162486D01*
X117725875Y-81053090D01*
X119075193Y-79915261D01*
X119634469Y-78225261D01*
X119441603Y-75632058D01*
X118534491Y-71784622D01*
X118480598Y-71585502D01*
X117762576Y-68181104D01*
X117883439Y-66095621D01*
X118921193Y-65110529D01*
X120953846Y-65007306D01*
X121781412Y-65132155D01*
X123285911Y-65837345D01*
X123927252Y-67314686D01*
X123766302Y-69840954D01*
X122863928Y-73692926D01*
X121524662Y-78617996D01*
X123230585Y-80344712D01*
X124759167Y-81521479D01*
X126292854Y-82071429D01*
X126704410Y-82047447D01*
X128829246Y-81446609D01*
X131074171Y-80271285D01*
X132925282Y-78834907D01*
X133868676Y-77450907D01*
X133882227Y-77398017D01*
X134520693Y-75926166D01*
X135271093Y-76199096D01*
X136198570Y-78238840D01*
X136854401Y-79714276D01*
X139097591Y-82304569D01*
X142427701Y-83832785D01*
X146910000Y-84336075D01*
X150979741Y-84020196D01*
X155090881Y-82840096D01*
X158183781Y-80861334D01*
X160088405Y-78163550D01*
X160295513Y-77610834D01*
X161108384Y-73885877D01*
X161529077Y-69005986D01*
X161579963Y-63457935D01*
X161391040Y-59807828D01*
X163627774Y-59807828D01*
X163630959Y-60575008D01*
X163701017Y-63457935D01*
X163791766Y-67192325D01*
X164170891Y-72891166D01*
X164741346Y-77448891D01*
X165476142Y-80642860D01*
X166348292Y-82250436D01*
X166833152Y-82590328D01*
X167839628Y-82868835D01*
X169270813Y-82561359D01*
X171584285Y-81612117D01*
X172124172Y-81351185D01*
X174238539Y-79959564D01*
X175710397Y-78448597D01*
X176103515Y-77755372D01*
X177253482Y-74293938D01*
X177985713Y-69636316D01*
X178289068Y-64210029D01*
X178152404Y-58442599D01*
X177564581Y-52761548D01*
X176514457Y-47594398D01*
X176509835Y-47577775D01*
X178914638Y-47577775D01*
X178945058Y-51140919D01*
X179039337Y-55646200D01*
X179194246Y-60779648D01*
X179324283Y-64210029D01*
X179343128Y-64707156D01*
X179649051Y-70425595D01*
X180053035Y-74746049D01*
X180608396Y-77934972D01*
X181368451Y-80258816D01*
X182386514Y-81984033D01*
X183715902Y-83377076D01*
X184592125Y-83947733D01*
X186834312Y-84627027D01*
X189354344Y-84763643D01*
X191598333Y-84356052D01*
X193012388Y-83402727D01*
X193430710Y-82565244D01*
X193534425Y-80999137D01*
X193001323Y-78474923D01*
X192524428Y-75794570D01*
X192437191Y-71456260D01*
X193025884Y-67313801D01*
X194227213Y-64108925D01*
X194569474Y-63546280D01*
X195700917Y-61978600D01*
X196475113Y-61670051D01*
X196972366Y-62759282D01*
X197272983Y-65384942D01*
X197457267Y-69685680D01*
X197498811Y-70930896D01*
X197809037Y-75516733D01*
X198429116Y-78669637D01*
X199504788Y-80695464D01*
X201181797Y-81900073D01*
X203605884Y-82589320D01*
X204360430Y-82725128D01*
X206085428Y-82900858D01*
X207328963Y-82605748D01*
X208162408Y-81616093D01*
X208657132Y-79708189D01*
X208884509Y-76658332D01*
X208915910Y-72242819D01*
X208822706Y-66237945D01*
X208713465Y-61313227D01*
X208660203Y-59807828D01*
X211529852Y-59807828D01*
X211536144Y-60980760D01*
X211718489Y-67853791D01*
X212032663Y-72242819D01*
X212130531Y-73610047D01*
X212749539Y-78077229D01*
X213552784Y-81083036D01*
X214517534Y-82455168D01*
X216082431Y-82596964D01*
X218403901Y-82034161D01*
X220823815Y-80941011D01*
X222752216Y-79527276D01*
X223301342Y-78788826D01*
X224413801Y-76380573D01*
X225263192Y-73415904D01*
X226180268Y-68917858D01*
X226724311Y-72918777D01*
X226729620Y-72957524D01*
X227913691Y-77162496D01*
X230082791Y-80099224D01*
X233149970Y-81649562D01*
X236257849Y-81780648D01*
X239002965Y-80592364D01*
X240887054Y-78158289D01*
X241246469Y-77271411D01*
X241525792Y-75946600D01*
X241472220Y-74224307D01*
X241058596Y-71657432D01*
X240257758Y-67798878D01*
X239948969Y-66352407D01*
X239156233Y-62506215D01*
X238520211Y-59236012D01*
X238156346Y-57128004D01*
X237977537Y-55582449D01*
X238166418Y-54986192D01*
X238963732Y-55648115D01*
X239173046Y-55901870D01*
X240168400Y-57830795D01*
X241004115Y-60418384D01*
X241828855Y-63072916D01*
X243101063Y-65172591D01*
X244431588Y-65591319D01*
X245672747Y-64306287D01*
X246676857Y-61294682D01*
X246908690Y-60350984D01*
X247754706Y-57942173D01*
X248728695Y-56096981D01*
X249604315Y-55187014D01*
X250155225Y-55583882D01*
X250162009Y-55614043D01*
X250075142Y-56991197D01*
X249640874Y-59541031D01*
X248948281Y-62735731D01*
X247782985Y-68025292D01*
X247050145Y-72639446D01*
X246954462Y-76065631D01*
X247519125Y-78551675D01*
X248767324Y-80345406D01*
X250722247Y-81694654D01*
X250966342Y-81819320D01*
X252910905Y-82642035D01*
X254327057Y-82978572D01*
X255661073Y-82444672D01*
X257320536Y-80395380D01*
X258869658Y-77115118D01*
X260235253Y-72930399D01*
X261344133Y-68167734D01*
X262123112Y-63153636D01*
X262499002Y-58214616D01*
X262398616Y-53677186D01*
X261748767Y-49867858D01*
X261055899Y-47945534D01*
X258913903Y-44693555D01*
X256095022Y-42794582D01*
X252871702Y-42475497D01*
X252414480Y-42562449D01*
X249795169Y-43791648D01*
X248096398Y-46252146D01*
X247164622Y-50150430D01*
X247004703Y-51198245D01*
X246088954Y-54193525D01*
X244844944Y-55537179D01*
X243467388Y-55241152D01*
X242151002Y-53317387D01*
X241090501Y-49777829D01*
X240741239Y-48327398D01*
X239755212Y-45565632D01*
X238680146Y-43773605D01*
X237011721Y-42520958D01*
X234704885Y-41639317D01*
X232554316Y-41519737D01*
X231094139Y-42268213D01*
X230589233Y-43240608D01*
X229710570Y-45780242D01*
X228779251Y-49161472D01*
X227931509Y-52829629D01*
X227303580Y-56230046D01*
X227031699Y-58808054D01*
X226967062Y-59302767D01*
X226680170Y-58822854D01*
X226216293Y-56875110D01*
X225629382Y-53657678D01*
X224600492Y-48359253D01*
X223439837Y-44356456D01*
X222189620Y-42013311D01*
X220818896Y-41250000D01*
X219329990Y-41432471D01*
X216655984Y-42405017D01*
X214247176Y-43932511D01*
X212695736Y-45691195D01*
X212302300Y-46624995D01*
X211911416Y-48359595D01*
X211670587Y-50914492D01*
X211552502Y-54620348D01*
X211529852Y-59807828D01*
X208660203Y-59807828D01*
X208558769Y-56940855D01*
X208343273Y-53759977D01*
X208033290Y-51434516D01*
X207595131Y-49628398D01*
X206995110Y-48005548D01*
X206929194Y-47850862D01*
X204938139Y-44563732D01*
X202303771Y-42727802D01*
X198764424Y-42157143D01*
X197994061Y-42196747D01*
X195300211Y-43195733D01*
X193590845Y-45431490D01*
X192992857Y-48758870D01*
X192835526Y-50471451D01*
X192148640Y-52998163D01*
X191148944Y-54969317D01*
X190093316Y-55764286D01*
X189882530Y-55583256D01*
X189386049Y-54138924D01*
X188968403Y-51723054D01*
X188826221Y-50710056D01*
X188250985Y-47981113D01*
X187594335Y-46161667D01*
X187409643Y-45920616D01*
X186037730Y-45065283D01*
X184004209Y-44404368D01*
X181818414Y-44033828D01*
X179989683Y-44049619D01*
X179027352Y-44547697D01*
X178951304Y-45270737D01*
X178914638Y-47577775D01*
X176509835Y-47577775D01*
X176234553Y-46587778D01*
X175113665Y-43472225D01*
X173816019Y-41853327D01*
X172029882Y-41490812D01*
X169443524Y-42144411D01*
X168516164Y-42489256D01*
X166618294Y-43467226D01*
X165279100Y-44827656D01*
X164404516Y-46856240D01*
X163900477Y-49838668D01*
X163672918Y-54060634D01*
X163627774Y-59807828D01*
X161391040Y-59807828D01*
X161283417Y-57728496D01*
X160661810Y-52304442D01*
X159737514Y-47672545D01*
X158532902Y-44319578D01*
X156325587Y-41636180D01*
X152891237Y-39746403D01*
X148394221Y-38805635D01*
X146382552Y-38756686D01*
X142340850Y-39657959D01*
X139185753Y-41909661D01*
X137002828Y-45434212D01*
X135877637Y-50154034D01*
X135839236Y-50559971D01*
X136103402Y-54532999D01*
X137544948Y-57600974D01*
X140069455Y-59552206D01*
X141199815Y-60191155D01*
X142083612Y-61496624D01*
X141556226Y-62920223D01*
X139629246Y-64336012D01*
X137821985Y-65685374D01*
X136054918Y-68657115D01*
X135866103Y-69190544D01*
X135159212Y-70591720D01*
X134731944Y-70278572D01*
X134337332Y-68583564D01*
X133006501Y-63166141D01*
X131644170Y-58008807D01*
X130355001Y-53483676D01*
X129243656Y-49962867D01*
X128414796Y-47818495D01*
X127267029Y-45845652D01*
X124318408Y-42757197D01*
X120827212Y-41010348D01*
X117053836Y-40569151D01*
X113258673Y-41397650D01*
X109702119Y-43459892D01*
X106644567Y-46719922D01*
X104346413Y-51141785D01*
X102726964Y-55554366D01*
X101166335Y-51343795D01*
X98862532Y-46784325D01*
X95156166Y-42605522D01*
X90336543Y-39528710D01*
X87901321Y-38543204D01*
X83823654Y-37759409D01*
X80553057Y-38390561D01*
X78146446Y-40400991D01*
X76660741Y-43755033D01*
X76152857Y-48417019D01*
X72890101Y-48417019D01*
X72737967Y-48005548D01*
X72672051Y-47850862D01*
X70680996Y-44563732D01*
X68046628Y-42727802D01*
X64507281Y-42157143D01*
X63736918Y-42196747D01*
X61043068Y-43195733D01*
X59333702Y-45431490D01*
X58735714Y-48758870D01*
X58578383Y-50471451D01*
X57891497Y-52998163D01*
X56891801Y-54969317D01*
X55836173Y-55764286D01*
X55625387Y-55583256D01*
X55128906Y-54138924D01*
X54711260Y-51723054D01*
X54569078Y-50710056D01*
X53993842Y-47981113D01*
X53337193Y-46161667D01*
X53152500Y-45920616D01*
X51780588Y-45065283D01*
X49747066Y-44404368D01*
X47561271Y-44033828D01*
X45732540Y-44049619D01*
X44770210Y-44547697D01*
X44694161Y-45270737D01*
X44657495Y-47577775D01*
X41025020Y-47577775D01*
X41651283Y-47181894D01*
X42044285Y-45513572D01*
X42256387Y-43698110D01*
X43214215Y-42237446D01*
X45147746Y-41471711D01*
X48277602Y-41250000D01*
X50223391Y-41320144D01*
X52724439Y-41821050D01*
X54386792Y-42887304D01*
X54857531Y-43354425D01*
X55800664Y-43979168D01*
X56683198Y-43565348D01*
X58039937Y-41980161D01*
X59243664Y-40646431D01*
X60523250Y-39858590D01*
X62299927Y-39512628D01*
X65049843Y-39435715D01*
X65998319Y-39449352D01*
X69499101Y-39859774D01*
X71631048Y-40842573D01*
X72514429Y-41508062D01*
X73356767Y-41546324D01*
X74401759Y-40634643D01*
X76034442Y-38574715D01*
X76853230Y-37511132D01*
X78182405Y-36021900D01*
X79473173Y-35244462D01*
X81222123Y-34947575D01*
X83925843Y-34900000D01*
X86182397Y-34964400D01*
X88685334Y-35367674D01*
X91082349Y-36323577D01*
X94040523Y-38039141D01*
X96791543Y-39995516D01*
X99201390Y-42143384D01*
X100745311Y-44027085D01*
X102430280Y-46875888D01*
X105075854Y-43653666D01*
X108659372Y-40201407D01*
X112674997Y-38238224D01*
X117448019Y-37621429D01*
X120075604Y-37734679D01*
X123268358Y-38455404D01*
X125907706Y-40048385D01*
X128505704Y-42751167D01*
X129751562Y-44223971D01*
X130896025Y-45248793D01*
X131795728Y-45289378D01*
X132896397Y-44525890D01*
X132936696Y-44492531D01*
X134618056Y-42703382D01*
X136215819Y-40438505D01*
X138072545Y-38181387D01*
X140725924Y-36675959D01*
X144316325Y-35967015D01*
X149052546Y-35982068D01*
X152405603Y-36388519D01*
X156392420Y-37651060D01*
X159215627Y-39745821D01*
X160971969Y-42727551D01*
X161857442Y-45156803D01*
X163005709Y-43107577D01*
X164258432Y-41560531D01*
X166620061Y-39947983D01*
X169426040Y-38872712D01*
X172255504Y-38436591D01*
X174687588Y-38741491D01*
X176301428Y-39889286D01*
X177063164Y-40548590D01*
X178981768Y-41082988D01*
X182115605Y-41250000D01*
X184954458Y-41378552D01*
X187158335Y-41891941D01*
X188643935Y-42887304D01*
X189114674Y-43354425D01*
X190057807Y-43979168D01*
X190940341Y-43565348D01*
X192297080Y-41980161D01*
X192445837Y-41795617D01*
X193641069Y-40522846D01*
X194917939Y-39812078D01*
X196732557Y-39503104D01*
X199541033Y-39435715D01*
X200596278Y-39439631D01*
X202992942Y-39554620D01*
X204570776Y-39970905D01*
X205804601Y-40876765D01*
X207169240Y-42460479D01*
X209589051Y-45485243D01*
X211088339Y-42950374D01*
X211406647Y-42459972D01*
X213851392Y-40212042D01*
X217152829Y-38895098D01*
X220909511Y-38683548D01*
X221895327Y-38832174D01*
X223810322Y-39731446D01*
X225277388Y-41753191D01*
X226765753Y-44524239D01*
X228213879Y-41753191D01*
X229327771Y-40027657D01*
X230758276Y-39092845D01*
X233033401Y-38708996D01*
X235078782Y-38710408D01*
X238448558Y-39554531D01*
X241038303Y-41356019D01*
X242558780Y-43955562D01*
X243094799Y-45278916D01*
X244056576Y-46499928D01*
X244889262Y-46607599D01*
X245244285Y-45412782D01*
X245286382Y-45121236D01*
X246052410Y-43579076D01*
X247477109Y-41784211D01*
X247739145Y-41514240D01*
X249362726Y-40215843D01*
X251235898Y-39594832D01*
X253952857Y-39435715D01*
X254636349Y-39441504D01*
X257099667Y-39674811D01*
X258861115Y-40414890D01*
X260527283Y-41888002D01*
X260834400Y-42219156D01*
X262750588Y-44894998D01*
X263983629Y-48115999D01*
X264643098Y-52286894D01*
X264838571Y-57812417D01*
X264828122Y-58214616D01*
X264760220Y-60828250D01*
X264257379Y-66376090D01*
G37*
G36*
X120946874Y-50785882D02*
G01*
X122279687Y-52413086D01*
X122357135Y-52525540D01*
X123749187Y-55314167D01*
X123895086Y-57647316D01*
X122780000Y-59320196D01*
X122682486Y-59391081D01*
X121463844Y-60129316D01*
X120505360Y-59979963D01*
X119090695Y-58852143D01*
X118232686Y-57701112D01*
X117637217Y-55263952D01*
X117961439Y-52732817D01*
X119195401Y-50866485D01*
X119924347Y-50468564D01*
X120946874Y-50785882D01*
G37*
G36*
X148975750Y-51470421D02*
G01*
X150384127Y-53032052D01*
X150901428Y-55764286D01*
X150701165Y-57515134D01*
X150030571Y-59211429D01*
X149818930Y-59450061D01*
X148136140Y-60201853D01*
X146355448Y-59648393D01*
X144944264Y-58074324D01*
X144370000Y-55764286D01*
X144808674Y-53879428D01*
X146166226Y-52010205D01*
X147905265Y-51228572D01*
X148975750Y-51470421D01*
G37*
%TO.C,D27*%
X41500000Y-79238900D02*
X39500000Y-79238900D01*
X41500000Y-79238900D02*
X41500000Y-75338900D01*
X39500000Y-79238900D02*
X39500000Y-75338900D01*
%TO.C,D40*%
X41500000Y-98287700D02*
X39500000Y-98287700D01*
X41500000Y-98287700D02*
X41500000Y-94387700D01*
X39500000Y-98287700D02*
X39500000Y-94387700D01*
%TO.C,D14*%
X39500000Y-60190100D02*
X39500000Y-56290100D01*
X41500000Y-60190100D02*
X41500000Y-56290100D01*
X41500000Y-60190100D02*
X39500000Y-60190100D01*
%TO.C,U2*%
X234700000Y-40950000D02*
X231750000Y-40950000D01*
X232300000Y-37850000D02*
X234700000Y-37850000D01*
%TO.C,D39*%
X265600000Y-79238900D02*
X265600000Y-75338900D01*
X265600000Y-79238900D02*
X263600000Y-79238900D01*
X263600000Y-79238900D02*
X263600000Y-75338900D01*
%TO.C,R7*%
X234237258Y-32277500D02*
X233762742Y-32277500D01*
X234237258Y-33322500D02*
X233762742Y-33322500D01*
%TO.C,D49*%
X197000000Y-98287700D02*
X197000000Y-94387700D01*
X199000000Y-98287700D02*
X199000000Y-94387700D01*
X199000000Y-98287700D02*
X197000000Y-98287700D01*
%TO.C,R4*%
X260537258Y-70677500D02*
X260062742Y-70677500D01*
X260537258Y-71722500D02*
X260062742Y-71722500D01*
%TO.C,C6*%
X249040580Y-58990000D02*
X248759420Y-58990000D01*
X249040580Y-60010000D02*
X248759420Y-60010000D01*
%TO.C,D36*%
X209600000Y-79238900D02*
X209600000Y-75338900D01*
X207600000Y-79238900D02*
X207600000Y-75338900D01*
X209600000Y-79238900D02*
X207600000Y-79238900D01*
%TO.C,D23*%
X207600000Y-60190100D02*
X207600000Y-56290100D01*
X209600000Y-60190100D02*
X207600000Y-60190100D01*
X209600000Y-60190100D02*
X209600000Y-56290100D01*
%TO.C,D5*%
X116200000Y-41141300D02*
X116200000Y-37241300D01*
X116200000Y-41141300D02*
X114200000Y-41141300D01*
X114200000Y-41141300D02*
X114200000Y-37241300D01*
%TO.C,D6*%
X134800000Y-41141300D02*
X134800000Y-37241300D01*
X134800000Y-41141300D02*
X132800000Y-41141300D01*
X132800000Y-41141300D02*
X132800000Y-37241300D01*
%TO.C,D18*%
X114200000Y-60190100D02*
X114200000Y-56290100D01*
X116200000Y-60190100D02*
X114200000Y-60190100D01*
X116200000Y-60190100D02*
X116200000Y-56290100D01*
%TO.C,D10*%
X209600000Y-41141300D02*
X207600000Y-41141300D01*
X207600000Y-41141300D02*
X207600000Y-37241300D01*
X209600000Y-41141300D02*
X209600000Y-37241300D01*
%TO.C,Y1*%
X250900000Y-55350000D02*
X254900000Y-55350000D01*
X250900000Y-58650000D02*
X250900000Y-55350000D01*
%TO.C,D3*%
X78800000Y-41141300D02*
X76800000Y-41141300D01*
X78800000Y-41141300D02*
X78800000Y-37241300D01*
X76800000Y-41141300D02*
X76800000Y-37241300D01*
%TO.C,D29*%
X76800000Y-79238900D02*
X76800000Y-75338900D01*
X78800000Y-79238900D02*
X76800000Y-79238900D01*
X78800000Y-79238900D02*
X78800000Y-75338900D01*
%TO.C,R3*%
X235122500Y-44137258D02*
X235122500Y-43662742D01*
X234077500Y-44137258D02*
X234077500Y-43662742D01*
%TO.C,D25*%
X246900000Y-60190100D02*
X244900000Y-60190100D01*
X246900000Y-60190100D02*
X246900000Y-56290100D01*
X244900000Y-60190100D02*
X244900000Y-56290100D01*
%TO.C,D2*%
X60200000Y-41141300D02*
X60200000Y-37241300D01*
X60200000Y-41141300D02*
X58200000Y-41141300D01*
X58200000Y-41141300D02*
X58200000Y-37241300D01*
%TO.C,D30*%
X97500000Y-79238900D02*
X95500000Y-79238900D01*
X95500000Y-79238900D02*
X95500000Y-75338900D01*
X97500000Y-79238900D02*
X97500000Y-75338900D01*
D10*
%TO.C,U1*%
X252359099Y-61707575D02*
X253366726Y-60699948D01*
X252200000Y-71801524D02*
X252429810Y-71571714D01*
X252200000Y-61548476D02*
X251970190Y-61778286D01*
X257326524Y-66675000D02*
X257096714Y-66445190D01*
X257326524Y-66675000D02*
X257096714Y-66904810D01*
X247073476Y-66675000D02*
X247303286Y-66904810D01*
X252200000Y-61548476D02*
X252359099Y-61707575D01*
X252200000Y-71801524D02*
X251970190Y-71571714D01*
X247073476Y-66675000D02*
X247303286Y-66445190D01*
D11*
%TO.C,D9*%
X190900000Y-41141300D02*
X190900000Y-37241300D01*
X188900000Y-41141300D02*
X188900000Y-37241300D01*
X190900000Y-41141300D02*
X188900000Y-41141300D01*
%TO.C,C3*%
X243240580Y-63490000D02*
X242959420Y-63490000D01*
X243240580Y-64510000D02*
X242959420Y-64510000D01*
%TO.C,D43*%
X97500000Y-98287700D02*
X95500000Y-98287700D01*
X97500000Y-98287700D02*
X97500000Y-94387700D01*
X95500000Y-98287700D02*
X95500000Y-94387700D01*
%TO.C,D24*%
X228300000Y-60190100D02*
X226300000Y-60190100D01*
X228300000Y-60190100D02*
X228300000Y-56290100D01*
X226300000Y-60190100D02*
X226300000Y-56290100D01*
%TO.C,R2*%
X232922500Y-44137258D02*
X232922500Y-43662742D01*
X231877500Y-44137258D02*
X231877500Y-43662742D01*
%TO.C,D15*%
X60100000Y-60190100D02*
X58100000Y-60190100D01*
X60100000Y-60190100D02*
X60100000Y-56290100D01*
X58100000Y-60190100D02*
X58100000Y-56290100D01*
%TO.C,D35*%
X188900000Y-79238900D02*
X188900000Y-75338900D01*
X190900000Y-79238900D02*
X190900000Y-75338900D01*
X190900000Y-79238900D02*
X188900000Y-79238900D01*
%TO.C,D52*%
X265600000Y-98287700D02*
X265600000Y-94387700D01*
X265600000Y-98287700D02*
X263600000Y-98287700D01*
X263600000Y-98287700D02*
X263600000Y-94387700D01*
%TO.C,D31*%
X116200000Y-79238900D02*
X116200000Y-75338900D01*
X114200000Y-79238900D02*
X114200000Y-75338900D01*
X116200000Y-79238900D02*
X114200000Y-79238900D01*
%TO.C,D48*%
X188900000Y-98287700D02*
X188900000Y-94387700D01*
X190900000Y-98287700D02*
X190900000Y-94387700D01*
X190900000Y-98287700D02*
X188900000Y-98287700D01*
%TO.C,D45*%
X132900000Y-98287700D02*
X132900000Y-94387700D01*
X134900000Y-98287700D02*
X134900000Y-94387700D01*
X134900000Y-98287700D02*
X132900000Y-98287700D01*
%TO.C,D17*%
X97500000Y-60190100D02*
X95500000Y-60190100D01*
X95500000Y-60190100D02*
X95500000Y-56290100D01*
X97500000Y-60190100D02*
X97500000Y-56290100D01*
%TO.C,D37*%
X226300000Y-79238900D02*
X226300000Y-75338900D01*
X228300000Y-79238900D02*
X226300000Y-79238900D01*
X228300000Y-79238900D02*
X228300000Y-75338900D01*
%TO.C,R1*%
X242662742Y-69422500D02*
X243137258Y-69422500D01*
X242662742Y-68377500D02*
X243137258Y-68377500D01*
%TO.C,D46*%
X153500000Y-98287700D02*
X151500000Y-98287700D01*
X153500000Y-98287700D02*
X153500000Y-94387700D01*
X151500000Y-98287700D02*
X151500000Y-94387700D01*
%TO.C,D32*%
X132900000Y-79238900D02*
X132900000Y-75338900D01*
X134900000Y-79238900D02*
X132900000Y-79238900D01*
X134900000Y-79238900D02*
X134900000Y-75338900D01*
%TO.C,D34*%
X172200000Y-79238900D02*
X172200000Y-75338900D01*
X172200000Y-79238900D02*
X170200000Y-79238900D01*
X170200000Y-79238900D02*
X170200000Y-75338900D01*
%TO.C,D19*%
X134800000Y-60190100D02*
X134800000Y-56290100D01*
X132800000Y-60190100D02*
X132800000Y-56290100D01*
X134800000Y-60190100D02*
X132800000Y-60190100D01*
%TO.C,D47*%
X171900000Y-100668800D02*
X171900000Y-96768800D01*
X171900000Y-100668800D02*
X169900000Y-100668800D01*
X169900000Y-100668800D02*
X169900000Y-96768800D01*
%TO.C,F1*%
X251290000Y-38702064D02*
X251290000Y-37497936D01*
X253110000Y-38702064D02*
X253110000Y-37497936D01*
%TO.C,D42*%
X76800000Y-98287700D02*
X76800000Y-94387700D01*
X78800000Y-98287700D02*
X76800000Y-98287700D01*
X78800000Y-98287700D02*
X78800000Y-94387700D01*
%TO.C,R5*%
X234237258Y-30277500D02*
X233762742Y-30277500D01*
X234237258Y-31322500D02*
X233762742Y-31322500D01*
%TO.C,C5*%
X245940580Y-61810000D02*
X245659420Y-61810000D01*
X245940580Y-60790000D02*
X245659420Y-60790000D01*
%TO.C,R6*%
X247862742Y-30277500D02*
X248337258Y-30277500D01*
X247862742Y-31322500D02*
X248337258Y-31322500D01*
%TO.C,D21*%
X172200000Y-60190100D02*
X172200000Y-56290100D01*
X172200000Y-60190100D02*
X170200000Y-60190100D01*
X170200000Y-60190100D02*
X170200000Y-56290100D01*
%TO.C,D11*%
X228200000Y-41141300D02*
X226200000Y-41141300D01*
X226200000Y-41141300D02*
X226200000Y-37241300D01*
X228200000Y-41141300D02*
X228200000Y-37241300D01*
%TO.C,D44*%
X122200000Y-102256200D02*
X122200000Y-98356200D01*
X122200000Y-102256200D02*
X120200000Y-102256200D01*
X120200000Y-102256200D02*
X120200000Y-98356200D01*
%TO.C,D38*%
X247000000Y-79238900D02*
X245000000Y-79238900D01*
X245000000Y-79238900D02*
X245000000Y-75338900D01*
X247000000Y-79238900D02*
X247000000Y-75338900D01*
%TO.C,D12*%
X244500000Y-45109800D02*
X242500000Y-45109800D01*
X244500000Y-45109800D02*
X244500000Y-41209800D01*
X242500000Y-45109800D02*
X242500000Y-41209800D01*
%TO.C,D1*%
X41500000Y-41141300D02*
X41500000Y-37241300D01*
X39500000Y-41141300D02*
X39500000Y-37241300D01*
X41500000Y-41141300D02*
X39500000Y-41141300D01*
%TO.C,D50*%
X228200000Y-98287700D02*
X226200000Y-98287700D01*
X226200000Y-98287700D02*
X226200000Y-94387700D01*
X228200000Y-98287700D02*
X228200000Y-94387700D01*
%TO.C,D8*%
X172200000Y-41141300D02*
X170200000Y-41141300D01*
X170200000Y-41141300D02*
X170200000Y-37241300D01*
X172200000Y-41141300D02*
X172200000Y-37241300D01*
%TO.C,C7*%
X259061219Y-60960030D02*
X259260030Y-60761219D01*
X258339970Y-60238781D02*
X258538781Y-60039970D01*
%TO.C,D20*%
X151500000Y-60190100D02*
X151500000Y-56290100D01*
X153500000Y-60190100D02*
X151500000Y-60190100D01*
X153500000Y-60190100D02*
X153500000Y-56290100D01*
%TO.C,D41*%
X60100000Y-98287700D02*
X60100000Y-94387700D01*
X60100000Y-98287700D02*
X58100000Y-98287700D01*
X58100000Y-98287700D02*
X58100000Y-94387700D01*
%TO.C,C1*%
X248240580Y-32290000D02*
X247959420Y-32290000D01*
X248240580Y-33310000D02*
X247959420Y-33310000D01*
%TO.C,D13*%
X265600000Y-41141300D02*
X263600000Y-41141300D01*
X263600000Y-41141300D02*
X263600000Y-37241300D01*
X265600000Y-41141300D02*
X265600000Y-37241300D01*
%TO.C,D26*%
X263600000Y-60190100D02*
X263600000Y-56290100D01*
X265600000Y-60190100D02*
X263600000Y-60190100D01*
X265600000Y-60190100D02*
X265600000Y-56290100D01*
%TO.C,C2*%
X250310000Y-56459420D02*
X250310000Y-56740580D01*
X249290000Y-56459420D02*
X249290000Y-56740580D01*
%TO.C,D51*%
X246900000Y-98287700D02*
X244900000Y-98287700D01*
X246900000Y-98287700D02*
X246900000Y-94387700D01*
X244900000Y-98287700D02*
X244900000Y-94387700D01*
%TO.C,D4*%
X97500000Y-41141300D02*
X97500000Y-37241300D01*
X97500000Y-41141300D02*
X95500000Y-41141300D01*
X95500000Y-41141300D02*
X95500000Y-37241300D01*
%TD*%
%LPC*%
D10*
X269395238Y-100894761D02*
X269490476Y-100942380D01*
X269680952Y-100942380D01*
X269776190Y-100894761D01*
X269823809Y-100847142D01*
X269871428Y-100751904D01*
X269871428Y-100466190D01*
X269823809Y-100370952D01*
X269776190Y-100323333D01*
X269680952Y-100275714D01*
X269490476Y-100275714D01*
X269395238Y-100323333D01*
X268823809Y-100942380D02*
X268919047Y-100894761D01*
X268966666Y-100847142D01*
X269014285Y-100751904D01*
X269014285Y-100466190D01*
X268966666Y-100370952D01*
X268919047Y-100323333D01*
X268823809Y-100275714D01*
X268680952Y-100275714D01*
X268585714Y-100323333D01*
X268538095Y-100370952D01*
X268490476Y-100466190D01*
X268490476Y-100751904D01*
X268538095Y-100847142D01*
X268585714Y-100894761D01*
X268680952Y-100942380D01*
X268823809Y-100942380D01*
X268061904Y-100275714D02*
X268061904Y-100942380D01*
X268061904Y-100370952D02*
X268014285Y-100323333D01*
X267919047Y-100275714D01*
X267776190Y-100275714D01*
X267680952Y-100323333D01*
X267633333Y-100418571D01*
X267633333Y-100942380D01*
X266728571Y-100894761D02*
X266823809Y-100942380D01*
X267014285Y-100942380D01*
X267109523Y-100894761D01*
X267157142Y-100847142D01*
X267204761Y-100751904D01*
X267204761Y-100466190D01*
X267157142Y-100370952D01*
X267109523Y-100323333D01*
X267014285Y-100275714D01*
X266823809Y-100275714D01*
X266728571Y-100323333D01*
X265919047Y-100894761D02*
X266014285Y-100942380D01*
X266204761Y-100942380D01*
X266300000Y-100894761D01*
X266347619Y-100799523D01*
X266347619Y-100418571D01*
X266300000Y-100323333D01*
X266204761Y-100275714D01*
X266014285Y-100275714D01*
X265919047Y-100323333D01*
X265871428Y-100418571D01*
X265871428Y-100513809D01*
X266347619Y-100609047D01*
X265442857Y-100275714D02*
X265442857Y-101275714D01*
X265442857Y-100323333D02*
X265347619Y-100275714D01*
X265157142Y-100275714D01*
X265061904Y-100323333D01*
X265014285Y-100370952D01*
X264966666Y-100466190D01*
X264966666Y-100751904D01*
X265014285Y-100847142D01*
X265061904Y-100894761D01*
X265157142Y-100942380D01*
X265347619Y-100942380D01*
X265442857Y-100894761D01*
X264680952Y-100275714D02*
X264300000Y-100275714D01*
X264538095Y-99942380D02*
X264538095Y-100799523D01*
X264490476Y-100894761D01*
X264395238Y-100942380D01*
X264300000Y-100942380D01*
X263204761Y-100942380D02*
X263204761Y-99942380D01*
X263204761Y-100323333D02*
X263109523Y-100275714D01*
X262919047Y-100275714D01*
X262823809Y-100323333D01*
X262776190Y-100370952D01*
X262728571Y-100466190D01*
X262728571Y-100751904D01*
X262776190Y-100847142D01*
X262823809Y-100894761D01*
X262919047Y-100942380D01*
X263109523Y-100942380D01*
X263204761Y-100894761D01*
X262395238Y-100275714D02*
X262157142Y-100942380D01*
X261919047Y-100275714D02*
X262157142Y-100942380D01*
X262252380Y-101180476D01*
X262300000Y-101228095D01*
X262395238Y-101275714D01*
X260919047Y-99942380D02*
X260347619Y-99942380D01*
X260633333Y-100942380D02*
X260633333Y-99942380D01*
X259585714Y-100942380D02*
X259585714Y-100418571D01*
X259633333Y-100323333D01*
X259728571Y-100275714D01*
X259919047Y-100275714D01*
X260014285Y-100323333D01*
X259585714Y-100894761D02*
X259680952Y-100942380D01*
X259919047Y-100942380D01*
X260014285Y-100894761D01*
X260061904Y-100799523D01*
X260061904Y-100704285D01*
X260014285Y-100609047D01*
X259919047Y-100561428D01*
X259680952Y-100561428D01*
X259585714Y-100513809D01*
X259204761Y-100275714D02*
X258966666Y-100942380D01*
X258728571Y-100275714D02*
X258966666Y-100942380D01*
X259061904Y-101180476D01*
X259109523Y-101228095D01*
X259204761Y-101275714D01*
X258204761Y-100942380D02*
X258300000Y-100894761D01*
X258347619Y-100799523D01*
X258347619Y-99942380D01*
X257680952Y-100942380D02*
X257776190Y-100894761D01*
X257823809Y-100847142D01*
X257871428Y-100751904D01*
X257871428Y-100466190D01*
X257823809Y-100370952D01*
X257776190Y-100323333D01*
X257680952Y-100275714D01*
X257538095Y-100275714D01*
X257442857Y-100323333D01*
X257395238Y-100370952D01*
X257347619Y-100466190D01*
X257347619Y-100751904D01*
X257395238Y-100847142D01*
X257442857Y-100894761D01*
X257538095Y-100942380D01*
X257680952Y-100942380D01*
X256919047Y-100942380D02*
X256919047Y-100275714D01*
X256919047Y-100466190D02*
X256871428Y-100370952D01*
X256823809Y-100323333D01*
X256728571Y-100275714D01*
X256633333Y-100275714D01*
X268609523Y-102552380D02*
X268609523Y-101885714D01*
X268609523Y-102076190D02*
X268561904Y-101980952D01*
X268514285Y-101933333D01*
X268419047Y-101885714D01*
X268323809Y-101885714D01*
X268038095Y-101647619D02*
X267990476Y-101600000D01*
X267895238Y-101552380D01*
X267657142Y-101552380D01*
X267561904Y-101600000D01*
X267514285Y-101647619D01*
X267466666Y-101742857D01*
X267466666Y-101838095D01*
X267514285Y-101980952D01*
X268085714Y-102552380D01*
X267466666Y-102552380D01*
X266276190Y-101885714D02*
X266276190Y-102885714D01*
X266276190Y-101933333D02*
X266180952Y-101885714D01*
X265990476Y-101885714D01*
X265895238Y-101933333D01*
X265847619Y-101980952D01*
X265800000Y-102076190D01*
X265800000Y-102361904D01*
X265847619Y-102457142D01*
X265895238Y-102504761D01*
X265990476Y-102552380D01*
X266180952Y-102552380D01*
X266276190Y-102504761D01*
X264942857Y-102504761D02*
X265038095Y-102552380D01*
X265228571Y-102552380D01*
X265323809Y-102504761D01*
X265371428Y-102457142D01*
X265419047Y-102361904D01*
X265419047Y-102076190D01*
X265371428Y-101980952D01*
X265323809Y-101933333D01*
X265228571Y-101885714D01*
X265038095Y-101885714D01*
X264942857Y-101933333D01*
X264514285Y-102552380D02*
X264514285Y-101552380D01*
X264514285Y-101933333D02*
X264419047Y-101885714D01*
X264228571Y-101885714D01*
X264133333Y-101933333D01*
X264085714Y-101980952D01*
X264038095Y-102076190D01*
X264038095Y-102361904D01*
X264085714Y-102457142D01*
X264133333Y-102504761D01*
X264228571Y-102552380D01*
X264419047Y-102552380D01*
X264514285Y-102504761D01*
X262847619Y-102552380D02*
X262847619Y-101552380D01*
X262847619Y-101933333D02*
X262752380Y-101885714D01*
X262561904Y-101885714D01*
X262466666Y-101933333D01*
X262419047Y-101980952D01*
X262371428Y-102076190D01*
X262371428Y-102361904D01*
X262419047Y-102457142D01*
X262466666Y-102504761D01*
X262561904Y-102552380D01*
X262752380Y-102552380D01*
X262847619Y-102504761D01*
X262038095Y-101885714D02*
X261800000Y-102552380D01*
X261561904Y-101885714D02*
X261800000Y-102552380D01*
X261895238Y-102790476D01*
X261942857Y-102838095D01*
X262038095Y-102885714D01*
X260419047Y-102552380D02*
X260419047Y-101885714D01*
X260419047Y-102076190D02*
X260371428Y-101980952D01*
X260323809Y-101933333D01*
X260228571Y-101885714D01*
X260133333Y-101885714D01*
X259371428Y-102552380D02*
X259371428Y-102028571D01*
X259419047Y-101933333D01*
X259514285Y-101885714D01*
X259704761Y-101885714D01*
X259800000Y-101933333D01*
X259371428Y-102504761D02*
X259466666Y-102552380D01*
X259704761Y-102552380D01*
X259800000Y-102504761D01*
X259847619Y-102409523D01*
X259847619Y-102314285D01*
X259800000Y-102219047D01*
X259704761Y-102171428D01*
X259466666Y-102171428D01*
X259371428Y-102123809D01*
X258895238Y-102552380D02*
X258895238Y-101885714D01*
X258895238Y-101552380D02*
X258942857Y-101600000D01*
X258895238Y-101647619D01*
X258847619Y-101600000D01*
X258895238Y-101552380D01*
X258895238Y-101647619D01*
X258419047Y-101885714D02*
X258419047Y-102552380D01*
X258419047Y-101980952D02*
X258371428Y-101933333D01*
X258276190Y-101885714D01*
X258133333Y-101885714D01*
X258038095Y-101933333D01*
X257990476Y-102028571D01*
X257990476Y-102552380D01*
X264728571Y-103495714D02*
X264490476Y-104162380D01*
X264252380Y-103495714D01*
X263347619Y-104162380D02*
X263919047Y-104162380D01*
X263633333Y-104162380D02*
X263633333Y-103162380D01*
X263728571Y-103305238D01*
X263823809Y-103400476D01*
X263919047Y-103448095D01*
X262919047Y-104067142D02*
X262871428Y-104114761D01*
X262919047Y-104162380D01*
X262966666Y-104114761D01*
X262919047Y-104067142D01*
X262919047Y-104162380D01*
X262252380Y-103162380D02*
X262157142Y-103162380D01*
X262061904Y-103210000D01*
X262014285Y-103257619D01*
X261966666Y-103352857D01*
X261919047Y-103543333D01*
X261919047Y-103781428D01*
X261966666Y-103971904D01*
X262014285Y-104067142D01*
X262061904Y-104114761D01*
X262157142Y-104162380D01*
X262252380Y-104162380D01*
X262347619Y-104114761D01*
X262395238Y-104067142D01*
X262442857Y-103971904D01*
X262490476Y-103781428D01*
X262490476Y-103543333D01*
X262442857Y-103352857D01*
X262395238Y-103257619D01*
X262347619Y-103210000D01*
X262252380Y-103162380D01*
D12*
%TO.C,SW1*%
X32300000Y-80000000D03*
D13*
X32300000Y-82540000D03*
%TD*%
D14*
%TO.C,MX5*%
X112080000Y-38100000D03*
D15*
X117160000Y-38100000D03*
X107000000Y-38100000D03*
D16*
X108270000Y-35560000D03*
X114620000Y-33020000D03*
%TD*%
D15*
%TO.C,MX1*%
X42440000Y-38100000D03*
D14*
X37360000Y-38100000D03*
D15*
X32280000Y-38100000D03*
D16*
X33550000Y-35560000D03*
X39900000Y-33020000D03*
%TD*%
D15*
%TO.C,MX35*%
X181720000Y-76200000D03*
D14*
X186800000Y-76200000D03*
D15*
X191880000Y-76200000D03*
D16*
X182990000Y-73660000D03*
X189340000Y-71120000D03*
%TD*%
D15*
%TO.C,MX47*%
X173200000Y-95250000D03*
X163040000Y-95250000D03*
D14*
X168120000Y-95250000D03*
D16*
X164310000Y-92710000D03*
X170660000Y-90170000D03*
%TD*%
D17*
%TO.C,SW2*%
X146940000Y-83700000D03*
D18*
X151940000Y-83700000D03*
X149440000Y-83700000D03*
X151940000Y-69200000D03*
X146940000Y-69200000D03*
%TD*%
D15*
%TO.C,MX42*%
X79800000Y-95250000D03*
X69640000Y-95250000D03*
D14*
X74720000Y-95250000D03*
D16*
X70910000Y-92710000D03*
X77260000Y-90170000D03*
%TD*%
D14*
%TO.C,MX56*%
X130390000Y-86995000D03*
D19*
X130390000Y-102235000D03*
D14*
X168490000Y-86995000D03*
D15*
X144360000Y-95250000D03*
D14*
X149440000Y-95250000D03*
D15*
X154520000Y-95250000D03*
D19*
X168490000Y-102235000D03*
D16*
X145630000Y-92710000D03*
X151980000Y-90170000D03*
%TD*%
D14*
%TO.C,MX40*%
X37360000Y-95250000D03*
D15*
X32280000Y-95250000D03*
X42440000Y-95250000D03*
D16*
X33550000Y-92710000D03*
X39900000Y-90170000D03*
%TD*%
D19*
%TO.C,MX58*%
X205850000Y-102235000D03*
D15*
X181720000Y-95250000D03*
X191880000Y-95250000D03*
D14*
X167750000Y-86995000D03*
X186800000Y-95250000D03*
D19*
X167750000Y-102235000D03*
D14*
X205850000Y-86995000D03*
D16*
X182990000Y-92710000D03*
X189340000Y-90170000D03*
%TD*%
D15*
%TO.C,MX36*%
X210560000Y-76200000D03*
D14*
X205480000Y-76200000D03*
D15*
X200400000Y-76200000D03*
D16*
X201670000Y-73660000D03*
X208020000Y-71120000D03*
%TD*%
D15*
%TO.C,MX29*%
X79800000Y-76200000D03*
X69640000Y-76200000D03*
D14*
X74720000Y-76200000D03*
D16*
X70910000Y-73660000D03*
X77260000Y-71120000D03*
%TD*%
D15*
%TO.C,MX15*%
X61120000Y-57150000D03*
D14*
X56040000Y-57150000D03*
D15*
X50960000Y-57150000D03*
D16*
X52230000Y-54610000D03*
X58580000Y-52070000D03*
%TD*%
D15*
%TO.C,MX22*%
X191880000Y-57150000D03*
D14*
X186800000Y-57150000D03*
D15*
X181720000Y-57150000D03*
D16*
X182990000Y-54610000D03*
X189340000Y-52070000D03*
%TD*%
D15*
%TO.C,MX55*%
X154520000Y-95250000D03*
D14*
X206590000Y-86995000D03*
X92290000Y-86995000D03*
D19*
X92290000Y-102235000D03*
D15*
X144360000Y-95250000D03*
D14*
X149440000Y-95250000D03*
D19*
X206590000Y-102235000D03*
D16*
X145630000Y-92710000D03*
X151980000Y-90170000D03*
%TD*%
D14*
%TO.C,MX11*%
X224160000Y-38100000D03*
D15*
X229240000Y-38100000D03*
X219080000Y-38100000D03*
D16*
X220350000Y-35560000D03*
X226700000Y-33020000D03*
%TD*%
D20*
%TO.C,H1*%
X59321000Y-47625000D03*
%TD*%
D15*
%TO.C,MX7*%
X154520000Y-38100000D03*
D14*
X149440000Y-38100000D03*
D15*
X144360000Y-38100000D03*
D16*
X145630000Y-35560000D03*
X151980000Y-33020000D03*
%TD*%
D15*
%TO.C,MX48*%
X191880000Y-95250000D03*
X181720000Y-95250000D03*
D14*
X186800000Y-95250000D03*
D16*
X182990000Y-92710000D03*
X189340000Y-90170000D03*
%TD*%
D14*
%TO.C,MX6*%
X130760000Y-38100000D03*
D15*
X125680000Y-38100000D03*
X135840000Y-38100000D03*
D16*
X126950000Y-35560000D03*
X133300000Y-33020000D03*
%TD*%
D15*
%TO.C,MX44*%
X112080000Y-100330000D03*
X112080000Y-90170000D03*
D14*
X112080000Y-95250000D03*
D16*
X114620000Y-91440000D03*
X117160000Y-97790000D03*
%TD*%
D15*
%TO.C,MX27*%
X32280000Y-76200000D03*
X42440000Y-76200000D03*
D14*
X37360000Y-76200000D03*
D16*
X33550000Y-73660000D03*
X39900000Y-71120000D03*
%TD*%
D15*
%TO.C,MX2*%
X50960000Y-38100000D03*
D14*
X56040000Y-38100000D03*
D15*
X61120000Y-38100000D03*
D16*
X52230000Y-35560000D03*
X58580000Y-33020000D03*
%TD*%
D14*
%TO.C,MX19*%
X130760000Y-57150000D03*
D15*
X135840000Y-57150000D03*
X125680000Y-57150000D03*
D16*
X126950000Y-54610000D03*
X133300000Y-52070000D03*
%TD*%
D15*
%TO.C,MX53*%
X116340000Y-95244000D03*
D14*
X121420000Y-95244000D03*
X109513750Y-86989000D03*
X133326250Y-86989000D03*
D19*
X109513750Y-102229000D03*
D15*
X126500000Y-95244000D03*
D19*
X133326250Y-102229000D03*
D16*
X117610000Y-92704000D03*
X123960000Y-90164000D03*
%TD*%
D14*
%TO.C,MX46*%
X149440000Y-95250000D03*
D15*
X144360000Y-95250000D03*
X154520000Y-95250000D03*
D16*
X145630000Y-92710000D03*
X151980000Y-90170000D03*
%TD*%
D14*
%TO.C,MX52*%
X261520000Y-95250000D03*
D15*
X256440000Y-95250000D03*
X266600000Y-95250000D03*
D16*
X257710000Y-92710000D03*
X264060000Y-90170000D03*
%TD*%
D15*
%TO.C,MX49*%
X205480000Y-100330000D03*
D14*
X205480000Y-95250000D03*
D15*
X205480000Y-90170000D03*
D16*
X202940000Y-99060000D03*
X200400000Y-92710000D03*
%TD*%
D15*
%TO.C,MX24*%
X229240000Y-57150000D03*
X219080000Y-57150000D03*
D14*
X224160000Y-57150000D03*
D16*
X220350000Y-54610000D03*
X226700000Y-52070000D03*
%TD*%
D14*
%TO.C,MX32*%
X130760000Y-76200000D03*
D15*
X135840000Y-76200000D03*
X125680000Y-76200000D03*
D16*
X126950000Y-73660000D03*
X133300000Y-71120000D03*
%TD*%
D14*
%TO.C,MX39*%
X261520000Y-76200000D03*
D15*
X266600000Y-76200000D03*
X256440000Y-76200000D03*
D16*
X257710000Y-73660000D03*
X264060000Y-71120000D03*
%TD*%
D14*
%TO.C,MX21*%
X168120000Y-57150000D03*
D15*
X163040000Y-57150000D03*
X173200000Y-57150000D03*
D16*
X164310000Y-54610000D03*
X170660000Y-52070000D03*
%TD*%
D15*
%TO.C,MX12*%
X237760000Y-38100000D03*
X247920000Y-38100000D03*
D14*
X242840000Y-38100000D03*
D16*
X246650000Y-40640000D03*
X240300000Y-43180000D03*
%TD*%
D14*
%TO.C,MX33*%
X149440000Y-76200000D03*
D15*
X144360000Y-76200000D03*
X154520000Y-76200000D03*
D16*
X145630000Y-73660000D03*
X151980000Y-71120000D03*
%TD*%
D15*
%TO.C,MX57*%
X172380000Y-95244000D03*
D14*
X165553750Y-86989000D03*
X177460000Y-95244000D03*
D19*
X189366250Y-102229000D03*
D14*
X189366250Y-86989000D03*
D15*
X182540000Y-95244000D03*
D19*
X165553750Y-102229000D03*
D16*
X173650000Y-92704000D03*
X180000000Y-90164000D03*
%TD*%
D15*
%TO.C,MX23*%
X210560000Y-57150000D03*
X200400000Y-57150000D03*
D14*
X205480000Y-57150000D03*
D16*
X201670000Y-54610000D03*
X208020000Y-52070000D03*
%TD*%
D20*
%TO.C,H2*%
X135521000Y-47625000D03*
%TD*%
D15*
%TO.C,MX17*%
X98480000Y-57150000D03*
X88320000Y-57150000D03*
D14*
X93400000Y-57150000D03*
D16*
X89590000Y-54610000D03*
X95940000Y-52070000D03*
%TD*%
D14*
%TO.C,MX30*%
X93400000Y-76200000D03*
D15*
X88320000Y-76200000D03*
X98480000Y-76200000D03*
D16*
X89590000Y-73660000D03*
X95940000Y-71120000D03*
%TD*%
D14*
%TO.C,MX41*%
X56040000Y-95250000D03*
D15*
X50960000Y-95250000D03*
X61120000Y-95250000D03*
D16*
X52230000Y-92710000D03*
X58580000Y-90170000D03*
%TD*%
D15*
%TO.C,MX9*%
X191880000Y-38100000D03*
D14*
X186800000Y-38100000D03*
D15*
X181720000Y-38100000D03*
D16*
X182990000Y-35560000D03*
X189340000Y-33020000D03*
%TD*%
D14*
%TO.C,MX51*%
X242840000Y-95250000D03*
D15*
X237760000Y-95250000D03*
X247920000Y-95250000D03*
D16*
X239030000Y-92710000D03*
X245380000Y-90170000D03*
%TD*%
D20*
%TO.C,H3*%
X166171000Y-66675000D03*
%TD*%
D14*
%TO.C,MX10*%
X205480000Y-38100000D03*
D15*
X210560000Y-38100000D03*
X200400000Y-38100000D03*
D16*
X201670000Y-35560000D03*
X208020000Y-33020000D03*
%TD*%
D15*
%TO.C,MX8*%
X173200000Y-38100000D03*
X163040000Y-38100000D03*
D14*
X168120000Y-38100000D03*
D16*
X164310000Y-35560000D03*
X170660000Y-33020000D03*
%TD*%
D15*
%TO.C,MX3*%
X69640000Y-38100000D03*
X79800000Y-38100000D03*
D14*
X74720000Y-38100000D03*
D16*
X70910000Y-35560000D03*
X77260000Y-33020000D03*
%TD*%
D15*
%TO.C,MX20*%
X154520000Y-57150000D03*
X144360000Y-57150000D03*
D14*
X149440000Y-57150000D03*
D16*
X145630000Y-54610000D03*
X151980000Y-52070000D03*
%TD*%
D15*
%TO.C,MX31*%
X107000000Y-76200000D03*
X117160000Y-76200000D03*
D14*
X112080000Y-76200000D03*
D16*
X108270000Y-73660000D03*
X114620000Y-71120000D03*
%TD*%
D15*
%TO.C,MX18*%
X117160000Y-57150000D03*
D14*
X112080000Y-57150000D03*
D15*
X107000000Y-57150000D03*
D16*
X108270000Y-54610000D03*
X114620000Y-52070000D03*
%TD*%
D15*
%TO.C,MX4*%
X88320000Y-38100000D03*
D14*
X93400000Y-38100000D03*
D15*
X98480000Y-38100000D03*
D16*
X89590000Y-35560000D03*
X95940000Y-33020000D03*
%TD*%
D15*
%TO.C,MX54*%
X112080000Y-100330000D03*
D19*
X93030000Y-102235000D03*
D14*
X112080000Y-95250000D03*
X93030000Y-86995000D03*
X131130000Y-86995000D03*
D19*
X131130000Y-102235000D03*
D15*
X112080000Y-90170000D03*
D16*
X114620000Y-91440000D03*
X117160000Y-97790000D03*
%TD*%
D15*
%TO.C,MX28*%
X50960000Y-76200000D03*
X61120000Y-76200000D03*
D14*
X56040000Y-76200000D03*
D16*
X52230000Y-73660000D03*
X58580000Y-71120000D03*
%TD*%
D15*
%TO.C,MX38*%
X237760000Y-76200000D03*
X247920000Y-76200000D03*
D14*
X242840000Y-76200000D03*
D16*
X239030000Y-73660000D03*
X245380000Y-71120000D03*
%TD*%
D15*
%TO.C,MX26*%
X266600000Y-57150000D03*
D14*
X261520000Y-57150000D03*
D15*
X256440000Y-57150000D03*
D16*
X257710000Y-54610000D03*
X264060000Y-52070000D03*
%TD*%
D15*
%TO.C,MX25*%
X237760000Y-57150000D03*
X247920000Y-57150000D03*
D14*
X242840000Y-57150000D03*
D16*
X239030000Y-54610000D03*
X245380000Y-52070000D03*
%TD*%
D15*
%TO.C,MX16*%
X69640000Y-57150000D03*
X79800000Y-57150000D03*
D14*
X74720000Y-57150000D03*
D16*
X70910000Y-54610000D03*
X77260000Y-52070000D03*
%TD*%
D14*
%TO.C,MX34*%
X168120000Y-76200000D03*
D15*
X163040000Y-76200000D03*
X173200000Y-76200000D03*
D16*
X164310000Y-73660000D03*
X170660000Y-71120000D03*
%TD*%
D14*
%TO.C,MX45*%
X130760000Y-95250000D03*
D15*
X135840000Y-95250000D03*
X125680000Y-95250000D03*
D16*
X126950000Y-92710000D03*
X133300000Y-90170000D03*
%TD*%
D15*
%TO.C,MX37*%
X219080000Y-76200000D03*
X229240000Y-76200000D03*
D14*
X224160000Y-76200000D03*
D16*
X220350000Y-73660000D03*
X226700000Y-71120000D03*
%TD*%
D15*
%TO.C,MX14*%
X42440000Y-57150000D03*
X32280000Y-57150000D03*
D14*
X37360000Y-57150000D03*
D16*
X33550000Y-54610000D03*
X39900000Y-52070000D03*
%TD*%
D15*
%TO.C,MX13*%
X266600000Y-38100000D03*
X256440000Y-38100000D03*
D14*
X261520000Y-38100000D03*
D16*
X257710000Y-35560000D03*
X264060000Y-33020000D03*
%TD*%
D14*
%TO.C,MX43*%
X93400000Y-95250000D03*
D15*
X98480000Y-95250000D03*
X88320000Y-95250000D03*
D16*
X89590000Y-92710000D03*
X95940000Y-90170000D03*
%TD*%
D15*
%TO.C,MX50*%
X229240000Y-95250000D03*
D14*
X224160000Y-95250000D03*
D15*
X219080000Y-95250000D03*
D16*
X220350000Y-92710000D03*
X226700000Y-90170000D03*
%TD*%
D21*
%TO.C,D16*%
X77800000Y-59590100D03*
X77800000Y-56290100D03*
%TD*%
%TO.C,D33*%
X152500000Y-78638900D03*
X152500000Y-75338900D03*
%TD*%
%TO.C,D28*%
X59100000Y-78638900D03*
X59100000Y-75338900D03*
%TD*%
%TO.C,D22*%
X189900000Y-59590100D03*
X189900000Y-56290100D03*
%TD*%
%TO.C,D7*%
X152500000Y-40541300D03*
X152500000Y-37241300D03*
%TD*%
D22*
%TO.C,C4*%
X257375000Y-58900000D03*
X255825000Y-58900000D03*
%TD*%
D21*
%TO.C,D27*%
X40500000Y-78638900D03*
X40500000Y-75338900D03*
%TD*%
%TO.C,D40*%
X40500000Y-97687700D03*
X40500000Y-94387700D03*
%TD*%
%TO.C,D14*%
X40500000Y-59590100D03*
X40500000Y-56290100D03*
%TD*%
D23*
%TO.C,U2*%
X232400000Y-40170000D03*
D24*
X232400000Y-38450000D03*
X234600000Y-38450000D03*
X234600000Y-40350000D03*
%TD*%
D21*
%TO.C,D39*%
X264600000Y-78638900D03*
X264600000Y-75338900D03*
%TD*%
D25*
%TO.C,R7*%
X234825000Y-32800000D03*
X233175000Y-32800000D03*
%TD*%
D21*
%TO.C,D49*%
X198000000Y-97687700D03*
X198000000Y-94387700D03*
%TD*%
D25*
%TO.C,R4*%
X261125000Y-71200000D03*
X259475000Y-71200000D03*
%TD*%
D22*
%TO.C,C6*%
X249675000Y-59500000D03*
X248125000Y-59500000D03*
%TD*%
D21*
%TO.C,D36*%
X208600000Y-78638900D03*
X208600000Y-75338900D03*
%TD*%
%TO.C,D23*%
X208600000Y-59590100D03*
X208600000Y-56290100D03*
%TD*%
%TO.C,D5*%
X115200000Y-40541300D03*
X115200000Y-37241300D03*
%TD*%
D26*
%TO.C,USB1*%
X244008000Y-32327500D03*
X238228000Y-32327500D03*
D27*
X237893000Y-33772500D03*
X238668000Y-33772500D03*
D28*
X239368000Y-33772500D03*
X239868000Y-33772500D03*
X240368000Y-33772500D03*
X240868000Y-33772500D03*
X241368000Y-33772500D03*
X241868000Y-33772500D03*
X242368000Y-33772500D03*
X242868000Y-33772500D03*
D27*
X243568000Y-33772500D03*
X244343000Y-33772500D03*
%TD*%
D21*
%TO.C,D6*%
X133800000Y-40541300D03*
X133800000Y-37241300D03*
%TD*%
%TO.C,D18*%
X115200000Y-59590100D03*
X115200000Y-56290100D03*
%TD*%
%TO.C,D10*%
X208600000Y-40541300D03*
X208600000Y-37241300D03*
%TD*%
D23*
%TO.C,Y1*%
X251800000Y-56150000D03*
X254000000Y-56150000D03*
X254000000Y-57850000D03*
X251800000Y-57850000D03*
%TD*%
D21*
%TO.C,D3*%
X77800000Y-40541300D03*
X77800000Y-37241300D03*
%TD*%
%TO.C,D29*%
X77800000Y-78638900D03*
X77800000Y-75338900D03*
%TD*%
D29*
%TO.C,R3*%
X234600000Y-44725000D03*
X234600000Y-43075000D03*
%TD*%
D21*
%TO.C,D25*%
X245900000Y-59590100D03*
X245900000Y-56290100D03*
%TD*%
%TO.C,D2*%
X59200000Y-40541300D03*
X59200000Y-37241300D03*
%TD*%
%TO.C,D30*%
X96500000Y-78638900D03*
X96500000Y-75338900D03*
%TD*%
D30*
%TO.C,U1*%
X253225305Y-61689897D03*
X253790990Y-62255583D03*
X254356676Y-62821268D03*
X254922361Y-63386953D03*
X255488047Y-63952639D03*
X256053732Y-64518324D03*
X256619417Y-65084010D03*
X257185103Y-65649695D03*
D31*
X257185103Y-67700305D03*
X256619417Y-68265990D03*
X256053732Y-68831676D03*
X255488047Y-69397361D03*
X254922361Y-69963047D03*
X254356676Y-70528732D03*
X253790990Y-71094417D03*
X253225305Y-71660103D03*
D30*
X251174695Y-71660103D03*
X250609010Y-71094417D03*
X250043324Y-70528732D03*
X249477639Y-69963047D03*
X248911953Y-69397361D03*
X248346268Y-68831676D03*
X247780583Y-68265990D03*
X247214897Y-67700305D03*
D31*
X247214897Y-65649695D03*
X247780583Y-65084010D03*
X248346268Y-64518324D03*
X248911953Y-63952639D03*
X249477639Y-63386953D03*
X250043324Y-62821268D03*
X250609010Y-62255583D03*
X251174695Y-61689897D03*
%TD*%
D21*
%TO.C,D9*%
X189900000Y-40541300D03*
X189900000Y-37241300D03*
%TD*%
D22*
%TO.C,C3*%
X243875000Y-64000000D03*
X242325000Y-64000000D03*
%TD*%
D21*
%TO.C,D43*%
X96500000Y-97687700D03*
X96500000Y-94387700D03*
%TD*%
%TO.C,D24*%
X227300000Y-59590100D03*
X227300000Y-56290100D03*
%TD*%
D29*
%TO.C,R2*%
X232400000Y-44725000D03*
X232400000Y-43075000D03*
%TD*%
D21*
%TO.C,D15*%
X59100000Y-59590100D03*
X59100000Y-56290100D03*
%TD*%
%TO.C,D35*%
X189900000Y-78638900D03*
X189900000Y-75338900D03*
%TD*%
%TO.C,D52*%
X264600000Y-97687700D03*
X264600000Y-94387700D03*
%TD*%
%TO.C,D31*%
X115200000Y-78638900D03*
X115200000Y-75338900D03*
%TD*%
%TO.C,D48*%
X189900000Y-97687700D03*
X189900000Y-94387700D03*
%TD*%
%TO.C,D45*%
X133900000Y-97687700D03*
X133900000Y-94387700D03*
%TD*%
%TO.C,D17*%
X96500000Y-59590100D03*
X96500000Y-56290100D03*
%TD*%
%TO.C,D37*%
X227300000Y-78638900D03*
X227300000Y-75338900D03*
%TD*%
D32*
%TO.C,R1*%
X242075000Y-68900000D03*
X243725000Y-68900000D03*
%TD*%
D21*
%TO.C,D46*%
X152500000Y-97687700D03*
X152500000Y-94387700D03*
%TD*%
%TO.C,D32*%
X133900000Y-78638900D03*
X133900000Y-75338900D03*
%TD*%
%TO.C,D34*%
X171200000Y-78638900D03*
X171200000Y-75338900D03*
%TD*%
%TO.C,D19*%
X133800000Y-59590100D03*
X133800000Y-56290100D03*
%TD*%
%TO.C,D47*%
X170900000Y-100068800D03*
X170900000Y-96768800D03*
%TD*%
D33*
%TO.C,F1*%
X252200000Y-39500000D03*
X252200000Y-36700000D03*
%TD*%
D21*
%TO.C,D42*%
X77800000Y-97687700D03*
X77800000Y-94387700D03*
%TD*%
D25*
%TO.C,R5*%
X234825000Y-30800000D03*
X233175000Y-30800000D03*
%TD*%
D22*
%TO.C,C5*%
X246575000Y-61300000D03*
X245025000Y-61300000D03*
%TD*%
D32*
%TO.C,R6*%
X247275000Y-30800000D03*
X248925000Y-30800000D03*
%TD*%
D21*
%TO.C,D21*%
X171200000Y-59590100D03*
X171200000Y-56290100D03*
%TD*%
%TO.C,D11*%
X227200000Y-40541300D03*
X227200000Y-37241300D03*
%TD*%
%TO.C,D44*%
X121200000Y-101656200D03*
X121200000Y-98356200D03*
%TD*%
%TO.C,D38*%
X246000000Y-78638900D03*
X246000000Y-75338900D03*
%TD*%
%TO.C,D12*%
X243500000Y-44509800D03*
X243500000Y-41209800D03*
%TD*%
%TO.C,D1*%
X40500000Y-40541300D03*
X40500000Y-37241300D03*
%TD*%
%TO.C,D50*%
X227200000Y-97687700D03*
X227200000Y-94387700D03*
%TD*%
%TO.C,D8*%
X171200000Y-40541300D03*
X171200000Y-37241300D03*
%TD*%
D34*
%TO.C,C7*%
X258251992Y-61048008D03*
X259348008Y-59951992D03*
%TD*%
D21*
%TO.C,D20*%
X152500000Y-59590100D03*
X152500000Y-56290100D03*
%TD*%
%TO.C,D41*%
X59100000Y-97687700D03*
X59100000Y-94387700D03*
%TD*%
D22*
%TO.C,C1*%
X248875000Y-32800000D03*
X247325000Y-32800000D03*
%TD*%
D21*
%TO.C,D13*%
X264600000Y-40541300D03*
X264600000Y-37241300D03*
%TD*%
%TO.C,D26*%
X264600000Y-59590100D03*
X264600000Y-56290100D03*
%TD*%
D35*
%TO.C,C2*%
X249800000Y-55825000D03*
X249800000Y-57375000D03*
%TD*%
D21*
%TO.C,D51*%
X245900000Y-97687700D03*
X245900000Y-94387700D03*
%TD*%
%TO.C,D4*%
X96500000Y-40541300D03*
X96500000Y-37241300D03*
%TD*%
M02*
