M48
; DRILL file {KiCad (5.99.0-11145-g173c9a974c)} date Tue Jul 27 16:02:09 2021
; FORMAT={-:-/ absolute / metric / decimal}
; #@! TF.CreationDate,2021-07-27T16:02:09-07:00
; #@! TF.GenerationSoftware,Kicad,Pcbnew,(5.99.0-11145-g173c9a974c)
; #@! TF.FileFunction,NonPlated,1,2,NPTH
FMAT,2
METRIC
; #@! TA.AperFunction,NonPlated,NPTH,ComponentDrill
T1C0.650
; #@! TA.AperFunction,NonPlated,NPTH,ComponentDrill
T2C1.750
; #@! TA.AperFunction,NonPlated,NPTH,ComponentDrill
T3C3.048
; #@! TA.AperFunction,NonPlated,NPTH,ComponentDrill
T4C3.988
%
G90
G05
T1
X238.228Y-32.328
X244.008Y-32.328
T2
X32.28Y-38.1
X32.28Y-57.15
X32.28Y-76.2
X32.28Y-95.25
X42.44Y-38.1
X42.44Y-57.15
X42.44Y-76.2
X42.44Y-95.25
X50.96Y-38.1
X50.96Y-57.15
X50.96Y-76.2
X50.96Y-95.25
X61.12Y-38.1
X61.12Y-57.15
X61.12Y-76.2
X61.12Y-95.25
X69.64Y-38.1
X69.64Y-57.15
X69.64Y-76.2
X69.64Y-95.25
X79.8Y-38.1
X79.8Y-57.15
X79.8Y-76.2
X79.8Y-95.25
X88.32Y-38.1
X88.32Y-57.15
X88.32Y-76.2
X88.32Y-95.25
X98.48Y-38.1
X98.48Y-57.15
X98.48Y-76.2
X98.48Y-95.25
X107.0Y-38.1
X107.0Y-57.15
X107.0Y-76.2
X112.08Y-90.17
X112.08Y-90.17
X112.08Y-100.33
X112.08Y-100.33
X116.34Y-95.244
X117.16Y-38.1
X117.16Y-57.15
X117.16Y-76.2
X125.68Y-38.1
X125.68Y-57.15
X125.68Y-76.2
X125.68Y-95.25
X126.5Y-95.244
X135.84Y-38.1
X135.84Y-57.15
X135.84Y-76.2
X135.84Y-95.25
X144.36Y-38.1
X144.36Y-57.15
X144.36Y-76.2
X144.36Y-95.25
X144.36Y-95.25
X144.36Y-95.25
X154.52Y-38.1
X154.52Y-57.15
X154.52Y-76.2
X154.52Y-95.25
X154.52Y-95.25
X154.52Y-95.25
X163.04Y-38.1
X163.04Y-57.15
X163.04Y-76.2
X163.04Y-95.25
X172.38Y-95.244
X173.2Y-38.1
X173.2Y-57.15
X173.2Y-76.2
X173.2Y-95.25
X181.72Y-38.1
X181.72Y-57.15
X181.72Y-76.2
X181.72Y-95.25
X181.72Y-95.25
X182.54Y-95.244
X191.88Y-38.1
X191.88Y-57.15
X191.88Y-76.2
X191.88Y-95.25
X191.88Y-95.25
X200.4Y-38.1
X200.4Y-57.15
X200.4Y-76.2
X205.48Y-90.17
X205.48Y-100.33
X210.56Y-38.1
X210.56Y-57.15
X210.56Y-76.2
X219.08Y-38.1
X219.08Y-57.15
X219.08Y-76.2
X219.08Y-95.25
X229.24Y-38.1
X229.24Y-57.15
X229.24Y-76.2
X229.24Y-95.25
X237.76Y-38.1
X237.76Y-57.15
X237.76Y-76.2
X237.76Y-95.25
X247.92Y-38.1
X247.92Y-57.15
X247.92Y-76.2
X247.92Y-95.25
X256.44Y-38.1
X256.44Y-57.15
X256.44Y-76.2
X256.44Y-95.25
X266.6Y-38.1
X266.6Y-57.15
X266.6Y-76.2
X266.6Y-95.25
T3
X92.29Y-102.235
X93.03Y-102.235
X109.514Y-102.229
X130.39Y-102.235
X131.13Y-102.235
X133.326Y-102.229
X165.554Y-102.229
X167.75Y-102.235
X168.49Y-102.235
X189.366Y-102.229
X205.85Y-102.235
X206.59Y-102.235
T4
X37.36Y-38.1
X37.36Y-57.15
X37.36Y-76.2
X37.36Y-95.25
X56.04Y-38.1
X56.04Y-57.15
X56.04Y-76.2
X56.04Y-95.25
X74.72Y-38.1
X74.72Y-57.15
X74.72Y-76.2
X74.72Y-95.25
X92.29Y-86.995
X93.03Y-86.995
X93.4Y-38.1
X93.4Y-57.15
X93.4Y-76.2
X93.4Y-95.25
X109.514Y-86.989
X112.08Y-38.1
X112.08Y-57.15
X112.08Y-76.2
X112.08Y-95.25
X112.08Y-95.25
X121.42Y-95.244
X130.39Y-86.995
X130.76Y-38.1
X130.76Y-57.15
X130.76Y-76.2
X130.76Y-95.25
X131.13Y-86.995
X133.326Y-86.989
X149.44Y-38.1
X149.44Y-57.15
X149.44Y-76.2
X149.44Y-95.25
X149.44Y-95.25
X149.44Y-95.25
X165.554Y-86.989
X167.75Y-86.995
X168.12Y-38.1
X168.12Y-57.15
X168.12Y-76.2
X168.12Y-95.25
X168.49Y-86.995
X177.46Y-95.244
X186.8Y-38.1
X186.8Y-57.15
X186.8Y-76.2
X186.8Y-95.25
X186.8Y-95.25
X189.366Y-86.989
X205.48Y-38.1
X205.48Y-57.15
X205.48Y-76.2
X205.48Y-95.25
X205.85Y-86.995
X206.59Y-86.995
X224.16Y-38.1
X224.16Y-57.15
X224.16Y-76.2
X224.16Y-95.25
X242.84Y-38.1
X242.84Y-57.15
X242.84Y-76.2
X242.84Y-95.25
X261.52Y-38.1
X261.52Y-57.15
X261.52Y-76.2
X261.52Y-95.25
T0
M30
