M48
; DRILL file {KiCad (5.99.0-11145-g173c9a974c)} date Tue Jul 27 16:02:09 2021
; FORMAT={-:-/ absolute / metric / decimal}
; #@! TF.CreationDate,2021-07-27T16:02:09-07:00
; #@! TF.GenerationSoftware,Kicad,Pcbnew,(5.99.0-11145-g173c9a974c)
; #@! TF.FileFunction,Plated,1,2,PTH
FMAT,2
METRIC
; #@! TA.AperFunction,Plated,PTH,ViaDrill
T1C0.400
; #@! TA.AperFunction,Plated,PTH,ComponentDrill
T2C0.600
; #@! TA.AperFunction,Plated,PTH,ComponentDrill
T3C1.000
; #@! TA.AperFunction,Plated,PTH,ComponentDrill
T4C1.470
; #@! TA.AperFunction,Plated,PTH,ComponentDrill
T5C2.200
%
G90
G05
T1
X32.3Y-78.918
X76.559Y-82.849
X136.303Y-61.133
X152.575Y-60.982
X160.403Y-79.366
X166.095Y-82.83
X166.5Y-84.4
X167.3Y-83.5
X167.766Y-68.889
X183.8Y-84.6
X191.7Y-85.325
X204.45Y-82.83
X205.5Y-82.825
X205.5Y-84.0
X221.173Y-41.66
X221.2Y-82.825
X221.2Y-83.9
X225.9Y-78.352
X227.626Y-64.257
X228.852Y-80.722
X230.009Y-79.569
X231.1Y-40.2
X232.146Y-31.368
X232.156Y-53.305
X232.905Y-61.643
X234.591Y-73.409
X236.2Y-30.8
X237.04Y-34.823
X239.0Y-35.7
X239.762Y-87.91
X240.089Y-31.988
X240.221Y-86.426
X240.24Y-61.481
X241.08Y-36.28
X241.426Y-64.765
X242.1Y-31.9
X242.1Y-67.7
X243.972Y-60.874
X244.684Y-59.103
X245.084Y-80.522
X245.196Y-34.823
X245.8Y-30.8
X246.355Y-42.76
X247.3Y-69.803
X247.509Y-81.264
X248.8Y-60.7
X249.782Y-68.152
X249.894Y-78.359
X249.918Y-64.958
X249.931Y-31.368
X251.633Y-68.889
X252.2Y-62.864
X253.186Y-69.428
X253.526Y-64.927
X255.314Y-55.877
X255.931Y-73.364
X255.98Y-54.076
X256.333Y-42.551
X259.401Y-61.116
X260.514Y-59.952
X260.577Y-80.522
X261.125Y-72.322
X263.1Y-64.13
X263.836Y-61.019
X264.5Y-63.3
X265.351Y-73.578
T3
X32.3Y-80.0
X32.3Y-82.54
X146.94Y-69.2
X146.94Y-83.7
X149.44Y-83.7
X151.94Y-69.2
X151.94Y-83.7
T4
X33.55Y-35.56
X33.55Y-54.61
X33.55Y-73.66
X33.55Y-92.71
X39.9Y-33.02
X39.9Y-52.07
X39.9Y-71.12
X39.9Y-90.17
X52.23Y-35.56
X52.23Y-54.61
X52.23Y-73.66
X52.23Y-92.71
X58.58Y-33.02
X58.58Y-52.07
X58.58Y-71.12
X58.58Y-90.17
X70.91Y-35.56
X70.91Y-54.61
X70.91Y-73.66
X70.91Y-92.71
X77.26Y-33.02
X77.26Y-52.07
X77.26Y-71.12
X77.26Y-90.17
X89.59Y-35.56
X89.59Y-54.61
X89.59Y-73.66
X89.59Y-92.71
X95.94Y-33.02
X95.94Y-52.07
X95.94Y-71.12
X95.94Y-90.17
X108.27Y-35.56
X108.27Y-54.61
X108.27Y-73.66
X114.62Y-33.02
X114.62Y-52.07
X114.62Y-71.12
X114.62Y-91.44
X114.62Y-91.44
X117.16Y-97.79
X117.16Y-97.79
X117.61Y-92.704
X123.96Y-90.164
X126.95Y-35.56
X126.95Y-54.61
X126.95Y-73.66
X126.95Y-92.71
X133.3Y-33.02
X133.3Y-52.07
X133.3Y-71.12
X133.3Y-90.17
X145.63Y-35.56
X145.63Y-54.61
X145.63Y-73.66
X145.63Y-92.71
X145.63Y-92.71
X145.63Y-92.71
X151.98Y-33.02
X151.98Y-52.07
X151.98Y-71.12
X151.98Y-90.17
X151.98Y-90.17
X151.98Y-90.17
X164.31Y-35.56
X164.31Y-54.61
X164.31Y-73.66
X164.31Y-92.71
X170.66Y-33.02
X170.66Y-52.07
X170.66Y-71.12
X170.66Y-90.17
X173.65Y-92.704
X180.0Y-90.164
X182.99Y-35.56
X182.99Y-54.61
X182.99Y-73.66
X182.99Y-92.71
X182.99Y-92.71
X189.34Y-33.02
X189.34Y-52.07
X189.34Y-71.12
X189.34Y-90.17
X189.34Y-90.17
X200.4Y-92.71
X201.67Y-35.56
X201.67Y-54.61
X201.67Y-73.66
X202.94Y-99.06
X208.02Y-33.02
X208.02Y-52.07
X208.02Y-71.12
X220.35Y-35.56
X220.35Y-54.61
X220.35Y-73.66
X220.35Y-92.71
X226.7Y-33.02
X226.7Y-52.07
X226.7Y-71.12
X226.7Y-90.17
X239.03Y-54.61
X239.03Y-73.66
X239.03Y-92.71
X240.3Y-43.18
X245.38Y-52.07
X245.38Y-71.12
X245.38Y-90.17
X246.65Y-40.64
X257.71Y-35.56
X257.71Y-54.61
X257.71Y-73.66
X257.71Y-92.71
X264.06Y-33.02
X264.06Y-52.07
X264.06Y-71.12
X264.06Y-90.17
T5
X59.321Y-47.625
X135.521Y-47.625
X166.171Y-66.675
T2
G00X236.798Y-28.377
M15
G01X236.798Y-28.977
M16
G05
G00X236.798Y-32.307
M15
G01X236.798Y-33.407
M16
G05
G00X245.438Y-28.377
M15
G01X245.438Y-28.977
M16
G05
G00X245.438Y-32.307
M15
G01X245.438Y-33.407
M16
G05
T0
M30
